<svg xmlns="http://www.w3.org/2000/svg" width="130" height="130" version="1.0" viewBox="0 0 97.5 97.5"><defs><clipPath id="a"><path d="M0 0h96.746v96.746H0Zm0 0"/></clipPath><clipPath id="b"><path d="M48.371 0C21.656 0 0 21.656 0 48.371 0 75.09 21.656 96.746 48.371 96.746c26.719 0 48.375-21.656 48.375-48.375C96.746 21.656 75.09 0 48.371 0m0 0"/></clipPath><clipPath id="c"><path d="M17.473 17.61h64.172v64.17H17.473Zm0 0"/></clipPath></defs><g clip-path="url(#a)"><g clip-path="url(#b)"><path fill="none" stroke="#1d2896" stroke-width="2.985" d="M48.371 0C21.656 0 0 21.656 0 48.371 0 75.09 21.656 96.746 48.371 96.746c26.719 0 48.375-21.656 48.375-48.375C96.746 21.656 75.09 0 48.371 0Zm0 0"/></g></g><g clip-path="url(#c)"><path fill="#1d2896" d="M77.148 68.758h-55.41a2.135 2.135 0 0 1-2.133-2.13v-2.132h59.676v2.133a2.135 2.135 0 0 1-2.133 2.129m-19.687 5.328H41.426l1.277-3.195h13.48Zm6.902 3.2.004 2.128H34.523v-2.129c0-.586.48-1.066 1.067-1.066h27.707c.586 0 1.066.48 1.066 1.066M21.738 21.87h14.41a9.53 9.53 0 0 0-1.625 5.328v3.2a3.19 3.19 0 0 0 2.188 3.027 7.43 7.43 0 0 0 3.14 5.21V40.2l-3.523.781a7.704 7.704 0 0 0-6.066 7.567v13.82H19.605V24.004c0-1.176.957-2.133 2.133-2.133m22.375-2.129c4.114 0 7.461 3.344 7.461 7.457v.192l-.117-.047a3.27 3.27 0 0 0-1.617-2 3.25 3.25 0 0 0-3.313.14c-.656.43-1.468.649-2.414.649-.945 0-1.754-.219-2.41-.645a3.24 3.24 0 0 0-3.312-.144 3.24 3.24 0 0 0-1.618 2l-.117.047v-.192c0-4.113 3.348-7.457 7.457-7.457m23.664 25.844c.758-.484 1.825-.297 2.332.414.23.32.313.7.243 1.07-.079.395-.32.739-.696.98-.09.06-.187.106-.27.134-1.25.359-2.34 1.027-3.195 1.652l-.964-1.031c.828-.79 1.691-1.77 2.285-2.98.035-.067.125-.153.265-.24m-27.351-3.328c.34.426.867.96 1.648 1.375a6.1 6.1 0 0 0-.847 1.777.4.4 0 0 1-.266.262.42.42 0 0 1-.395-.059c-1.086-.793-1.785-1.933-2.222-2.894Zm3.687-2.27a7.6 7.6 0 0 0 2.133-.312v1.101c-.215.34-.836 1.086-2.133 1.325-1.3-.239-1.918-.997-2.129-1.32v-1.106a7.5 7.5 0 0 0 2.13.312m0-2.133a5.335 5.335 0 0 1-5.328-5.328c0-.586-.476-1.066-1.062-1.066a1.064 1.064 0 1 1 0-2.129c.582 0 1.054-.562 1.062-1.145.012-.41.235-.765.606-.96a1.1 1.1 0 0 1 .539-.141c.215 0 .422.059.605.18 1.008.664 2.215 1 3.578 1 1.367 0 2.575-.336 3.586-1 .34-.223.77-.243 1.14-.04.372.196.595.551.602 1.04 0 .586.48 1.066 1.067 1.066.586 0 1.066.477 1.066 1.066 0 .586-.48 1.063-1.066 1.063a1.07 1.07 0 0 0-1.067 1.066 5.33 5.33 0 0 1-5.328 5.328m3.543 7.766a.42.42 0 0 1-.386.05.41.41 0 0 1-.27-.276 6 6 0 0 0-.844-1.766 5.1 5.1 0 0 0 1.625-1.344l2.043.55c-.426.919-1.113 2.013-2.168 2.786m-4.906 1.824-.121-.367c.3-.3.523-.664.64-1.07.2-.672.485-1.184.844-1.528.364.344.64.852.844 1.508.113.418.344.79.645 1.09l-.122.367Zm3.48 8.153L44.113 57 42 55.598l.898-6.02h2.434Zm-9.574-6.02a1.07 1.07 0 0 0-1.066 1.067v11.722h-3.195v-13.82c0-2.461 1.562-4.555 3.847-5.313.535 1.27 1.477 2.934 3.063 4.102a2.5 2.5 0 0 0 1.32.469l.27.804-1.02 6.801c-.11.738.223 1.48.844 1.895l2.316 1.539c.332.215.703.324 1.078.324s.75-.11 1.078-.324l2.32-1.54a1.95 1.95 0 0 0 .844-1.898l-1.02-6.797.267-.797a2.5 2.5 0 0 0 1.32-.472c1.535-1.13 2.465-2.723 2.988-3.945l.164.042a5.61 5.61 0 0 1 4.04 3.508l1.429 3.825a2.08 2.08 0 0 0 3.25.895l2.398-1.915 1.754 1.871-6.746 5.012c-.386.347-.898.48-1.402.367-.508-.117-.914-.453-1.16-1.012l-3.121-5.847a1.068 1.068 0 0 0-2.008.504v11.722H37.723V50.645a1.07 1.07 0 0 0-1.067-1.067m42.625-25.574v38.363h-26.64v-7.472l1.078 2.015a3.67 3.67 0 0 0 2.613 2.168c1.184.262 2.383-.047 3.215-.793l6.996-5.203c.383-.336.605-.8.637-1.305 1.023-.789 1.925-1.3 2.804-1.55.297-.086.582-.223.832-.391a3.62 3.62 0 0 0 1.63-2.36 3.5 3.5 0 0 0-.598-2.718c-.535-.742-1.313-1.219-2.157-1.434v-7.597c0-.59-.48-1.067-1.066-1.067s-1.066.477-1.066 1.067v7.648a3.6 3.6 0 0 0-.907.406c-.5.301-.863.688-1.062 1.125-.426.867-1.121 1.703-2.172 2.649a1.9 1.9 0 0 0-1.398.398l-2.48 2.067-1.435-3.82c-.925-2.462-3.003-4.274-5.523-4.829l-4.203-1.133v-1.601a7.44 7.44 0 0 0 3.14-5.211 3.19 3.19 0 0 0 2.188-3.028V27.2a9.53 9.53 0 0 0-1.625-5.328h25.066c1.176 0 2.133.957 2.133 2.133m-2.133-4.262h-27.02a9.56 9.56 0 0 0-6.015-2.133 9.55 9.55 0 0 0-6.011 2.133H21.738a4.265 4.265 0 0 0-4.265 4.262V66.63a4.265 4.265 0 0 0 4.265 4.262H40.41l-1.277 3.195H35.59a3.197 3.197 0 0 0-3.195 3.2v2.128c0 1.176.957 2.133 2.128 2.133h29.84a2.135 2.135 0 0 0 2.13-2.133v-2.129c0-1.765-1.43-3.2-3.196-3.2h-3.543l-1.277-3.194h18.671a4.264 4.264 0 0 0 4.262-4.262V24.004a4.264 4.264 0 0 0-4.262-4.262"/></g></svg>