<svg xmlns="http://www.w3.org/2000/svg" width="130" height="130" version="1.0" viewBox="0 0 97.5 97.5"><defs><clipPath id="a"><path d="M0 0h96.746v96.746H0Zm0 0"/></clipPath><clipPath id="b"><path d="M48.371 0C21.656 0 0 21.656 0 48.371 0 75.09 21.656 96.746 48.371 96.746c26.719 0 48.375-21.656 48.375-48.375C96.746 21.656 75.09 0 48.371 0m0 0"/></clipPath><clipPath id="c"><path d="M15.313 13.34H83v67.156H15.313Zm0 0"/></clipPath></defs><g clip-path="url(#a)"><g clip-path="url(#b)"><path fill="none" stroke="#1d2896" stroke-width="2.985" d="M48.371 0C21.656 0 0 21.656 0 48.371 0 75.09 21.656 96.746 48.371 96.746c26.719 0 48.375-21.656 48.375-48.375C96.746 21.656 75.09 0 48.371 0Zm0 0"/></g></g><g clip-path="url(#c)"><path fill="#1d2896" d="M46.504 62.36a1.015 1.015 0 0 1 0-2.032h9.816a1.016 1.016 0 0 1 0 2.031Zm0-27.723a1.015 1.015 0 0 1 0-2.031h6.937c.563 0 1.012.456 1.012 1.015a1.01 1.01 0 0 1-1.012 1.016Zm0 3.992a1.015 1.015 0 0 1 0-2.031h11.773a1.016 1.016 0 0 1 0 2.031Zm0 9.867a1.013 1.013 0 0 1 0-2.027h9.816a1.014 1.014 0 1 1 0 2.027Zm0 3.992a1.014 1.014 0 0 1 0-2.027H59.62c.559 0 1.016.453 1.016 1.016 0 .554-.457 1.011-1.016 1.011Zm0 13.86a1.013 1.013 0 0 1 0-2.028H59.62c.559 0 1.016.453 1.016 1.012 0 .563-.457 1.016-1.016 1.016ZM33.77 31.293h8.585c.555 0 1.012.457 1.012 1.016v6.613c0 .562-.457 1.016-1.012 1.016H33.77a1.016 1.016 0 0 1-1.016-1.016v-6.613c0-.559.457-1.016 1.016-1.016m7.57 2.031h-6.56v4.586h6.559Zm-7.57 25.692h8.585c.555 0 1.012.453 1.012 1.015v6.614c0 .562-.457 1.015-1.012 1.015H33.77a1.016 1.016 0 0 1-1.016-1.015V60.03c0-.562.457-1.015 1.016-1.015m7.57 2.03h-6.56v4.587h6.559Zm-7.57-15.89h8.585c.555 0 1.012.457 1.012 1.016v6.613c0 .559-.457 1.016-1.012 1.016H33.77a1.016 1.016 0 0 1-1.016-1.016v-6.613c0-.559.457-1.016 1.016-1.016m7.57 2.032h-6.56v4.582h6.559Zm-24-3.258h5.36v-3.223a.54.54 0 0 0-.532-.535h-4.297a.54.54 0 0 0-.531.535Zm5.363 2.027H17.34v19.246h5.36V45.957Zm-2.683 25.29 2.043-4.013H17.98Zm4.578-4.528-3.676 7.226c-.371.735-1.43.743-1.805 0l-3.676-7.226c-.086-.176-.132-.297-.132-.5V40.707a2.567 2.567 0 0 1 2.562-2.562h4.3a2.566 2.566 0 0 1 2.56 2.562v25.512c0 .18-.051.351-.133.5M79.39 40.414c-1.184-.824-2.844.172-2.579 1.656.258 1.461 2.157 1.844 2.989.657.523-.747.34-1.79-.41-2.313m.015-2.187c2.446.668 3.516 3.562 2.051 5.656-1.879 2.699-6.074 1.742-6.644-1.469a3.693 3.693 0 0 1 2.574-4.164l.14-5.156-4.832-1.043-3.097 4.437c-.008.02-.024.04-.035.063l-.004-.004c-.278.398-.657.66-1.153.82l-.078 32.973h7.035c.559 0 1.012.457 1.012 1.015v3.989c0 2.57-1.316 5.418-4.016 5.418v-.004c-.02 0-.046.004-.07.004H34.266c-2.57 0-4.098-.696-5.078-2.285-.868-1.403-1.106-3.372-1.11-5.864l-.05-45.418a1.01 1.01 0 0 1 1.011-1.011l22.969.007c-.09-.628.015-1.183.336-1.644l3.125-4.473-3.137-4.949a1.015 1.015 0 0 1 1.035-1.586l16.43 3.547v.004c.258.05.492.207.64.445l8.95 14.153c.14.195.215.44.183.695Zm-10.449-19.25L55.3 16.027l7.465 11.809 13.656 2.945Zm1.602 12.613-8.637-1.863a1.02 1.02 0 0 1-.64-.454l-4.641-7.347-2.637 3.777c-.106.149-.043.434.156.832a1 1 0 0 1 .203.371c.172.285.395.606.66.953 1.032 1.352 2.7 2.91 4.747 4.34l.09.063c2.035 1.414 4.042 2.425 5.652 2.922.656.207 1.207.328 1.62.367a1 1 0 0 1 .27-.035c.145 0 .328.078.477-.094h-.004a.4.4 0 0 1 .07-.094Zm-4.172 5.87a10 10 0 0 1-1.465-.339c-1.797-.555-4.008-1.664-6.215-3.195l-.062-.04v-.003l-.012-.008v-.004c-2.293-1.543-4.727-3.871-5.82-5.656l-22.762-.012.047 44.41c.004 2.145.18 3.782.808 4.805.543.875 1.54 1.336 3.254 1.32.035-.004.067-.004.106-.004.52 0 .968-.304 1.3-.793.434-.64.684-1.566.684-2.597v-3.989c0-.558.457-1.011 1.016-1.011h29.043Zm-28.93 41.274h34.906c.524 0 .973-.304 1.305-.793.434-.64.684-1.566.684-2.597V72.37h-36.07v2.973c0 1.265-.294 2.457-.825 3.39m0 0"/></g></svg>