<svg xmlns="http://www.w3.org/2000/svg" width="130" height="130" version="1.0" viewBox="0 0 97.5 97.5"><defs><clipPath id="a"><path d="M0 0h96.746v96.746H0Zm0 0"/></clipPath><clipPath id="b"><path d="M48.371 0C21.656 0 0 21.656 0 48.371 0 75.09 21.656 96.746 48.371 96.746c26.719 0 48.375-21.656 48.375-48.375C96.746 21.656 75.09 0 48.371 0m0 0"/></clipPath><clipPath id="c"><path d="M49 37h35.457v36H49Zm0 0"/></clipPath><clipPath id="d"><path d="M14.316 28H50v36H14.316Zm0 0"/></clipPath><clipPath id="e"><path d="M38 11.094h23V27H38Zm0 0"/></clipPath><clipPath id="f"><path d="M23 52h53v29.234H23Zm0 0"/></clipPath></defs><g clip-path="url(#a)"><g clip-path="url(#b)"><path fill="none" stroke="#1d2896" stroke-width="2.985" d="M48.371 0C21.656 0 0 21.656 0 48.371 0 75.09 21.656 96.746 48.371 96.746c26.719 0 48.375-21.656 48.375-48.375C96.746 21.656 75.09 0 48.371 0Zm0 0"/></g></g><g clip-path="url(#c)"><path fill="#1d2896" d="M83.078 39.207c-2.16-2.18-5.988-2.156-8.148 0l-20.387 20.39c-.09.067-.133.133-.219.22 0 .023-.047.023-.047.042-.043.024-.043.067-.066.09a16.86 16.86 0 0 0-4.664 11.692 1.09 1.09 0 0 0 1.098 1.101c4.382 0 8.5-1.652 11.69-4.668.024-.023.067-.023.09-.066.02 0 .02-.043.044-.043.09-.09.156-.133.218-.223l20.391-20.387a5.65 5.65 0 0 0 1.695-4.074c0-1.52-.617-3.015-1.695-4.074m-1.543 6.605-19.879 19.86-5.043-5.04 19.86-19.882a3.64 3.64 0 0 1 2.53-1.035c.946 0 1.872.375 2.532 1.035a3.6 3.6 0 0 1 1.035 2.531c0 .946-.375 1.852-1.035 2.532m0 0"/></g><g clip-path="url(#d)"><path fill="#1d2896" d="m48.355 43.438-2.64-1.301a14.4 14.4 0 0 0-1.078-2.598l.945-2.797c.266-.77.043-1.629-.527-2.203l-1.32-1.34a2.18 2.18 0 0 0-1.544-.64c-.218 0-.46.043-.683.109l-2.797.95c-.836-.442-1.695-.817-2.598-1.079l-1.297-2.644a2.19 2.19 0 0 0-1.937-1.188h-1.895c-.812 0-1.562.461-1.937 1.188l-1.297 2.644c-.906.262-1.762.637-2.602 1.078l-2.793-.949c-.793-.262-1.628-.043-2.226.531l-1.32 1.34c-.57.574-.793 1.434-.528 2.203l.946 2.797a14 14 0 0 0-1.079 2.598l-2.64 1.3a2.18 2.18 0 0 0-1.192 1.938v1.89c0 .817.465 1.563 1.192 1.938l2.64 1.3c.266.903.637 1.763 1.079 2.599l-.946 2.796c-.265.77-.043 1.63.528 2.2l1.32 1.343a2.24 2.24 0 0 0 2.226.532l2.793-.95c.84.442 1.696.817 2.602 1.079l1.297 2.644a2.19 2.19 0 0 0 1.937 1.188h1.895c.812 0 1.562-.461 1.937-1.188l1.297-2.644c.903-.262 1.762-.637 2.598-1.079l2.797.95a2.24 2.24 0 0 0 2.226-.532l1.32-1.343c.571-.57.794-1.43.528-2.2l-.945-2.796c.437-.836.812-1.696 1.078-2.598l2.64-1.3a2.19 2.19 0 0 0 1.192-1.938v-1.891c0-.816-.465-1.566-1.192-1.937m-7.617 2.882a8.8 8.8 0 0 1-8.808 8.805 8.8 8.8 0 0 1-8.805-8.805 8.805 8.805 0 0 1 8.805-8.808 8.806 8.806 0 0 1 8.808 8.808m0 0"/></g><path fill="#1d2896" d="M34.133 46.32q0 .44-.168.844-.166.406-.477.711a2.2 2.2 0 0 1-.715.48q-.404.166-.843.168-.435-.002-.84-.168a2.2 2.2 0 0 1-.715-.48 2.1 2.1 0 0 1-.477-.71 2.2 2.2 0 0 1-.168-.845q0-.44.168-.843.166-.405.477-.715.31-.306.715-.477.405-.166.84-.168c.293 0 .574.059.843.168q.405.171.715.477.311.31.477.715.169.404.168.843m0 0"/><g clip-path="url(#e)"><path fill="#1d2896" d="M57.25 15.496h-1.477a6.63 6.63 0 0 0-6.226-4.402 6.625 6.625 0 0 0-6.227 4.402h-1.48a3.31 3.31 0 0 0-3.305 3.3v6.606c0 .61.496 1.102 1.102 1.102h19.816a1.1 1.1 0 0 0 1.102-1.102v-6.605c0-1.82-1.485-3.3-3.305-3.3m-7.703 4.402a2.202 2.202 0 1 1 0-4.402 2.202 2.202 0 0 1 0 4.402m0 0"/></g><path fill="#1d2896" d="M70.46 45.86a1.096 1.096 0 0 1-1.1-1.102V26.504H29.73v6.183c0 .45-.273.856-.69 1.024l-4.403 1.773c-.34.137-.723.094-1.028-.109a1.1 1.1 0 0 1-.484-.914v-9.059a5.51 5.51 0 0 1 5.504-5.504h11.008A1.1 1.1 0 0 1 40.738 21a1.1 1.1 0 0 1-1.101 1.102H28.629c-1.82 0-3.3 1.48-3.3 3.3v7.43l2.198-.887v-6.543a1.1 1.1 0 0 1 1.102-1.097H70.46a1.1 1.1 0 0 1 1.102 1.097v16.774l2.203-2.114v-14.66c0-1.82-1.485-3.3-3.305-3.3H59.453A1.1 1.1 0 0 1 58.352 21a1.1 1.1 0 0 1 1.101-1.102h11.008a5.51 5.51 0 0 1 5.504 5.504v15.13c0 .3-.121.59-.336.796l-4.402 4.227a1.11 1.11 0 0 1-.766.304m0 0"/><path fill="#1d2896" d="M63.855 33.11h-8.804a1.103 1.103 0 0 1 0-2.203h8.804a1.103 1.103 0 0 1 0 2.202m0 6.606H43.793a1.103 1.103 0 0 1 0-2.203h20.062a1.103 1.103 0 0 1 0 2.203m0 6.605H48.43a1.102 1.102 0 0 1 0-2.203h15.425a1.103 1.103 0 0 1 0 2.203M46.242 70.54H35.234a1.103 1.103 0 0 1 0-2.203l11.008-.001a1.103 1.103 0 0 1 0 2.203m0 0"/><g clip-path="url(#f)"><path fill="#1d2896" d="M70.46 81.547H28.63a5.51 5.51 0 0 1-5.504-5.504V58.18c0-.344.16-.668.434-.88.277-.206.632-.273.964-.179l4.407 1.246c.472.13.8.563.8 1.059V74.94h39.63V58.43c0-.293.117-.575.324-.782l4.402-4.402a1.103 1.103 0 0 1 1.879.781v22.016a5.51 5.51 0 0 1-5.504 5.504M25.329 59.633v16.41c0 1.82 1.48 3.305 3.3 3.305h41.833a3.31 3.31 0 0 0 3.305-3.305v-19.36l-2.204 2.204v17.156a1.1 1.1 0 0 1-1.101 1.102H28.629a1.1 1.1 0 0 1-1.102-1.102V60.258Zm0 0"/></g></svg>