<svg xmlns="http://www.w3.org/2000/svg" width="130" height="130" version="1.0" viewBox="0 0 97.5 97.5"><defs><clipPath id="a"><path d="M0 0h96.746v96.746H0Zm0 0"/></clipPath><clipPath id="b"><path d="M48.371 0C21.656 0 0 21.656 0 48.371 0 75.09 21.656 96.746 48.371 96.746c26.719 0 48.375-21.656 48.375-48.375C96.746 21.656 75.09 0 48.371 0m0 0"/></clipPath><clipPath id="c"><path d="M7.98 6.348h79.844v79.84H7.98Zm0 0"/></clipPath></defs><g clip-path="url(#a)"><g clip-path="url(#b)"><path fill="none" stroke="#1d2896" stroke-width="2.985" d="M48.371 0C21.656 0 0 21.656 0 48.371 0 75.09 21.656 96.746 48.371 96.746c26.719 0 48.375-21.656 48.375-48.375C96.746 21.656 75.09 0 48.371 0Zm0 0"/></g></g><g clip-path="url(#c)"><path fill="#1d2896" d="M87.73 41.363a2.86 2.86 0 0 0-2.726-1.98h-.008l-6.055.012a.27.27 0 0 1-.273-.2l-1.863-5.761a2.857 2.857 0 0 0-4.07-1.653 29.9 29.9 0 0 0-8.192-8.343v-2.524c0-.535-.328-1.012-.824-1.203l-1.926-.742a14.5 14.5 0 0 0-1.219-2.946l.836-1.886a1.29 1.29 0 0 0-.265-1.434L58.21 9.77a1.29 1.29 0 0 0-1.434-.266l-1.886.84a14.5 14.5 0 0 0-2.946-1.223l-.742-1.926A1.29 1.29 0 0 0 50 6.371h-4.148c-.532 0-1.008.328-1.204.824l-.738 1.926a14.4 14.4 0 0 0-2.945 1.223l-1.887-.84a1.29 1.29 0 0 0-1.433.266l-2.934 2.933c-.379.379-.484.95-.266 1.434l.836 1.886a14.2 14.2 0 0 0-1.218 2.946l-1.926.742c-.5.191-.828.668-.828 1.203v2.52a29.7 29.7 0 0 0-6.442 5.945 12 12 0 0 0-4.816-1.004c-6.653 0-12.07 5.414-12.07 12.07 0 3.133.988 4.817 1.94 6.446 1.052 1.8 2.142 3.66 2.403 8.054v1.707c0 1.215.719 2.262 1.754 2.75v.754c0 1.235.738 2.293 1.797 2.77v.734a3.04 3.04 0 0 0 3.04 3.04h2.273c1.144 0 2.14-.634 2.66-1.567a29.63 29.63 0 0 0 11.652 9.66 17.1 17.1 0 0 0-4.656 10.043 1.287 1.287 0 0 0 1.281 1.426H63.73c.368 0 .715-.157.958-.43.246-.27.363-.633.324-.996a17.12 17.12 0 0 0-4.66-10.047 29.7 29.7 0 0 0 10.18-7.762 29.6 29.6 0 0 0 6.007-11.52l2.602 1.9a2.86 2.86 0 0 0 3.375.003 2.86 2.86 0 0 0 1.039-3.21l-1.883-5.755a.27.27 0 0 1 .105-.324l4.907-3.55a2.86 2.86 0 0 0 1.046-3.208M33.887 21.797l1.715-.66c.394-.153.691-.489.789-.903a11.8 11.8 0 0 1 1.433-3.453 1.29 1.29 0 0 0 .082-1.199l-.75-1.68 1.684-1.683 1.68.746c.39.172.84.14 1.199-.082a11.8 11.8 0 0 1 3.453-1.43c.414-.098.754-.394.906-.793l.66-1.715h2.38l.66 1.715c.152.399.492.695.902.793 1.222.29 2.383.77 3.453 1.43.363.222.812.254 1.199.082l1.684-.746 1.68 1.683-.747 1.68c-.172.387-.14.836.082 1.2.66 1.07 1.14 2.23 1.434 3.452.097.414.39.75.789.903l1.715.66v2.379l-1.715.66a1.29 1.29 0 0 0-.793.906 11.7 11.7 0 0 1-1.43 3.453 1.29 1.29 0 0 0-.082 1.2l.746 1.68-1.68 1.683-1.683-.746a1.28 1.28 0 0 0-1.195.078 11.9 11.9 0 0 1-3.457 1.433c-.41.098-.75.395-.903.79l-.66 1.714h-2.379l-.66-1.715a1.29 1.29 0 0 0-.906-.789 11.9 11.9 0 0 1-3.453-1.433 1.28 1.28 0 0 0-1.2-.078l-1.68.746-1.683-1.684.746-1.68a1.28 1.28 0 0 0-.078-1.199 11.8 11.8 0 0 1-1.433-3.453 1.29 1.29 0 0 0-.79-.906l-1.714-.66ZM10.559 40.445c0-5.234 4.257-9.496 9.492-9.496 5.234 0 9.496 4.262 9.496 9.496 0 2.434-.703 3.63-1.59 5.145-1 1.715-2.23 3.812-2.656 8.023h-2.098v-9.297h1.215a3.797 3.797 0 0 0 3.797-3.793 3.8 3.8 0 0 0-3.797-3.793c-2.09 0-3.793 1.7-3.793 3.793v1.215H19.48v-1.215a3.8 3.8 0 0 0-3.796-3.793c-2.09 0-3.793 1.7-3.793 3.793a3.797 3.797 0 0 0 3.793 3.793h1.218v9.297h-2.097c-.426-4.21-1.657-6.308-2.66-8.023-.887-1.516-1.586-2.711-1.586-5.145m6.558 20.176a.47.47 0 0 1-.46-.465v-.465h6.792v.465a.47.47 0 0 1-.465.465Zm8.086-3.969c0 .25-.215.465-.465.465h-9.37a.474.474 0 0 1-.466-.465v-.465h10.301Zm-8.3-14.914h-1.22a1.216 1.216 0 1 1 1.22-1.215Zm3.722 11.875H19.48v-9.297h1.145Zm2.578-11.875v-1.215a1.22 1.22 0 0 1 1.215-1.218 1.217 1.217 0 1 1 0 2.434Zm-2.015 22.387h-2.274a.47.47 0 0 1-.46-.465v-.465h3.198v.465a.47.47 0 0 1-.465.465m12.44 19.559a14.57 14.57 0 0 1 14.298-11.61c7 0 12.91 4.899 14.3 11.61ZM41.18 62.75a6.755 6.755 0 0 1 6.746-6.746c3.722 0 6.75 3.027 6.75 6.746a6.757 6.757 0 0 1-6.75 6.75c-3.719 0-6.746-3.027-6.746-6.75m17.047 10.16a17.2 17.2 0 0 0-4.914-2.555 9.32 9.32 0 0 0 3.94-7.605c0-5.14-4.183-9.324-9.327-9.324-5.14 0-9.324 4.183-9.324 9.324a9.32 9.32 0 0 0 3.941 7.605 17.1 17.1 0 0 0-4.914 2.555 27.05 27.05 0 0 1-12.547-10.555 3.05 3.05 0 0 0 .945-2.199v-.754a3.05 3.05 0 0 0 1.75-2.75v-1.71c.266-4.391 1.352-6.25 2.407-8.051.953-1.63 1.937-3.313 1.937-6.446 0-4.011-1.969-7.57-4.988-9.77a27.2 27.2 0 0 1 4.789-4.519c.07.043.137.078.215.11l1.922.742a14.4 14.4 0 0 0 1.222 2.941l-.84 1.887a1.29 1.29 0 0 0 .27 1.434l2.934 2.933c.375.379.945.484 1.433.27l1.887-.84a14.4 14.4 0 0 0 2.945 1.222l.738 1.926c.192.496.672.824 1.204.824H50c.535 0 1.012-.328 1.203-.824l.742-1.926a14.4 14.4 0 0 0 2.946-1.222l1.886.84a1.29 1.29 0 0 0 1.434-.27l2.934-2.933c.375-.375.484-.946.265-1.434l-.836-1.887c.516-.933.922-1.918 1.219-2.941l1.926-.742q.111-.047.21-.11a27.3 27.3 0 0 1 7.208 7.938l-1.645 5.101a.27.27 0 0 1-.277.2l-6.055-.012h-.004a2.86 2.86 0 0 0-2.726 1.98 2.86 2.86 0 0 0 1.043 3.207l4.906 3.551a.27.27 0 0 1 .105.324l-1.882 5.758a2.86 2.86 0 0 0 1.043 3.207 2.84 2.84 0 0 0 3.371-.004l4.894-3.566c.11-.082.227-.082.34 0l.04.027C72.374 62.38 66.308 69.57 58.226 72.91m26.945-30.426-4.906 3.551a2.86 2.86 0 0 0-1.043 3.211L81.105 55c.043.133.008.246-.105.324a.265.265 0 0 1-.34 0l-4.89-3.566a2.85 2.85 0 0 0-3.38 0l-4.89 3.566a.27.27 0 0 1-.344 0c-.11-.078-.144-.191-.101-.324l1.882-5.754a2.85 2.85 0 0 0-1.046-3.21l-4.907-3.552c-.109-.082-.148-.191-.105-.324.043-.129.14-.2.277-.2l6.055.013h.008a2.86 2.86 0 0 0 2.726-1.985l1.86-5.765a.27.27 0 0 1 .273-.2c.14 0 .234.07.277.2l1.86 5.765a2.86 2.86 0 0 0 2.726 1.985h.008l6.055-.012c.137 0 .234.07.273.2a.27.27 0 0 1-.105.323m-37.246-9.867c5.312 0 9.633-4.32 9.633-9.629 0-5.312-4.32-9.633-9.633-9.633-5.309 0-9.63 4.32-9.63 9.633 0 5.309 4.321 9.63 9.63 9.63m0-16.683a7.06 7.06 0 0 1 7.054 7.054 7.06 7.06 0 0 1-7.054 7.055c-3.887 0-7.051-3.164-7.051-7.055s3.164-7.054 7.05-7.054m-4.832 8.199a1.29 1.29 0 0 1 0-1.824c.504-.5 1.32-.5 1.824 0l1.418 1.421 4.648-4.218a1.29 1.29 0 0 1 1.82.09 1.29 1.29 0 0 1-.09 1.82l-5.554 5.043a1.29 1.29 0 0 1-1.777-.047Zm0 0"/></g></svg>