<svg xmlns="http://www.w3.org/2000/svg" width="130" height="130" version="1.0" viewBox="0 0 97.5 97.5"><defs><clipPath id="a"><path d="M0 0h96.746v96.746H0Zm0 0"/></clipPath><clipPath id="b"><path d="M48.371 0C21.656 0 0 21.656 0 48.371 0 75.09 21.656 96.746 48.371 96.746c26.719 0 48.375-21.656 48.375-48.375C96.746 21.656 75.09 0 48.371 0m0 0"/></clipPath><clipPath id="c"><path d="M40 13.832h42.3V61H40Zm0 0"/></clipPath><clipPath id="d"><path d="M14.398 33H57v46.496H14.398Zm0 0"/></clipPath></defs><g clip-path="url(#a)"><g clip-path="url(#b)"><path fill="none" stroke="#1d2896" stroke-width="2.985" d="M48.371 0C21.656 0 0 21.656 0 48.371 0 75.09 21.656 96.746 48.371 96.746c26.719 0 48.375-21.656 48.375-48.375C96.746 21.656 75.09 0 48.371 0Zm0 0"/></g></g><g clip-path="url(#c)"><path fill="#1d2896" d="M61.004 60.668c-.336 0-.672-.098-.965-.29L52.98 55.82a1.76 1.76 0 0 1-.812-1.394 1.77 1.77 0 0 1 .652-1.48l6.516-5.31a1.77 1.77 0 0 1 1.844-.245 1.77 1.77 0 0 1 1.058 1.53l.106 1.927c8.199-.746 14.383-7.649 14.176-15.946a15.53 15.53 0 0 0-4.86-10.925 15.5 15.5 0 0 0-11.152-4.301c-6.977.176-13.047 5.015-14.758 11.77a2.85 2.85 0 0 1-1.32 1.773 2.87 2.87 0 0 1-2.184.316 2.893 2.893 0 0 1-2.09-3.504C42.5 20.777 50.81 14.148 60.36 13.906c2.883-.07 5.696.426 8.364 1.477A21.5 21.5 0 0 1 80.395 26.48a21.2 21.2 0 0 1 1.89 8.277 21.1 21.1 0 0 1-1.414 8.207 21.3 21.3 0 0 1-4.258 6.828c-1.843 2-4.02 3.61-6.46 4.785a21.1 21.1 0 0 1-7.489 2.031l.117 2.176c.04.672-.3 1.3-.883 1.64a1.8 1.8 0 0 1-.894.243m-.547-12.348a.68.68 0 0 0-.437.157l-6.516 5.308a.69.69 0 0 0-.258.578.7.7 0 0 0 .32.551l7.059 4.559a.69.69 0 0 0 .73.015.69.69 0 0 0 .348-.64l-.152-2.711a.547.547 0 0 1 .511-.57c11.012-.626 19.418-9.754 19.141-20.782-.133-5.414-2.379-10.46-6.312-14.203-3.938-3.742-9.086-5.73-14.504-5.594-9.067.23-16.957 6.524-19.18 15.309a1.8 1.8 0 0 0 1.305 2.188A1.796 1.796 0 0 0 44.7 31.18c1.831-7.223 8.32-12.399 15.78-12.586 2.25-.059 4.446.332 6.528 1.152a16.7 16.7 0 0 1 5.398 3.45 16.6 16.6 0 0 1 3.715 5.218 16.6 16.6 0 0 1 1.48 6.461 16.6 16.6 0 0 1-1.105 6.406 16.7 16.7 0 0 1-3.32 5.332 16.7 16.7 0 0 1-5.043 3.739 16.6 16.6 0 0 1-6.266 1.617.544.544 0 0 1-.574-.508l-.137-2.48a.68.68 0 0 0-.414-.602.8.8 0 0 0-.285-.059m0 0"/></g><g clip-path="url(#d)"><path fill="#1d2896" d="M35.863 79.766c-11.55 0-21.09-9.246-21.379-20.856a21.1 21.1 0 0 1 1.414-8.207 21.3 21.3 0 0 1 4.258-6.832 21.4 21.4 0 0 1 6.461-4.781 21.2 21.2 0 0 1 7.492-2.035l-.12-2.176c-.04-.672.3-1.297.882-1.637a1.77 1.77 0 0 1 1.86.043l7.058 4.559c.484.312.781.824.813 1.398a1.77 1.77 0 0 1-.653 1.48l-6.515 5.305c-.52.426-1.227.52-1.844.25a1.77 1.77 0 0 1-1.059-1.53l-.105-1.93A15.554 15.554 0 0 0 20.25 58.765a15.52 15.52 0 0 0 4.86 10.922 15.5 15.5 0 0 0 11.156 4.304c6.976-.176 13.043-5.015 14.754-11.773a2.87 2.87 0 0 1 1.32-1.77 2.889 2.889 0 0 1 4.273 3.188C54.27 72.89 45.961 79.52 36.41 79.757c-.183.009-.367.009-.547.009m-.097-45.684a.7.7 0 0 0-.352.098.69.69 0 0 0-.348.64l.153 2.707a.54.54 0 0 1-.512.57 20.217 20.217 0 0 0-19.14 20.786c.277 11.023 9.331 19.8 20.296 19.8q.257 0 .52-.003c9.066-.23 16.957-6.524 19.18-15.309a1.81 1.81 0 0 0-1.305-2.191 1.806 1.806 0 0 0-2.188 1.304c-1.832 7.227-8.32 12.403-15.78 12.59q-.214.005-.43.004a16.5 16.5 0 0 1-6.098-1.156 16.7 16.7 0 0 1-5.399-3.45 16.6 16.6 0 0 1-3.715-5.218 16.6 16.6 0 0 1-1.48-6.461 16.6 16.6 0 0 1 1.105-6.41 16.7 16.7 0 0 1 3.32-5.328 16.68 16.68 0 0 1 11.31-5.36.56.56 0 0 1 .394.137c.105.098.172.23.18.375l.136 2.48a.67.67 0 0 0 .414.598c.246.11.516.074.723-.097l6.516-5.305a.698.698 0 0 0-.063-1.13l-7.058-4.558a.7.7 0 0 0-.38-.113m0 0"/></g><path fill="#1d2896" d="M35.582 67.621c-2.117 0-4.117-.144-5.621-.406-.758-.133-1.36-.293-1.79-.469-.233-.098-.948-.394-.948-1.035 0-.137.004-2.258.64-4.41.899-3.028 2.617-4.653 4.977-4.696q.193-.006.39-.007h.008a.542.542 0 0 1 .012 1.082q-.2.001-.387.008c-1.867.035-3.199 1.355-3.96 3.921-.524 1.758-.59 3.54-.598 3.993.136.093.652.37 2.242.609 1.394.21 3.18.328 5.035.328s3.645-.117 5.035-.328c1.578-.238 2.098-.512 2.238-.61-.054-.835-.66-7.777-4.789-7.906l-.437-.011a.541.541 0 0 1 .027-1.082l.446.011c2.261.07 3.992 1.688 5.003 4.68a17.7 17.7 0 0 1 .836 4.34v.078c0 .64-.71.937-.945 1.035-.434.176-1.035.336-1.793.469-1.504.262-3.5.406-5.621.406m0 0"/><path fill="#1d2896" d="M35.445 58.336c-2.59 0-4.695-2.172-4.695-4.844 0-2.668 2.105-4.84 4.695-4.84 2.586 0 4.696 2.172 4.696 4.84 0 2.672-2.11 4.844-4.696 4.844m0-8.602c-1.992 0-3.613 1.688-3.613 3.758 0 2.074 1.621 3.762 3.613 3.762s3.614-1.688 3.614-3.762c0-2.07-1.621-3.758-3.614-3.758M60.3 43.11c-2.116 0-4.116-.145-5.62-.41-.758-.134-1.36-.29-1.79-.47-.234-.093-.949-.39-.949-1.03v-.005c0-.152.004-2.265.641-4.406.898-3.027 2.617-4.652 4.977-4.695q.192-.007.39-.008h.008c.293 0 .535.234.543.531a.546.546 0 0 1-.531.551q-.2.001-.387.008c-1.867.035-3.2 1.355-3.96 3.922-.524 1.757-.59 3.539-.599 3.988.137.098.653.371 2.243.613 1.394.211 3.18.328 5.035.328s3.644-.117 5.035-.328c1.578-.238 2.098-.511 2.238-.61-.058-.839-.66-7.776-4.789-7.905l-.437-.012a.541.541 0 0 1 .011-1.082h.016l.445.012c2.262.07 3.992 1.687 5.004 4.675a17.8 17.8 0 0 1 .836 4.344v.078c0 .64-.71.938-.945 1.031-.434.18-1.035.336-1.793.47-1.504.265-3.5.41-5.621.41m0 0"/><path fill="#1d2896" d="M60.164 33.824c-2.59 0-4.695-2.172-4.695-4.844 0-2.668 2.105-4.84 4.695-4.84 2.586 0 4.695 2.172 4.695 4.84 0 2.672-2.109 4.844-4.695 4.844m0-8.601c-1.992 0-3.613 1.687-3.613 3.757 0 2.075 1.62 3.762 3.613 3.762s3.613-1.687 3.613-3.762c0-2.07-1.62-3.757-3.613-3.757m0 0"/></svg>