<svg xmlns="http://www.w3.org/2000/svg" width="36" height="36" version="1.0" viewBox="0 0 26.88 27"><defs><clipPath id="a"><path d="M0 .059h26.133V26.19H0Zm0 0"/></clipPath><clipPath id="b"><path d="M0 .059h26.133V26.19H0Zm0 0"/></clipPath></defs><g clip-path="url(#a)"><path fill="#fff" d="M24.555 3.227h-2.38V.59a.528.528 0 1 0-1.054 0v2.637H5.281V.59a.53.53 0 0 0-.527-.531.53.53 0 0 0-.531.53v2.638H1.848C.828 3.227 0 4.059 0 5.078v19.535c0 1.02.828 1.848 1.848 1.848h22.707c1.02 0 1.847-.828 1.847-1.848V5.078c0-1.02-.828-1.851-1.847-1.851M1.848 4.285h2.375v1.582a.528.528 0 0 0 1.058 0V4.285h15.84v1.582c0 .293.234.528.527.528a.525.525 0 0 0 .528-.528V4.285h2.379c.433 0 .789.356.789.793v3.43H1.054v-3.43c0-.437.356-.793.794-.793m22.707 21.121H1.848a.794.794 0 0 1-.793-.793V9.566h24.289v15.047a.793.793 0 0 1-.79.793m0 0"/></g><path fill="#fff" d="M3.695 12.203H5.81v2.113H3.695Zm4.227 0h2.11v2.113h-2.11Zm4.223 0h2.113v2.113h-2.113Zm4.222 0h2.113v2.113h-2.113Zm4.227 0h2.113v2.113h-2.113ZM3.695 16.43H5.81v2.113H3.695Zm4.227 0h2.11v2.113h-2.11Zm4.223 0h2.113v2.113h-2.113Zm4.222 0h2.113v2.113h-2.113Zm4.227 0h2.113v2.113h-2.113ZM3.695 20.652H5.81v2.114H3.695Zm4.227 0h2.11v2.114h-2.11Zm4.223 0h2.113v2.114h-2.113Zm4.222 0h2.113v2.114h-2.113Zm4.227 0h2.113v2.114h-2.113Zm0 0"/><g clip-path="url(#b)"><path fill="#fff" d="M24.555 3.227h-2.38V.59a.528.528 0 1 0-1.054 0v2.637H5.281V.59a.53.53 0 0 0-.527-.531.53.53 0 0 0-.531.53v2.638H1.848C.828 3.227 0 4.059 0 5.078v19.535c0 1.02.828 1.848 1.848 1.848h22.707c1.02 0 1.847-.828 1.847-1.848V5.078c0-1.02-.828-1.851-1.847-1.851M1.848 4.285h2.375v1.582a.528.528 0 0 0 1.058 0V4.285h15.84v1.582c0 .293.234.528.527.528a.525.525 0 0 0 .528-.528V4.285h2.379c.433 0 .789.356.789.793v3.43H1.054v-3.43c0-.437.356-.793.794-.793m22.707 21.121H1.848a.794.794 0 0 1-.793-.793V9.566h24.289v15.047a.793.793 0 0 1-.79.793m0 0"/></g><path fill="#fff" d="M3.695 12.203H5.81v2.113H3.695Zm4.227 0h2.11v2.113h-2.11Zm4.223 0h2.113v2.113h-2.113Zm4.222 0h2.113v2.113h-2.113Zm4.227 0h2.113v2.113h-2.113ZM3.695 16.43H5.81v2.113H3.695Zm4.227 0h2.11v2.113h-2.11Zm4.223 0h2.113v2.113h-2.113Zm4.222 0h2.113v2.113h-2.113Zm4.227 0h2.113v2.113h-2.113ZM3.695 20.652H5.81v2.114H3.695Zm4.227 0h2.11v2.114h-2.11Zm4.223 0h2.113v2.114h-2.113Zm4.222 0h2.113v2.114h-2.113Zm4.227 0h2.113v2.114h-2.113Zm0 0"/></svg>