<svg xmlns="http://www.w3.org/2000/svg" width="42" height="42" version="1.0" viewBox="0 0 31.5 31.5"><defs><clipPath id="a"><path d="M0 0h30.387v30.387H0Zm0 0"/></clipPath><clipPath id="b"><path d="M15.191 0C6.801 0 0 6.8 0 15.191s6.8 15.196 15.191 15.196 15.196-6.805 15.196-15.196S23.582 0 15.19 0m0 0"/></clipPath><clipPath id="c"><path d="M3.531 3.531H27V27H3.531Zm0 0"/></clipPath></defs><g clip-path="url(#a)"><g clip-path="url(#b)"><path fill="#1d2896" d="M0 0h30.387v30.387H0Zm0 0"/></g></g><g clip-path="url(#c)"><path fill="#fff" d="M15.191 4.645c-5.812 0-10.546 4.73-10.546 10.546 0 5.817 4.734 10.547 10.546 10.547 5.817 0 10.551-4.73 10.551-10.547 0-5.816-4.734-10.546-10.55-10.546m0 22.207c-6.43 0-11.66-5.23-11.66-11.66s5.23-11.66 11.66-11.66 11.66 5.23 11.66 11.66-5.23 11.66-11.66 11.66"/></g><path fill="#fff" d="M18.414 18.973a.56.56 0 0 1-.394-.164l-3.22-3.223a.56.56 0 0 1-.163-.395V8.715a.557.557 0 0 1 1.113 0v6.246l3.059 3.059a.556.556 0 0 1-.395.953m1.813-11.387.093-.164a.556.556 0 0 0-.965-.555l-.093.16a.556.556 0 0 0 .965.559m-9.2 15.934.094-.165a.557.557 0 1 0-.965-.554l-.09.16a.557.557 0 0 0 .48.836.56.56 0 0 0 .481-.277m12.328-12.4.165-.094a.558.558 0 0 0-.559-.965l-.16.094a.557.557 0 0 0 .554.965m-15.933 9.2.164-.094a.56.56 0 0 0 .203-.762.56.56 0 0 0-.762-.203l-.16.093a.557.557 0 0 0 .555.965m17.621-5.13a.555.555 0 0 0-.559-.554h-.187a.558.558 0 0 0 0 1.113h.187c.309 0 .559-.25.559-.559m-18.398 0a.555.555 0 0 0-.56-.554h-.183a.555.555 0 0 0-.558.554c0 .309.25.559.558.559h.184c.309 0 .559-.25.559-.559m17.078 4.926a.56.56 0 0 0-.203-.762l-.165-.093a.555.555 0 1 0-.555.965l.16.093a.56.56 0 0 0 .762-.203M7.789 10.918a.56.56 0 0 0-.203-.762l-.164-.094a.553.553 0 0 0-.758.208.55.55 0 0 0 .203.757l.16.094a.56.56 0 0 0 .762-.203m12.328 12.805a.56.56 0 0 0 .203-.762l-.093-.16a.553.553 0 0 0-.758-.207.56.56 0 0 0-.207.761l.093.165a.56.56 0 0 0 .762.203M10.918 7.789a.555.555 0 0 0 .203-.762l-.094-.16a.556.556 0 0 0-.965.555l.094.164a.57.57 0 0 0 .485.277.55.55 0 0 0 .277-.074m4.832 16.695v-.187a.558.558 0 0 0-1.113 0v.187c0 .309.25.555.554.555a.555.555 0 0 0 .559-.555m-.559-17.84a.56.56 0 0 1-.554-.558v-.188a.557.557 0 0 1 1.113 0v.188c0 .309-.25.559-.559.559"/></svg>