<svg xmlns="http://www.w3.org/2000/svg" width="77" height="60" version="1.0" viewBox="0 0 57.75 45"><defs><clipPath id="a"><path d="M0 .098h56.754v44.804H0Zm0 0"/></clipPath></defs><g fill="#fe7219" clip-path="url(#a)"><path d="M13.895 22.484h8.503v22.137H.008v-18.66c0-9.129 2.226-15.672 6.668-19.637C11.117 2.36 17.446.285 25.648.098l.114 8.98c-9.782 1.024-12.606 5.3-11.867 13.406m31.293 0h8.503v22.137H31.305v-18.66q0-13.691 6.664-19.637C42.41 2.36 48.739.285 56.94.098v9.066c-9.777 1.016-12.492 5.215-11.754 13.32m0 0"/><path d="M13.895 22.484h8.503v22.137H.008v-18.66c0-9.129 2.226-15.672 6.668-19.637C11.117 2.36 17.446.285 25.648.098l.114 8.98c-9.782 1.024-12.606 5.3-11.867 13.406m31.293 0h8.503v22.137H31.305v-18.66q0-13.691 6.664-19.637C42.41 2.36 48.739.285 56.94.098v9.066c-9.777 1.016-12.492 5.215-11.754 13.32m0 0"/></g></svg>