<svg xmlns="http://www.w3.org/2000/svg" width="77" height="60" version="1.0" viewBox="0 0 57.75 45"><defs><clipPath id="a"><path d="M.2.098h56.753V44.62H.2Zm0 0"/></clipPath></defs><g fill="#fe7219" clip-path="url(#a)"><path d="M43.059 22.234h-8.504V.098H56.94v18.66c0 9.129-2.226 15.672-6.664 19.637-4.441 3.964-10.77 6.039-18.972 6.226l-.114-8.976c9.782-1.028 12.606-5.305 11.868-13.41m-31.293 0H3.262V.098h22.386v18.66c0 9.129-2.226 15.672-6.664 19.637-4.441 3.964-10.77 6.039-18.976 6.226v-9.066c9.781-1.012 12.496-5.215 11.758-13.32m0 0"/><path d="M43.059 22.234h-8.504V.098H56.94v18.66c0 9.129-2.226 15.672-6.664 19.637-4.441 3.964-10.77 6.039-18.972 6.226l-.114-8.976c9.782-1.028 12.606-5.305 11.868-13.41m-31.293 0H3.262V.098h22.386v18.66c0 9.129-2.226 15.672-6.664 19.637-4.441 3.964-10.77 6.039-18.976 6.226v-9.066c9.781-1.012 12.496-5.215 11.758-13.32m0 0"/></g></svg>