<svg xmlns="http://www.w3.org/2000/svg" width="245" height="226" version="1.0" viewBox="0 0 183.75 169.5"><defs><clipPath id="a"><path d="M1 25h181v143.254H1Zm0 0"/></clipPath><clipPath id="b"><path d="M1 25h181v143.254H1Zm0 0"/></clipPath></defs><path fill="#1d2896" d="M45.402 62.914c7.59 0 13.778-6.184 13.778-13.773 0-7.59-6.188-13.774-13.778-13.774S31.63 41.551 31.63 49.141s6.183 13.773 13.773 13.773m0-21.926c4.5 0 8.153 3.657 8.153 8.153s-3.653 8.152-8.153 8.152c-4.496 0-8.152-3.656-8.152-8.152s3.656-8.153 8.152-8.153m0 0"/><g clip-path="url(#a)"><path fill="#1d2896" d="M178.648 108.734h-7.87c-12.65-20.238-12.09-19.113-12.65-20.238l-5.905-16.023c1.968-3.375 2.25-7.309 1.125-10.965l-5.34-16.582 10.12 5.902c.278.281 6.185 8.715 8.993 12.93 1.969 2.812 5.344 3.937 8.434 3.094 5.062-1.407 7.308-7.028 4.5-11.528-8.434-13.492-7.871-13.492-9.84-14.617-17.149-9.277-23.05-18.273-33.172-14.336-15.461 5.902-32.043 9.84-35.418 25.02l-2.812 13.492-12.086 7.87c-.563.282-.844.845-1.407 1.126-.562 0-1.125 0-1.687.281l-6.465 2.246c-1.969.844-4.496.281-6.184-1.12l-8.996-7.313c-5.34-4.496-9.558-2.528-28.672-4.215-3.937-.281-8.152 1.406-10.683 4.496L6.328 87.37c-.558.563-1.121 1.406-1.121 2.531L1.551 104.52c-1.406 5.058 2.531 9.835 7.87 9.554a7.25 7.25 0 0 0 7.028-5.34l5.059-15.18 7.87-8.433v17.43c0 1.969.563 3.933 1.407 5.62l-5.62 50.602c0 1.403 0 2.528.562 3.653H14.762c-1.684 0-2.809 1.125-2.809 2.812 0 1.688 1.125 2.809 2.809 2.809h40.48c1.688 0 2.813-1.121 2.813-2.809v-24.457H98.25c1.688 0 2.813-1.125 2.813-2.812v-23.332l77.585-.282c1.688 0 2.809-1.402 2.809-2.808s-1.121-2.813-2.809-2.813m-46.664-1.968-5.058-15.743c-.281-.84 0-1.964 1.12-2.527l9.56-5.621 5.062 11.805.84 1.687 7.87 12.367h-19.675c.563-.562.563-1.125.281-1.968m32.328 1.968h-6.183l-9.559-15.18c-.28-.28-.28-.562-.562-1.124l-5.34-12.649 4.777-2.531c.282 0 .282-.281.563-.562l5.058 13.496c.844 2.527 1.125 2.808 11.246 18.55M102.47 69.098c1.125-.844 1.969-1.965 2.25-3.371l2.808-13.493c2.532-12.09 17.149-14.898 31.766-20.804 5.902-2.246 8.434 2.812 28.11 14.054.562.563.843 1.407 8.152 12.934.843 1.406 0 2.809-1.125 3.09-.84.281-1.684 0-2.246-.844-9.559-13.492-8.996-13.492-10.684-14.336l-16.586-9.836c-1.125-.562-2.246-.562-3.09.281-.844.84-1.406 1.965-.844 3.09l7.31 23.614c1.124 3.656-.563 7.308-3.657 9.277l-19.395 10.68c-3.375 1.687-4.781 5.625-3.656 9.277l5.063 15.742c0 .281.28.563.28.563h-6.187l-6.183-19.395c-1.407-3.937 0-8.715 3.937-10.965l11.524-7.027c1.125-.563 1.687-1.969 1.125-3.375l-7.309-21.645c-.281-1.125-1.406-1.683-2.531-1.964-1.121 0-2.246.558-2.809 1.402l-14.055 27.27a271 271 0 0 0-11.246 5.34c-.28-1.126-.843-2.25-1.406-3.094ZM17.293 89.62c-.563.563-1.125 1.402-1.406 2.246l-4.496 14.617c-.282.844-1.125 1.407-1.97 1.407-1.405 0-2.53-1.125-2.25-2.528l3.938-14.617L27.414 71.63c1.406-1.688 3.934-2.813 6.184-2.531 19.675 1.406 22.207.28 25.3 2.812l8.993 7.309c3.093 2.531 7.59 3.375 11.527 1.969l6.465-2.25c.844-.282 1.969.28 1.969 1.124s-.282 1.407-1.125 1.688l-9.278 3.371c-3.37 1.125-7.027.563-9.84-1.406l-10.117-7.028c-.844-.562-1.969-.562-2.812-.28-.844.562-1.407 1.406-1.407 2.53l-.843 23.051c0 1.407.843 2.532 2.25 2.813l13.21 3.37c4.22 1.126 7.028 5.063 7.028 9.56v17.992h-5.902V122.79c0-3.652-2.528-6.746-6.184-7.59l-21.644-4.777c-3.657-.844-6.184-3.938-6.184-7.59V78.094c0-1.125-.844-2.25-1.688-2.528-1.125-.28-2.25 0-3.093.84Zm22.488 25.86 3.657.843-6.75 43.57c-.278 1.407-1.684 2.532-3.09 2.532-1.688 0-2.813-1.688-2.813-3.09l4.781-45.543q2.105 1.266 4.215 1.687m15.461 19.96c-1.687 0-2.812 1.121-2.812 2.809v24.457H41.469c.281-.562.281-1.125.562-1.687l6.746-43.29 12.649 2.813c1.125.281 1.687 1.121 1.687 2.246v12.934h-7.87Zm43.008-26.425c-1.684 0-2.809 1.125-2.809 2.812v23.332h-15.18v-17.71c.282-7.028-4.218-13.493-11.245-15.18l-10.961-2.813.28-15.46 5.622 3.937c4.215 3.09 9.84 3.933 14.898 2.25l9.56-3.375c1.124-.282 2.245-1.125 3.089-1.97 3.094-.28 5.062-2.526 15.18-6.745a5.52 5.52 0 0 0 2.53-2.531l11.243-21.364 4.5 13.215-9.559 6.465c-5.902 3.652-8.433 11.242-6.183 17.707l5.62 17.43Zm0 0"/></g><path fill="#1d2896" d="M134.234 22.156c1.684-3.375 1.965-7.031.844-10.402-2.25-7.309-9.84-11.246-17.148-8.996-7.309 2.25-11.246 10.12-8.996 17.148 3.656 11.805 19.675 13.211 25.3 2.25M119.617 8.098c4.215-1.403 8.711 1.125 10.117 5.343.563 1.965.563 4.215-.562 6.184-3.371 6.465-12.649 5.621-14.899-1.406-1.125-4.215 1.125-8.715 5.344-10.121M45.402 62.914c7.59 0 13.778-6.184 13.778-13.773 0-7.59-6.188-13.774-13.778-13.774S31.63 41.551 31.63 49.141s6.183 13.773 13.773 13.773m0-21.926c4.5 0 8.153 3.657 8.153 8.153s-3.653 8.152-8.153 8.152c-4.496 0-8.152-3.656-8.152-8.152s3.656-8.153 8.152-8.153m0 0"/><g clip-path="url(#b)"><path fill="#1d2896" d="M178.648 108.734h-7.87c-12.65-20.238-12.09-19.113-12.65-20.238l-5.905-16.023c1.968-3.375 2.25-7.309 1.125-10.965l-5.34-16.582 10.12 5.902c.278.281 6.185 8.715 8.993 12.93 1.969 2.812 5.344 3.937 8.434 3.094 5.062-1.407 7.308-7.028 4.5-11.528-8.434-13.492-7.871-13.492-9.84-14.617-17.149-9.277-23.05-18.273-33.172-14.336-15.461 5.902-32.043 9.84-35.418 25.02l-2.812 13.492-12.086 7.87c-.563.282-.844.845-1.407 1.126-.562 0-1.125 0-1.687.281l-6.465 2.246c-1.969.844-4.496.281-6.184-1.12l-8.996-7.313c-5.34-4.496-9.558-2.528-28.672-4.215-3.937-.281-8.152 1.406-10.683 4.496L6.328 87.37c-.558.563-1.121 1.406-1.121 2.531L1.551 104.52c-1.406 5.058 2.531 9.835 7.87 9.554a7.25 7.25 0 0 0 7.028-5.34l5.059-15.18 7.87-8.433v17.43c0 1.969.563 3.933 1.407 5.62l-5.62 50.602c0 1.403 0 2.528.562 3.653H14.762c-1.684 0-2.809 1.125-2.809 2.812 0 1.688 1.125 2.809 2.809 2.809h40.48c1.688 0 2.813-1.121 2.813-2.809v-24.457H98.25c1.688 0 2.813-1.125 2.813-2.812v-23.332l77.585-.282c1.688 0 2.809-1.402 2.809-2.808s-1.121-2.813-2.809-2.813m-46.664-1.968-5.058-15.743c-.281-.84 0-1.964 1.12-2.527l9.56-5.621 5.062 11.805.84 1.687 7.87 12.367h-19.675c.563-.562.563-1.125.281-1.968m32.328 1.968h-6.183l-9.559-15.18c-.28-.28-.28-.562-.562-1.124l-5.34-12.649 4.777-2.531c.282 0 .282-.281.563-.562l5.058 13.496c.844 2.527 1.125 2.808 11.246 18.55M102.47 69.098c1.125-.844 1.969-1.965 2.25-3.371l2.808-13.493c2.532-12.09 17.149-14.898 31.766-20.804 5.902-2.246 8.434 2.812 28.11 14.054.562.563.843 1.407 8.152 12.934.843 1.406 0 2.809-1.125 3.09-.84.281-1.684 0-2.246-.844-9.559-13.492-8.996-13.492-10.684-14.336l-16.586-9.836c-1.125-.562-2.246-.562-3.09.281-.844.84-1.406 1.965-.844 3.09l7.31 23.614c1.124 3.656-.563 7.308-3.657 9.277l-19.395 10.68c-3.375 1.687-4.781 5.625-3.656 9.277l5.063 15.742c0 .281.28.563.28.563h-6.187l-6.183-19.395c-1.407-3.937 0-8.715 3.937-10.965l11.524-7.027c1.125-.563 1.687-1.969 1.125-3.375l-7.309-21.645c-.281-1.125-1.406-1.683-2.531-1.964-1.121 0-2.246.558-2.809 1.402l-14.055 27.27a271 271 0 0 0-11.246 5.34c-.28-1.126-.843-2.25-1.406-3.094ZM17.293 89.62c-.563.563-1.125 1.402-1.406 2.246l-4.496 14.617c-.282.844-1.125 1.407-1.97 1.407-1.405 0-2.53-1.125-2.25-2.528l3.938-14.617L27.414 71.63c1.406-1.688 3.934-2.813 6.184-2.531 19.675 1.406 22.207.28 25.3 2.812l8.993 7.309c3.093 2.531 7.59 3.375 11.527 1.969l6.465-2.25c.844-.282 1.969.28 1.969 1.124s-.282 1.407-1.125 1.688l-9.278 3.371c-3.37 1.125-7.027.563-9.84-1.406l-10.117-7.028c-.844-.562-1.969-.562-2.812-.28-.844.562-1.407 1.406-1.407 2.53l-.843 23.051c0 1.407.843 2.532 2.25 2.813l13.21 3.37c4.22 1.126 7.028 5.063 7.028 9.56v17.992h-5.902V122.79c0-3.652-2.528-6.746-6.184-7.59l-21.644-4.777c-3.657-.844-6.184-3.938-6.184-7.59V78.094c0-1.125-.844-2.25-1.688-2.528-1.125-.28-2.25 0-3.093.84Zm22.488 25.86 3.657.843-6.75 43.57c-.278 1.407-1.684 2.532-3.09 2.532-1.688 0-2.813-1.688-2.813-3.09l4.781-45.543q2.105 1.266 4.215 1.687m15.461 19.96c-1.687 0-2.812 1.121-2.812 2.809v24.457H41.469c.281-.562.281-1.125.562-1.687l6.746-43.29 12.649 2.813c1.125.281 1.687 1.121 1.687 2.246v12.934h-7.87Zm43.008-26.425c-1.684 0-2.809 1.125-2.809 2.812v23.332h-15.18v-17.71c.282-7.028-4.218-13.493-11.245-15.18l-10.961-2.813.28-15.46 5.622 3.937c4.215 3.09 9.84 3.933 14.898 2.25l9.56-3.375c1.124-.282 2.245-1.125 3.089-1.97 3.094-.28 5.062-2.526 15.18-6.745a5.52 5.52 0 0 0 2.53-2.531l11.243-21.364 4.5 13.215-9.559 6.465c-5.902 3.652-8.433 11.242-6.183 17.707l5.62 17.43Zm0 0"/></g><path fill="#1d2896" d="M134.234 22.156c1.684-3.375 1.965-7.031.844-10.402-2.25-7.309-9.84-11.246-17.148-8.996-7.309 2.25-11.246 10.12-8.996 17.148 3.656 11.805 19.675 13.211 25.3 2.25M119.617 8.098c4.215-1.403 8.711 1.125 10.117 5.343.563 1.965.563 4.215-.562 6.184-3.371 6.465-12.649 5.621-14.899-1.406-1.125-4.215 1.125-8.715 5.344-10.121m0 0"/></svg>