<svg xmlns="http://www.w3.org/2000/svg" width="246" height="243" version="1.0" viewBox="0 0 184.5 182.25"><defs><clipPath id="a"><path d="M1 112h182v69.504H1Zm0 0"/></clipPath><clipPath id="b"><path d="M1 112h182v69.504H1Zm0 0"/></clipPath></defs><path fill="#1d2896" d="M154.285 86.852c-1.34-.618-2.535-1.45-3.55-2.54l-8.048-8.624-6.707 15.078 2.465 3.043a25.55 25.55 0 0 0 20.77 9.46l4.351-.144 6.743-15.078-11.782-.254a11.5 11.5 0 0 1-4.242-.941m0 0"/><path fill="#1d2896" d="M136.563 83.008c.578-1.27.433-2.281-.11-2.934l4.277-9.57 11.528 12.36a9.04 9.04 0 0 0 6.304 2.827l22.188.473c1.484.035 2.281-1.742 1.266-2.828l-15.114-16.168a9.05 9.05 0 0 0-6.308-2.828l-22.184-.469c-1.484-.039-2.285 1.738-1.27 2.824l2.54 2.72-4.496 10.007c-.907-.11-1.813.543-2.211 1.45-.832 1.847.289 2.136-.907 5.944-.144 1.848 4.024-2.718 4.496-3.808m-44.765 25.375c13.918 0 25.191-15.442 25.191-29.363 0-13.918-11.273-25.227-25.191-25.227-13.922 0-25.195 11.273-25.195 25.227 0 13.921 11.273 29.363 25.195 29.363m0 0"/><g clip-path="url(#a)"><path fill="#1d2896" d="m171.07 117.77-19.03 6.671-30.411-11.203-.328-.105c-1.414-.547-2.899-.871-4.496-.871H66.82c-1.593 0-3.117.324-4.496.87l-.324.106-30.414 11.203-19.066-6.671c-4.422-1.56-9.278.761-10.801 5.183-1.559 4.422.797 9.281 5.219 10.84l21.93 7.684a8.2 8.2 0 0 0 2.827.472 9.2 9.2 0 0 0 2.938-.508l18.922-6.96-4.352 37.156c-.871 5.074 3.008 9.75 8.192 9.75h68.945c5.148 0 9.062-4.676 8.191-9.75l-4.347-37.157 18.918 6.961c.945.364 1.921.508 2.937.508.941 0 1.887-.144 2.828-.472l21.93-7.684c4.422-1.559 6.742-6.379 5.183-10.8-1.632-4.462-6.488-6.782-10.91-5.223m0 0"/></g><path fill="#1d2896" d="M23.176 71.59a.57.57 0 0 0 .293-.219c.035-.035.035-.07.07-.07q.054-.11.11-.219c.035-.07.035-.18.035-.254 0-.254-.18-.433-.434-.508-.11-.035-.254-.035-.398-.035l-9.825 1.594c-.035 0-.109.039-.144.039a.67.67 0 0 0-.363.254.74.74 0 0 0-.22.543c0 .144.075.289.22.398q.109.051.218.11c.035 0 .07.035.11.035.07.035.18.035.289 0l9.824-1.594c.07-.039.144-.039.215-.074m2.284 5.8c.036 0 .071-.035.11-.035.325-.148.543-.437.508-.761-.039-.399-.398-.617-.836-.543l-9.824 1.594c-.434.07-.758.433-.723.796s.399.618.832.543l9.825-1.593zm-8.12 6.27a.74.74 0 0 0-.215.543c.035.399.398.617.832.547l9.824-1.598c.035 0 .07 0 .11-.035.035 0 .07-.035.105-.035a.6.6 0 0 0 .293-.219c.145-.144.254-.324.215-.543-.035-.363-.399-.617-.832-.543l-9.824 1.594c-.18.035-.364.145-.508.29m2.758 5.511a.54.54 0 0 0-.254.144.76.76 0 0 0-.328.618c0 .144.074.289.218.398.07.035.145.07.215.106.11.039.254.074.399.039l9.824-1.598c.074 0 .144-.035.219-.07a.54.54 0 0 0 .289-.22c.035-.034.035-.07.074-.07q.051-.109.11-.218c.034-.074.034-.18.034-.254a.5.5 0 0 0-.074-.219c-.07-.144-.215-.215-.363-.289-.106-.035-.25-.035-.398-.035l-9.82 1.594c-.04.035-.075.074-.145.074m0 0"/><path fill="#1d2896" d="M10.89 97.29c.036.073.07.144.106.253 1.305 2.863 5.184 3.914 8.7 2.465L36.48 93.05l1.016-.438h.035l16.746-7.031c3.48-1.45 5.438-4.965 4.352-7.937a.5.5 0 0 1-.074-.254l-9.426-22.547-2.899 1.593-1.015-2.464-2.68 1.812-1.015-2.465-13.45 9.645c-1.195.867-1.847 2.426-1.847 4.129-1.235-1.196-2.754-1.848-4.243-1.594L5.742 68.184l1.016 2.464-3.192.653 1.016 2.465-3.152.941Zm33.348-41.25 8.953 21.386c.832 1.996.29 4.312-1.234 5.367l-6.414 3.66 4.203-3.047c1.848-1.34 2.395-4.312 1.27-6.996l-8.121-19.43Zm-16.422 9.968c.145-.942.582-1.703 1.125-2.102l11.598-8.41 8.992 21.531c1.012 2.395.434 4.676-.652 5.473l-11.602 8.41-8.987-21.53c-.398-.977-.543-1.922-.508-2.754 0-.219.035-.437.035-.617m-5.836.797c.653-.11 1.489.11 2.286.691.144.106.324.25.468.399a6.7 6.7 0 0 1 1.598 2.28l8.988 21.532-14.136 2.32c-1.38.22-3.372-.976-4.352-3.37L7.844 69.124ZM7.266 71.844l8.117 19.43c1.125 2.718 3.59 4.386 5.87 4.023l5.15-.871-7.106 1.996c-1.848.36-3.84-.906-4.676-2.902L5.668 72.133Zm0 0"/><path fill="#1d2896" d="m31.55 68.074.22-.11 8.046-5.87c.36-.254.434-.688.18-.98l-.11-.11c-.07-.07-.179-.07-.288-.106a.58.58 0 0 0-.434.036.54.54 0 0 0-.254.144l-8.047 5.871c-.363.254-.437.692-.183.98.183.255.543.29.87.145m1.485 5.617c.11.11.254.184.399.22h.109-.035.219-.04c.075 0 .145-.036.184-.036.07-.04.145-.074.18-.11l8.047-5.87c.363-.254.437-.692.183-.98-.183-.22-.508-.29-.836-.18a1 1 0 0 0-.289.144L33.11 72.75c-.218.219-.328.652-.074.941m2.394 5.731a.76.76 0 0 0 .867.144h.039c.035 0 .035-.039.035-.039.035-.035.11-.035.145-.07l8.047-5.871c.363-.254.437-.691.183-.98a.6.6 0 0 0-.254-.18.8.8 0 0 0-.293-.074 1 1 0 0 0-.543.18l-8.011 5.91c-.36.253-.434.687-.215.98m2.43 5.762c.214.254.578.289.906.144q.107-.051.214-.11l8.047-5.87c.04-.035.11-.075.145-.145a.5.5 0 0 1 .11-.144c.073-.11.073-.22.073-.329 0-.07 0-.144-.039-.18a1 1 0 0 0-.105-.183c-.04-.035-.074-.07-.11-.105-.074-.075-.183-.075-.288-.11a.6.6 0 0 0-.438.035c-.035 0-.07.036-.145.075-.035.035-.07.035-.144.07l-8.047 5.871c-.363.254-.434.692-.18.98m37.805-48.535c.074.106.18.18.254.29 3.988 4.242 9.387 6.667 15.223 6.851h.945c6.45-.074 12.289-3.008 16.238-7.578.543-.652 1.086-1.305 1.559-2.027a21.54 21.54 0 0 0 3.734-11.567c.145-4.637-1.16-9.097-3.734-12.832a21 21 0 0 0-1.559-2.027c-.219-.254-.433-.508-.652-.727C103.684 2.793 98.285.363 92.449.18 86.613 0 81.066 2.102 76.824 6.125c-.398.398-.797.797-1.16 1.195a17 17 0 0 0-1.594 1.996c-2.5 3.48-3.914 7.649-4.062 12.07a21.78 21.78 0 0 0 4.062 13.34c.508.618 1.016 1.27 1.594 1.922m22.258 3.586c1.484-1.812 2.68-4.238 3.586-7.14 1.488.398 2.867.87 4.097 1.449.18.074.364.184.543.293a19.1 19.1 0 0 1-8.226 5.398m9.824-7.43c-1.598-.87-3.48-1.593-5.621-2.136.543-2.469.871-5.184.906-8.05h8.047a19.5 19.5 0 0 1-3.332 10.187m0-21.675a18.7 18.7 0 0 1 3.223 8.918h-7.973c-.11-2.395-.398-4.676-.871-6.781 2.14-.543 4.023-1.266 5.621-2.137m-1.922-2.395c.11.11.215.22.324.364-.18.109-.363.183-.578.289-1.234.582-2.61 1.054-4.097 1.453-.907-2.902-2.137-5.332-3.625-7.14 3.047.94 5.765 2.679 7.976 5.034M93.207 3.082c1.633.723 3.191 2.426 4.426 4.93.504 1.015.941 2.136 1.34 3.336-1.848.324-3.805.468-5.836.504Zm-.07 11.309c2.281-.036 4.496-.22 6.523-.578.438 1.957.727 4.058.836 6.234h-7.394Zm-.075 8.191h7.434c-.039 2.648-.328 5.184-.871 7.54a39 39 0 0 0-6.633-.579Zm-.035 9.496c2.067 0 4.098.184 5.98.508-.362 1.2-.831 2.32-1.339 3.336-1.305 2.644-2.973 4.422-4.715 5.039ZM77.875 35.27c1.305-.688 2.793-1.27 4.387-1.739.87 2.719 2.066 5 3.48 6.742-2.972-1.015-5.656-2.683-7.867-5.003m12.543 5.582c-1.633-.727-3.191-2.43-4.422-4.93-.473-.942-.871-1.957-1.234-3.043a35.5 35.5 0 0 1 5.726-.762Zm.07-11.274c-2.246.11-4.383.399-6.449.836-.582-2.43-.906-5.078-.945-7.867h7.433Zm.075-9.531h-7.395c.11-2.285.398-4.531.906-6.563 2.067.434 4.278.727 6.563.871Zm.109-17.074-.074 8.843a38 38 0 0 1-5.871-.761c.363-1.086.761-2.102 1.23-3.043 1.344-2.649 3.012-4.422 4.715-5.04m-12.07 4.965a19.3 19.3 0 0 1 7.14-4.278c-1.414 1.742-2.61 4.024-3.48 6.742-1.594-.468-3.082-1.05-4.387-1.738.219-.254.473-.508.727-.726m-2.395 2.718c.074.035.184.11.293.145q2.28 1.253 5.11 2.066a40 40 0 0 0-.981 7.18h-7.973a18.95 18.95 0 0 1 3.551-9.39m4.352 11.926c.035 3.047.398 5.91 1.015 8.484-1.851.543-3.59 1.23-5.113 2.067-.07.035-.18.105-.254.144a18.94 18.94 0 0 1-3.66-10.695zm73.511 19.574a2.8 2.8 0 0 0 2.282 1.16c.582 0 1.16-.18 1.668-.543a2.84 2.84 0 0 0 .617-3.953 93 93 0 0 0-4.387-5.507c-1.016-1.16-2.828-1.305-3.988-.29-1.16 1.016-1.305 2.825-.29 3.985 1.45 1.668 2.829 3.37 4.098 5.148M24.844 43.86a2.7 2.7 0 0 0 1.633.507 2.91 2.91 0 0 0 2.32-1.195 78 78 0 0 1 4.023-5.184A2.826 2.826 0 0 0 32.492 34a2.82 2.82 0 0 0-3.988.328 78 78 0 0 0-4.313 5.547 2.84 2.84 0 0 0 .653 3.984m137.89 13.414c.47 1.086 1.485 1.704 2.61 1.704.363 0 .761-.075 1.12-.22a2.8 2.8 0 0 0 1.49-3.694c-.907-2.141-1.958-4.278-3.048-6.344-.722-1.38-2.465-1.887-3.84-1.16-1.379.722-1.886 2.464-1.16 3.84 1.016 1.886 1.957 3.878 2.828 5.874M137.14 25.266a78 78 0 0 1 5.114 4.058 2.78 2.78 0 0 0 1.848.688c.796 0 1.593-.325 2.136-.977 1.016-1.195.907-2.972-.289-3.988a93 93 0 0 0-5.508-4.387c-1.27-.906-3.046-.652-3.953.617-.87 1.27-.578 3.047.653 3.989m-98.629 5.617c.652 0 1.34-.254 1.883-.723 1.632-1.453 3.335-2.828 5.074-4.172 1.234-.941 1.488-2.718.582-3.949-.946-1.234-2.719-1.484-3.953-.543-1.848 1.414-3.696 2.899-5.438 4.457a2.817 2.817 0 0 0-.215 3.988c.508.618 1.266.942 2.067.942M16.727 59.992q.54.216 1.085.215c1.125 0 2.176-.652 2.61-1.773a79 79 0 0 1 2.719-5.946c.726-1.379.18-3.082-1.23-3.808-1.38-.723-3.083-.145-3.81 1.234a84 84 0 0 0-2.933 6.379c-.582 1.45.105 3.117 1.559 3.7m36.5-39.548c.472 0 .941-.11 1.378-.363a67 67 0 0 1 5.872-2.898c1.414-.657 2.066-2.32 1.414-3.735-.653-1.414-2.32-2.066-3.735-1.449a84 84 0 0 0-6.308 3.117c-1.375.758-1.848 2.465-1.121 3.84a2.85 2.85 0 0 0 2.5 1.488m68.761-3.769c1.996.832 3.989 1.812 5.91 2.824.434.219.872.328 1.305.328a2.8 2.8 0 0 0 2.5-1.523c.727-1.375.219-3.082-1.16-3.805a83 83 0 0 0-6.344-3.008 2.82 2.82 0 0 0-3.695 1.485 2.807 2.807 0 0 0 1.484 3.699m32.297 70.176c-1.34-.618-2.535-1.45-3.55-2.54l-8.048-8.624-6.707 15.078 2.465 3.043a25.55 25.55 0 0 0 20.77 9.46l4.351-.144 6.743-15.078-11.782-.254a11.5 11.5 0 0 1-4.242-.941m0 0"/><path fill="#1d2896" d="M136.563 83.008c.578-1.27.433-2.281-.11-2.934l4.277-9.57 11.528 12.36a9.04 9.04 0 0 0 6.304 2.827l22.188.473c1.484.035 2.281-1.742 1.266-2.828l-15.114-16.168a9.05 9.05 0 0 0-6.308-2.828l-22.184-.469c-1.484-.039-2.285 1.738-1.27 2.824l2.54 2.72-4.496 10.007c-.907-.11-1.813.543-2.211 1.45-.832 1.847.289 2.136-.907 5.944-.144 1.848 4.024-2.718 4.496-3.808m-44.765 25.375c13.918 0 25.191-15.442 25.191-29.363 0-13.918-11.273-25.227-25.191-25.227-13.922 0-25.195 11.273-25.195 25.227 0 13.921 11.273 29.363 25.195 29.363m0 0"/><g clip-path="url(#b)"><path fill="#1d2896" d="m171.07 117.77-19.03 6.671-30.411-11.203-.328-.105c-1.414-.547-2.899-.871-4.496-.871H66.82c-1.593 0-3.117.324-4.496.87l-.324.106-30.414 11.203-19.066-6.671c-4.422-1.56-9.278.761-10.801 5.183-1.559 4.422.797 9.281 5.219 10.84l21.93 7.684a8.2 8.2 0 0 0 2.827.472 9.2 9.2 0 0 0 2.938-.508l18.922-6.96-4.352 37.156c-.871 5.074 3.008 9.75 8.192 9.75h68.945c5.148 0 9.062-4.676 8.191-9.75l-4.347-37.157 18.918 6.961c.945.364 1.921.508 2.937.508.941 0 1.887-.144 2.828-.472l21.93-7.684c4.422-1.559 6.742-6.379 5.183-10.8-1.632-4.462-6.488-6.782-10.91-5.223m0 0"/></g><path fill="#1d2896" d="M23.176 71.59a.57.57 0 0 0 .293-.219c.035-.035.035-.07.07-.07q.054-.11.11-.219c.035-.07.035-.18.035-.254 0-.254-.18-.433-.434-.508-.11-.035-.254-.035-.398-.035l-9.825 1.594c-.035 0-.109.039-.144.039a.67.67 0 0 0-.363.254.74.74 0 0 0-.22.543c0 .144.075.289.22.398q.109.051.218.11c.035 0 .07.035.11.035.07.035.18.035.289 0l9.824-1.594c.07-.039.144-.039.215-.074m2.284 5.8c.036 0 .071-.035.11-.035.325-.148.543-.437.508-.761-.039-.399-.398-.617-.836-.543l-9.824 1.594c-.434.07-.758.433-.723.796s.399.618.832.543l9.825-1.593zm-8.12 6.27a.74.74 0 0 0-.215.543c.035.399.398.617.832.547l9.824-1.598c.035 0 .07 0 .11-.035.035 0 .07-.035.105-.035a.6.6 0 0 0 .293-.219c.145-.144.254-.324.215-.543-.035-.363-.399-.617-.832-.543l-9.824 1.594c-.18.035-.364.145-.508.29m2.758 5.511a.54.54 0 0 0-.254.144.76.76 0 0 0-.328.618c0 .144.074.289.218.398.07.035.145.07.215.106.11.039.254.074.399.039l9.824-1.598c.074 0 .144-.035.219-.07a.54.54 0 0 0 .289-.22c.035-.034.035-.07.074-.07q.051-.109.11-.218c.034-.074.034-.18.034-.254a.5.5 0 0 0-.074-.219c-.07-.144-.215-.215-.363-.289-.106-.035-.25-.035-.398-.035l-9.82 1.594c-.04.035-.075.074-.145.074m0 0"/><path fill="#1d2896" d="M10.89 97.29c.036.073.07.144.106.253 1.305 2.863 5.184 3.914 8.7 2.465L36.48 93.05l1.016-.438h.035l16.746-7.031c3.48-1.45 5.438-4.965 4.352-7.937a.5.5 0 0 1-.074-.254l-9.426-22.547-2.899 1.593-1.015-2.464-2.68 1.812-1.015-2.465-13.45 9.645c-1.195.867-1.847 2.426-1.847 4.129-1.235-1.196-2.754-1.848-4.243-1.594L5.742 68.184l1.016 2.464-3.192.653 1.016 2.465-3.152.941Zm33.348-41.25 8.953 21.386c.832 1.996.29 4.312-1.234 5.367l-6.414 3.66 4.203-3.047c1.848-1.34 2.395-4.312 1.27-6.996l-8.121-19.43Zm-16.422 9.968c.145-.942.582-1.703 1.125-2.102l11.598-8.41 8.992 21.531c1.012 2.395.434 4.676-.652 5.473l-11.602 8.41-8.987-21.53c-.398-.977-.543-1.922-.508-2.754 0-.219.035-.437.035-.617m-5.836.797c.653-.11 1.489.11 2.286.691.144.106.324.25.468.399a6.7 6.7 0 0 1 1.598 2.28l8.988 21.532-14.136 2.32c-1.38.22-3.372-.976-4.352-3.37L7.844 69.124ZM7.266 71.844l8.117 19.43c1.125 2.718 3.59 4.386 5.87 4.023l5.15-.871-7.106 1.996c-1.848.36-3.84-.906-4.676-2.902L5.668 72.133Zm0 0"/><path fill="#1d2896" d="m31.55 68.074.22-.11 8.046-5.87c.36-.254.434-.688.18-.98l-.11-.11c-.07-.07-.179-.07-.288-.106a.58.58 0 0 0-.434.036.54.54 0 0 0-.254.144l-8.047 5.871c-.363.254-.437.692-.183.98.183.255.543.29.87.145m1.485 5.617c.11.11.254.184.399.22h.109-.035.219-.04c.075 0 .145-.036.184-.036.07-.04.145-.074.18-.11l8.047-5.87c.363-.254.437-.692.183-.98-.183-.22-.508-.29-.836-.18a1 1 0 0 0-.289.144L33.11 72.75c-.218.219-.328.652-.074.941m2.394 5.731a.76.76 0 0 0 .867.144h.039c.035 0 .035-.039.035-.039.035-.035.11-.035.145-.07l8.047-5.871c.363-.254.437-.691.183-.98a.6.6 0 0 0-.254-.18.8.8 0 0 0-.293-.074 1 1 0 0 0-.543.18l-8.011 5.91c-.36.253-.434.687-.215.98m2.43 5.762c.214.254.578.289.906.144q.107-.051.214-.11l8.047-5.87c.04-.035.11-.075.145-.145a.5.5 0 0 1 .11-.144c.073-.11.073-.22.073-.329 0-.07 0-.144-.039-.18a1 1 0 0 0-.105-.183c-.04-.035-.074-.07-.11-.105-.074-.075-.183-.075-.288-.11a.6.6 0 0 0-.438.035c-.035 0-.07.036-.145.075-.035.035-.07.035-.144.07l-8.047 5.871c-.363.254-.434.692-.18.98m37.805-48.535c.074.106.18.18.254.29 3.988 4.242 9.387 6.667 15.223 6.851h.945c6.45-.074 12.289-3.008 16.238-7.578.543-.652 1.086-1.305 1.559-2.027a21.54 21.54 0 0 0 3.734-11.567c.145-4.637-1.16-9.097-3.734-12.832a21 21 0 0 0-1.559-2.027c-.219-.254-.433-.508-.652-.727C103.684 2.793 98.285.363 92.449.18 86.613 0 81.066 2.102 76.824 6.125c-.398.398-.797.797-1.16 1.195a17 17 0 0 0-1.594 1.996c-2.5 3.48-3.914 7.649-4.062 12.07a21.78 21.78 0 0 0 4.062 13.34c.508.618 1.016 1.27 1.594 1.922m22.258 3.586c1.484-1.812 2.68-4.238 3.586-7.14 1.488.398 2.867.87 4.097 1.449.18.074.364.184.543.293a19.1 19.1 0 0 1-8.226 5.398m9.824-7.43c-1.598-.87-3.48-1.593-5.621-2.136.543-2.469.871-5.184.906-8.05h8.047a19.5 19.5 0 0 1-3.332 10.187m0-21.675a18.7 18.7 0 0 1 3.223 8.918h-7.973c-.11-2.395-.398-4.676-.871-6.781 2.14-.543 4.023-1.266 5.621-2.137m-1.922-2.395c.11.11.215.22.324.364-.18.109-.363.183-.578.289-1.234.582-2.61 1.054-4.097 1.453-.907-2.902-2.137-5.332-3.625-7.14 3.047.94 5.765 2.679 7.976 5.034M93.207 3.082c1.633.723 3.191 2.426 4.426 4.93.504 1.015.941 2.136 1.34 3.336-1.848.324-3.805.468-5.836.504Zm-.07 11.309c2.281-.036 4.496-.22 6.523-.578.438 1.957.727 4.058.836 6.234h-7.394Zm-.075 8.191h7.434c-.039 2.648-.328 5.184-.871 7.54a39 39 0 0 0-6.633-.579Zm-.035 9.496c2.067 0 4.098.184 5.98.508-.362 1.2-.831 2.32-1.339 3.336-1.305 2.644-2.973 4.422-4.715 5.039ZM77.875 35.27c1.305-.688 2.793-1.27 4.387-1.739.87 2.719 2.066 5 3.48 6.742-2.972-1.015-5.656-2.683-7.867-5.003m12.543 5.582c-1.633-.727-3.191-2.43-4.422-4.93-.473-.942-.871-1.957-1.234-3.043a35.5 35.5 0 0 1 5.726-.762Zm.07-11.274c-2.246.11-4.383.399-6.449.836-.582-2.43-.906-5.078-.945-7.867h7.433Zm.075-9.531h-7.395c.11-2.285.398-4.531.906-6.563 2.067.434 4.278.727 6.563.871Zm.109-17.074-.074 8.843a38 38 0 0 1-5.871-.761c.363-1.086.761-2.102 1.23-3.043 1.344-2.649 3.012-4.422 4.715-5.04m-12.07 4.965a19.3 19.3 0 0 1 7.14-4.278c-1.414 1.742-2.61 4.024-3.48 6.742-1.594-.468-3.082-1.05-4.387-1.738.219-.254.473-.508.727-.726m-2.395 2.718c.074.035.184.11.293.145q2.28 1.253 5.11 2.066a40 40 0 0 0-.981 7.18h-7.973a18.95 18.95 0 0 1 3.551-9.39m4.352 11.926c.035 3.047.398 5.91 1.015 8.484-1.851.543-3.59 1.23-5.113 2.067-.07.035-.18.105-.254.144a18.94 18.94 0 0 1-3.66-10.695zm73.511 19.574a2.8 2.8 0 0 0 2.282 1.16c.582 0 1.16-.18 1.668-.543a2.84 2.84 0 0 0 .617-3.953 93 93 0 0 0-4.387-5.507c-1.016-1.16-2.828-1.305-3.988-.29-1.16 1.016-1.305 2.825-.29 3.985 1.45 1.668 2.829 3.37 4.098 5.148M24.844 43.86a2.7 2.7 0 0 0 1.633.507 2.91 2.91 0 0 0 2.32-1.195 78 78 0 0 1 4.023-5.184A2.826 2.826 0 0 0 32.492 34a2.82 2.82 0 0 0-3.988.328 78 78 0 0 0-4.313 5.547 2.84 2.84 0 0 0 .653 3.984m137.89 13.414c.47 1.086 1.485 1.704 2.61 1.704.363 0 .761-.075 1.12-.22a2.8 2.8 0 0 0 1.49-3.694c-.907-2.141-1.958-4.278-3.048-6.344-.722-1.38-2.465-1.887-3.84-1.16-1.379.722-1.886 2.464-1.16 3.84 1.016 1.886 1.957 3.878 2.828 5.874M137.14 25.266a78 78 0 0 1 5.114 4.058 2.78 2.78 0 0 0 1.848.688c.796 0 1.593-.325 2.136-.977 1.016-1.195.907-2.972-.289-3.988a93 93 0 0 0-5.508-4.387c-1.27-.906-3.046-.652-3.953.617-.87 1.27-.578 3.047.653 3.989m-98.629 5.617c.652 0 1.34-.254 1.883-.723 1.632-1.453 3.335-2.828 5.074-4.172 1.234-.941 1.488-2.718.582-3.949-.946-1.234-2.719-1.484-3.953-.543-1.848 1.414-3.696 2.899-5.438 4.457a2.817 2.817 0 0 0-.215 3.988c.508.618 1.266.942 2.067.942M16.727 59.992q.54.216 1.085.215c1.125 0 2.176-.652 2.61-1.773a79 79 0 0 1 2.719-5.946c.726-1.379.18-3.082-1.23-3.808-1.38-.723-3.083-.145-3.81 1.234a84 84 0 0 0-2.933 6.379c-.582 1.45.105 3.117 1.559 3.7m36.5-39.548c.472 0 .941-.11 1.378-.363a67 67 0 0 1 5.872-2.898c1.414-.657 2.066-2.32 1.414-3.735-.653-1.414-2.32-2.066-3.735-1.449a84 84 0 0 0-6.308 3.117c-1.375.758-1.848 2.465-1.121 3.84a2.85 2.85 0 0 0 2.5 1.488m68.761-3.769c1.996.832 3.989 1.812 5.91 2.824.434.219.872.328 1.305.328a2.8 2.8 0 0 0 2.5-1.523c.727-1.375.219-3.082-1.16-3.805a83 83 0 0 0-6.344-3.008 2.82 2.82 0 0 0-3.695 1.485 2.807 2.807 0 0 0 1.484 3.699m0 0"/></svg>