<svg xmlns="http://www.w3.org/2000/svg" width="220" height="220" version="1.0" viewBox="0 0 165 165"><defs><clipPath id="a"><path d="M.547 0h163.898v125.828H.547Zm0 0"/></clipPath><clipPath id="b"><path d="M164.445 0c-.238 6.328-2.718 72.273-2.965 78.742.016-.375-.617 16.406-1.222 32.57-.305 8.075-6.95 14.454-15.024 14.454-135.265-.09-127.02.586-131.195-1.13-5.289-2.171-9.078-7.273-9.305-13.323L.547 0Zm0 0"/></clipPath><clipPath id="c"><path d="M164.445 0c-.238 6.328-2.718 72.273-2.965 78.742.016-.375-.617 16.406-1.222 32.57-.305 8.075-6.95 14.454-15.024 14.454-135.265-.09-127.02.586-131.195-1.13-5.289-2.171-9.078-7.273-9.305-13.323L.547 0z"/></clipPath><clipPath id="e"><path d="M58 133h2v31.008h-2Zm0 0"/></clipPath><clipPath id="f"><path d="M42 109h8v55.008h-8Zm0 0"/></clipPath><clipPath id="g"><path d="M.547 0h163.898v125.828H.547Zm0 0"/></clipPath><clipPath id="h"><path d="M164.445 0c-.238 6.328-2.718 72.273-2.965 78.742.016-.375-.617 16.406-1.222 32.57-.305 8.075-6.95 14.454-15.024 14.454-135.265-.09-127.02.586-131.195-1.13-5.289-2.171-9.078-7.273-9.305-13.323L.547 0Zm0 0"/></clipPath><clipPath id="i"><path d="M164.445 0c-.238 6.328-2.718 72.273-2.965 78.742.016-.375-.617 16.406-1.222 32.57-.305 8.075-6.95 14.454-15.024 14.454-135.265-.09-127.02.586-131.195-1.13-5.289-2.171-9.078-7.273-9.305-13.323L.547 0z"/></clipPath><clipPath id="k"><path d="M58 133h2v31.008h-2Zm0 0"/></clipPath><clipPath id="l"><path d="M42 109h8v55.008h-8Zm0 0"/></clipPath><clipPath id="m"><path d="M.547 0h163.898v125.828H.547Zm0 0"/></clipPath><clipPath id="n"><path d="M164.445 0c-.238 6.328-2.718 72.273-2.965 78.742.016-.375-.617 16.406-1.222 32.57-.305 8.075-6.95 14.454-15.024 14.454-135.265-.09-127.02.586-131.195-1.13-5.289-2.171-9.078-7.273-9.305-13.323L.547 0Zm0 0"/></clipPath><clipPath id="o"><path d="M164.445 0c-.238 6.328-2.718 72.273-2.965 78.742.016-.375-.617 16.406-1.222 32.57-.305 8.075-6.95 14.454-15.024 14.454-135.265-.09-127.02.586-131.195-1.13-5.289-2.171-9.078-7.273-9.305-13.323L.547 0z"/></clipPath><clipPath id="q"><path d="M58 133h2v31.008h-2Zm0 0"/></clipPath><clipPath id="r"><path d="M42 109h8v55.008h-8Zm0 0"/></clipPath><clipPath id="s"><path d="M.547 0h163.898v125.828H.547Zm0 0"/></clipPath><clipPath id="t"><path d="M164.445 0c-.238 6.328-2.718 72.273-2.965 78.742.016-.375-.617 16.406-1.222 32.57-.305 8.075-6.95 14.454-15.024 14.454-135.265-.09-127.02.586-131.195-1.13-5.289-2.171-9.078-7.273-9.305-13.323L.547 0Zm0 0"/></clipPath><clipPath id="u"><path d="M164.445 0c-.238 6.328-2.718 72.273-2.965 78.742.016-.375-.617 16.406-1.222 32.57-.305 8.075-6.95 14.454-15.024 14.454-135.265-.09-127.02.586-131.195-1.13-5.289-2.171-9.078-7.273-9.305-13.323L.547 0z"/></clipPath><clipPath id="w"><path d="M58 133h2v31.008h-2Zm0 0"/></clipPath><clipPath id="x"><path d="M42 109h8v55.008h-8Zm0 0"/></clipPath><linearGradient id="d" x1=".037" x2=".979" y1="0" y2="0" gradientTransform="scale(133.63948 133.46864)rotate(90 .327 .29)" gradientUnits="userSpaceOnUse"><stop offset="0" stop-color="#D5DDFF"/><stop offset=".016" stop-color="#D5DDFF"/><stop offset=".031" stop-color="#D6DDFF"/><stop offset=".063" stop-color="#D6DEFF"/><stop offset=".078" stop-color="#D7DEFF"/><stop offset=".094" stop-color="#D8DFFF"/><stop offset=".109" stop-color="#D8DFFF"/><stop offset=".125" stop-color="#D9E0FF"/><stop offset=".141" stop-color="#D9E0FF"/><stop offset=".156" stop-color="#DAE0FF"/><stop offset=".188" stop-color="#DAE0FF"/><stop offset=".203" stop-color="#DBE1FF"/><stop offset=".219" stop-color="#DCE2FF"/><stop offset=".234" stop-color="#DCE2FF"/><stop offset=".25" stop-color="#DDE3FF"/><stop offset=".266" stop-color="#DDE3FF"/><stop offset=".281" stop-color="#DEE3FF"/><stop offset=".313" stop-color="#DEE3FF"/><stop offset=".328" stop-color="#DEE4FF"/><stop offset=".344" stop-color="#DFE5FF"/><stop offset=".359" stop-color="#DFE5FF"/><stop offset=".375" stop-color="#E0E6FF"/><stop offset=".391" stop-color="#E0E6FF"/><stop offset=".406" stop-color="#E1E7FF"/><stop offset=".438" stop-color="#E1E7FF"/><stop offset=".453" stop-color="#E2E7FF"/><stop offset=".469" stop-color="#E3E8FF"/><stop offset=".484" stop-color="#E3E8FF"/><stop offset=".5" stop-color="#E4E9FF"/><stop offset=".516" stop-color="#E4E9FF"/><stop offset=".531" stop-color="#E5EAFF"/><stop offset=".563" stop-color="#E5EAFF"/><stop offset=".578" stop-color="#E6EAFF"/><stop offset=".594" stop-color="#E7EBFF"/><stop offset=".609" stop-color="#E7EBFF"/><stop offset=".625" stop-color="#E8ECFF"/><stop offset=".641" stop-color="#E8ECFF"/><stop offset=".656" stop-color="#E9EDFF"/><stop offset=".688" stop-color="#E9EDFF"/><stop offset=".703" stop-color="#EAEDFF"/><stop offset=".719" stop-color="#EBEEFF"/><stop offset=".734" stop-color="#EBEEFF"/><stop offset=".75" stop-color="#ECEFFF"/><stop offset=".766" stop-color="#ECEFFF"/><stop offset=".781" stop-color="#EDF0FF"/><stop offset=".813" stop-color="#EDF0FF"/><stop offset=".828" stop-color="#EEF1FF"/><stop offset=".844" stop-color="#EFF1FF"/><stop offset=".859" stop-color="#EFF1FF"/><stop offset=".875" stop-color="#F0F2FF"/><stop offset=".891" stop-color="#F0F2FF"/><stop offset=".906" stop-color="#F1F3FF"/><stop offset=".938" stop-color="#F1F3FF"/><stop offset=".953" stop-color="#F2F4FF"/><stop offset=".969" stop-color="#F3F4FF"/><stop offset=".984" stop-color="#F3F4FF"/><stop offset="1" stop-color="#F4F5FF"/></linearGradient><linearGradient id="j" x1=".037" x2=".979" y1="0" y2="0" gradientTransform="scale(133.63948 133.46864)rotate(90 .327 .29)" gradientUnits="userSpaceOnUse"><stop offset="0" stop-color="#D5DDFF"/><stop offset=".016" stop-color="#D5DDFF"/><stop offset=".031" stop-color="#D6DDFF"/><stop offset=".063" stop-color="#D6DEFF"/><stop offset=".078" stop-color="#D7DEFF"/><stop offset=".094" stop-color="#D8DFFF"/><stop offset=".109" stop-color="#D8DFFF"/><stop offset=".125" stop-color="#D9E0FF"/><stop offset=".141" stop-color="#D9E0FF"/><stop offset=".156" stop-color="#DAE0FF"/><stop offset=".188" stop-color="#DAE0FF"/><stop offset=".203" stop-color="#DBE1FF"/><stop offset=".219" stop-color="#DCE2FF"/><stop offset=".234" stop-color="#DCE2FF"/><stop offset=".25" stop-color="#DDE3FF"/><stop offset=".266" stop-color="#DDE3FF"/><stop offset=".281" stop-color="#DEE3FF"/><stop offset=".313" stop-color="#DEE3FF"/><stop offset=".328" stop-color="#DEE4FF"/><stop offset=".344" stop-color="#DFE5FF"/><stop offset=".359" stop-color="#DFE5FF"/><stop offset=".375" stop-color="#E0E6FF"/><stop offset=".391" stop-color="#E0E6FF"/><stop offset=".406" stop-color="#E1E7FF"/><stop offset=".438" stop-color="#E1E7FF"/><stop offset=".453" stop-color="#E2E7FF"/><stop offset=".469" stop-color="#E3E8FF"/><stop offset=".484" stop-color="#E3E8FF"/><stop offset=".5" stop-color="#E4E9FF"/><stop offset=".516" stop-color="#E4E9FF"/><stop offset=".531" stop-color="#E5EAFF"/><stop offset=".563" stop-color="#E5EAFF"/><stop offset=".578" stop-color="#E6EAFF"/><stop offset=".594" stop-color="#E7EBFF"/><stop offset=".609" stop-color="#E7EBFF"/><stop offset=".625" stop-color="#E8ECFF"/><stop offset=".641" stop-color="#E8ECFF"/><stop offset=".656" stop-color="#E9EDFF"/><stop offset=".688" stop-color="#E9EDFF"/><stop offset=".703" stop-color="#EAEDFF"/><stop offset=".719" stop-color="#EBEEFF"/><stop offset=".734" stop-color="#EBEEFF"/><stop offset=".75" stop-color="#ECEFFF"/><stop offset=".766" stop-color="#ECEFFF"/><stop offset=".781" stop-color="#EDF0FF"/><stop offset=".813" stop-color="#EDF0FF"/><stop offset=".828" stop-color="#EEF1FF"/><stop offset=".844" stop-color="#EFF1FF"/><stop offset=".859" stop-color="#EFF1FF"/><stop offset=".875" stop-color="#F0F2FF"/><stop offset=".891" stop-color="#F0F2FF"/><stop offset=".906" stop-color="#F1F3FF"/><stop offset=".938" stop-color="#F1F3FF"/><stop offset=".953" stop-color="#F2F4FF"/><stop offset=".969" stop-color="#F3F4FF"/><stop offset=".984" stop-color="#F3F4FF"/><stop offset="1" stop-color="#F4F5FF"/></linearGradient><linearGradient id="p" x1=".037" x2=".979" y1="0" y2="0" gradientTransform="scale(133.63948 133.46864)rotate(90 .327 .29)" gradientUnits="userSpaceOnUse"><stop offset="0" stop-color="#D5DDFF"/><stop offset=".016" stop-color="#D5DDFF"/><stop offset=".031" stop-color="#D6DDFF"/><stop offset=".063" stop-color="#D6DEFF"/><stop offset=".078" stop-color="#D7DEFF"/><stop offset=".094" stop-color="#D8DFFF"/><stop offset=".109" stop-color="#D8DFFF"/><stop offset=".125" stop-color="#D9E0FF"/><stop offset=".141" stop-color="#D9E0FF"/><stop offset=".156" stop-color="#DAE0FF"/><stop offset=".188" stop-color="#DAE0FF"/><stop offset=".203" stop-color="#DBE1FF"/><stop offset=".219" stop-color="#DCE2FF"/><stop offset=".234" stop-color="#DCE2FF"/><stop offset=".25" stop-color="#DDE3FF"/><stop offset=".266" stop-color="#DDE3FF"/><stop offset=".281" stop-color="#DEE3FF"/><stop offset=".313" stop-color="#DEE3FF"/><stop offset=".328" stop-color="#DEE4FF"/><stop offset=".344" stop-color="#DFE5FF"/><stop offset=".359" stop-color="#DFE5FF"/><stop offset=".375" stop-color="#E0E6FF"/><stop offset=".391" stop-color="#E0E6FF"/><stop offset=".406" stop-color="#E1E7FF"/><stop offset=".438" stop-color="#E1E7FF"/><stop offset=".453" stop-color="#E2E7FF"/><stop offset=".469" stop-color="#E3E8FF"/><stop offset=".484" stop-color="#E3E8FF"/><stop offset=".5" stop-color="#E4E9FF"/><stop offset=".516" stop-color="#E4E9FF"/><stop offset=".531" stop-color="#E5EAFF"/><stop offset=".563" stop-color="#E5EAFF"/><stop offset=".578" stop-color="#E6EAFF"/><stop offset=".594" stop-color="#E7EBFF"/><stop offset=".609" stop-color="#E7EBFF"/><stop offset=".625" stop-color="#E8ECFF"/><stop offset=".641" stop-color="#E8ECFF"/><stop offset=".656" stop-color="#E9EDFF"/><stop offset=".688" stop-color="#E9EDFF"/><stop offset=".703" stop-color="#EAEDFF"/><stop offset=".719" stop-color="#EBEEFF"/><stop offset=".734" stop-color="#EBEEFF"/><stop offset=".75" stop-color="#ECEFFF"/><stop offset=".766" stop-color="#ECEFFF"/><stop offset=".781" stop-color="#EDF0FF"/><stop offset=".813" stop-color="#EDF0FF"/><stop offset=".828" stop-color="#EEF1FF"/><stop offset=".844" stop-color="#EFF1FF"/><stop offset=".859" stop-color="#EFF1FF"/><stop offset=".875" stop-color="#F0F2FF"/><stop offset=".891" stop-color="#F0F2FF"/><stop offset=".906" stop-color="#F1F3FF"/><stop offset=".938" stop-color="#F1F3FF"/><stop offset=".953" stop-color="#F2F4FF"/><stop offset=".969" stop-color="#F3F4FF"/><stop offset=".984" stop-color="#F3F4FF"/><stop offset="1" stop-color="#F4F5FF"/></linearGradient><linearGradient id="v" x1=".037" x2=".979" y1="0" y2="0" gradientTransform="scale(133.63948 133.46864)rotate(90 .327 .29)" gradientUnits="userSpaceOnUse"><stop offset="0" stop-color="#D5DDFF"/><stop offset=".016" stop-color="#D5DDFF"/><stop offset=".031" stop-color="#D6DDFF"/><stop offset=".063" stop-color="#D6DEFF"/><stop offset=".078" stop-color="#D7DEFF"/><stop offset=".094" stop-color="#D8DFFF"/><stop offset=".109" stop-color="#D8DFFF"/><stop offset=".125" stop-color="#D9E0FF"/><stop offset=".141" stop-color="#D9E0FF"/><stop offset=".156" stop-color="#DAE0FF"/><stop offset=".188" stop-color="#DAE0FF"/><stop offset=".203" stop-color="#DBE1FF"/><stop offset=".219" stop-color="#DCE2FF"/><stop offset=".234" stop-color="#DCE2FF"/><stop offset=".25" stop-color="#DDE3FF"/><stop offset=".266" stop-color="#DDE3FF"/><stop offset=".281" stop-color="#DEE3FF"/><stop offset=".313" stop-color="#DEE3FF"/><stop offset=".328" stop-color="#DEE4FF"/><stop offset=".344" stop-color="#DFE5FF"/><stop offset=".359" stop-color="#DFE5FF"/><stop offset=".375" stop-color="#E0E6FF"/><stop offset=".391" stop-color="#E0E6FF"/><stop offset=".406" stop-color="#E1E7FF"/><stop offset=".438" stop-color="#E1E7FF"/><stop offset=".453" stop-color="#E2E7FF"/><stop offset=".469" stop-color="#E3E8FF"/><stop offset=".484" stop-color="#E3E8FF"/><stop offset=".5" stop-color="#E4E9FF"/><stop offset=".516" stop-color="#E4E9FF"/><stop offset=".531" stop-color="#E5EAFF"/><stop offset=".563" stop-color="#E5EAFF"/><stop offset=".578" stop-color="#E6EAFF"/><stop offset=".594" stop-color="#E7EBFF"/><stop offset=".609" stop-color="#E7EBFF"/><stop offset=".625" stop-color="#E8ECFF"/><stop offset=".641" stop-color="#E8ECFF"/><stop offset=".656" stop-color="#E9EDFF"/><stop offset=".688" stop-color="#E9EDFF"/><stop offset=".703" stop-color="#EAEDFF"/><stop offset=".719" stop-color="#EBEEFF"/><stop offset=".734" stop-color="#EBEEFF"/><stop offset=".75" stop-color="#ECEFFF"/><stop offset=".766" stop-color="#ECEFFF"/><stop offset=".781" stop-color="#EDF0FF"/><stop offset=".813" stop-color="#EDF0FF"/><stop offset=".828" stop-color="#EEF1FF"/><stop offset=".844" stop-color="#EFF1FF"/><stop offset=".859" stop-color="#EFF1FF"/><stop offset=".875" stop-color="#F0F2FF"/><stop offset=".891" stop-color="#F0F2FF"/><stop offset=".906" stop-color="#F1F3FF"/><stop offset=".938" stop-color="#F1F3FF"/><stop offset=".953" stop-color="#F2F4FF"/><stop offset=".969" stop-color="#F3F4FF"/><stop offset=".984" stop-color="#F3F4FF"/><stop offset="1" stop-color="#F4F5FF"/></linearGradient></defs><g clip-path="url(#a)"><g clip-path="url(#b)"><g clip-path="url(#c)"><path fill="url(#d)" d="M164.445 0H.547v125.828h163.898Zm0 0"/></g></g></g><path fill="#728be8" d="M101.723 31.336a1.09 1.09 0 0 1-.282-1.074 1.12 1.12 0 0 1 .82-.785 4 4 0 0 0 1.903-1.07 4 4 0 0 0 1.184-2.977 4 4 0 0 0-1.371-2.907 4.064 4.064 0 0 0-5.465.118 4 4 0 0 0-1.133 1.98 1.08 1.08 0 0 1-.77.797c-.39.11-.812 0-1.097-.285l-2.223-2.219-32.41 32.383 2.281 2.281a.33.33 0 0 0 .332.09.36.36 0 0 0 .254-.27 4.794 4.794 0 0 1 4.816-3.66 4.75 4.75 0 0 1 3.454 1.625c1.64 1.852 1.578 4.703-.137 6.489a4.8 4.8 0 0 1-2.356 1.343.34.34 0 0 0-.242.235.35.35 0 0 0 .09.351l2.277 2.274 32.41-32.383z"/><path fill="#a3b4ff" d="M96.05 24.594a.35.35 0 0 0 .352.09.32.32 0 0 0 .235-.239c.21-.894.68-1.71 1.347-2.351 1.786-1.715 4.641-1.778 6.496-.14a4.77 4.77 0 0 1 1.63 3.452 4.82 4.82 0 0 1-1.407 3.54 4.8 4.8 0 0 1-2.262 1.269.37.37 0 0 0-.27.254.33.33 0 0 0 .09.328l2.34 2.336a15.63 15.63 0 0 1 10.903-4.387c4.05 0 7.867 1.52 10.797 4.285l2.238-2.234c.285-.285.688-.39 1.074-.281.39.109.692.425.79.82a4.04 4.04 0 0 0 1.066 1.902 4.02 4.02 0 0 0 2.984 1.18 4 4 0 0 0 2.906-1.371 4.045 4.045 0 0 0-.117-5.457 4.04 4.04 0 0 0-1.98-1.133 1.08 1.08 0 0 1-.797-.766 1.11 1.11 0 0 1 .285-1.097l2.324-2.32c-5.808-5.641-13.449-8.743-21.57-8.743-8.168 0-15.852 3.14-21.676 8.848z"/><path fill="#465ebd" d="M69.371 25.133a1.12 1.12 0 0 1-1.098.285 1.08 1.08 0 0 1-.765-.797 4.05 4.05 0 0 0-1.133-1.98c-1.504-1.442-3.906-1.493-5.469-.118a4 4 0 0 0-1.367 2.907 3.98 3.98 0 0 0 1.18 2.976 4.04 4.04 0 0 0 1.902 1.07c.399.094.715.399.824.786.11.386.004.789-.285 1.074l-2.281 2.281 9.016 9.012 10.77-10.762-9.017-9.008zm68.242-2.324-2.328 2.324c-.09.094-.125.222-.09.351.02.055.075.192.243.235.898.21 1.71.676 2.355 1.343 1.715 1.786 1.777 4.637.137 6.489a4.74 4.74 0 0 1-3.453 1.625 4.795 4.795 0 0 1-4.816-3.66.36.36 0 0 0-.255-.27.33.33 0 0 0-.328.09l-2.234 2.23a15.6 15.6 0 0 1 4.394 10.891c0 4.094-1.558 7.95-4.394 10.89l2.234 2.231c.285.285.39.688.281 1.074a1.12 1.12 0 0 1-.82.785 4.04 4.04 0 0 0-1.906 1.07 4 4 0 0 0-1.18 2.981 4 4 0 0 0 1.371 2.903c1.559 1.375 3.961 1.324 5.465-.118a4 4 0 0 0 1.133-1.98c.094-.387.379-.688.77-.797.39-.11.808 0 1.097.285l2.328 2.324c5.711-5.816 8.852-13.488 8.852-21.648 0-8.156-3.14-15.832-8.856-21.648"/><path fill="#728be8" d="M29.598 63.781a1.13 1.13 0 0 1 1.097-.285c.387.11.676.41.766.797a4.03 4.03 0 0 0 1.137 1.98 4.064 4.064 0 0 0 5.465.118 4 4 0 0 0 1.367-2.903 4 4 0 0 0-1.18-2.98 4 4 0 0 0-1.902-1.07 1.12 1.12 0 0 1-.825-.786c-.105-.386 0-.789.286-1.074l2.285-2.285a15.6 15.6 0 0 1-4.34-10.836 15.58 15.58 0 0 1 4.344-10.836l-2.29-2.285a.33.33 0 0 0-.331-.09.37.37 0 0 0-.254.27 4.76 4.76 0 0 1-1.27 2.261 4.82 4.82 0 0 1-3.543 1.399 4.76 4.76 0 0 1-3.457-1.625c-1.637-1.852-1.578-4.703.14-6.489a4.77 4.77 0 0 1 2.356-1.343.33.33 0 0 0 .238-.235.35.35 0 0 0-.09-.351l-2.273-2.27c-5.68 5.809-8.804 13.461-8.804 21.594s3.125 15.785 8.804 21.594z"/><path fill="#fe6b8f" d="M30.137 24.594c.285.285.394.707.285 1.097-.113.387-.41.676-.8.766-.755.18-1.438.57-1.981 1.133-1.442 1.5-1.496 3.898-.118 5.457a4.02 4.02 0 0 0 2.91 1.371 4.04 4.04 0 0 0 4.05-3.082c.099-.395.4-.711.79-.82.387-.11.79-.004 1.075.28l2.285 2.286a15.63 15.63 0 0 1 10.851-4.336c4.075 0 7.914 1.54 10.852 4.336l2.289-2.285a.33.33 0 0 0 .086-.328.36.36 0 0 0-.27-.254 4.8 4.8 0 0 1-2.261-1.27 4.8 4.8 0 0 1-1.403-3.539 4.77 4.77 0 0 1 1.63-3.453c1.855-1.637 4.706-1.574 6.495.14a4.8 4.8 0 0 1 1.348 2.352c.04.168.176.223.23.239.13.039.262.003.356-.09l2.273-2.27c-5.816-5.672-13.48-8.793-21.625-8.793s-15.804 3.121-21.62 8.793zM134.75 64.32a.35.35 0 0 0-.352-.09.32.32 0 0 0-.234.239 4.76 4.76 0 0 1-1.348 2.351c-1.789 1.715-4.64 1.778-6.496.14a4.76 4.76 0 0 1-1.629-3.452 4.82 4.82 0 0 1 1.407-3.54 4.8 4.8 0 0 1 2.261-1.269.35.35 0 0 0 .266-.254.31.31 0 0 0-.086-.328l-2.238-2.234a15.63 15.63 0 0 1-10.797 4.285 15.63 15.63 0 0 1-10.902-4.387l-2.34 2.336c-.285.285-.688.39-1.075.281a1.13 1.13 0 0 1-.789-.82 4 4 0 0 0-1.07-1.898 4 4 0 0 0-2.98-1.184 4 4 0 0 0-2.907 1.371 4.045 4.045 0 0 0 .118 5.457 4 4 0 0 0 1.98 1.133c.387.094.688.379.797.766.11.39.004.812-.285 1.097l-2.223 2.22c5.824 5.702 13.508 8.843 21.676 8.843 8.121 0 15.762-3.102 21.57-8.742z"/><path fill="#465ebd" d="M95.512 63.781a.35.35 0 0 0 .09-.351.33.33 0 0 0-.239-.235 4.8 4.8 0 0 1-2.355-1.343c-1.715-1.786-1.778-4.637-.14-6.489a4.76 4.76 0 0 1 3.456-1.625 4.805 4.805 0 0 1 4.817 3.66.36.36 0 0 0 .254.27.33.33 0 0 0 .328-.09l2.34-2.332-8.97-8.96-10.769 10.76 8.965 8.958z"/><path fill="#a3b4ff" d="M68.832 64.32a1.12 1.12 0 0 1-.281-1.097 1.08 1.08 0 0 1 .797-.766 4.05 4.05 0 0 0 1.98-1.133 4.045 4.045 0 0 0 .117-5.457 4 4 0 0 0-2.906-1.37 4 4 0 0 0-2.984 1.183 4.05 4.05 0 0 0-1.07 1.898 1.114 1.114 0 0 1-1.864.54l-2.285-2.286a15.63 15.63 0 0 1-10.852 4.336 15.63 15.63 0 0 1-10.851-4.336l-2.285 2.285a.33.33 0 0 0-.09.328.36.36 0 0 0 .27.254 4.8 4.8 0 0 1 2.261 1.27 4.8 4.8 0 0 1 1.402 3.539 4.75 4.75 0 0 1-1.625 3.453c-1.855 1.637-4.71 1.574-6.496-.14a4.74 4.74 0 0 1-1.347-2.352.33.33 0 0 0-.235-.239.35.35 0 0 0-.351.09l-2.274 2.27c5.817 5.672 13.477 8.793 21.621 8.793 8.145 0 15.805-3.121 21.621-8.793z"/><path fill="#fff" d="M140.04 80.879H91.913c-.906 0-1.727.683-1.898 1.582l-6.266 32.785c-.047.238-.043.473.004.688H70.246a5 5 0 0 0 3.879 1.836h57.98c.442 0 .872-.086 1.274-.254.328-.137 1.39-.883 1.566-1.106.192-.242.328-.523.387-.832l6.27-32.785c.195-1.027-.532-1.914-1.563-1.914"/><path fill="#728be8" d="M70.688 116.133a4.8 4.8 0 0 0 3.437 1.441h57.98c.415 0 .817-.082 1.196-.238.328-.137 1.347-.867 1.488-1.05a1.7 1.7 0 0 0 .348-.747l6.27-32.785a1.43 1.43 0 0 0-.286-1.188 1.38 1.38 0 0 0-1.082-.492H91.914c-.816 0-1.547.614-1.703 1.426l-6.27 32.781q-.058.312.008.614a.2.2 0 0 1-.039.164.2.2 0 0 1-.156.074Zm61.417 1.836h-57.98c-1.57 0-3.04-.696-4.031-1.91a.19.19 0 0 1-.024-.207.19.19 0 0 1 .176-.114h13.281a2 2 0 0 1 .028-.531l6.27-32.781c.187-.996 1.085-1.746 2.09-1.746h48.124c.547 0 1.05.23 1.387.636.34.41.472.961.367 1.516l-6.266 32.781a2.15 2.15 0 0 1-.425.918c-.215.27-1.309 1.024-1.649 1.168-.43.176-.883.27-1.348.27"/><path fill="#d6deff" d="M138.586 82.336a.64.64 0 0 0-.504-.234H91.961c-.367 0-.7.277-.766.644l-6.199 32.41c-.05.274.059.461.129.547s.23.23.504.23h46.121c.367 0 .7-.273.77-.64l6.195-32.41a.66.66 0 0 0-.13-.547"/><path fill="#728be8" d="M91.96 82.3a.6.6 0 0 0-.573.481l-6.196 32.414a.436.436 0 0 0 .438.543h46.121c.273 0 .52-.207.574-.484l6.196-32.41a.46.46 0 0 0-.086-.383h-.004a.43.43 0 0 0-.348-.16Zm39.79 33.833H85.629a.83.83 0 0 1-.656-.305.84.84 0 0 1-.172-.707L91 82.711a.99.99 0 0 1 .96-.805h46.122a.83.83 0 0 1 .656.305c.094.113.239.36.172.707l-6.2 32.41a.99.99 0 0 1-.96.805"/><path fill="#728be8" d="m86.117 115.156 6.2-32.41a.8.8 0 0 1 .769-.644H91.96c-.367 0-.7.277-.766.644l-6.199 32.41c-.05.274.059.461.129.547s.23.23.504.23h1.121a.63.63 0 0 1-.5-.23.64.64 0 0 1-.133-.547"/><path fill="#fff" d="M17.457 120.86h130.074v-3.09H17.457z"/><path fill="#728be8" d="M17.656 120.66h129.68v-2.691H17.656Zm129.875.395H17.457a.193.193 0 0 1-.195-.196v-3.09c0-.109.086-.195.195-.195h130.074c.11 0 .2.086.2.196v3.09c0 .109-.09.195-.2.195"/><path fill="#fe6b8f" d="M48.875 103.094s-3.184 8.289-3.297 13.14c-.11 4.856 10.45 32.598 10.45 32.598h13.218c.293-17.465.387-34.336-3.055-40.516z"/><path fill="#fe6b8f" d="m69.246 148.832-1.965 14.977H56.977c-.743-3.434-1.399-6.418-1.622-7.32-.605-2.485.672-7.657.672-7.657 1.028-.148 1.973-.277 2.844-.383 10.719-1.304 10.375.383 10.375.383m-23.058-44.98s-5.766 6.43-6.141 12.855c-.29 4.969 2.613 32.125 2.613 32.125h13.22l8.203-40.516z"/><path fill="#fe6b8f" d="m55.879 148.832-4.063 14.977H41.594c-.285-3.43-.54-6.414-.637-7.32-.27-2.485 1.703-7.657 1.703-7.657q.91-.131 1.742-.238c12.086-1.567 11.477.238 11.477.238"/><path fill="#bf5299" d="M56.21 147.383c-.01 0-.026 0-.038-.004a.195.195 0 0 1-.152-.234l4.46-22.043a.2.2 0 0 1 .125-.145c1.524-.586 3.317-2.406 3.333-2.426a.2.2 0 0 1 .28-.004.197.197 0 0 1 .005.278c-.075.078-1.793 1.832-3.375 2.48l-4.442 21.942a.2.2 0 0 1-.195.156"/><g clip-path="url(#e)"><path fill="#bf5299" d="M59.688 164.008a.2.2 0 0 1-.196-.176 2747 2747 0 0 1-.816-6.289c-.453-3.531-.008-9.055 0-9.11l-.004-14.378c0-.11.09-.196.2-.196.108 0 .198.086.198.196v14.394c-.008.07-.453 5.551-.004 9.043.153 1.192.465 3.606.82 6.29a.2.2 0 0 1-.171.222c-.008 0-.02.004-.028.004"/></g><g clip-path="url(#f)"><path fill="#bf5299" d="M43.29 164.008a.2.2 0 0 1-.196-.2c-.02-2.37-.035-5.34-.012-5.984.047-1.133.258-2.765.629-4.847.258-1.454.422-2.93.492-4.391.09-1.715.047-3.465-.117-5.195-.68-7-1.488-16.13-1.488-19.852 0-5.777 1.996-10.566 2.015-10.613a.21.21 0 0 1 .137-.117c3.355-.797 4.715-3.422 4.73-3.45a.195.195 0 0 1 .266-.086.19.19 0 0 1 .086.262c-.055.113-1.422 2.766-4.89 3.633-.27.684-1.95 5.113-1.95 10.371 0 3.906.93 14.09 1.485 19.813.171 1.75.21 3.52.12 5.253a36 36 0 0 1-.495 4.442c-.364 2.035-.579 3.695-.622 4.793-.023.5-.02 2.617.008 5.969a.2.2 0 0 1-.195.199z"/></g><path fill="#f8a6b3" d="M92.598 115.168c-3.754-.582-4.926-1.926-5.547-2.152-1.832-.668-2.094-1.157-2.094-1.157-2.46 1.598-2.156 2.23-2.46 3.371.62.489 2.718 3.352 3.331 4.125.703.887 1.031.434 1.031.434.204-.762-.918-3.398-.191-3.766 0 0 4.93-.035 5.672-.046 1.398-.016.953-.7.258-.809"/><path fill="#465ebd" d="M65.168 77.605a5.87 5.87 0 0 1-4.313 7.094 5.873 5.873 0 0 1-7.101-4.304 5.87 5.87 0 0 1 4.312-7.094 5.873 5.873 0 0 1 7.102 4.304"/><path fill="#465ebd" d="m70.246 98.074-5.078-20.469-11.414 2.79 3.984 19.546 6.325-.46z"/><path fill="#465ebd" d="M85.324 112.156 68.211 94.687l-4.148 4.793-3.387 5.352 21.406 11.05c.961.513 2.047-.788 3.242-3.726"/><path fill="#465ebd" d="M70.387 99.96a6.34 6.34 0 0 1-6.809 5.833 6.335 6.335 0 0 1-5.84-6.797 6.343 6.343 0 0 1 6.809-5.832c3.492.27 6.105 3.313 5.84 6.797"/><path fill="#0e2e7d" d="M66.457 89.043s.672-.133 1.418-.527l.527 2.12 4.07 16.403a8.73 8.73 0 0 0 3.907 5.34l5.703 3.504-15.144-7.817c4.753-2.449-.481-19.023-.481-19.023"/><path fill="#465ebd" d="M42.559 73.418c2.023-.707 5.832-1.273 8.046-1.3 4.88-.06 9.32 1.023 9.32 1.023s6.641 4.87 9.227 9.867c2.59 5-2.695 6.035-2.695 6.035s5.746 18.195-.266 19.273c2.442 6.82-20.004-4.464-20.004-4.464 1.641-10.762-3.78-19.899-3.628-30.434"/><path fill="#0e2e7d" d="M58.563 71.191c-6.004.91-6.012-1.535-8.211-3.691l2.117-15.367 6.433.957 2.739 3.972.66 5.11-.403 5.406c-.859 2.766-2.097 3.192-3.336 3.613"/><path fill="#f8a6b3" d="M57.215 70.723c-.758.789.363 1.96.363 1.96s3.176 5.028-6.973-.566c.5-1.273-.925-4.347-1.886-7.574l3.77.34z"/><path fill="#ffc9d2" d="m49.805 62.176 1.047-2.906.492-.446.324-1.746s3.48-3.558 6.078-3.547l1.797 2.059.23 1.168c.247.504.48 1.164.653 1.699a4.2 4.2 0 0 1 .183 1.797c-.093.883-.172 2.105.11 3.207.754 2.973-1.38 6.703-2.567 7.113-2.52.867-6.793-2.308-7.418-3.43-.562-1.007-.875-4.382-.875-4.382l-.144-.254z"/><path fill="#ffc9d2" d="M49.805 62.176s-.848-1.531-2.153-1.028c-.539.211-.695 1.497.164 2.829.86 1.332 1.832 2.078 2.41 1.214 0 0-.21-2.406-.421-3.015"/><path fill="#465ebd" d="M57.746 51.453c6.137 2.3 4.863 13.172 4.106 17.98-.16 1.145-3.29 1.758-3.29 1.758 8.016-6.613-.816-17.66-.816-17.66l-1.633 2.133c-1.785 2.738-2.773 5.777-2.73 9.074a46 46 0 0 0 .125 3.364c-.535-2.786-.774-5.145-.477-7.489-.457 2.602-1.047 8.598 2.36 11.887-3.36.34-6.809-.117-10.356-1.45-4.117-14.765 2.836-25.023 12.711-19.597"/><path fill="#0e2e7d" d="M48.281 51.387c-.246.199-11.84 11.125 7.11 21.113-3.36.34-6.809-.117-10.356-1.45-2.57-9.214-.824-16.675 3.246-19.663m9.465 2.144a50 50 0 0 0-2.77-1.687s1.852 1.203 2.063 1.726c.211.524-.766 1.887-.766 1.887zm6.031 30.442-19.64 1.148c1.394 6.098 3.058 12.11 2.05 18.73 0 0 6.75 3.395 12.446 5.337-6.735-2.387-3.637-3.56.828-3.848 4.465-.29 5.055-2.996 5.055-4.262 0-1.262-.739-17.105-.739-17.105"/><path fill="#465ebd" d="M48.32 103.29q-.016.001-.03-.005a.195.195 0 0 1-.165-.222c1.008-6.477-1.45-15.504-1.477-15.594a.2.2 0 0 1 .141-.242.196.196 0 0 1 .242.136c.024.094 2.504 9.2 1.485 15.762a.2.2 0 0 1-.196.164m16.14 5.149c-1.554 0-5.546-.641-14.886-4.93a.203.203 0 0 1-.097-.262c.046-.098.164-.144.261-.098 12.86 5.91 15.403 4.832 15.43 4.82a.194.194 0 0 1 .262.094.194.194 0 0 1-.094.262c-.027.016-.262.114-.875.114"/><path fill="#0e2e7d" d="M82.004 113.848a.2.2 0 0 1-.102-.028l-12.136-7.28a.197.197 0 0 1-.07-.27.203.203 0 0 1 .273-.07l12.14 7.28c.09.06.121.18.067.274a.2.2 0 0 1-.172.094"/><path fill="#f8a6b3" d="M61.047 62.195c.394 1.543 2.328 6.211 2.348 6.868.015.539 0 4.402 0 4.402s-2.118 1.293-3.504-.48c-.418-.672-3.043-3.067-3.743-3.755-.808-.796-.324-1.074-.324-1.074.785-.117 3.29 1.278 3.73.602.489-1.559.942-3.414.66-5.63-.124-.882.59-1.89.833-.933"/><path fill="#465ebd" d="M49.656 81.555c-1.41 2.918-4.926 4.136-7.847 2.726a5.86 5.86 0 0 1-2.73-7.836 5.88 5.88 0 0 1 7.847-2.73 5.866 5.866 0 0 1 2.73 7.84"/><path fill="#465ebd" d="m62.504 91.316-13.64-16.093-8.993 7.554 12.25 15.754 5.465-3.215z"/><path fill="#465ebd" d="m58.64 72.555-7.214 21.257 6.16 1.504 6.316.575-.246-23.774s-4.906-.32-5.015.438"/><path fill="#465ebd" d="M62.277 99.578a6.347 6.347 0 0 1-8.96.422 6.33 6.33 0 0 1-.422-8.945 6.35 6.35 0 0 1 8.96-.422 6.33 6.33 0 0 1 .422 8.945"/><path fill="#0e2e7d" d="M51.86 78.758s2.163 2.129 2.937 1.984c.73-.14 2.937-5.52 2.937-5.52L55.2 82.696zm8.183 22.594a.19.19 0 0 1-.195-.184.2.2 0 0 1 .183-.211c.04-.004 2.543-.32 2.278-7.805-.278-7.77-.032-16.925-.032-17.02a.195.195 0 0 1 .207-.19.2.2 0 0 1 .192.203c-.004.093-.25 9.238.027 16.996.281 7.953-2.527 8.207-2.648 8.21zm37.543 38.429h47.36l5.784-46.11h-47.359z"/><path fill="#728be8" d="M97.809 139.586h46.96l5.739-45.715h-46.961Zm47.136.394h-47.36a.22.22 0 0 1-.147-.066.2.2 0 0 1-.047-.156l5.785-46.11a.2.2 0 0 1 .195-.171h47.36c.054 0 .109.023.148.066a.2.2 0 0 1 .047.156l-5.785 46.106a.2.2 0 0 1-.196.175"/><path fill="#728be8" d="M132.219 113.02H115.64l.18-1.438h16.577z"/><path fill="#465ebd" d="M134.46 115.582h-16.573l.18-1.437h16.574zm-.32 2.563h-16.577l.18-1.434h16.577zm-.32 2.565h-16.578l.18-1.437H134z"/><path fill="#728be8" d="M143.043 102.766h-32.379l.18-1.438h32.379zm-27.645-2.563h-8.828l.18-1.437h8.832z"/><path fill="#465ebd" d="M130.363 105.328H112.91l.18-1.433h17.453zm-.323 2.562h-17.454l.18-1.433h17.457zm-.321 2.563h-17.453l.18-1.433h17.452zm10.75 12.82h-23.547l.18-1.437h23.546zm-.321 2.563h-23.55l.18-1.434h23.55zm-.32 2.562h-23.55l.179-1.433h23.55zm-3.703 2.567h-20.168l.18-1.438h20.168z"/><path fill="#728be8" d="M121.21 133.527h-8.144l.18-1.437h8.145z"/><path fill="#fff" d="M105.766 128.14H88.465c-1.735 0-3.313 1.403-3.528 3.133l-2.124 17.016c-.215 1.73 1.011 3.133 2.75 3.133h17.296c1.735 0 3.317-1.402 3.532-3.133l2.125-17.016c.214-1.73-1.016-3.132-2.75-3.132"/><path fill="#728be8" d="M88.465 128.336c-1.633 0-3.13 1.328-3.332 2.96l-2.125 17.017c-.098.785.117 1.519.601 2.07.485.543 1.176.844 1.95.844h17.3c1.637 0 3.133-1.329 3.336-2.961l2.121-17.016c.098-.785-.113-1.52-.601-2.07-.48-.543-1.172-.844-1.95-.844Zm14.394 23.285h-17.3c-.891 0-1.688-.348-2.243-.976-.562-.637-.812-1.48-.699-2.38l2.121-17.015c.227-1.824 1.903-3.309 3.727-3.309h17.3c.891 0 1.692.348 2.247.977.562.637.808 1.48.699 2.379l-2.125 17.016c-.227 1.824-1.898 3.308-3.727 3.308"/><g clip-path="url(#g)"><g clip-path="url(#h)"><g clip-path="url(#i)"><path fill="url(#j)" d="M164.445 0H.547v125.828h163.898Zm0 0"/></g></g></g><path fill="#728be8" d="M101.723 31.336a1.09 1.09 0 0 1-.282-1.074 1.12 1.12 0 0 1 .82-.785 4 4 0 0 0 1.903-1.07 4 4 0 0 0 1.184-2.977 4 4 0 0 0-1.371-2.907 4.064 4.064 0 0 0-5.465.118 4 4 0 0 0-1.133 1.98 1.08 1.08 0 0 1-.77.797c-.39.11-.812 0-1.097-.285l-2.223-2.219-32.41 32.383 2.281 2.281a.33.33 0 0 0 .332.09.36.36 0 0 0 .254-.27 4.794 4.794 0 0 1 4.816-3.66 4.75 4.75 0 0 1 3.454 1.625c1.64 1.852 1.578 4.703-.137 6.489a4.8 4.8 0 0 1-2.356 1.343.34.34 0 0 0-.242.235.35.35 0 0 0 .09.351l2.277 2.274 32.41-32.383z"/><path fill="#a3b4ff" d="M96.05 24.594a.35.35 0 0 0 .352.09.32.32 0 0 0 .235-.239c.21-.894.68-1.71 1.347-2.351 1.786-1.715 4.641-1.778 6.496-.14a4.77 4.77 0 0 1 1.63 3.452 4.82 4.82 0 0 1-1.407 3.54 4.8 4.8 0 0 1-2.262 1.269.37.37 0 0 0-.27.254.33.33 0 0 0 .09.328l2.34 2.336a15.63 15.63 0 0 1 10.903-4.387c4.05 0 7.867 1.52 10.797 4.285l2.238-2.234c.285-.285.688-.39 1.074-.281.39.109.692.425.79.82a4.04 4.04 0 0 0 1.066 1.902 4.02 4.02 0 0 0 2.984 1.18 4 4 0 0 0 2.906-1.371 4.045 4.045 0 0 0-.117-5.457 4.04 4.04 0 0 0-1.98-1.133 1.08 1.08 0 0 1-.797-.766 1.11 1.11 0 0 1 .285-1.097l2.324-2.32c-5.808-5.641-13.449-8.743-21.57-8.743-8.168 0-15.852 3.14-21.676 8.848z"/><path fill="#465ebd" d="M69.371 25.133a1.12 1.12 0 0 1-1.098.285 1.08 1.08 0 0 1-.765-.797 4.05 4.05 0 0 0-1.133-1.98c-1.504-1.442-3.906-1.493-5.469-.118a4 4 0 0 0-1.367 2.907 3.98 3.98 0 0 0 1.18 2.976 4.04 4.04 0 0 0 1.902 1.07c.399.094.715.399.824.786.11.386.004.789-.285 1.074l-2.281 2.281 9.016 9.012 10.77-10.762-9.017-9.008zm68.242-2.324-2.328 2.324c-.09.094-.125.222-.09.351.02.055.075.192.243.235.898.21 1.71.676 2.355 1.343 1.715 1.786 1.777 4.637.137 6.489a4.74 4.74 0 0 1-3.453 1.625 4.795 4.795 0 0 1-4.816-3.66.36.36 0 0 0-.255-.27.33.33 0 0 0-.328.09l-2.234 2.23a15.6 15.6 0 0 1 4.394 10.891c0 4.094-1.558 7.95-4.394 10.89l2.234 2.231c.285.285.39.688.281 1.074a1.12 1.12 0 0 1-.82.785 4.04 4.04 0 0 0-1.906 1.07 4 4 0 0 0-1.18 2.981 4 4 0 0 0 1.371 2.903c1.559 1.375 3.961 1.324 5.465-.118a4 4 0 0 0 1.133-1.98c.094-.387.379-.688.77-.797.39-.11.808 0 1.097.285l2.328 2.324c5.711-5.816 8.852-13.488 8.852-21.648 0-8.156-3.14-15.832-8.856-21.648"/><path fill="#728be8" d="M29.598 63.781a1.13 1.13 0 0 1 1.097-.285c.387.11.676.41.766.797a4.03 4.03 0 0 0 1.137 1.98 4.064 4.064 0 0 0 5.465.118 4 4 0 0 0 1.367-2.903 4 4 0 0 0-1.18-2.98 4 4 0 0 0-1.902-1.07 1.12 1.12 0 0 1-.825-.786c-.105-.386 0-.789.286-1.074l2.285-2.285a15.6 15.6 0 0 1-4.34-10.836 15.58 15.58 0 0 1 4.344-10.836l-2.29-2.285a.33.33 0 0 0-.331-.09.37.37 0 0 0-.254.27 4.76 4.76 0 0 1-1.27 2.261 4.82 4.82 0 0 1-3.543 1.399 4.76 4.76 0 0 1-3.457-1.625c-1.637-1.852-1.578-4.703.14-6.489a4.77 4.77 0 0 1 2.356-1.343.33.33 0 0 0 .238-.235.35.35 0 0 0-.09-.351l-2.273-2.27c-5.68 5.809-8.804 13.461-8.804 21.594s3.125 15.785 8.804 21.594z"/><path fill="#fe6b8f" d="M30.137 24.594c.285.285.394.707.285 1.097-.113.387-.41.676-.8.766-.755.18-1.438.57-1.981 1.133-1.442 1.5-1.496 3.898-.118 5.457a4.02 4.02 0 0 0 2.91 1.371 4.04 4.04 0 0 0 4.05-3.082c.099-.395.4-.711.79-.82.387-.11.79-.004 1.075.28l2.285 2.286a15.63 15.63 0 0 1 10.851-4.336c4.075 0 7.914 1.54 10.852 4.336l2.289-2.285a.33.33 0 0 0 .086-.328.36.36 0 0 0-.27-.254 4.8 4.8 0 0 1-2.261-1.27 4.8 4.8 0 0 1-1.403-3.539 4.77 4.77 0 0 1 1.63-3.453c1.855-1.637 4.706-1.574 6.495.14a4.8 4.8 0 0 1 1.348 2.352c.04.168.176.223.23.239.13.039.262.003.356-.09l2.273-2.27c-5.816-5.672-13.48-8.793-21.625-8.793s-15.804 3.121-21.62 8.793zM134.75 64.32a.35.35 0 0 0-.352-.09.32.32 0 0 0-.234.239 4.76 4.76 0 0 1-1.348 2.351c-1.789 1.715-4.64 1.778-6.496.14a4.76 4.76 0 0 1-1.629-3.452 4.82 4.82 0 0 1 1.407-3.54 4.8 4.8 0 0 1 2.261-1.269.35.35 0 0 0 .266-.254.31.31 0 0 0-.086-.328l-2.238-2.234a15.63 15.63 0 0 1-10.797 4.285 15.63 15.63 0 0 1-10.902-4.387l-2.34 2.336c-.285.285-.688.39-1.075.281a1.13 1.13 0 0 1-.789-.82 4 4 0 0 0-1.07-1.898 4 4 0 0 0-2.98-1.184 4 4 0 0 0-2.907 1.371 4.045 4.045 0 0 0 .118 5.457 4 4 0 0 0 1.98 1.133c.387.094.688.379.797.766.11.39.004.812-.285 1.097l-2.223 2.22c5.824 5.702 13.508 8.843 21.676 8.843 8.121 0 15.762-3.102 21.57-8.742z"/><path fill="#465ebd" d="M95.512 63.781a.35.35 0 0 0 .09-.351.33.33 0 0 0-.239-.235 4.8 4.8 0 0 1-2.355-1.343c-1.715-1.786-1.778-4.637-.14-6.489a4.76 4.76 0 0 1 3.456-1.625 4.805 4.805 0 0 1 4.817 3.66.36.36 0 0 0 .254.27.33.33 0 0 0 .328-.09l2.34-2.332-8.97-8.96-10.769 10.76 8.965 8.958z"/><path fill="#a3b4ff" d="M68.832 64.32a1.12 1.12 0 0 1-.281-1.097 1.08 1.08 0 0 1 .797-.766 4.05 4.05 0 0 0 1.98-1.133 4.045 4.045 0 0 0 .117-5.457 4 4 0 0 0-2.906-1.37 4 4 0 0 0-2.984 1.183 4.05 4.05 0 0 0-1.07 1.898 1.114 1.114 0 0 1-1.864.54l-2.285-2.286a15.63 15.63 0 0 1-10.852 4.336 15.63 15.63 0 0 1-10.851-4.336l-2.285 2.285a.33.33 0 0 0-.09.328.36.36 0 0 0 .27.254 4.8 4.8 0 0 1 2.261 1.27 4.8 4.8 0 0 1 1.402 3.539 4.75 4.75 0 0 1-1.625 3.453c-1.855 1.637-4.71 1.574-6.496-.14a4.74 4.74 0 0 1-1.347-2.352.33.33 0 0 0-.235-.239.35.35 0 0 0-.351.09l-2.274 2.27c5.817 5.672 13.477 8.793 21.621 8.793 8.145 0 15.805-3.121 21.621-8.793z"/><path fill="#fff" d="M140.04 80.879H91.913c-.906 0-1.727.683-1.898 1.582l-6.266 32.785c-.047.238-.043.473.004.688H70.246a5 5 0 0 0 3.879 1.836h57.98c.442 0 .872-.086 1.274-.254.328-.137 1.39-.883 1.566-1.106.192-.242.328-.523.387-.832l6.27-32.785c.195-1.027-.532-1.914-1.563-1.914"/><path fill="#728be8" d="M70.688 116.133a4.8 4.8 0 0 0 3.437 1.441h57.98c.415 0 .817-.082 1.196-.238.328-.137 1.347-.867 1.488-1.05a1.7 1.7 0 0 0 .348-.747l6.27-32.785a1.43 1.43 0 0 0-.286-1.188 1.38 1.38 0 0 0-1.082-.492H91.914c-.816 0-1.547.614-1.703 1.426l-6.27 32.781q-.058.312.008.614a.2.2 0 0 1-.039.164.2.2 0 0 1-.156.074Zm61.417 1.836h-57.98c-1.57 0-3.04-.696-4.031-1.91a.19.19 0 0 1-.024-.207.19.19 0 0 1 .176-.114h13.281a2 2 0 0 1 .028-.531l6.27-32.781c.187-.996 1.085-1.746 2.09-1.746h48.124c.547 0 1.05.23 1.387.636.34.41.472.961.367 1.516l-6.266 32.781a2.15 2.15 0 0 1-.425.918c-.215.27-1.309 1.024-1.649 1.168-.43.176-.883.27-1.348.27"/><path fill="#d6deff" d="M138.586 82.336a.64.64 0 0 0-.504-.234H91.961c-.367 0-.7.277-.766.644l-6.199 32.41c-.05.274.059.461.129.547s.23.23.504.23h46.121c.367 0 .7-.273.77-.64l6.195-32.41a.66.66 0 0 0-.13-.547"/><path fill="#728be8" d="M91.96 82.3a.6.6 0 0 0-.573.481l-6.196 32.414a.436.436 0 0 0 .438.543h46.121c.273 0 .52-.207.574-.484l6.196-32.41a.46.46 0 0 0-.086-.383h-.004a.43.43 0 0 0-.348-.16Zm39.79 33.833H85.629a.83.83 0 0 1-.656-.305.84.84 0 0 1-.172-.707L91 82.711a.99.99 0 0 1 .96-.805h46.122a.83.83 0 0 1 .656.305c.094.113.239.36.172.707l-6.2 32.41a.99.99 0 0 1-.96.805"/><path fill="#728be8" d="m86.117 115.156 6.2-32.41a.8.8 0 0 1 .769-.644H91.96c-.367 0-.7.277-.766.644l-6.199 32.41c-.05.274.059.461.129.547s.23.23.504.23h1.121a.63.63 0 0 1-.5-.23.64.64 0 0 1-.133-.547"/><path fill="#fff" d="M17.457 120.86h130.074v-3.09H17.457z"/><path fill="#728be8" d="M17.656 120.66h129.68v-2.691H17.656Zm129.875.395H17.457a.193.193 0 0 1-.195-.196v-3.09c0-.109.086-.195.195-.195h130.074c.11 0 .2.086.2.196v3.09c0 .109-.09.195-.2.195"/><path fill="#fe6b8f" d="M48.875 103.094s-3.184 8.289-3.297 13.14c-.11 4.856 10.45 32.598 10.45 32.598h13.218c.293-17.465.387-34.336-3.055-40.516z"/><path fill="#fe6b8f" d="m69.246 148.832-1.965 14.977H56.977c-.743-3.434-1.399-6.418-1.622-7.32-.605-2.485.672-7.657.672-7.657 1.028-.148 1.973-.277 2.844-.383 10.719-1.304 10.375.383 10.375.383m-23.058-44.98s-5.766 6.43-6.141 12.855c-.29 4.969 2.613 32.125 2.613 32.125h13.22l8.203-40.516z"/><path fill="#fe6b8f" d="m55.879 148.832-4.063 14.977H41.594c-.285-3.43-.54-6.414-.637-7.32-.27-2.485 1.703-7.657 1.703-7.657q.91-.131 1.742-.238c12.086-1.567 11.477.238 11.477.238"/><path fill="#bf5299" d="M56.21 147.383c-.01 0-.026 0-.038-.004a.195.195 0 0 1-.152-.234l4.46-22.043a.2.2 0 0 1 .125-.145c1.524-.586 3.317-2.406 3.333-2.426a.2.2 0 0 1 .28-.004.197.197 0 0 1 .005.278c-.075.078-1.793 1.832-3.375 2.48l-4.442 21.942a.2.2 0 0 1-.195.156"/><g clip-path="url(#k)"><path fill="#bf5299" d="M59.688 164.008a.2.2 0 0 1-.196-.176 2747 2747 0 0 1-.816-6.289c-.453-3.531-.008-9.055 0-9.11l-.004-14.378c0-.11.09-.196.2-.196.108 0 .198.086.198.196v14.394c-.008.07-.453 5.551-.004 9.043.153 1.192.465 3.606.82 6.29a.2.2 0 0 1-.171.222c-.008 0-.02.004-.028.004"/></g><g clip-path="url(#l)"><path fill="#bf5299" d="M43.29 164.008a.2.2 0 0 1-.196-.2c-.02-2.37-.035-5.34-.012-5.984.047-1.133.258-2.765.629-4.847.258-1.454.422-2.93.492-4.391.09-1.715.047-3.465-.117-5.195-.68-7-1.488-16.13-1.488-19.852 0-5.777 1.996-10.566 2.015-10.613a.21.21 0 0 1 .137-.117c3.355-.797 4.715-3.422 4.73-3.45a.195.195 0 0 1 .266-.086.19.19 0 0 1 .086.262c-.055.113-1.422 2.766-4.89 3.633-.27.684-1.95 5.113-1.95 10.371 0 3.906.93 14.09 1.485 19.813.171 1.75.21 3.52.12 5.253a36 36 0 0 1-.495 4.442c-.364 2.035-.579 3.695-.622 4.793-.023.5-.02 2.617.008 5.969a.2.2 0 0 1-.195.199z"/></g><path fill="#f8a6b3" d="M92.598 115.168c-3.754-.582-4.926-1.926-5.547-2.152-1.832-.668-2.094-1.157-2.094-1.157-2.46 1.598-2.156 2.23-2.46 3.371.62.489 2.718 3.352 3.331 4.125.703.887 1.031.434 1.031.434.204-.762-.918-3.398-.191-3.766 0 0 4.93-.035 5.672-.046 1.398-.016.953-.7.258-.809"/><path fill="#465ebd" d="M65.168 77.605a5.87 5.87 0 0 1-4.313 7.094 5.873 5.873 0 0 1-7.101-4.304 5.87 5.87 0 0 1 4.312-7.094 5.873 5.873 0 0 1 7.102 4.304"/><path fill="#465ebd" d="m70.246 98.074-5.078-20.469-11.414 2.79 3.984 19.546 6.325-.46z"/><path fill="#465ebd" d="M85.324 112.156 68.211 94.687l-4.148 4.793-3.387 5.352 21.406 11.05c.961.513 2.047-.788 3.242-3.726"/><path fill="#465ebd" d="M70.387 99.96a6.34 6.34 0 0 1-6.809 5.833 6.335 6.335 0 0 1-5.84-6.797 6.343 6.343 0 0 1 6.809-5.832c3.492.27 6.105 3.313 5.84 6.797"/><path fill="#0e2e7d" d="M66.457 89.043s.672-.133 1.418-.527l.527 2.12 4.07 16.403a8.73 8.73 0 0 0 3.907 5.34l5.703 3.504-15.144-7.817c4.753-2.449-.481-19.023-.481-19.023"/><path fill="#465ebd" d="M42.559 73.418c2.023-.707 5.832-1.273 8.046-1.3 4.88-.06 9.32 1.023 9.32 1.023s6.641 4.87 9.227 9.867c2.59 5-2.695 6.035-2.695 6.035s5.746 18.195-.266 19.273c2.442 6.82-20.004-4.464-20.004-4.464 1.641-10.762-3.78-19.899-3.628-30.434"/><path fill="#0e2e7d" d="M58.563 71.191c-6.004.91-6.012-1.535-8.211-3.691l2.117-15.367 6.433.957 2.739 3.972.66 5.11-.403 5.406c-.859 2.766-2.097 3.192-3.336 3.613"/><path fill="#f8a6b3" d="M57.215 70.723c-.758.789.363 1.96.363 1.96s3.176 5.028-6.973-.566c.5-1.273-.925-4.347-1.886-7.574l3.77.34z"/><path fill="#ffc9d2" d="m49.805 62.176 1.047-2.906.492-.446.324-1.746s3.48-3.558 6.078-3.547l1.797 2.059.23 1.168c.247.504.48 1.164.653 1.699a4.2 4.2 0 0 1 .183 1.797c-.093.883-.172 2.105.11 3.207.754 2.973-1.38 6.703-2.567 7.113-2.52.867-6.793-2.308-7.418-3.43-.562-1.007-.875-4.382-.875-4.382l-.144-.254z"/><path fill="#ffc9d2" d="M49.805 62.176s-.848-1.531-2.153-1.028c-.539.211-.695 1.497.164 2.829.86 1.332 1.832 2.078 2.41 1.214 0 0-.21-2.406-.421-3.015"/><path fill="#465ebd" d="M57.746 51.453c6.137 2.3 4.863 13.172 4.106 17.98-.16 1.145-3.29 1.758-3.29 1.758 8.016-6.613-.816-17.66-.816-17.66l-1.633 2.133c-1.785 2.738-2.773 5.777-2.73 9.074a46 46 0 0 0 .125 3.364c-.535-2.786-.774-5.145-.477-7.489-.457 2.602-1.047 8.598 2.36 11.887-3.36.34-6.809-.117-10.356-1.45-4.117-14.765 2.836-25.023 12.711-19.597"/><path fill="#0e2e7d" d="M48.281 51.387c-.246.199-11.84 11.125 7.11 21.113-3.36.34-6.809-.117-10.356-1.45-2.57-9.214-.824-16.675 3.246-19.663m9.465 2.144a50 50 0 0 0-2.77-1.687s1.852 1.203 2.063 1.726c.211.524-.766 1.887-.766 1.887zm6.031 30.442-19.64 1.148c1.394 6.098 3.058 12.11 2.05 18.73 0 0 6.75 3.395 12.446 5.337-6.735-2.387-3.637-3.56.828-3.848 4.465-.29 5.055-2.996 5.055-4.262 0-1.262-.739-17.105-.739-17.105"/><path fill="#465ebd" d="M48.32 103.29q-.016.001-.03-.005a.195.195 0 0 1-.165-.222c1.008-6.477-1.45-15.504-1.477-15.594a.2.2 0 0 1 .141-.242.196.196 0 0 1 .242.136c.024.094 2.504 9.2 1.485 15.762a.2.2 0 0 1-.196.164m16.14 5.149c-1.554 0-5.546-.641-14.886-4.93a.203.203 0 0 1-.097-.262c.046-.098.164-.144.261-.098 12.86 5.91 15.403 4.832 15.43 4.82a.194.194 0 0 1 .262.094.194.194 0 0 1-.094.262c-.027.016-.262.114-.875.114"/><path fill="#0e2e7d" d="M82.004 113.848a.2.2 0 0 1-.102-.028l-12.136-7.28a.197.197 0 0 1-.07-.27.203.203 0 0 1 .273-.07l12.14 7.28c.09.06.121.18.067.274a.2.2 0 0 1-.172.094"/><path fill="#f8a6b3" d="M61.047 62.195c.394 1.543 2.328 6.211 2.348 6.868.015.539 0 4.402 0 4.402s-2.118 1.293-3.504-.48c-.418-.672-3.043-3.067-3.743-3.755-.808-.796-.324-1.074-.324-1.074.785-.117 3.29 1.278 3.73.602.489-1.559.942-3.414.66-5.63-.124-.882.59-1.89.833-.933"/><path fill="#465ebd" d="M49.656 81.555c-1.41 2.918-4.926 4.136-7.847 2.726a5.86 5.86 0 0 1-2.73-7.836 5.88 5.88 0 0 1 7.847-2.73 5.866 5.866 0 0 1 2.73 7.84"/><path fill="#465ebd" d="m62.504 91.316-13.64-16.093-8.993 7.554 12.25 15.754 5.465-3.215z"/><path fill="#465ebd" d="m58.64 72.555-7.214 21.257 6.16 1.504 6.316.575-.246-23.774s-4.906-.32-5.015.438"/><path fill="#465ebd" d="M62.277 99.578a6.347 6.347 0 0 1-8.96.422 6.33 6.33 0 0 1-.422-8.945 6.35 6.35 0 0 1 8.96-.422 6.33 6.33 0 0 1 .422 8.945"/><path fill="#0e2e7d" d="M51.86 78.758s2.163 2.129 2.937 1.984c.73-.14 2.937-5.52 2.937-5.52L55.2 82.696zm8.183 22.594a.19.19 0 0 1-.195-.184.2.2 0 0 1 .183-.211c.04-.004 2.543-.32 2.278-7.805-.278-7.77-.032-16.925-.032-17.02a.195.195 0 0 1 .207-.19.2.2 0 0 1 .192.203c-.004.093-.25 9.238.027 16.996.281 7.953-2.527 8.207-2.648 8.21zm37.543 38.429h47.36l5.784-46.11h-47.359z"/><path fill="#728be8" d="M97.809 139.586h46.96l5.739-45.715h-46.961Zm47.136.394h-47.36a.22.22 0 0 1-.147-.066.2.2 0 0 1-.047-.156l5.785-46.11a.2.2 0 0 1 .195-.171h47.36c.054 0 .109.023.148.066a.2.2 0 0 1 .047.156l-5.785 46.106a.2.2 0 0 1-.196.175"/><path fill="#728be8" d="M132.219 113.02H115.64l.18-1.438h16.577z"/><path fill="#465ebd" d="M134.46 115.582h-16.573l.18-1.437h16.574zm-.32 2.563h-16.577l.18-1.434h16.577zm-.32 2.565h-16.578l.18-1.437H134z"/><path fill="#728be8" d="M143.043 102.766h-32.379l.18-1.438h32.379zm-27.645-2.563h-8.828l.18-1.437h8.832z"/><path fill="#465ebd" d="M130.363 105.328H112.91l.18-1.433h17.453zm-.323 2.562h-17.454l.18-1.433h17.457zm-.321 2.563h-17.453l.18-1.433h17.452zm10.75 12.82h-23.547l.18-1.437h23.546zm-.321 2.563h-23.55l.18-1.434h23.55zm-.32 2.562h-23.55l.179-1.433h23.55zm-3.703 2.567h-20.168l.18-1.438h20.168z"/><path fill="#728be8" d="M121.21 133.527h-8.144l.18-1.437h8.145z"/><path fill="#fff" d="M105.766 128.14H88.465c-1.735 0-3.313 1.403-3.528 3.133l-2.124 17.016c-.215 1.73 1.011 3.133 2.75 3.133h17.296c1.735 0 3.317-1.402 3.532-3.133l2.125-17.016c.214-1.73-1.016-3.132-2.75-3.132"/><path fill="#728be8" d="M88.465 128.336c-1.633 0-3.13 1.328-3.332 2.96l-2.125 17.017c-.098.785.117 1.519.601 2.07.485.543 1.176.844 1.95.844h17.3c1.637 0 3.133-1.329 3.336-2.961l2.121-17.016c.098-.785-.113-1.52-.601-2.07-.48-.543-1.172-.844-1.95-.844Zm14.394 23.285h-17.3c-.891 0-1.688-.348-2.243-.976-.562-.637-.812-1.48-.699-2.38l2.121-17.015c.227-1.824 1.903-3.309 3.727-3.309h17.3c.891 0 1.692.348 2.247.977.562.637.808 1.48.699 2.379l-2.125 17.016c-.227 1.824-1.898 3.308-3.727 3.308"/><g clip-path="url(#m)"><g clip-path="url(#n)"><g clip-path="url(#o)"><path fill="url(#p)" d="M164.445 0H.547v125.828h163.898Zm0 0"/></g></g></g><path fill="#728be8" d="M101.723 31.336a1.09 1.09 0 0 1-.282-1.074 1.12 1.12 0 0 1 .82-.785 4 4 0 0 0 1.903-1.07 4 4 0 0 0 1.184-2.977 4 4 0 0 0-1.371-2.907 4.064 4.064 0 0 0-5.465.118 4 4 0 0 0-1.133 1.98 1.08 1.08 0 0 1-.77.797c-.39.11-.812 0-1.097-.285l-2.223-2.219-32.41 32.383 2.281 2.281a.33.33 0 0 0 .332.09.36.36 0 0 0 .254-.27 4.794 4.794 0 0 1 4.816-3.66 4.75 4.75 0 0 1 3.454 1.625c1.64 1.852 1.578 4.703-.137 6.489a4.8 4.8 0 0 1-2.356 1.343.34.34 0 0 0-.242.235.35.35 0 0 0 .09.351l2.277 2.274 32.41-32.383z"/><path fill="#a3b4ff" d="M96.05 24.594a.35.35 0 0 0 .352.09.32.32 0 0 0 .235-.239c.21-.894.68-1.71 1.347-2.351 1.786-1.715 4.641-1.778 6.496-.14a4.77 4.77 0 0 1 1.63 3.452 4.82 4.82 0 0 1-1.407 3.54 4.8 4.8 0 0 1-2.262 1.269.37.37 0 0 0-.27.254.33.33 0 0 0 .09.328l2.34 2.336a15.63 15.63 0 0 1 10.903-4.387c4.05 0 7.867 1.52 10.797 4.285l2.238-2.234c.285-.285.688-.39 1.074-.281.39.109.692.425.79.82a4.04 4.04 0 0 0 1.066 1.902 4.02 4.02 0 0 0 2.984 1.18 4 4 0 0 0 2.906-1.371 4.045 4.045 0 0 0-.117-5.457 4.04 4.04 0 0 0-1.98-1.133 1.08 1.08 0 0 1-.797-.766 1.11 1.11 0 0 1 .285-1.097l2.324-2.32c-5.808-5.641-13.449-8.743-21.57-8.743-8.168 0-15.852 3.14-21.676 8.848z"/><path fill="#465ebd" d="M69.371 25.133a1.12 1.12 0 0 1-1.098.285 1.08 1.08 0 0 1-.765-.797 4.05 4.05 0 0 0-1.133-1.98c-1.504-1.442-3.906-1.493-5.469-.118a4 4 0 0 0-1.367 2.907 3.98 3.98 0 0 0 1.18 2.976 4.04 4.04 0 0 0 1.902 1.07c.399.094.715.399.824.786.11.386.004.789-.285 1.074l-2.281 2.281 9.016 9.012 10.77-10.762-9.017-9.008zm68.242-2.324-2.328 2.324c-.09.094-.125.222-.09.351.02.055.075.192.243.235.898.21 1.71.676 2.355 1.343 1.715 1.786 1.777 4.637.137 6.489a4.74 4.74 0 0 1-3.453 1.625 4.795 4.795 0 0 1-4.816-3.66.36.36 0 0 0-.255-.27.33.33 0 0 0-.328.09l-2.234 2.23a15.6 15.6 0 0 1 4.394 10.891c0 4.094-1.558 7.95-4.394 10.89l2.234 2.231c.285.285.39.688.281 1.074a1.12 1.12 0 0 1-.82.785 4.04 4.04 0 0 0-1.906 1.07 4 4 0 0 0-1.18 2.981 4 4 0 0 0 1.371 2.903c1.559 1.375 3.961 1.324 5.465-.118a4 4 0 0 0 1.133-1.98c.094-.387.379-.688.77-.797.39-.11.808 0 1.097.285l2.328 2.324c5.711-5.816 8.852-13.488 8.852-21.648 0-8.156-3.14-15.832-8.856-21.648"/><path fill="#728be8" d="M29.598 63.781a1.13 1.13 0 0 1 1.097-.285c.387.11.676.41.766.797a4.03 4.03 0 0 0 1.137 1.98 4.064 4.064 0 0 0 5.465.118 4 4 0 0 0 1.367-2.903 4 4 0 0 0-1.18-2.98 4 4 0 0 0-1.902-1.07 1.12 1.12 0 0 1-.825-.786c-.105-.386 0-.789.286-1.074l2.285-2.285a15.6 15.6 0 0 1-4.34-10.836 15.58 15.58 0 0 1 4.344-10.836l-2.29-2.285a.33.33 0 0 0-.331-.09.37.37 0 0 0-.254.27 4.76 4.76 0 0 1-1.27 2.261 4.82 4.82 0 0 1-3.543 1.399 4.76 4.76 0 0 1-3.457-1.625c-1.637-1.852-1.578-4.703.14-6.489a4.77 4.77 0 0 1 2.356-1.343.33.33 0 0 0 .238-.235.35.35 0 0 0-.09-.351l-2.273-2.27c-5.68 5.809-8.804 13.461-8.804 21.594s3.125 15.785 8.804 21.594z"/><path fill="#fe6b8f" d="M30.137 24.594c.285.285.394.707.285 1.097-.113.387-.41.676-.8.766-.755.18-1.438.57-1.981 1.133-1.442 1.5-1.496 3.898-.118 5.457a4.02 4.02 0 0 0 2.91 1.371 4.04 4.04 0 0 0 4.05-3.082c.099-.395.4-.711.79-.82.387-.11.79-.004 1.075.28l2.285 2.286a15.63 15.63 0 0 1 10.851-4.336c4.075 0 7.914 1.54 10.852 4.336l2.289-2.285a.33.33 0 0 0 .086-.328.36.36 0 0 0-.27-.254 4.8 4.8 0 0 1-2.261-1.27 4.8 4.8 0 0 1-1.403-3.539 4.77 4.77 0 0 1 1.63-3.453c1.855-1.637 4.706-1.574 6.495.14a4.8 4.8 0 0 1 1.348 2.352c.04.168.176.223.23.239.13.039.262.003.356-.09l2.273-2.27c-5.816-5.672-13.48-8.793-21.625-8.793s-15.804 3.121-21.62 8.793zM134.75 64.32a.35.35 0 0 0-.352-.09.32.32 0 0 0-.234.239 4.76 4.76 0 0 1-1.348 2.351c-1.789 1.715-4.64 1.778-6.496.14a4.76 4.76 0 0 1-1.629-3.452 4.82 4.82 0 0 1 1.407-3.54 4.8 4.8 0 0 1 2.261-1.269.35.35 0 0 0 .266-.254.31.31 0 0 0-.086-.328l-2.238-2.234a15.63 15.63 0 0 1-10.797 4.285 15.63 15.63 0 0 1-10.902-4.387l-2.34 2.336c-.285.285-.688.39-1.075.281a1.13 1.13 0 0 1-.789-.82 4 4 0 0 0-1.07-1.898 4 4 0 0 0-2.98-1.184 4 4 0 0 0-2.907 1.371 4.045 4.045 0 0 0 .118 5.457 4 4 0 0 0 1.98 1.133c.387.094.688.379.797.766.11.39.004.812-.285 1.097l-2.223 2.22c5.824 5.702 13.508 8.843 21.676 8.843 8.121 0 15.762-3.102 21.57-8.742z"/><path fill="#465ebd" d="M95.512 63.781a.35.35 0 0 0 .09-.351.33.33 0 0 0-.239-.235 4.8 4.8 0 0 1-2.355-1.343c-1.715-1.786-1.778-4.637-.14-6.489a4.76 4.76 0 0 1 3.456-1.625 4.805 4.805 0 0 1 4.817 3.66.36.36 0 0 0 .254.27.33.33 0 0 0 .328-.09l2.34-2.332-8.97-8.96-10.769 10.76 8.965 8.958z"/><path fill="#a3b4ff" d="M68.832 64.32a1.12 1.12 0 0 1-.281-1.097 1.08 1.08 0 0 1 .797-.766 4.05 4.05 0 0 0 1.98-1.133 4.045 4.045 0 0 0 .117-5.457 4 4 0 0 0-2.906-1.37 4 4 0 0 0-2.984 1.183 4.05 4.05 0 0 0-1.07 1.898 1.114 1.114 0 0 1-1.864.54l-2.285-2.286a15.63 15.63 0 0 1-10.852 4.336 15.63 15.63 0 0 1-10.851-4.336l-2.285 2.285a.33.33 0 0 0-.09.328.36.36 0 0 0 .27.254 4.8 4.8 0 0 1 2.261 1.27 4.8 4.8 0 0 1 1.402 3.539 4.75 4.75 0 0 1-1.625 3.453c-1.855 1.637-4.71 1.574-6.496-.14a4.74 4.74 0 0 1-1.347-2.352.33.33 0 0 0-.235-.239.35.35 0 0 0-.351.09l-2.274 2.27c5.817 5.672 13.477 8.793 21.621 8.793 8.145 0 15.805-3.121 21.621-8.793z"/><path fill="#fff" d="M140.04 80.879H91.913c-.906 0-1.727.683-1.898 1.582l-6.266 32.785c-.047.238-.043.473.004.688H70.246a5 5 0 0 0 3.879 1.836h57.98c.442 0 .872-.086 1.274-.254.328-.137 1.39-.883 1.566-1.106.192-.242.328-.523.387-.832l6.27-32.785c.195-1.027-.532-1.914-1.563-1.914"/><path fill="#728be8" d="M70.688 116.133a4.8 4.8 0 0 0 3.437 1.441h57.98c.415 0 .817-.082 1.196-.238.328-.137 1.347-.867 1.488-1.05a1.7 1.7 0 0 0 .348-.747l6.27-32.785a1.43 1.43 0 0 0-.286-1.188 1.38 1.38 0 0 0-1.082-.492H91.914c-.816 0-1.547.614-1.703 1.426l-6.27 32.781q-.058.312.008.614a.2.2 0 0 1-.039.164.2.2 0 0 1-.156.074Zm61.417 1.836h-57.98c-1.57 0-3.04-.696-4.031-1.91a.19.19 0 0 1-.024-.207.19.19 0 0 1 .176-.114h13.281a2 2 0 0 1 .028-.531l6.27-32.781c.187-.996 1.085-1.746 2.09-1.746h48.124c.547 0 1.05.23 1.387.636.34.41.472.961.367 1.516l-6.266 32.781a2.15 2.15 0 0 1-.425.918c-.215.27-1.309 1.024-1.649 1.168-.43.176-.883.27-1.348.27"/><path fill="#d6deff" d="M138.586 82.336a.64.64 0 0 0-.504-.234H91.961c-.367 0-.7.277-.766.644l-6.199 32.41c-.05.274.059.461.129.547s.23.23.504.23h46.121c.367 0 .7-.273.77-.64l6.195-32.41a.66.66 0 0 0-.13-.547"/><path fill="#728be8" d="M91.96 82.3a.6.6 0 0 0-.573.481l-6.196 32.414a.436.436 0 0 0 .438.543h46.121c.273 0 .52-.207.574-.484l6.196-32.41a.46.46 0 0 0-.086-.383h-.004a.43.43 0 0 0-.348-.16Zm39.79 33.833H85.629a.83.83 0 0 1-.656-.305.84.84 0 0 1-.172-.707L91 82.711a.99.99 0 0 1 .96-.805h46.122a.83.83 0 0 1 .656.305c.094.113.239.36.172.707l-6.2 32.41a.99.99 0 0 1-.96.805"/><path fill="#728be8" d="m86.117 115.156 6.2-32.41a.8.8 0 0 1 .769-.644H91.96c-.367 0-.7.277-.766.644l-6.199 32.41c-.05.274.059.461.129.547s.23.23.504.23h1.121a.63.63 0 0 1-.5-.23.64.64 0 0 1-.133-.547"/><path fill="#fff" d="M17.457 120.86h130.074v-3.09H17.457z"/><path fill="#728be8" d="M17.656 120.66h129.68v-2.691H17.656Zm129.875.395H17.457a.193.193 0 0 1-.195-.196v-3.09c0-.109.086-.195.195-.195h130.074c.11 0 .2.086.2.196v3.09c0 .109-.09.195-.2.195"/><path fill="#fe6b8f" d="M48.875 103.094s-3.184 8.289-3.297 13.14c-.11 4.856 10.45 32.598 10.45 32.598h13.218c.293-17.465.387-34.336-3.055-40.516z"/><path fill="#fe6b8f" d="m69.246 148.832-1.965 14.977H56.977c-.743-3.434-1.399-6.418-1.622-7.32-.605-2.485.672-7.657.672-7.657 1.028-.148 1.973-.277 2.844-.383 10.719-1.304 10.375.383 10.375.383m-23.058-44.98s-5.766 6.43-6.141 12.855c-.29 4.969 2.613 32.125 2.613 32.125h13.22l8.203-40.516z"/><path fill="#fe6b8f" d="m55.879 148.832-4.063 14.977H41.594c-.285-3.43-.54-6.414-.637-7.32-.27-2.485 1.703-7.657 1.703-7.657q.91-.131 1.742-.238c12.086-1.567 11.477.238 11.477.238"/><path fill="#bf5299" d="M56.21 147.383c-.01 0-.026 0-.038-.004a.195.195 0 0 1-.152-.234l4.46-22.043a.2.2 0 0 1 .125-.145c1.524-.586 3.317-2.406 3.333-2.426a.2.2 0 0 1 .28-.004.197.197 0 0 1 .005.278c-.075.078-1.793 1.832-3.375 2.48l-4.442 21.942a.2.2 0 0 1-.195.156"/><g clip-path="url(#q)"><path fill="#bf5299" d="M59.688 164.008a.2.2 0 0 1-.196-.176 2747 2747 0 0 1-.816-6.289c-.453-3.531-.008-9.055 0-9.11l-.004-14.378c0-.11.09-.196.2-.196.108 0 .198.086.198.196v14.394c-.008.07-.453 5.551-.004 9.043.153 1.192.465 3.606.82 6.29a.2.2 0 0 1-.171.222c-.008 0-.02.004-.028.004"/></g><g clip-path="url(#r)"><path fill="#bf5299" d="M43.29 164.008a.2.2 0 0 1-.196-.2c-.02-2.37-.035-5.34-.012-5.984.047-1.133.258-2.765.629-4.847.258-1.454.422-2.93.492-4.391.09-1.715.047-3.465-.117-5.195-.68-7-1.488-16.13-1.488-19.852 0-5.777 1.996-10.566 2.015-10.613a.21.21 0 0 1 .137-.117c3.355-.797 4.715-3.422 4.73-3.45a.195.195 0 0 1 .266-.086.19.19 0 0 1 .086.262c-.055.113-1.422 2.766-4.89 3.633-.27.684-1.95 5.113-1.95 10.371 0 3.906.93 14.09 1.485 19.813.171 1.75.21 3.52.12 5.253a36 36 0 0 1-.495 4.442c-.364 2.035-.579 3.695-.622 4.793-.023.5-.02 2.617.008 5.969a.2.2 0 0 1-.195.199z"/></g><path fill="#f8a6b3" d="M92.598 115.168c-3.754-.582-4.926-1.926-5.547-2.152-1.832-.668-2.094-1.157-2.094-1.157-2.46 1.598-2.156 2.23-2.46 3.371.62.489 2.718 3.352 3.331 4.125.703.887 1.031.434 1.031.434.204-.762-.918-3.398-.191-3.766 0 0 4.93-.035 5.672-.046 1.398-.016.953-.7.258-.809"/><path fill="#465ebd" d="M65.168 77.605a5.87 5.87 0 0 1-4.313 7.094 5.873 5.873 0 0 1-7.101-4.304 5.87 5.87 0 0 1 4.312-7.094 5.873 5.873 0 0 1 7.102 4.304"/><path fill="#465ebd" d="m70.246 98.074-5.078-20.469-11.414 2.79 3.984 19.546 6.325-.46z"/><path fill="#465ebd" d="M85.324 112.156 68.211 94.687l-4.148 4.793-3.387 5.352 21.406 11.05c.961.513 2.047-.788 3.242-3.726"/><path fill="#465ebd" d="M70.387 99.96a6.34 6.34 0 0 1-6.809 5.833 6.335 6.335 0 0 1-5.84-6.797 6.343 6.343 0 0 1 6.809-5.832c3.492.27 6.105 3.313 5.84 6.797"/><path fill="#0e2e7d" d="M66.457 89.043s.672-.133 1.418-.527l.527 2.12 4.07 16.403a8.73 8.73 0 0 0 3.907 5.34l5.703 3.504-15.144-7.817c4.753-2.449-.481-19.023-.481-19.023"/><path fill="#465ebd" d="M42.559 73.418c2.023-.707 5.832-1.273 8.046-1.3 4.88-.06 9.32 1.023 9.32 1.023s6.641 4.87 9.227 9.867c2.59 5-2.695 6.035-2.695 6.035s5.746 18.195-.266 19.273c2.442 6.82-20.004-4.464-20.004-4.464 1.641-10.762-3.78-19.899-3.628-30.434"/><path fill="#0e2e7d" d="M58.563 71.191c-6.004.91-6.012-1.535-8.211-3.691l2.117-15.367 6.433.957 2.739 3.972.66 5.11-.403 5.406c-.859 2.766-2.097 3.192-3.336 3.613"/><path fill="#f8a6b3" d="M57.215 70.723c-.758.789.363 1.96.363 1.96s3.176 5.028-6.973-.566c.5-1.273-.925-4.347-1.886-7.574l3.77.34z"/><path fill="#ffc9d2" d="m49.805 62.176 1.047-2.906.492-.446.324-1.746s3.48-3.558 6.078-3.547l1.797 2.059.23 1.168c.247.504.48 1.164.653 1.699a4.2 4.2 0 0 1 .183 1.797c-.093.883-.172 2.105.11 3.207.754 2.973-1.38 6.703-2.567 7.113-2.52.867-6.793-2.308-7.418-3.43-.562-1.007-.875-4.382-.875-4.382l-.144-.254z"/><path fill="#ffc9d2" d="M49.805 62.176s-.848-1.531-2.153-1.028c-.539.211-.695 1.497.164 2.829.86 1.332 1.832 2.078 2.41 1.214 0 0-.21-2.406-.421-3.015"/><path fill="#465ebd" d="M57.746 51.453c6.137 2.3 4.863 13.172 4.106 17.98-.16 1.145-3.29 1.758-3.29 1.758 8.016-6.613-.816-17.66-.816-17.66l-1.633 2.133c-1.785 2.738-2.773 5.777-2.73 9.074a46 46 0 0 0 .125 3.364c-.535-2.786-.774-5.145-.477-7.489-.457 2.602-1.047 8.598 2.36 11.887-3.36.34-6.809-.117-10.356-1.45-4.117-14.765 2.836-25.023 12.711-19.597"/><path fill="#0e2e7d" d="M48.281 51.387c-.246.199-11.84 11.125 7.11 21.113-3.36.34-6.809-.117-10.356-1.45-2.57-9.214-.824-16.675 3.246-19.663m9.465 2.144a50 50 0 0 0-2.77-1.687s1.852 1.203 2.063 1.726c.211.524-.766 1.887-.766 1.887zm6.031 30.442-19.64 1.148c1.394 6.098 3.058 12.11 2.05 18.73 0 0 6.75 3.395 12.446 5.337-6.735-2.387-3.637-3.56.828-3.848 4.465-.29 5.055-2.996 5.055-4.262 0-1.262-.739-17.105-.739-17.105"/><path fill="#465ebd" d="M48.32 103.29q-.016.001-.03-.005a.195.195 0 0 1-.165-.222c1.008-6.477-1.45-15.504-1.477-15.594a.2.2 0 0 1 .141-.242.196.196 0 0 1 .242.136c.024.094 2.504 9.2 1.485 15.762a.2.2 0 0 1-.196.164m16.14 5.149c-1.554 0-5.546-.641-14.886-4.93a.203.203 0 0 1-.097-.262c.046-.098.164-.144.261-.098 12.86 5.91 15.403 4.832 15.43 4.82a.194.194 0 0 1 .262.094.194.194 0 0 1-.094.262c-.027.016-.262.114-.875.114"/><path fill="#0e2e7d" d="M82.004 113.848a.2.2 0 0 1-.102-.028l-12.136-7.28a.197.197 0 0 1-.07-.27.203.203 0 0 1 .273-.07l12.14 7.28c.09.06.121.18.067.274a.2.2 0 0 1-.172.094"/><path fill="#f8a6b3" d="M61.047 62.195c.394 1.543 2.328 6.211 2.348 6.868.015.539 0 4.402 0 4.402s-2.118 1.293-3.504-.48c-.418-.672-3.043-3.067-3.743-3.755-.808-.796-.324-1.074-.324-1.074.785-.117 3.29 1.278 3.73.602.489-1.559.942-3.414.66-5.63-.124-.882.59-1.89.833-.933"/><path fill="#465ebd" d="M49.656 81.555c-1.41 2.918-4.926 4.136-7.847 2.726a5.86 5.86 0 0 1-2.73-7.836 5.88 5.88 0 0 1 7.847-2.73 5.866 5.866 0 0 1 2.73 7.84"/><path fill="#465ebd" d="m62.504 91.316-13.64-16.093-8.993 7.554 12.25 15.754 5.465-3.215z"/><path fill="#465ebd" d="m58.64 72.555-7.214 21.257 6.16 1.504 6.316.575-.246-23.774s-4.906-.32-5.015.438"/><path fill="#465ebd" d="M62.277 99.578a6.347 6.347 0 0 1-8.96.422 6.33 6.33 0 0 1-.422-8.945 6.35 6.35 0 0 1 8.96-.422 6.33 6.33 0 0 1 .422 8.945"/><path fill="#0e2e7d" d="M51.86 78.758s2.163 2.129 2.937 1.984c.73-.14 2.937-5.52 2.937-5.52L55.2 82.696zm8.183 22.594a.19.19 0 0 1-.195-.184.2.2 0 0 1 .183-.211c.04-.004 2.543-.32 2.278-7.805-.278-7.77-.032-16.925-.032-17.02a.195.195 0 0 1 .207-.19.2.2 0 0 1 .192.203c-.004.093-.25 9.238.027 16.996.281 7.953-2.527 8.207-2.648 8.21zm37.543 38.429h47.36l5.784-46.11h-47.359z"/><path fill="#728be8" d="M97.809 139.586h46.96l5.739-45.715h-46.961Zm47.136.394h-47.36a.22.22 0 0 1-.147-.066.2.2 0 0 1-.047-.156l5.785-46.11a.2.2 0 0 1 .195-.171h47.36c.054 0 .109.023.148.066a.2.2 0 0 1 .047.156l-5.785 46.106a.2.2 0 0 1-.196.175"/><path fill="#728be8" d="M132.219 113.02H115.64l.18-1.438h16.577z"/><path fill="#465ebd" d="M134.46 115.582h-16.573l.18-1.437h16.574zm-.32 2.563h-16.577l.18-1.434h16.577zm-.32 2.565h-16.578l.18-1.437H134z"/><path fill="#728be8" d="M143.043 102.766h-32.379l.18-1.438h32.379zm-27.645-2.563h-8.828l.18-1.437h8.832z"/><path fill="#465ebd" d="M130.363 105.328H112.91l.18-1.433h17.453zm-.323 2.562h-17.454l.18-1.433h17.457zm-.321 2.563h-17.453l.18-1.433h17.452zm10.75 12.82h-23.547l.18-1.437h23.546zm-.321 2.563h-23.55l.18-1.434h23.55zm-.32 2.562h-23.55l.179-1.433h23.55zm-3.703 2.567h-20.168l.18-1.438h20.168z"/><path fill="#728be8" d="M121.21 133.527h-8.144l.18-1.437h8.145z"/><path fill="#fff" d="M105.766 128.14H88.465c-1.735 0-3.313 1.403-3.528 3.133l-2.124 17.016c-.215 1.73 1.011 3.133 2.75 3.133h17.296c1.735 0 3.317-1.402 3.532-3.133l2.125-17.016c.214-1.73-1.016-3.132-2.75-3.132"/><path fill="#728be8" d="M88.465 128.336c-1.633 0-3.13 1.328-3.332 2.96l-2.125 17.017c-.098.785.117 1.519.601 2.07.485.543 1.176.844 1.95.844h17.3c1.637 0 3.133-1.329 3.336-2.961l2.121-17.016c.098-.785-.113-1.52-.601-2.07-.48-.543-1.172-.844-1.95-.844Zm14.394 23.285h-17.3c-.891 0-1.688-.348-2.243-.976-.562-.637-.812-1.48-.699-2.38l2.121-17.015c.227-1.824 1.903-3.309 3.727-3.309h17.3c.891 0 1.692.348 2.247.977.562.637.808 1.48.699 2.379l-2.125 17.016c-.227 1.824-1.898 3.308-3.727 3.308"/><g clip-path="url(#s)"><g clip-path="url(#t)"><g clip-path="url(#u)"><path fill="url(#v)" d="M164.445 0H.547v125.828h163.898Zm0 0"/></g></g></g><path fill="#728be8" d="M101.723 31.336a1.09 1.09 0 0 1-.282-1.074 1.12 1.12 0 0 1 .82-.785 4 4 0 0 0 1.903-1.07 4 4 0 0 0 1.184-2.977 4 4 0 0 0-1.371-2.907 4.064 4.064 0 0 0-5.465.118 4 4 0 0 0-1.133 1.98 1.08 1.08 0 0 1-.77.797c-.39.11-.812 0-1.097-.285l-2.223-2.219-32.41 32.383 2.281 2.281a.33.33 0 0 0 .332.09.36.36 0 0 0 .254-.27 4.794 4.794 0 0 1 4.816-3.66 4.75 4.75 0 0 1 3.454 1.625c1.64 1.852 1.578 4.703-.137 6.489a4.8 4.8 0 0 1-2.356 1.343.34.34 0 0 0-.242.235.35.35 0 0 0 .09.351l2.277 2.274 32.41-32.383z"/><path fill="#a3b4ff" d="M96.05 24.594a.35.35 0 0 0 .352.09.32.32 0 0 0 .235-.239c.21-.894.68-1.71 1.347-2.351 1.786-1.715 4.641-1.778 6.496-.14a4.77 4.77 0 0 1 1.63 3.452 4.82 4.82 0 0 1-1.407 3.54 4.8 4.8 0 0 1-2.262 1.269.37.37 0 0 0-.27.254.33.33 0 0 0 .09.328l2.34 2.336a15.63 15.63 0 0 1 10.903-4.387c4.05 0 7.867 1.52 10.797 4.285l2.238-2.234c.285-.285.688-.39 1.074-.281.39.109.692.425.79.82a4.04 4.04 0 0 0 1.066 1.902 4.02 4.02 0 0 0 2.984 1.18 4 4 0 0 0 2.906-1.371 4.045 4.045 0 0 0-.117-5.457 4.04 4.04 0 0 0-1.98-1.133 1.08 1.08 0 0 1-.797-.766 1.11 1.11 0 0 1 .285-1.097l2.324-2.32c-5.808-5.641-13.449-8.743-21.57-8.743-8.168 0-15.852 3.14-21.676 8.848z"/><path fill="#465ebd" d="M69.371 25.133a1.12 1.12 0 0 1-1.098.285 1.08 1.08 0 0 1-.765-.797 4.05 4.05 0 0 0-1.133-1.98c-1.504-1.442-3.906-1.493-5.469-.118a4 4 0 0 0-1.367 2.907 3.98 3.98 0 0 0 1.18 2.976 4.04 4.04 0 0 0 1.902 1.07c.399.094.715.399.824.786.11.386.004.789-.285 1.074l-2.281 2.281 9.016 9.012 10.77-10.762-9.017-9.008zm68.242-2.324-2.328 2.324c-.09.094-.125.222-.09.351.02.055.075.192.243.235.898.21 1.71.676 2.355 1.343 1.715 1.786 1.777 4.637.137 6.489a4.74 4.74 0 0 1-3.453 1.625 4.795 4.795 0 0 1-4.816-3.66.36.36 0 0 0-.255-.27.33.33 0 0 0-.328.09l-2.234 2.23a15.6 15.6 0 0 1 4.394 10.891c0 4.094-1.558 7.95-4.394 10.89l2.234 2.231c.285.285.39.688.281 1.074a1.12 1.12 0 0 1-.82.785 4.04 4.04 0 0 0-1.906 1.07 4 4 0 0 0-1.18 2.981 4 4 0 0 0 1.371 2.903c1.559 1.375 3.961 1.324 5.465-.118a4 4 0 0 0 1.133-1.98c.094-.387.379-.688.77-.797.39-.11.808 0 1.097.285l2.328 2.324c5.711-5.816 8.852-13.488 8.852-21.648 0-8.156-3.14-15.832-8.856-21.648"/><path fill="#728be8" d="M29.598 63.781a1.13 1.13 0 0 1 1.097-.285c.387.11.676.41.766.797a4.03 4.03 0 0 0 1.137 1.98 4.064 4.064 0 0 0 5.465.118 4 4 0 0 0 1.367-2.903 4 4 0 0 0-1.18-2.98 4 4 0 0 0-1.902-1.07 1.12 1.12 0 0 1-.825-.786c-.105-.386 0-.789.286-1.074l2.285-2.285a15.6 15.6 0 0 1-4.34-10.836 15.58 15.58 0 0 1 4.344-10.836l-2.29-2.285a.33.33 0 0 0-.331-.09.37.37 0 0 0-.254.27 4.76 4.76 0 0 1-1.27 2.261 4.82 4.82 0 0 1-3.543 1.399 4.76 4.76 0 0 1-3.457-1.625c-1.637-1.852-1.578-4.703.14-6.489a4.77 4.77 0 0 1 2.356-1.343.33.33 0 0 0 .238-.235.35.35 0 0 0-.09-.351l-2.273-2.27c-5.68 5.809-8.804 13.461-8.804 21.594s3.125 15.785 8.804 21.594z"/><path fill="#fe6b8f" d="M30.137 24.594c.285.285.394.707.285 1.097-.113.387-.41.676-.8.766-.755.18-1.438.57-1.981 1.133-1.442 1.5-1.496 3.898-.118 5.457a4.02 4.02 0 0 0 2.91 1.371 4.04 4.04 0 0 0 4.05-3.082c.099-.395.4-.711.79-.82.387-.11.79-.004 1.075.28l2.285 2.286a15.63 15.63 0 0 1 10.851-4.336c4.075 0 7.914 1.54 10.852 4.336l2.289-2.285a.33.33 0 0 0 .086-.328.36.36 0 0 0-.27-.254 4.8 4.8 0 0 1-2.261-1.27 4.8 4.8 0 0 1-1.403-3.539 4.77 4.77 0 0 1 1.63-3.453c1.855-1.637 4.706-1.574 6.495.14a4.8 4.8 0 0 1 1.348 2.352c.04.168.176.223.23.239.13.039.262.003.356-.09l2.273-2.27c-5.816-5.672-13.48-8.793-21.625-8.793s-15.804 3.121-21.62 8.793zM134.75 64.32a.35.35 0 0 0-.352-.09.32.32 0 0 0-.234.239 4.76 4.76 0 0 1-1.348 2.351c-1.789 1.715-4.64 1.778-6.496.14a4.76 4.76 0 0 1-1.629-3.452 4.82 4.82 0 0 1 1.407-3.54 4.8 4.8 0 0 1 2.261-1.269.35.35 0 0 0 .266-.254.31.31 0 0 0-.086-.328l-2.238-2.234a15.63 15.63 0 0 1-10.797 4.285 15.63 15.63 0 0 1-10.902-4.387l-2.34 2.336c-.285.285-.688.39-1.075.281a1.13 1.13 0 0 1-.789-.82 4 4 0 0 0-1.07-1.898 4 4 0 0 0-2.98-1.184 4 4 0 0 0-2.907 1.371 4.045 4.045 0 0 0 .118 5.457 4 4 0 0 0 1.98 1.133c.387.094.688.379.797.766.11.39.004.812-.285 1.097l-2.223 2.22c5.824 5.702 13.508 8.843 21.676 8.843 8.121 0 15.762-3.102 21.57-8.742z"/><path fill="#465ebd" d="M95.512 63.781a.35.35 0 0 0 .09-.351.33.33 0 0 0-.239-.235 4.8 4.8 0 0 1-2.355-1.343c-1.715-1.786-1.778-4.637-.14-6.489a4.76 4.76 0 0 1 3.456-1.625 4.805 4.805 0 0 1 4.817 3.66.36.36 0 0 0 .254.27.33.33 0 0 0 .328-.09l2.34-2.332-8.97-8.96-10.769 10.76 8.965 8.958z"/><path fill="#a3b4ff" d="M68.832 64.32a1.12 1.12 0 0 1-.281-1.097 1.08 1.08 0 0 1 .797-.766 4.05 4.05 0 0 0 1.98-1.133 4.045 4.045 0 0 0 .117-5.457 4 4 0 0 0-2.906-1.37 4 4 0 0 0-2.984 1.183 4.05 4.05 0 0 0-1.07 1.898 1.114 1.114 0 0 1-1.864.54l-2.285-2.286a15.63 15.63 0 0 1-10.852 4.336 15.63 15.63 0 0 1-10.851-4.336l-2.285 2.285a.33.33 0 0 0-.09.328.36.36 0 0 0 .27.254 4.8 4.8 0 0 1 2.261 1.27 4.8 4.8 0 0 1 1.402 3.539 4.75 4.75 0 0 1-1.625 3.453c-1.855 1.637-4.71 1.574-6.496-.14a4.74 4.74 0 0 1-1.347-2.352.33.33 0 0 0-.235-.239.35.35 0 0 0-.351.09l-2.274 2.27c5.817 5.672 13.477 8.793 21.621 8.793 8.145 0 15.805-3.121 21.621-8.793z"/><path fill="#fff" d="M140.04 80.879H91.913c-.906 0-1.727.683-1.898 1.582l-6.266 32.785c-.047.238-.043.473.004.688H70.246a5 5 0 0 0 3.879 1.836h57.98c.442 0 .872-.086 1.274-.254.328-.137 1.39-.883 1.566-1.106.192-.242.328-.523.387-.832l6.27-32.785c.195-1.027-.532-1.914-1.563-1.914"/><path fill="#728be8" d="M70.688 116.133a4.8 4.8 0 0 0 3.437 1.441h57.98c.415 0 .817-.082 1.196-.238.328-.137 1.347-.867 1.488-1.05a1.7 1.7 0 0 0 .348-.747l6.27-32.785a1.43 1.43 0 0 0-.286-1.188 1.38 1.38 0 0 0-1.082-.492H91.914c-.816 0-1.547.614-1.703 1.426l-6.27 32.781q-.058.312.008.614a.2.2 0 0 1-.039.164.2.2 0 0 1-.156.074Zm61.417 1.836h-57.98c-1.57 0-3.04-.696-4.031-1.91a.19.19 0 0 1-.024-.207.19.19 0 0 1 .176-.114h13.281a2 2 0 0 1 .028-.531l6.27-32.781c.187-.996 1.085-1.746 2.09-1.746h48.124c.547 0 1.05.23 1.387.636.34.41.472.961.367 1.516l-6.266 32.781a2.15 2.15 0 0 1-.425.918c-.215.27-1.309 1.024-1.649 1.168-.43.176-.883.27-1.348.27"/><path fill="#d6deff" d="M138.586 82.336a.64.64 0 0 0-.504-.234H91.961c-.367 0-.7.277-.766.644l-6.199 32.41c-.05.274.059.461.129.547s.23.23.504.23h46.121c.367 0 .7-.273.77-.64l6.195-32.41a.66.66 0 0 0-.13-.547"/><path fill="#728be8" d="M91.96 82.3a.6.6 0 0 0-.573.481l-6.196 32.414a.436.436 0 0 0 .438.543h46.121c.273 0 .52-.207.574-.484l6.196-32.41a.46.46 0 0 0-.086-.383h-.004a.43.43 0 0 0-.348-.16Zm39.79 33.833H85.629a.83.83 0 0 1-.656-.305.84.84 0 0 1-.172-.707L91 82.711a.99.99 0 0 1 .96-.805h46.122a.83.83 0 0 1 .656.305c.094.113.239.36.172.707l-6.2 32.41a.99.99 0 0 1-.96.805"/><path fill="#728be8" d="m86.117 115.156 6.2-32.41a.8.8 0 0 1 .769-.644H91.96c-.367 0-.7.277-.766.644l-6.199 32.41c-.05.274.059.461.129.547s.23.23.504.23h1.121a.63.63 0 0 1-.5-.23.64.64 0 0 1-.133-.547"/><path fill="#fff" d="M17.457 120.86h130.074v-3.09H17.457z"/><path fill="#728be8" d="M17.656 120.66h129.68v-2.691H17.656Zm129.875.395H17.457a.193.193 0 0 1-.195-.196v-3.09c0-.109.086-.195.195-.195h130.074c.11 0 .2.086.2.196v3.09c0 .109-.09.195-.2.195"/><path fill="#fe6b8f" d="M48.875 103.094s-3.184 8.289-3.297 13.14c-.11 4.856 10.45 32.598 10.45 32.598h13.218c.293-17.465.387-34.336-3.055-40.516z"/><path fill="#fe6b8f" d="m69.246 148.832-1.965 14.977H56.977c-.743-3.434-1.399-6.418-1.622-7.32-.605-2.485.672-7.657.672-7.657 1.028-.148 1.973-.277 2.844-.383 10.719-1.304 10.375.383 10.375.383m-23.058-44.98s-5.766 6.43-6.141 12.855c-.29 4.969 2.613 32.125 2.613 32.125h13.22l8.203-40.516z"/><path fill="#fe6b8f" d="m55.879 148.832-4.063 14.977H41.594c-.285-3.43-.54-6.414-.637-7.32-.27-2.485 1.703-7.657 1.703-7.657q.91-.131 1.742-.238c12.086-1.567 11.477.238 11.477.238"/><path fill="#bf5299" d="M56.21 147.383c-.01 0-.026 0-.038-.004a.195.195 0 0 1-.152-.234l4.46-22.043a.2.2 0 0 1 .125-.145c1.524-.586 3.317-2.406 3.333-2.426a.2.2 0 0 1 .28-.004.197.197 0 0 1 .005.278c-.075.078-1.793 1.832-3.375 2.48l-4.442 21.942a.2.2 0 0 1-.195.156"/><g clip-path="url(#w)"><path fill="#bf5299" d="M59.688 164.008a.2.2 0 0 1-.196-.176 2747 2747 0 0 1-.816-6.289c-.453-3.531-.008-9.055 0-9.11l-.004-14.378c0-.11.09-.196.2-.196.108 0 .198.086.198.196v14.394c-.008.07-.453 5.551-.004 9.043.153 1.192.465 3.606.82 6.29a.2.2 0 0 1-.171.222c-.008 0-.02.004-.028.004"/></g><g clip-path="url(#x)"><path fill="#bf5299" d="M43.29 164.008a.2.2 0 0 1-.196-.2c-.02-2.37-.035-5.34-.012-5.984.047-1.133.258-2.765.629-4.847.258-1.454.422-2.93.492-4.391.09-1.715.047-3.465-.117-5.195-.68-7-1.488-16.13-1.488-19.852 0-5.777 1.996-10.566 2.015-10.613a.21.21 0 0 1 .137-.117c3.355-.797 4.715-3.422 4.73-3.45a.195.195 0 0 1 .266-.086.19.19 0 0 1 .086.262c-.055.113-1.422 2.766-4.89 3.633-.27.684-1.95 5.113-1.95 10.371 0 3.906.93 14.09 1.485 19.813.171 1.75.21 3.52.12 5.253a36 36 0 0 1-.495 4.442c-.364 2.035-.579 3.695-.622 4.793-.023.5-.02 2.617.008 5.969a.2.2 0 0 1-.195.199z"/></g><path fill="#f8a6b3" d="M92.598 115.168c-3.754-.582-4.926-1.926-5.547-2.152-1.832-.668-2.094-1.157-2.094-1.157-2.46 1.598-2.156 2.23-2.46 3.371.62.489 2.718 3.352 3.331 4.125.703.887 1.031.434 1.031.434.204-.762-.918-3.398-.191-3.766 0 0 4.93-.035 5.672-.046 1.398-.016.953-.7.258-.809"/><path fill="#465ebd" d="M65.168 77.605a5.87 5.87 0 0 1-4.313 7.094 5.873 5.873 0 0 1-7.101-4.304 5.87 5.87 0 0 1 4.312-7.094 5.873 5.873 0 0 1 7.102 4.304"/><path fill="#465ebd" d="m70.246 98.074-5.078-20.469-11.414 2.79 3.984 19.546 6.325-.46z"/><path fill="#465ebd" d="M85.324 112.156 68.211 94.687l-4.148 4.793-3.387 5.352 21.406 11.05c.961.513 2.047-.788 3.242-3.726"/><path fill="#465ebd" d="M70.387 99.96a6.34 6.34 0 0 1-6.809 5.833 6.335 6.335 0 0 1-5.84-6.797 6.343 6.343 0 0 1 6.809-5.832c3.492.27 6.105 3.313 5.84 6.797"/><path fill="#0e2e7d" d="M66.457 89.043s.672-.133 1.418-.527l.527 2.12 4.07 16.403a8.73 8.73 0 0 0 3.907 5.34l5.703 3.504-15.144-7.817c4.753-2.449-.481-19.023-.481-19.023"/><path fill="#465ebd" d="M42.559 73.418c2.023-.707 5.832-1.273 8.046-1.3 4.88-.06 9.32 1.023 9.32 1.023s6.641 4.87 9.227 9.867c2.59 5-2.695 6.035-2.695 6.035s5.746 18.195-.266 19.273c2.442 6.82-20.004-4.464-20.004-4.464 1.641-10.762-3.78-19.899-3.628-30.434"/><path fill="#0e2e7d" d="M58.563 71.191c-6.004.91-6.012-1.535-8.211-3.691l2.117-15.367 6.433.957 2.739 3.972.66 5.11-.403 5.406c-.859 2.766-2.097 3.192-3.336 3.613"/><path fill="#f8a6b3" d="M57.215 70.723c-.758.789.363 1.96.363 1.96s3.176 5.028-6.973-.566c.5-1.273-.925-4.347-1.886-7.574l3.77.34z"/><path fill="#ffc9d2" d="m49.805 62.176 1.047-2.906.492-.446.324-1.746s3.48-3.558 6.078-3.547l1.797 2.059.23 1.168c.247.504.48 1.164.653 1.699a4.2 4.2 0 0 1 .183 1.797c-.093.883-.172 2.105.11 3.207.754 2.973-1.38 6.703-2.567 7.113-2.52.867-6.793-2.308-7.418-3.43-.562-1.007-.875-4.382-.875-4.382l-.144-.254z"/><path fill="#ffc9d2" d="M49.805 62.176s-.848-1.531-2.153-1.028c-.539.211-.695 1.497.164 2.829.86 1.332 1.832 2.078 2.41 1.214 0 0-.21-2.406-.421-3.015"/><path fill="#465ebd" d="M57.746 51.453c6.137 2.3 4.863 13.172 4.106 17.98-.16 1.145-3.29 1.758-3.29 1.758 8.016-6.613-.816-17.66-.816-17.66l-1.633 2.133c-1.785 2.738-2.773 5.777-2.73 9.074a46 46 0 0 0 .125 3.364c-.535-2.786-.774-5.145-.477-7.489-.457 2.602-1.047 8.598 2.36 11.887-3.36.34-6.809-.117-10.356-1.45-4.117-14.765 2.836-25.023 12.711-19.597"/><path fill="#0e2e7d" d="M48.281 51.387c-.246.199-11.84 11.125 7.11 21.113-3.36.34-6.809-.117-10.356-1.45-2.57-9.214-.824-16.675 3.246-19.663m9.465 2.144a50 50 0 0 0-2.77-1.687s1.852 1.203 2.063 1.726c.211.524-.766 1.887-.766 1.887zm6.031 30.442-19.64 1.148c1.394 6.098 3.058 12.11 2.05 18.73 0 0 6.75 3.395 12.446 5.337-6.735-2.387-3.637-3.56.828-3.848 4.465-.29 5.055-2.996 5.055-4.262 0-1.262-.739-17.105-.739-17.105"/><path fill="#465ebd" d="M48.32 103.29q-.016.001-.03-.005a.195.195 0 0 1-.165-.222c1.008-6.477-1.45-15.504-1.477-15.594a.2.2 0 0 1 .141-.242.196.196 0 0 1 .242.136c.024.094 2.504 9.2 1.485 15.762a.2.2 0 0 1-.196.164m16.14 5.149c-1.554 0-5.546-.641-14.886-4.93a.203.203 0 0 1-.097-.262c.046-.098.164-.144.261-.098 12.86 5.91 15.403 4.832 15.43 4.82a.194.194 0 0 1 .262.094.194.194 0 0 1-.094.262c-.027.016-.262.114-.875.114"/><path fill="#0e2e7d" d="M82.004 113.848a.2.2 0 0 1-.102-.028l-12.136-7.28a.197.197 0 0 1-.07-.27.203.203 0 0 1 .273-.07l12.14 7.28c.09.06.121.18.067.274a.2.2 0 0 1-.172.094"/><path fill="#f8a6b3" d="M61.047 62.195c.394 1.543 2.328 6.211 2.348 6.868.015.539 0 4.402 0 4.402s-2.118 1.293-3.504-.48c-.418-.672-3.043-3.067-3.743-3.755-.808-.796-.324-1.074-.324-1.074.785-.117 3.29 1.278 3.73.602.489-1.559.942-3.414.66-5.63-.124-.882.59-1.89.833-.933"/><path fill="#465ebd" d="M49.656 81.555c-1.41 2.918-4.926 4.136-7.847 2.726a5.86 5.86 0 0 1-2.73-7.836 5.88 5.88 0 0 1 7.847-2.73 5.866 5.866 0 0 1 2.73 7.84"/><path fill="#465ebd" d="m62.504 91.316-13.64-16.093-8.993 7.554 12.25 15.754 5.465-3.215z"/><path fill="#465ebd" d="m58.64 72.555-7.214 21.257 6.16 1.504 6.316.575-.246-23.774s-4.906-.32-5.015.438"/><path fill="#465ebd" d="M62.277 99.578a6.347 6.347 0 0 1-8.96.422 6.33 6.33 0 0 1-.422-8.945 6.35 6.35 0 0 1 8.96-.422 6.33 6.33 0 0 1 .422 8.945"/><path fill="#0e2e7d" d="M51.86 78.758s2.163 2.129 2.937 1.984c.73-.14 2.937-5.52 2.937-5.52L55.2 82.696zm8.183 22.594a.19.19 0 0 1-.195-.184.2.2 0 0 1 .183-.211c.04-.004 2.543-.32 2.278-7.805-.278-7.77-.032-16.925-.032-17.02a.195.195 0 0 1 .207-.19.2.2 0 0 1 .192.203c-.004.093-.25 9.238.027 16.996.281 7.953-2.527 8.207-2.648 8.21zm37.543 38.429h47.36l5.784-46.11h-47.359z"/><path fill="#728be8" d="M97.809 139.586h46.96l5.739-45.715h-46.961Zm47.136.394h-47.36a.22.22 0 0 1-.147-.066.2.2 0 0 1-.047-.156l5.785-46.11a.2.2 0 0 1 .195-.171h47.36c.054 0 .109.023.148.066a.2.2 0 0 1 .047.156l-5.785 46.106a.2.2 0 0 1-.196.175"/><path fill="#728be8" d="M132.219 113.02H115.64l.18-1.438h16.577z"/><path fill="#465ebd" d="M134.46 115.582h-16.573l.18-1.437h16.574zm-.32 2.563h-16.577l.18-1.434h16.577zm-.32 2.565h-16.578l.18-1.437H134z"/><path fill="#728be8" d="M143.043 102.766h-32.379l.18-1.438h32.379zm-27.645-2.563h-8.828l.18-1.437h8.832z"/><path fill="#465ebd" d="M130.363 105.328H112.91l.18-1.433h17.453zm-.323 2.562h-17.454l.18-1.433h17.457zm-.321 2.563h-17.453l.18-1.433h17.452zm10.75 12.82h-23.547l.18-1.437h23.546zm-.321 2.563h-23.55l.18-1.434h23.55zm-.32 2.562h-23.55l.179-1.433h23.55zm-3.703 2.567h-20.168l.18-1.438h20.168z"/><path fill="#728be8" d="M121.21 133.527h-8.144l.18-1.437h8.145z"/><path fill="#fff" d="M105.766 128.14H88.465c-1.735 0-3.313 1.403-3.528 3.133l-2.124 17.016c-.215 1.73 1.011 3.133 2.75 3.133h17.296c1.735 0 3.317-1.402 3.532-3.133l2.125-17.016c.214-1.73-1.016-3.132-2.75-3.132"/><path fill="#728be8" d="M88.465 128.336c-1.633 0-3.13 1.328-3.332 2.96l-2.125 17.017c-.098.785.117 1.519.601 2.07.485.543 1.176.844 1.95.844h17.3c1.637 0 3.133-1.329 3.336-2.961l2.121-17.016c.098-.785-.113-1.52-.601-2.07-.48-.543-1.172-.844-1.95-.844Zm14.394 23.285h-17.3c-.891 0-1.688-.348-2.243-.976-.562-.637-.812-1.48-.699-2.38l2.121-17.015c.227-1.824 1.903-3.309 3.727-3.309h17.3c.891 0 1.692.348 2.247.977.562.637.808 1.48.699 2.379l-2.125 17.016c-.227 1.824-1.898 3.308-3.727 3.308"/></svg>