<svg xmlns="http://www.w3.org/2000/svg" width="249" height="216" version="1.0" viewBox="0 0 186.75 162"><defs><clipPath id="a"><path d="M58 1.605h127.75V130H58Zm0 0"/></clipPath><clipPath id="b"><path d="M0 74h111v87.89H0Zm0 0"/></clipPath><clipPath id="c"><path d="M58 .11h127.75V129H58Zm0 0"/></clipPath><clipPath id="d"><path d="M0 72h111v88.395H0Zm0 0"/></clipPath></defs><g clip-path="url(#a)"><path fill="#1d2896" d="M122.129 1.66C86.8 1.66 58.156 30.3 58.156 65.633a2.917 2.917 0 0 0 2.91 2.906 2.916 2.916 0 0 0 2.907-2.906c0-32.133 26.023-58.156 58.156-58.156s58.156 26.023 58.156 58.156-26.023 58.156-58.156 58.156a2.917 2.917 0 0 0-2.906 2.91 2.916 2.916 0 0 0 2.906 2.906c35.332 0 63.973-28.64 63.973-63.972S157.46 1.66 122.129 1.66m0 0"/></g><path fill="#1d2896" d="M20.355 56.91v2.906c0 6.399 5.235 11.633 11.633 11.633 6.395 0 11.63-5.234 11.63-11.633V56.91c0-6.398-5.235-11.633-11.63-11.633-6.398 0-11.633 5.235-11.633 11.633m17.446 0v2.906c0 3.2-2.617 5.817-5.813 5.817-3.199 0-5.816-2.617-5.816-5.817V56.91c0-3.2 2.617-5.816 5.816-5.816 3.196 0 5.813 2.617 5.813 5.816m81.422-1.02c-4.22 1.31-7.27 5.09-7.27 9.743 0 5.672 4.508 10.176 10.176 10.176 1.601 0 3.2-.434 4.508-1.016l13.668 14.684q.873.874 2.18.875c.726 0 1.452-.293 2.035-.73 1.164-1.161 1.308-2.907.144-4.071l-13.812-14.828c.875-1.453 1.457-3.2 1.457-5.09 0-4.653-3.055-8.434-7.27-9.742V30.738a2.917 2.917 0 0 0-2.91-2.906 2.916 2.916 0 0 0-2.906 2.906Zm2.906 5.38c2.473 0 4.363 1.89 4.363 4.363 0 2.472-1.89 4.363-4.363 4.363s-4.36-1.89-4.36-4.363 1.887-4.363 4.36-4.363m0 0"/><g clip-path="url(#b)"><path fill="#1d2896" d="m11.484 135.86-5.523 22.097a2.785 2.785 0 0 0 2.18 3.488c.293 0 .437.149.726.149 1.309 0 2.473-.875 2.766-2.184l5.234-20.937c2.469.875 5.086 1.308 7.996 1.308h8.285l4.946 19.63c.289 1.308 1.453 2.183 2.761 2.183.29 0 .438 0 .727-.149a3.03 3.03 0 0 0 2.18-3.488l-4.797-18.176h1.746c.727 0 1.309-.144 1.89-.289l5.38 16.43c1.164 3.344 4.214 5.523 7.703 5.523 2.328 0 4.656-1.015 6.109-2.761 1.598-1.746 2.18-4.07 1.89-6.399l-3.78-31.402H95.96v24.715H77.059a2.917 2.917 0 0 0-2.91 2.91 2.917 2.917 0 0 0 2.91 2.906H95.96v5.816a2.916 2.916 0 0 0 2.906 2.907 2.916 2.916 0 0 0 2.906-2.907v-36.347h2.91c3.2 0 5.817-2.617 5.817-5.817v-5.816c0-3.2-2.617-5.816-5.816-5.816H87.527l12.504-24.86a2.914 2.914 0 0 0-1.308-3.926 2.91 2.91 0 0 0-3.926 1.309l-13.668 27.477H66.3c.289-.871.578-1.891.578-2.907 0-4.797-3.926-8.722-8.723-8.722H43.91v-1.453c0-8.872-7.27-15.997-16.14-15.997-5.817 0-10.903 3.055-13.668 7.707-1.598-1.164-3.344-1.89-5.38-1.89C3.927 80.172 0 84.098 0 88.895v26.171c0 8.723 4.508 16.43 11.484 20.793m93.2-26.61v5.816H59.03c-.437-2.18-1.457-4.214-2.91-5.816ZM17.445 90.352c0-5.672 4.657-10.18 10.325-10.18 5.671 0 10.324 4.508 10.324 10.18v7.27h20.062a2.917 2.917 0 0 1 2.91 2.905 2.917 2.917 0 0 1-2.91 2.907H36.348c-1.309 0-2.473-.871-2.762-2.036l-3.055-10.32c-.433-1.601-2.035-2.473-3.633-1.89-1.601.433-2.472 2.035-1.89 3.632l3.055 10.325c1.015 3.632 4.359 6.105 8.285 6.105h7.562l5.961 2.473c1.887.87 3.344 2.617 3.633 4.652l4.797 36.93c.148.87-.29 1.453-.578 1.746a2.47 2.47 0 0 1-1.746.726c-1.02 0-1.891-.582-2.18-1.601l-5.961-17.883q1.741-2.181 1.742-5.234c0-4.797-3.926-8.723-8.723-8.723v-2.906c0-4.801-3.925-8.727-8.722-8.727H17.445Zm17.45 29.078v2.906h-7.27c-4.07 0-7.562-2.328-9.16-5.816h13.523a2.917 2.917 0 0 1 2.907 2.91M5.816 88.895a2.916 2.916 0 0 1 2.907-2.907 2.917 2.917 0 0 1 2.91 2.907v23.265a15.945 15.945 0 0 0 15.992 15.992h13.086a2.916 2.916 0 0 1 2.906 2.907 2.917 2.917 0 0 1-2.906 2.91H24.715a18.864 18.864 0 0 1-18.899-18.903Zm0 0"/></g><path fill="#1d2896" d="M125.04 16.2q0 .579-.224 1.113a2.91 2.91 0 0 1-2.687 1.792 2.87 2.87 0 0 1-2.055-.851 2.86 2.86 0 0 1-.851-2.055q.001-.58.218-1.113.224-.536.633-.941.41-.411.942-.633a2.95 2.95 0 0 1 2.226 0 2.91 2.91 0 0 1 1.797 2.687m.001 98.867q0 .58-.224 1.114a2.91 2.91 0 0 1-2.687 1.793 2.87 2.87 0 0 1-2.055-.852 2.86 2.86 0 0 1-.851-2.055q.001-.579.218-1.113a2.9 2.9 0 0 1 .633-.941q.41-.411.942-.633c.359-.149.726-.219 1.113-.219s.758.07 1.113.219a2.91 2.91 0 0 1 1.797 2.687m49.434-49.433q0 .58-.223 1.113a2.91 2.91 0 0 1-2.687 1.793 2.86 2.86 0 0 1-2.055-.852 2.86 2.86 0 0 1-.852-2.054q0-.58.219-1.113.223-.535.633-.942.409-.41.941-.633a2.93 2.93 0 0 1 2.227 0 2.91 2.91 0 0 1 1.797 2.688m-98.868 0q0 .58-.222 1.113a2.91 2.91 0 0 1-2.688 1.793 2.9 2.9 0 0 1-2.054-.852 2.86 2.86 0 0 1-.852-2.054q0-.58.219-1.113.223-.535.633-.942.409-.41.941-.633a2.93 2.93 0 0 1 2.227 0 2.91 2.91 0 0 1 1.796 2.688m83.442 32.894q.41.412.633.946a2.93 2.93 0 0 1 0 2.226q-.224.533-.633.942a2.9 2.9 0 0 1-.942.632 2.95 2.95 0 0 1-2.226 0 2.913 2.913 0 0 1-1.574-3.8q.224-.535.629-.946.411-.405.945-.629a2.9 2.9 0 0 1 2.227 0q.531.224.94.63M89.227 28.504q.408.408.628.945.223.535.223 1.11 0 .579-.223 1.113a2.9 2.9 0 0 1-.628.945c-.274.274-.586.48-.946.63a2.9 2.9 0 0 1-1.11.222q-.58 0-1.112-.223a2.9 2.9 0 0 1-.946-.629 2.9 2.9 0 0 1-.629-.945 2.9 2.9 0 0 1-.222-1.113q0-.575.222-1.11c.149-.36.356-.672.63-.945a2.8 2.8 0 0 1 .945-.629 2.9 2.9 0 0 1 1.113-.223q.575 0 1.11.223c.359.145.671.355.945.629m69.921.206a2.86 2.86 0 0 1 .852 2.056q0 .579-.219 1.113c-.148.355-.36.672-.633.941a2.89 2.89 0 0 1-2.055.852 2.85 2.85 0 0 1-1.113-.219 2.913 2.913 0 0 1-1.574-3.8 2.91 2.91 0 0 1 2.688-1.794 2.9 2.9 0 0 1 2.054.852m0 0"/><g clip-path="url(#c)"><path fill="#1d2896" d="M122.129.164c-35.328 0-63.973 28.64-63.973 63.973a2.917 2.917 0 0 0 2.91 2.906 2.916 2.916 0 0 0 2.907-2.906c0-32.133 26.023-58.16 58.156-58.16s58.156 26.027 58.156 58.16c0 32.129-26.023 58.156-58.156 58.156a2.916 2.916 0 0 0-2.906 2.906 2.917 2.917 0 0 0 2.906 2.91c35.332 0 63.973-28.644 63.973-63.972 0-35.332-28.641-63.973-63.973-63.973m0 0"/></g><path fill="#1d2896" d="M20.355 55.41v2.91c0 6.395 5.235 11.63 11.633 11.63 6.395 0 11.63-5.235 11.63-11.63v-2.91c0-6.394-5.235-11.629-11.63-11.629-6.398 0-11.633 5.235-11.633 11.63m17.446 0v2.91c0 3.2-2.617 5.817-5.813 5.817-3.199 0-5.816-2.617-5.816-5.817v-2.91c0-3.2 2.617-5.816 5.816-5.816 3.196 0 5.813 2.617 5.813 5.816m81.422-1.016c-4.22 1.308-7.27 5.085-7.27 9.742a10.115 10.115 0 0 0 10.176 10.176c1.601 0 3.2-.438 4.508-1.02l13.668 14.687q.873.873 2.18.872c.726 0 1.452-.29 2.035-.727 1.164-1.164 1.308-2.906.144-4.07l-13.812-14.832c.875-1.453 1.457-3.2 1.457-5.086 0-4.657-3.055-8.434-7.27-9.742V29.242a2.917 2.917 0 0 0-2.91-2.91 2.917 2.917 0 0 0-2.906 2.91Zm2.906 5.378c2.473 0 4.363 1.891 4.363 4.364 0 2.468-1.89 4.36-4.363 4.36s-4.36-1.892-4.36-4.36c0-2.473 1.887-4.364 4.36-4.364m0 0"/><g clip-path="url(#d)"><path fill="#1d2896" d="m11.484 134.36-5.523 22.1a2.786 2.786 0 0 0 2.18 3.49c.293 0 .437.144.726.144 1.309 0 2.473-.871 2.766-2.18l5.234-20.937c2.469.87 5.086 1.308 7.996 1.308h8.285l4.946 19.63c.289 1.308 1.453 2.179 2.761 2.179.29 0 .438 0 .727-.145a3.034 3.034 0 0 0 2.18-3.488l-4.797-18.176h1.746c.727 0 1.309-.144 1.89-.289l5.38 16.426c1.164 3.348 4.214 5.527 7.703 5.527 2.328 0 4.656-1.02 6.109-2.762 1.598-1.746 2.18-4.074 1.89-6.398l-3.78-31.406H95.96v24.719H77.059a2.917 2.917 0 0 0-2.91 2.906 2.917 2.917 0 0 0 2.91 2.91H95.96v5.812a2.917 2.917 0 0 0 2.906 2.91 2.917 2.917 0 0 0 2.906-2.91v-36.347h2.91c3.2 0 5.817-2.617 5.817-5.813v-5.816c0-3.2-2.617-5.817-5.816-5.817H87.527l12.504-24.863a2.915 2.915 0 0 0-1.308-3.926 2.915 2.915 0 0 0-3.926 1.309l-13.668 27.48H66.3c.289-.87.578-1.89.578-2.91 0-4.797-3.926-8.722-8.723-8.722H43.91v-1.453c0-8.868-7.27-15.993-16.14-15.993-5.817 0-10.903 3.051-13.668 7.704-1.598-1.16-3.344-1.887-5.38-1.887C3.927 78.676 0 82.602 0 87.398v26.172c0 8.723 4.508 16.426 11.484 20.79m93.2-26.606v5.816H59.03c-.437-2.183-1.457-4.218-2.91-5.816ZM17.445 88.852c0-5.672 4.657-10.176 10.325-10.176 5.671 0 10.324 4.504 10.324 10.176v7.27h20.062a2.917 2.917 0 0 1 2.91 2.905 2.917 2.917 0 0 1-2.91 2.91H36.348c-1.309 0-2.473-.87-2.762-2.035L30.53 89.578c-.433-1.598-2.035-2.473-3.633-1.89-1.601.437-2.472 2.035-1.89 3.636l3.055 10.32c1.015 3.637 4.359 6.11 8.285 6.11h7.562l5.961 2.469c1.887.875 3.344 2.617 3.633 4.652l4.797 36.93c.148.875-.29 1.457-.578 1.746a2.45 2.45 0 0 1-1.746.726c-1.02 0-1.891-.582-2.18-1.597l-5.961-17.883q1.741-2.184 1.742-5.234c0-4.801-3.926-8.723-8.723-8.723v-2.91c0-4.797-3.925-8.723-8.722-8.723H17.445Zm17.45 29.078v2.91h-7.27c-4.07 0-7.562-2.328-9.16-5.817h13.523a2.916 2.916 0 0 1 2.907 2.907M5.816 87.398a2.917 2.917 0 0 1 2.907-2.91 2.917 2.917 0 0 1 2.91 2.91v23.262a15.943 15.943 0 0 0 15.992 15.992h13.086a2.917 2.917 0 0 1 2.906 2.91 2.916 2.916 0 0 1-2.906 2.907H24.715A18.863 18.863 0 0 1 5.816 113.57Zm0 0"/></g><path fill="#1d2896" d="M125.04 14.703q0 .575-.224 1.11a2.9 2.9 0 0 1-.629.945q-.411.41-.945.629a2.9 2.9 0 0 1-1.113.222c-.387 0-.754-.074-1.113-.222a2.8 2.8 0 0 1-.942-.63 2.87 2.87 0 0 1-.851-2.054q.001-.58.218-1.113a2.913 2.913 0 0 1 3.801-1.574q.535.22.945.629.406.411.63.945.222.532.222 1.113m.001 98.867q0 .575-.224 1.11c-.148.36-.359.672-.629.945q-.411.407-.945.629a2.9 2.9 0 0 1-1.113.223 2.9 2.9 0 0 1-1.113-.223 2.9 2.9 0 0 1-.942-.629 2.87 2.87 0 0 1-.851-2.055q.001-.579.218-1.113a2.908 2.908 0 0 1 2.688-1.797q.58 0 1.113.223.535.22.945.629a2.92 2.92 0 0 1 .852 2.058m49.434-49.433q0 .575-.223 1.11-.224.536-.629.944-.411.412-.945.63a2.9 2.9 0 0 1-1.113.222q-.58 0-1.114-.223a2.8 2.8 0 0 1-.941-.629 2.87 2.87 0 0 1-.852-2.054q0-.58.219-1.114c.148-.359.36-.671.633-.945s.586-.48.941-.629a2.9 2.9 0 0 1 1.113-.222q.58 0 1.114.222c.355.149.672.356.945.63a2.92 2.92 0 0 1 .852 2.058m-98.868 0q0 .575-.222 1.11-.224.536-.63.944-.41.412-.944.63a2.9 2.9 0 0 1-2.227 0 2.8 2.8 0 0 1-.941-.63 2.87 2.87 0 0 1-.852-2.054q0-.58.219-1.114c.148-.359.36-.671.633-.945s.586-.48.941-.629a2.9 2.9 0 0 1 2.227 0c.355.149.671.356.945.63a2.92 2.92 0 0 1 .851 2.058m83.442 32.894q.41.41.633.942.217.538.218 1.113-.001.58-.218 1.113a2.913 2.913 0 0 1-3.801 1.574 2.9 2.9 0 0 1-.945-.628q-.405-.412-.63-.946a2.9 2.9 0 0 1 0-2.227q.225-.532.63-.94.411-.412.945-.63a2.9 2.9 0 0 1 2.227 0q.531.218.94.63M89.227 27.008q.408.407.628.941.223.534.223 1.113 0 .58-.223 1.114a2.9 2.9 0 0 1-.628.941 2.87 2.87 0 0 1-2.055.852 2.9 2.9 0 0 1-1.113-.219 2.9 2.9 0 0 1-.946-.633 2.9 2.9 0 0 1-.629-.941 2.9 2.9 0 0 1-.222-1.113q0-.58.222-1.114c.149-.355.356-.672.63-.941.273-.274.585-.485.945-.633a2.9 2.9 0 0 1 1.113-.219 2.881 2.881 0 0 1 2.055.852m69.921.202a2.87 2.87 0 0 1 .852 2.056q0 .579-.219 1.113a2.9 2.9 0 0 1-.633.945c-.273.274-.585.48-.941.63a2.9 2.9 0 0 1-2.227 0 2.9 2.9 0 0 1-.945-.63 2.92 2.92 0 0 1-.851-2.054q0-.58.222-1.114a2.9 2.9 0 0 1 1.574-1.574 2.9 2.9 0 0 1 2.227 0q.533.22.941.629m0 0"/></svg>