<svg xmlns="http://www.w3.org/2000/svg" width="241" height="240" version="1.0" viewBox="0 0 180.75 180"><defs><clipPath id="a"><path d="M0 .125h179.75v179.75H0Zm0 0"/></clipPath><clipPath id="b"><path d="M0 .125h179.75v179.75H0Zm0 0"/></clipPath></defs><g clip-path="url(#a)"><path fill="#1d2896" d="M89.988 11.824c-43.105 0-78.172 35.063-78.172 78.168 0 43.11 35.067 78.176 78.172 78.176 43.106 0 78.168-35.066 78.168-78.176 0-43.105-35.062-78.168-78.168-78.168m0 168.055c-12.133 0-23.902-2.375-34.992-7.063-10.703-4.53-20.316-11.011-28.57-19.261-8.25-8.254-14.73-17.868-19.258-28.57C2.48 113.897.102 102.124.102 89.991c0-12.129 2.378-23.902 7.066-34.988 4.527-10.703 11.008-20.316 19.258-28.57 8.254-8.25 17.867-14.73 28.57-19.258C66.086 2.488 77.856.109 89.988.109c12.13 0 23.903 2.38 34.989 7.067 10.707 4.527 20.316 11.008 28.57 19.258 8.25 8.253 14.73 17.867 19.262 28.57 4.683 11.086 7.062 22.86 7.062 34.988 0 12.133-2.379 23.906-7.062 34.992-4.532 10.704-11.012 20.317-19.262 28.57-8.254 8.25-17.863 14.731-28.57 19.262-11.086 4.688-22.86 7.063-34.989 7.063"/></g><path fill="#1d2896" d="M92.258 33.938h-4.543a.67.67 0 0 1-.664-.668V19.32c0-.367.3-.668.664-.668h4.543a.67.67 0 0 1 .668.668v13.95a.67.67 0 0 1-.668.667m0 127.399h-4.543a.67.67 0 0 1-.664-.668v-13.95c0-.366.3-.667.664-.667h4.543c.367 0 .668.3.668.668v13.949a.67.67 0 0 1-.668.668M131.227 51.96l-3.207-3.206a.674.674 0 0 1 0-.945l9.863-9.864a.667.667 0 0 1 .945 0l3.207 3.207a.667.667 0 0 1 0 .946l-9.863 9.863a.674.674 0 0 1-.945 0m-90.082 90.082-3.211-3.207a.674.674 0 0 1 0-.945l9.863-9.864a.68.68 0 0 1 .95 0l3.206 3.207a.674.674 0 0 1 0 .946l-9.863 9.863a.667.667 0 0 1-.945 0m104.898-49.777v-4.543c0-.364.3-.668.668-.668h13.95c.366 0 .667.304.667.668v4.543c0 .363-.3.668-.668.668h-13.95a.673.673 0 0 1-.667-.668m-127.398 0v-4.543c0-.364.3-.668.668-.668h13.949c.367 0 .668.304.668.668v4.543a.673.673 0 0 1-.668.668h-13.95a.673.673 0 0 1-.667-.668m109.375 38.968 3.207-3.207a.674.674 0 0 1 .945 0l9.863 9.864a.667.667 0 0 1 0 .945l-3.207 3.207a.667.667 0 0 1-.945 0l-9.863-9.863a.674.674 0 0 1 0-.946M37.934 41.152l3.21-3.207a.667.667 0 0 1 .946 0l9.863 9.864a.674.674 0 0 1 0 .945l-3.207 3.207a.68.68 0 0 1-.95 0l-9.862-9.863a.674.674 0 0 1 0-.946m84.062 73.332L97.582 90.07c0-.027.004-.05.004-.078a7.56 7.56 0 0 0-1.5-4.527V51.05c0-3.356-2.746-6.098-6.098-6.098-3.355 0-6.101 2.742-6.101 6.098v34.414a7.594 7.594 0 0 0 3.516 11.672l25.968 25.972c2.371 2.371 6.254 2.371 8.625 0s2.371-6.254 0-8.625"/><g clip-path="url(#b)"><path fill="#1d2896" d="M89.988 11.824c-43.105 0-78.172 35.063-78.172 78.168 0 43.11 35.067 78.176 78.172 78.176 43.106 0 78.168-35.066 78.168-78.176 0-43.105-35.062-78.168-78.168-78.168m0 168.055c-12.133 0-23.902-2.375-34.992-7.063-10.703-4.53-20.316-11.011-28.57-19.261-8.25-8.254-14.73-17.868-19.258-28.57C2.48 113.897.102 102.124.102 89.991c0-12.129 2.378-23.902 7.066-34.988 4.527-10.703 11.008-20.316 19.258-28.57 8.254-8.25 17.867-14.73 28.57-19.258C66.086 2.488 77.856.109 89.988.109c12.13 0 23.903 2.38 34.989 7.067 10.707 4.527 20.316 11.008 28.57 19.258 8.25 8.253 14.73 17.867 19.262 28.57 4.683 11.086 7.062 22.86 7.062 34.988 0 12.133-2.379 23.906-7.062 34.992-4.532 10.704-11.012 20.317-19.262 28.57-8.254 8.25-17.863 14.731-28.57 19.262-11.086 4.688-22.86 7.063-34.989 7.063"/></g><path fill="#1d2896" d="M92.258 33.938h-4.543a.67.67 0 0 1-.664-.668V19.32c0-.367.3-.668.664-.668h4.543a.67.67 0 0 1 .668.668v13.95a.67.67 0 0 1-.668.667m0 127.399h-4.543a.67.67 0 0 1-.664-.668v-13.95c0-.366.3-.667.664-.667h4.543c.367 0 .668.3.668.668v13.949a.67.67 0 0 1-.668.668M131.227 51.96l-3.207-3.206a.674.674 0 0 1 0-.945l9.863-9.864a.667.667 0 0 1 .945 0l3.207 3.207a.667.667 0 0 1 0 .946l-9.863 9.863a.674.674 0 0 1-.945 0m-90.082 90.082-3.211-3.207a.674.674 0 0 1 0-.945l9.863-9.864a.68.68 0 0 1 .95 0l3.206 3.207a.674.674 0 0 1 0 .946l-9.863 9.863a.667.667 0 0 1-.945 0m104.898-49.777v-4.543c0-.364.3-.668.668-.668h13.95c.366 0 .667.304.667.668v4.543c0 .363-.3.668-.668.668h-13.95a.673.673 0 0 1-.667-.668m-127.398 0v-4.543c0-.364.3-.668.668-.668h13.949c.367 0 .668.304.668.668v4.543a.673.673 0 0 1-.668.668h-13.95a.673.673 0 0 1-.667-.668m109.375 38.968 3.207-3.207a.674.674 0 0 1 .945 0l9.863 9.864a.667.667 0 0 1 0 .945l-3.207 3.207a.667.667 0 0 1-.945 0l-9.863-9.863a.674.674 0 0 1 0-.946M37.934 41.152l3.21-3.207a.667.667 0 0 1 .946 0l9.863 9.864a.674.674 0 0 1 0 .945l-3.207 3.207a.68.68 0 0 1-.95 0l-9.862-9.863a.674.674 0 0 1 0-.946m84.062 73.332L97.582 90.07c0-.027.004-.05.004-.078a7.56 7.56 0 0 0-1.5-4.527V51.05c0-3.356-2.746-6.098-6.098-6.098-3.355 0-6.101 2.742-6.101 6.098v34.414a7.594 7.594 0 0 0 3.516 11.672l25.968 25.972c2.371 2.371 6.254 2.371 8.625 0s2.371-6.254 0-8.625"/></svg>