<svg xmlns="http://www.w3.org/2000/svg" width="143" height="143" version="1.0" viewBox="0 0 107.25 107.25"><defs><clipPath id="a"><path d="M0 0h105.965v105.965H0Zm0 0"/></clipPath><clipPath id="b"><path d="M52.984 0C23.723 0 0 23.723 0 52.984s23.723 52.98 52.984 52.98 52.98-23.718 52.98-52.98S82.247 0 52.985 0m0 0"/></clipPath><clipPath id="c"><path d="M13 37h86.879v50H13Zm0 0"/></clipPath></defs><g clip-path="url(#a)"><g clip-path="url(#b)"><path fill="#38b6ff" d="M0 0h105.965v105.965H0Zm0 0"/></g></g><g clip-path="url(#c)"><path fill="#fff" d="M42.898 86.95c-9.91 0-17.539-3.063-22.671-9.106-4.926-5.801-7.364-14.723-6.07-22.215a1.8 1.8 0 0 1 1.769-1.488h56a11.9 11.9 0 0 0 3.742-.496c-1.836-4.508-.758-10.004 1.48-13.368l1.196-1.793a1.79 1.79 0 0 1 2.476-.5l1.805 1.192c3.027 2.312 4.89 4.812 5.715 7.656 3.11-.27 6.879.152 9.012 1.578l1.707 1.133a1.79 1.79 0 0 1 .617 2.285l-.2.41c-.304.625-.742 1.516-.933 1.856-3.164 5.972-9.066 6.672-12.156 6.718C78.879 77.685 63.484 86.95 42.898 86.95m-25.41-29.223c-.597 6.164 1.516 13.144 5.465 17.796 4.43 5.204 11.137 7.84 19.945 7.84 19.493 0 33.93-8.89 40.653-25.039.281-.676.996-1.035 1.687-1.101 3.512.074 7.828-.426 10.145-4.828.015-.028.039-.067.05-.09.07-.117.196-.36.333-.645l-.407-.27c-1.28-.855-5.004-1.374-8.097-.804a1.83 1.83 0 0 1-1.38-.309 1.77 1.77 0 0 1-.726-1.207c-.363-2.597-1.867-4.875-4.61-6.976l-.214-.137-.21.313c-1.911 2.867-2.634 8.007-.466 11.304.278.422.364.938.242 1.426a1.8 1.8 0 0 1-.894 1.137c-.926.496-3.422 1.648-7.113 1.582H17.488Zm0 0"/></g><path fill="#fff" d="M71.176 57.703h-51.98a1.793 1.793 0 0 1-1.794-1.793V45.7c0-.99.801-1.794 1.793-1.794h51.98c.99 0 1.79.805 1.79 1.793V55.91c0 .992-.8 1.793-1.79 1.793m-50.188-3.586h48.395v-6.625H20.988Zm0 0"/><path fill="#fff" d="M60.418 47.492H28.152A1.795 1.795 0 0 1 26.36 45.7V35.49c0-.989.805-1.794 1.793-1.794h32.266c.992 0 1.793.805 1.793 1.793v10.215c0 .988-.8 1.79-1.793 1.79m-30.473-3.586h28.68v-6.625h-28.68Zm0 0"/><path fill="#fff" d="M60.418 57.703H49.664a1.795 1.795 0 0 1-1.793-1.793V25.273c0-.988.805-1.789 1.793-1.789h10.754a1.79 1.79 0 0 1 1.793 1.79V55.91c0 .992-.8 1.793-1.793 1.793m-8.961-3.586h7.168v-27.05h-7.168Zm0 0"/><path fill="#fff" d="M49.664 57.703H38.91a1.793 1.793 0 0 1-1.793-1.793V35.488c0-.988.801-1.793 1.793-1.793h10.754c.988 0 1.793.805 1.793 1.793v20.426c0 .988-.805 1.79-1.793 1.79M40.7 54.117h7.172V37.281H40.7Zm0 0"/><path fill="#fff" d="M38.91 57.703H28.152a1.795 1.795 0 0 1-1.793-1.793V45.7c0-.99.805-1.794 1.793-1.794H38.91c.988 0 1.79.805 1.79 1.793V55.91a1.79 1.79 0 0 1-1.79 1.793m-8.965-3.586h7.172v-6.625h-7.172Zm0 0"/></svg>