<svg xmlns="http://www.w3.org/2000/svg" width="221" height="220" version="1.0" viewBox="0 0 165.75 165"><defs><clipPath id="a"><path d="M.375 0H165v164H.375Zm0 0"/></clipPath><clipPath id="b"><path d="M.375 0H165v164H.375Zm0 0"/></clipPath></defs><path fill="#38b6ff" fill-rule="evenodd" d="M3.07 2.652h121.258v46.782H3.07zm74.078 57.262h21.536V81.45H77.148Zm15.133 29.5h21.535v21.535H92.281Zm-30.27 0h21.536v21.535H62.012Zm78.473 37.832c-6.59 19.805-25.265 34.09-47.285 34.09-25.168 0-45.988-18.676-49.351-42.922H132c.07-11.531 10.45-20.226 21.809-18.324a18.62 18.62 0 0 1-2.618 13.058 18.7 18.7 0 0 1 10.899 7.356c-4.817 6.766-13.621 9.637-21.606 6.742m0 0"/><g clip-path="url(#a)"><path fill="#1a3d6d" d="M50.238 34.016a2.637 2.637 0 0 1 .492 3.707 2.647 2.647 0 0 1-3.707.492l-13.14-10.067c-1.414-1.082-1.356-3.195.039-4.238l13.101-10.035a2.64 2.64 0 0 1 3.707.5 2.64 2.64 0 0 1-.492 3.707l-10.406 7.961ZM68.04 13.23a2.63 2.63 0 0 1 3.617-.96 2.637 2.637 0 0 1 .961 3.605l-13.262 22.98a2.65 2.65 0 0 1-3.617.973 2.65 2.65 0 0 1-.96-3.617Zm12.324 24.985c-1.152.89-2.816.66-3.707-.492a2.65 2.65 0 0 1 .5-3.707l10.399-7.973-10.399-7.965a2.654 2.654 0 0 1-.5-3.707c.89-1.16 2.555-1.39 3.707-.5l13.114 10.035c1.39 1.043 1.453 3.157.039 4.239Zm-62.527 72.898a2.65 2.65 0 0 1-2.656-2.644 2.66 2.66 0 0 1 2.656-2.656h17.187a2.656 2.656 0 0 1 2.653 2.656 2.65 2.65 0 0 1-2.653 2.644Zm0-14.558a2.649 2.649 0 1 1 0-5.297h34.379a2.649 2.649 0 1 1 0 5.297Zm0-14.555a2.648 2.648 0 1 1 0-5.297h34.379a2.648 2.648 0 1 1 0 5.297Zm0-14.555a2.66 2.66 0 0 1-2.656-2.656 2.65 2.65 0 0 1 2.656-2.644h34.379a2.654 2.654 0 0 1 2.656 2.644 2.66 2.66 0 0 1-2.656 2.656ZM3.07 0h121.258a2.646 2.646 0 0 1 2.64 2.652V115.77h2.567c1.55-11.98 12.774-20.274 24.715-18.293a2.67 2.67 0 0 1 2.184 2.234c.632 4.117.199 8.074-1.442 11.902a21.4 21.4 0 0 1 9.254 7.36 2.66 2.66 0 0 1-.039 3.125c-5.137 6.984-13.625 10.32-22.086 8.386-7.766 20.016-27.086 33.508-48.918 33.508-15.957 0-30.48-7.152-40.238-18.812H3.07a2.64 2.64 0 0 1-2.644-2.64V2.651A2.646 2.646 0 0 1 3.07 0m118.602 5.309H5.722v41.468h115.95ZM77.148 57.266h21.536a2.65 2.65 0 0 1 2.652 2.656v21.535a2.646 2.646 0 0 1-2.652 2.64H77.148a2.65 2.65 0 0 1-2.656-2.64V59.922a2.654 2.654 0 0 1 2.656-2.656m18.891 5.3H79.801v16.239h16.238Zm-3.758 24.192h21.535a2.66 2.66 0 0 1 2.657 2.656v21.535a2.66 2.66 0 0 1-2.657 2.653H92.281a2.647 2.647 0 0 1-2.64-2.653V89.414a2.65 2.65 0 0 1 2.64-2.656m18.895 5.308H94.937v16.239h16.239Zm-49.164-5.308h21.535a2.66 2.66 0 0 1 2.652 2.656v21.535a2.657 2.657 0 0 1-2.652 2.653H62.012a2.655 2.655 0 0 1-2.653-2.653V89.414a2.653 2.653 0 0 1 2.653-2.656m18.883 5.308H64.656v16.239h16.239Zm-31.84 47.813a52.1 52.1 0 0 1-7.825-21.094c-.218-1.586 1.036-3.004 2.618-3.015h77.82V52.09H5.723v87.789Zm71.695 9.937c7.934-5.71 14.016-13.824 17.18-23.27.48-1.542 2.023-2.292 3.457-1.773 6.07 2.196 12.933.512 17.308-4.27a16 16 0 0 0-8.113-4.765l.008-.011c-1.742-.41-2.602-2.426-1.633-3.977a16.1 16.1 0 0 0 2.445-9.254c-9.132-.398-16.757 6.961-16.757 15.918a2.64 2.64 0 0 1-2.653 2.652H46.984c4.457 21.664 23.633 37.614 46.22 37.614 10.3 0 19.804-3.282 27.546-8.864m0 0"/></g><path fill="#38b6ff" fill-rule="evenodd" d="M3.07 2.652h121.258v46.782H3.07zm74.078 57.262h21.536V81.45H77.148Zm15.133 29.5h21.535v21.535H92.281Zm-30.27 0h21.536v21.535H62.012Zm78.473 37.832c-6.59 19.805-25.265 34.09-47.285 34.09-25.168 0-45.988-18.676-49.351-42.922H132c.07-11.531 10.45-20.226 21.809-18.324a18.62 18.62 0 0 1-2.618 13.058 18.7 18.7 0 0 1 10.899 7.356c-4.817 6.766-13.621 9.637-21.606 6.742m0 0"/><g clip-path="url(#b)"><path fill="#1a3d6d" d="M50.238 34.016a2.637 2.637 0 0 1 .492 3.707 2.647 2.647 0 0 1-3.707.492l-13.14-10.067c-1.414-1.082-1.356-3.195.039-4.238l13.101-10.035a2.64 2.64 0 0 1 3.707.5 2.64 2.64 0 0 1-.492 3.707l-10.406 7.961ZM68.04 13.23a2.63 2.63 0 0 1 3.617-.96 2.637 2.637 0 0 1 .961 3.605l-13.262 22.98a2.65 2.65 0 0 1-3.617.973 2.65 2.65 0 0 1-.96-3.617Zm12.324 24.985c-1.152.89-2.816.66-3.707-.492a2.65 2.65 0 0 1 .5-3.707l10.399-7.973-10.399-7.965a2.654 2.654 0 0 1-.5-3.707c.89-1.16 2.555-1.39 3.707-.5l13.114 10.035c1.39 1.043 1.453 3.157.039 4.239Zm-62.527 72.898a2.65 2.65 0 0 1-2.656-2.644 2.66 2.66 0 0 1 2.656-2.656h17.187a2.656 2.656 0 0 1 2.653 2.656 2.65 2.65 0 0 1-2.653 2.644Zm0-14.558a2.649 2.649 0 1 1 0-5.297h34.379a2.649 2.649 0 1 1 0 5.297Zm0-14.555a2.648 2.648 0 1 1 0-5.297h34.379a2.648 2.648 0 1 1 0 5.297Zm0-14.555a2.66 2.66 0 0 1-2.656-2.656 2.65 2.65 0 0 1 2.656-2.644h34.379a2.654 2.654 0 0 1 2.656 2.644 2.66 2.66 0 0 1-2.656 2.656ZM3.07 0h121.258a2.646 2.646 0 0 1 2.64 2.652V115.77h2.567c1.55-11.98 12.774-20.274 24.715-18.293a2.67 2.67 0 0 1 2.184 2.234c.632 4.117.199 8.074-1.442 11.902a21.4 21.4 0 0 1 9.254 7.36 2.66 2.66 0 0 1-.039 3.125c-5.137 6.984-13.625 10.32-22.086 8.386-7.766 20.016-27.086 33.508-48.918 33.508-15.957 0-30.48-7.152-40.238-18.812H3.07a2.64 2.64 0 0 1-2.644-2.64V2.651A2.646 2.646 0 0 1 3.07 0m118.602 5.309H5.722v41.468h115.95ZM77.148 57.266h21.536a2.65 2.65 0 0 1 2.652 2.656v21.535a2.646 2.646 0 0 1-2.652 2.64H77.148a2.65 2.65 0 0 1-2.656-2.64V59.922a2.654 2.654 0 0 1 2.656-2.656m18.891 5.3H79.801v16.239h16.238Zm-3.758 24.192h21.535a2.66 2.66 0 0 1 2.657 2.656v21.535a2.66 2.66 0 0 1-2.657 2.653H92.281a2.647 2.647 0 0 1-2.64-2.653V89.414a2.65 2.65 0 0 1 2.64-2.656m18.895 5.308H94.937v16.239h16.239Zm-49.164-5.308h21.535a2.66 2.66 0 0 1 2.652 2.656v21.535a2.657 2.657 0 0 1-2.652 2.653H62.012a2.655 2.655 0 0 1-2.653-2.653V89.414a2.653 2.653 0 0 1 2.653-2.656m18.883 5.308H64.656v16.239h16.239Zm-31.84 47.813a52.1 52.1 0 0 1-7.825-21.094c-.218-1.586 1.036-3.004 2.618-3.015h77.82V52.09H5.723v87.789Zm71.695 9.937c7.934-5.71 14.016-13.824 17.18-23.27.48-1.542 2.023-2.292 3.457-1.773 6.07 2.196 12.933.512 17.308-4.27a16 16 0 0 0-8.113-4.765l.008-.011c-1.742-.41-2.602-2.426-1.633-3.977a16.1 16.1 0 0 0 2.445-9.254c-9.132-.398-16.757 6.961-16.757 15.918a2.64 2.64 0 0 1-2.653 2.652H46.984c4.457 21.664 23.633 37.614 46.22 37.614 10.3 0 19.804-3.282 27.546-8.864m0 0"/></g></svg>