<svg xmlns="http://www.w3.org/2000/svg" width="143" height="143" version="1.0" viewBox="0 0 107.25 107.25"><defs><clipPath id="a"><path d="M0 0h105.965v105.965H0Zm0 0"/></clipPath><clipPath id="b"><path d="M52.984 0C23.723 0 0 23.723 0 52.984s23.723 52.98 52.984 52.98 52.98-23.718 52.98-52.98S82.247 0 52.985 0m0 0"/></clipPath><clipPath id="c"><path d="M39 46h36v9.227H39Zm0 0"/></clipPath><clipPath id="d"><path d="M29 13.52h58V54H29Zm0 0"/></clipPath><clipPath id="e"><path d="M33.79 36.48h45.062v30.122H33.789Zm0 0"/></clipPath><clipPath id="f"><path d="M56.3 36.48c-12.433 0-22.51 6.743-22.51 15.06 0 8.32 10.077 15.062 22.51 15.062 12.43 0 22.513-6.743 22.513-15.063 0-8.316-10.083-15.059-22.512-15.059m0 0"/></clipPath><clipPath id="g"><path d="M22.172 40.05h56.605v52.88H22.172Zm0 0"/></clipPath><clipPath id="h"><path d="M24 72h20v20.93H24Zm0 0"/></clipPath></defs><g clip-path="url(#a)"><g clip-path="url(#b)"><path fill="#38b6ff" d="M0 0h105.965v105.965H0Zm0 0"/></g></g><g clip-path="url(#c)"><path fill="#fff" d="M39.363 48.629c0 9.805 7.95 17.746 17.754 17.746 9.801 0 17.75-7.941 17.75-17.746 0-.649-.035-1.29-.101-1.914H39.465a18 18 0 0 0-.102 1.914"/></g><g clip-path="url(#d)"><path fill="#fff" d="M79.855 36.18a1.609 1.609 0 1 1 0 3.218 1.61 1.61 0 1 1 0-3.219M29.633 24.46c.289.212.62.345.949.462 1.262.43 4.36 1.5 8.004 2.762 2.082.71 4.34 1.488 6.531 2.25a6344 6344 0 0 1 11.313 3.91 1.76 1.76 0 0 0 1.222-.008c.852-.297 6.707-2.3 11.407-3.902a1411 1411 0 0 0 5.984-2.055c.246-.086.398-.043.594.117l.011.012c1.602 1.305 2.34 3.07 2.7 5.039.105.578.164 1.168.199 1.754a3.26 3.26 0 0 0-1.95 2.984c0 1.278.731 2.38 1.798 2.922-.145 2.004-.305 4.012-.176 6.027.097 1.524.347 3.016 1.101 4.38.676 1.222 1.672 2.1 2.926 2.695.164.082.32.117.48.023.743-.414 3.489-1.984 3.887-2.23a24 24 0 0 1-2.093-2.782c-.73-1.129-1.395-2.297-1.895-3.547-.586-1.445-1.04-2.933-1.273-4.48q-.007-.06-.008-.105a3.27 3.27 0 0 0 1.773-2.903 3.26 3.26 0 0 0-2.086-3.039c-.015-1.32-.094-2.633-.453-3.914a8.7 8.7 0 0 0-2.133-3.7c-.082-.089-.156-.179-.27-.308.657-.23 4.56-1.562 5.884-2.015.336-.11.66-.243.949-.454.539-.41.539-.875-.008-1.285-.465-.351-1.035-.476-1.574-.66-2.696-.922-25.09-8.539-25.555-8.719-.414-.156-.812-.14-1.23 0-3.903 1.36-24.328 8.41-26.07 9.012-.321.11-.641.23-.919.438-.593.418-.597.89-.02 1.32"/></g><path fill="#fff" d="M75.648 42.8v-9.597c0-.95-.277-1.894-.87-2.633q-.007-.005-.012-.015c-.985.34-15.59 5.328-16.301 5.578a4.3 4.3 0 0 1-1.438.258h-.004a4.2 4.2 0 0 1-1.398-.246c-1.102-.383-15.187-5.247-17.04-5.891V42.8c0 .547.442.988.99.988h35.081a.99.99 0 0 0 .992-.988"/><g clip-path="url(#e)"><g clip-path="url(#f)"><path fill="#38b6ff" d="M33.79 36.48h45.062v30.122H33.789Zm0 0"/></g></g><g clip-path="url(#g)"><path fill="#fff" d="m78.625 69.594-3.793-6.969c.176-1.145.352-2.293.352-3.437 0-10.583-8.555-19.137-19.137-19.137-4.676 0-9.172 1.676-12.61 4.761H34.09q-.398.001-.531.266l-5.645 8.817h-4.937a.7.7 0 0 0-.707.707c0 .351.265.707.707.707h5.289q.397-.001.53-.266l5.645-8.82h17.02l3.879 1.675v.356a2.467 2.467 0 0 0 2.472 2.469 2.466 2.466 0 0 0 2.47-2.47c0-1.323-1.15-2.472-2.47-2.472-.796 0-1.5.356-1.94.973l-4.06-1.766c-.085 0-.175-.086-.261-.086h-6.086a17.78 17.78 0 0 1 10.492-3.441c9.79 0 17.816 8.027 17.816 17.816 0 1.145-.09 2.293-.351 3.438 0 .176 0 .441.176.527l3.437 6.262-4.762 1.855a.66.66 0 0 0-.441.618v9.257h-7.23a.7.7 0 0 0-.707.707v5.82H47.406V75.149c0-.261-.09-.441-.355-.527-1.5-.883-2.645-1.766-3.793-3h5.383l4.586 6.969c.086.176.351.265.527.265h3.527a2.466 2.466 0 0 0 2.383 1.852 2.467 2.467 0 0 0 2.469-2.473c0-1.32-1.149-2.468-2.469-2.468a2.466 2.466 0 0 0-2.383 1.851h-3.176l-3.968-5.906h6.086a2.46 2.46 0 0 0 2.382 1.852 2.466 2.466 0 0 0 2.47-2.47 2.466 2.466 0 0 0-2.47-2.468 2.46 2.46 0 0 0-2.382 1.852H34l-6.086-8.73c-.086-.356-.266-.442-.527-.442h-4.41c-.442 0-.707.265-.707.617 0 .351.265.703.707.703h4.144l6.086 8.734c.086.176.352.262.527.262h7.852c1.41 1.676 2.82 2.91 4.582 3.969v12.172c-1.41 0-2.645 1.234-2.645 2.644 0 1.5 1.235 2.735 2.735 2.735h19.05a2.747 2.747 0 0 0 2.731-2.735c0-1.5-1.144-2.644-2.644-2.644v-5.117h7.144a.69.69 0 0 0 .703-.704v-9.437l5.028-1.942c.175-.085.355-.175.355-.351.086-.266.086-.441 0-.617M57.813 47.016c.617 0 1.144.53 1.144 1.148s-.527 1.145-1.145 1.145a1.17 1.17 0 0 1-1.148-1.145 1.17 1.17 0 0 1 1.148-1.148m1.937 29.898c.617 0 1.148.527 1.148 1.145a1.17 1.17 0 0 1-1.148 1.148 1.17 1.17 0 0 1-1.145-1.148c0-.618.528-1.145 1.145-1.145M58.69 69.77c.618 0 1.149.53 1.149 1.148s-.531 1.144-1.149 1.144a1.164 1.164 0 0 1-1.144-1.144c0-.617.527-1.148 1.144-1.148m7.852 20.636c0 .793-.617 1.41-1.414 1.41h-18.96c-.793 0-1.41-.617-1.41-1.41s.617-1.41 1.41-1.41h19.05c.708.086 1.325.703 1.325 1.41m0 0"/></g><path fill="#fff" d="M70.598 59.188c0 .351.265.707.707.707a.695.695 0 0 0 .703-.708c0-5.554-2.996-10.847-7.848-13.667-.351-.18-.707-.09-.883.261-.175.356-.086.707.266.883 4.234 2.559 7.055 7.41 7.055 12.523M62.75 45.52c.176-.356 0-.708-.352-.883-1.414-.617-2.824-.969-4.324-1.235-.351 0-.703.176-.703.528-.09.355.176.707.527.707 1.41.175 2.735.527 3.97 1.144.35.266.706.09.882-.261M34.266 77.883c-2.383 0-4.325 2.027-4.325 4.5 0 2.469 1.942 4.496 4.325 4.496 2.379 0 4.32-2.027 4.32-4.496 0-2.473-1.941-4.5-4.32-4.5m0 7.672c-1.676 0-3-1.41-3-3.172 0-1.766 1.324-3.176 3-3.176s2.996 1.41 2.996 3.176c0 1.762-1.32 3.172-2.996 3.172m0 0"/><g clip-path="url(#h)"><path fill="#fff" d="M43.172 84.496c.351-.086.527-.351.527-.617v-2.82c0-.352-.261-.618-.527-.618l-1.324-.265c-.176-.528-.352-1.059-.618-1.586l.793-1.235c.18-.265.18-.617-.086-.793l-1.94-2.03a.68.68 0 0 0-.884-.087l-1.144.793c-.442-.265-.969-.441-1.5-.617l-.266-1.41c-.086-.356-.351-.531-.617-.531h-2.734c-.352 0-.618.265-.618.53l-.261 1.321c-.532.176-.973.356-1.5.617l-1.149-.793a.674.674 0 0 0-.879.09l-1.941 2.028c-.176.265-.266.527-.09.793l.797 1.234c-.266.531-.441 1.059-.617 1.59l-1.324.262c-.352.09-.532.355-.532.617v2.824c0 .352.266.617.532.617l1.41.352c.175.531.351 1.058.617 1.586l-.793 1.238c-.176.262-.176.617.09.793l1.937 2.027a.68.68 0 0 0 .883.09l1.145-.797c.441.266.972.442 1.5.617l.265 1.414c.09.352.352.528.617.528h2.735c.351 0 .617-.266.617-.528l.266-1.414c.527-.175.968-.351 1.496-.617l1.148.797a.68.68 0 0 0 .883-.09l1.937-2.027c.18-.266.266-.531.09-.793l-.793-1.238c.266-.528.442-1.055.617-1.586Zm-2.027-.969a.8.8 0 0 0-.532.532c-.175.703-.441 1.32-.793 2.027-.09.176-.09.527 0 .703l.707 1.059-1.148 1.234-1.059-.703c-.265-.176-.527-.176-.703 0a8.4 8.4 0 0 1-1.855.793.81.81 0 0 0-.528.527l-.265 1.324h-1.586l-.266-1.324a.8.8 0 0 0-.527-.527 7.5 7.5 0 0 1-1.942-.793c-.265-.176-.527-.176-.707 0l-.968.703-1.145-1.234.703-1.145c.176-.176.176-.531 0-.707a8 8 0 0 1-.793-2.027.8.8 0 0 0-.527-.531l-1.238-.262V81.41l1.238-.265a.79.79 0 0 0 .527-.528c.176-.707.442-1.324.793-2.027.09-.176.09-.531 0-.707l-.703-1.145 1.145-1.234 1.058.703c.266.176.528.176.707 0a7.5 7.5 0 0 1 1.938-.793.8.8 0 0 0 .531-.527l.262-1.325h1.59l.265 1.325a.79.79 0 0 0 .528.527 5.9 5.9 0 0 1 1.851.793c.266.176.531.176.707 0l1.059-.703 1.144 1.234-.703 1.32c-.18.176-.18.442 0 .708.352.617.617 1.324.793 2.027a.79.79 0 0 0 .527.531l1.235.262v1.766Zm0 0"/></g><path fill="#fff" d="M44.316 51.867a2.464 2.464 0 0 0 4.852-.617c0-1.324-1.145-2.469-2.469-2.469a2.46 2.46 0 0 0-2.383 1.852H36.47c-.176 0-.442.09-.528.265l-5.027 7.141v.18c0 .086-.09.176-.09.261 0 .09 0 .18.09.266v.176l5.027 7.144c.086.176.352.266.528.266h24.605a2.46 2.46 0 0 0 2.38 1.852 2.467 2.467 0 0 0 2.472-2.47 2.464 2.464 0 0 0-4.852-.617h-11.29l3.88-5.82h3.175a2.466 2.466 0 0 0 2.383 1.852 2.466 2.466 0 0 0 2.468-2.469c0-1.324-1.148-2.472-2.468-2.472a2.466 2.466 0 0 0-2.383 1.851h-3.528q-.397.001-.527.266L48.2 64.832H36.82l-4.054-5.82h9.699a2.46 2.46 0 0 0 2.383 1.851 2.466 2.466 0 0 0 2.468-2.468c0-1.325-1.148-2.47-2.468-2.47a2.46 2.46 0 0 0-2.383 1.852h-9.7l4.055-5.82h7.496Zm2.383-1.762c.617 0 1.145.528 1.145 1.145s-.528 1.148-1.145 1.148a1.17 1.17 0 0 1-1.148-1.148c0-.617.531-1.145 1.148-1.145m12.61 7.055c.617 0 1.148.528 1.148 1.145s-.531 1.148-1.148 1.148a1.17 1.17 0 0 1-1.145-1.148c-.09-.617.441-1.145 1.145-1.145m4.144 7.14c.617 0 1.149.532 1.149 1.15 0 .616-.532 1.144-1.149 1.144a1.164 1.164 0 0 1-1.144-1.145c-.09-.617.441-1.148 1.144-1.148m-18.605-7.14c.617 0 1.144.528 1.144 1.145s-.527 1.148-1.144 1.148a1.17 1.17 0 0 1-1.149-1.148c0-.617.531-1.145 1.149-1.145m-15.785 1.851a.695.695 0 0 0 .703-.707.69.69 0 0 0-.703-.703h-2.649a.69.69 0 0 0-.703.703c0 .355.262.707.703.707Zm0 0"/></svg>