<svg xmlns="http://www.w3.org/2000/svg" width="43" height="43" version="1.0" viewBox="0 0 32.25 32.25"><defs><clipPath id="a"><path d="M0 0h31.48v31.48H0Zm0 0"/></clipPath><clipPath id="b"><path d="M15.742 0C7.047 0 0 7.047 0 15.742 0 24.434 7.047 31.48 15.742 31.48c8.692 0 15.738-7.046 15.738-15.738C31.48 7.047 24.434 0 15.742 0m0 0"/></clipPath><clipPath id="c"><path d="M0 0h31.473v31.473H0Zm0 0"/></clipPath><clipPath id="d"><path d="M15.734 0C7.047 0 0 7.047 0 15.734c0 8.692 7.047 15.739 15.734 15.739 8.692 0 15.739-7.047 15.739-15.739C31.473 7.047 24.426 0 15.734 0m0 0"/></clipPath><clipPath id="e"><path d="M7 23h4v1.836H7Zm0 0"/></clipPath><clipPath id="f"><path d="M11 22h4v2.836h-4Zm0 0"/></clipPath><clipPath id="g"><path d="M16 20h3v4.836h-3Zm0 0"/></clipPath><clipPath id="h"><path d="M20 18h4v6.836h-4Zm0 0"/></clipPath><clipPath id="i"><path d="M21 7h3.836v8H21Zm0 0"/></clipPath><clipPath id="j"><path d="M6.512 15h18.324v9.836H6.512Zm0 0"/></clipPath><clipPath id="k"><path d="M23 15h1.836v2H23Zm0 0"/></clipPath><clipPath id="l"><path d="M6.512 9H15v10H6.512Zm0 0"/></clipPath><clipPath id="m"><path d="M11 6.512h4V10h-4Zm0 0"/></clipPath></defs><g clip-path="url(#a)"><g clip-path="url(#b)"><path fill="#fff" d="M0 0h31.48v31.48H0Zm0 0"/></g></g><g clip-path="url(#c)"><g clip-path="url(#d)"><path fill="none" stroke="#03a9f4" stroke-width="1.466" d="M15.734 0C7.047 0 0 7.047 0 15.734c0 8.692 7.047 15.739 15.734 15.739 8.692 0 15.739-7.047 15.739-15.739C31.473 7.047 24.426 0 15.734 0Zm0 0"/></g></g><path fill="#03a9f4" d="M8.023 22.406a.297.297 0 0 1-.296-.297v-1.035c0-.16.132-.293.296-.293h2.375c.165 0 .297.133.297.293a.304.304 0 0 1-.297.305q-.035.002-.066-.008H8.32v.738a.297.297 0 0 1-.297.297"/><g clip-path="url(#e)"><path fill="#03a9f4" d="M10.398 24.934H8.023a.3.3 0 0 1-.296-.297v-.27c0-.164.132-.293.296-.293.157 0 .282.113.297.266h1.782v-.988a.297.297 0 1 1 .593 0v1.285a.3.3 0 0 1-.297.297"/></g><path fill="#03a9f4" d="M12.176 21.598a.3.3 0 0 1-.297-.297v-2.598a.3.3 0 0 1 .297-.297h2.375c.164 0 .297.133.297.297v1.875a.297.297 0 1 1-.594 0V19h-1.781v2.3a.297.297 0 0 1-.297.298"/><g clip-path="url(#f)"><path fill="#03a9f4" d="M14.55 24.934h-2.374a.3.3 0 0 1-.297-.297V23.52a.297.297 0 1 1 .594 0v.82h1.78v-1.106a.297.297 0 1 1 .595 0v1.403a.3.3 0 0 1-.297.297"/></g><path fill="#03a9f4" d="M16.328 19.45a.296.296 0 0 1-.293-.298v-2.824c0-.16.133-.293.293-.293h2.375c.164 0 .297.133.297.293v2.086a.297.297 0 1 1-.594 0v-1.789h-1.781v2.527a.297.297 0 0 1-.297.297"/><g clip-path="url(#g)"><path fill="#03a9f4" d="M18.703 24.934h-2.375a.3.3 0 0 1-.293-.297v-2.825a.295.295 0 1 1 .59.001v2.527h1.781v-3.81a.3.3 0 0 1 .297-.297.3.3 0 0 1 .297.297v4.106a.3.3 0 0 1-.297.297"/></g><g clip-path="url(#h)"><path fill="#03a9f4" d="M22.855 24.934h-2.37a.3.3 0 0 1-.297-.297V20.89a.297.297 0 1 1 .593 0v3.449h1.778v-5.16c0-.168.132-.297.296-.297.165 0 .297.129.297.297v5.457a.3.3 0 0 1-.297.297"/></g><path fill="#03a9f4" d="M20.484 18.98a.3.3 0 0 1-.297-.296v-4.727c0-.164.133-.297.297-.297h2.371c.165 0 .297.133.297.297v2.172a.297.297 0 1 1-.593 0v-1.875H20.78v4.43a.3.3 0 0 1-.297.296"/><g clip-path="url(#i)"><path fill="#03a9f4" d="M21.668 9.508h2.375l-.535-.711a.3.3 0 0 1 .027-.39l.383-.384h-2.25Zm-.297 4.746a.3.3 0 0 1-.297-.297v-6.23c0-.16.137-.297.297-.297h3.266a.3.3 0 0 1 .273.183.295.295 0 0 1-.066.324l-.707.708.734.98c.07.09.078.21.031.313a.3.3 0 0 1-.265.164h-2.969v3.855a.297.297 0 0 1-.297.297"/></g><g clip-path="url(#j)"><path fill="#03a9f4" d="M6.84 24.043a.29.29 0 0 1-.274-.18.294.294 0 0 1 .157-.39l4.152-1.778a.28.28 0 0 1 .219-.008l2.215.833 4.32-3.454a.3.3 0 0 1 .242-.062l2.805.562 3.742-4.03c.11-.122.3-.13.418-.016.121.113.129.3.016.418l-3.856 4.152a.29.29 0 0 1-.273.09l-2.832-.567-4.34 3.473a.3.3 0 0 1-.293.047l-2.262-.848-4.039 1.735a.3.3 0 0 1-.117.023"/></g><g clip-path="url(#k)"><path fill="#03a9f4" d="M24.637 16.922a.297.297 0 0 1-.297-.297v-.59h-.594a.297.297 0 1 1 0-.594h.89a.3.3 0 0 1 .298.297v.887a.3.3 0 0 1-.297.297"/></g><path fill="#03a9f4" d="M14.55 13.957h-1.08a1 1 0 0 1-.297-.047l-.535-.18a.293.293 0 0 1-.188-.375.293.293 0 0 1 .375-.187l.535.18q.052.016.11.015h1.082a.297.297 0 1 0 0-.593h-1.188a.3.3 0 0 1-.21-.086l-.29-.29a.304.304 0 0 1 0-.421.304.304 0 0 1 .422 0l.203.203h1.063a.89.89 0 1 1 0 1.781"/><g clip-path="url(#l)"><path fill="#03a9f4" d="M13.531 19h-1.16a.296.296 0 0 1-.297-.309l.09-2.109c-1.023-.164-3.25-.648-3.25-1.734 0-.766.156-1.387.25-1.692a.293.293 0 0 1 .371-.195.297.297 0 0 1 .195.371c-.082.27-.222.828-.222 1.516 0 .46 1.555.984 3.008 1.187a.297.297 0 0 1 .254.309l-.09 2.062h.593l.336-2.336a.35.35 0 0 0-.136-.324l-2.078-1.55a.29.29 0 0 1-.086-.368c.242-.496.867-1.918.867-2.515 0-.583-.801-.915-1.016-.915-.312 0-1.406.473-2.719 1.172a.36.36 0 0 0-.132.133l-.914 1.586a.304.304 0 0 0 .113.406.34.34 0 0 0 .262.028.32.32 0 0 0 .207-.164l.68-1.227a.27.27 0 0 1 .148-.133l1.484-.594a.29.29 0 0 1 .383.165.296.296 0 0 1-.164.386l-1.383.555-.629 1.137a.92.92 0 0 1-.562.445.93.93 0 0 1-.715-.082.9.9 0 0 1-.422-.54.86.86 0 0 1 .086-.679l.91-1.586a.9.9 0 0 1 .371-.36c.867-.464 2.41-1.241 2.996-1.241.48 0 1.61.511 1.61 1.508 0 .699-.575 2.011-.825 2.55l1.883 1.407a.93.93 0 0 1 .367.886l-.37 2.59a.3.3 0 0 1-.294.254"/></g><path fill="#03a9f4" d="M8.383 19.719a.922.922 0 0 1-.684-1.559l.926-.98.305-.942a.294.294 0 0 1 .37-.191c.157.05.243.219.192.375l-.324 1.004a.3.3 0 0 1-.066.113l-.97 1.027a.32.32 0 0 0-.089.239.33.33 0 0 0 .105.23.35.35 0 0 0 .426.031l1.285-.855.559-1.398a.296.296 0 0 1 .387-.165.295.295 0 0 1 .164.387l-.594 1.48a.27.27 0 0 1-.11.137l-1.363.91a.93.93 0 0 1-.52.157"/><g clip-path="url(#m)"><path fill="#03a9f4" d="M12.875 7.137c-.734 0-.996.43-.996.832 0 .742.426 1.242 1.059 1.242.183 0 .722-.223.722-.899 0-.82-.52-1.175-.785-1.175m.063 2.668c-.958 0-1.649-.774-1.649-1.836 0-.688.496-1.426 1.586-1.426.578 0 1.379.613 1.379 1.77 0 .972-.766 1.492-1.316 1.492"/></g></svg>