<svg xmlns="http://www.w3.org/2000/svg" width="43" height="43" version="1.0" viewBox="0 0 32.25 32.25"><defs><clipPath id="a"><path d="M0 0h31.48v31.48H0Zm0 0"/></clipPath><clipPath id="b"><path d="M15.742 0C7.047 0 0 7.047 0 15.742 0 24.434 7.047 31.48 15.742 31.48c8.692 0 15.738-7.046 15.738-15.738C31.48 7.047 24.434 0 15.742 0m0 0"/></clipPath><clipPath id="c"><path d="M0 0h31.473v31.473H0Zm0 0"/></clipPath><clipPath id="d"><path d="M15.734 0C7.047 0 0 7.047 0 15.734c0 8.692 7.047 15.739 15.734 15.739 8.692 0 15.739-7.047 15.739-15.739C31.473 7.047 24.426 0 15.734 0m0 0"/></clipPath><clipPath id="e"><path d="M5 5h21.902v21.902H5Zm0 0"/></clipPath></defs><g clip-path="url(#a)"><g clip-path="url(#b)"><path fill="#fff" d="M0 0h31.48v31.48H0Zm0 0"/></g></g><g clip-path="url(#c)"><g clip-path="url(#d)"><path fill="none" stroke="#03a9f4" stroke-width="1.466" d="M15.734 0C7.047 0 0 7.047 0 15.734c0 8.692 7.047 15.739 15.734 15.739 8.692 0 15.739-7.047 15.739-15.739C31.473 7.047 24.426 0 15.734 0Zm0 0"/></g></g><g clip-path="url(#e)"><path fill="#03a9f4" fill-rule="evenodd" d="M16.836 10.406a1.05 1.05 0 0 0-.742-.308h-2.508a1.05 1.05 0 0 0-1.05 1.047v.66a.05.05 0 0 0 .046.047h.656a.047.047 0 0 0 .047-.047v-.66c0-.165.137-.301.3-.301h2.509c.164 0 .3.136.3.3v.66c0 .024.02.048.047.048h.657c.023 0 .043-.024.043-.047v-.66c0-.29-.118-.551-.305-.739m6.562 11.555a.187.187 0 0 1 .254 0l2.836 2.836a.18.18 0 0 1 0 .254l-1.437 1.437a.175.175 0 0 1-.25 0l-2.84-2.836a.187.187 0 0 1 0-.254l.297-.293a.05.05 0 0 0 0-.066l-1.399-1.394c-.015-.02-.043-.02-.062-.004a9.044 9.044 0 0 1-12.352-.407 9.044 9.044 0 0 1 12.79-12.789 9.044 9.044 0 0 1 .406 12.352c-.016.02-.016.047.004.062l1.394 1.399c.02.015.05.015.066 0ZM20.223 9.453a7.61 7.61 0 0 1 0 10.77 7.61 7.61 0 0 1-10.77 0 7.62 7.62 0 0 1 0-10.77 7.62 7.62 0 0 1 10.77 0m-1.09 5.102-3.356 1.797a1.93 1.93 0 0 1-1.875 0l-3.355-1.797a.04.04 0 0 0-.043 0q-.024.015-.024.043v3.445a.47.47 0 0 0 .47.469h7.78a.47.47 0 0 0 .47-.469v-3.445q0-.028-.024-.043-.024-.012-.043 0m-.403-1.957h-7.78a.47.47 0 0 0-.47.468v.579q0 .03.024.043l3.75 2.007c.375.203.793.203 1.172 0l3.75-2.008q.023-.012.023-.042v-.579a.47.47 0 0 0-.469-.468m0 0"/></g></svg>