<svg xmlns="http://www.w3.org/2000/svg" width="43" height="43" version="1.0" viewBox="0 0 32.25 32.25"><defs><clipPath id="a"><path d="M0 0h31.48v31.48H0Zm0 0"/></clipPath><clipPath id="b"><path d="M15.742 0C7.047 0 0 7.047 0 15.742 0 24.434 7.047 31.48 15.742 31.48c8.692 0 15.738-7.046 15.738-15.738C31.48 7.047 24.434 0 15.742 0m0 0"/></clipPath><clipPath id="c"><path d="M0 0h31.473v31.473H0Zm0 0"/></clipPath><clipPath id="d"><path d="M15.734 0C7.047 0 0 7.047 0 15.734c0 8.692 7.047 15.739 15.734 15.739 8.692 0 15.739-7.047 15.739-15.739C31.473 7.047 24.426 0 15.734 0m0 0"/></clipPath><clipPath id="e"><path d="M6.598 6.691h17.59v19.793H6.598Zm0 0"/></clipPath></defs><g clip-path="url(#a)"><g clip-path="url(#b)"><path fill="#fff" d="M0 0h31.48v31.48H0Zm0 0"/></g></g><g clip-path="url(#c)"><g clip-path="url(#d)"><path fill="none" stroke="#03a9f4" stroke-width="1.466" d="M15.734 0C7.047 0 0 7.047 0 15.734c0 8.692 7.047 15.739 15.734 15.739 8.692 0 15.739-7.047 15.739-15.739C31.473 7.047 24.426 0 15.734 0Zm0 0"/></g></g><g clip-path="url(#e)"><path fill="#03a9f4" fill-rule="evenodd" d="M17.457 6.707h-2.555l.582 1.781h3.946l.582-1.781Zm1.996 2.426h-3.992c-.133.289-.328.656-.55 1.078-.75 1.41-1.837 3.457-1.794 4.82q.025.58.324 1.078.306.493.809.782c.836.527 2.016.765 3.207.773 1.191-.008 2.375-.246 3.207-.773q.504-.287.809-.786c.203-.328.308-.687.324-1.074.047-1.363-1.043-3.41-1.793-4.82-.223-.422-.418-.79-.55-1.078m-3.312 5.262a.3.3 0 0 1 .09-.235.3.3 0 0 1 .23-.098c.094 0 .168.032.23.098a.3.3 0 0 1 .094.235q-.002.275.195.476.198.194.477.195a.65.65 0 0 0 .488-.191.64.64 0 0 0 .203-.48.65.65 0 0 0-.203-.485.65.65 0 0 0-.488-.191q-.5 0-.871-.328a1.27 1.27 0 0 1-.438-.825 1.28 1.28 0 0 1 .223-.91q.281-.409.766-.531v-.512c0-.086.035-.16.097-.222a.326.326 0 0 1 .45 0 .3.3 0 0 1 .093.222v.512q.439.11.72.469.275.351.276.808a.3.3 0 0 1-.09.23.3.3 0 0 1-.23.098.3.3 0 0 1-.23-.097.3.3 0 0 1-.09-.23.64.64 0 0 0-.2-.477.65.65 0 0 0-.476-.2.66.66 0 0 0-.488.192.65.65 0 0 0-.203.484q-.001.282.203.48.205.2.488.192.504-.006.879.328.377.33.437.828.065.496-.222.91c-.192.274-.446.45-.774.532v.512a.3.3 0 0 1-.093.218.3.3 0 0 1-.227.094.3.3 0 0 1-.223-.094.3.3 0 0 1-.097-.218v-.512a1.3 1.3 0 0 1-.719-.469 1.3 1.3 0 0 1-.277-.808m-6.746 6.183 2.39 4.031.277.461-2.445 1.453-3.02-5.082 2.446-1.453Zm3.18-1.45q1.24-.167 2.405.802.059.046.13.066l3.328.832.011.004q.294.076.446.34a.72.72 0 0 1 .082.55v.012a.7.7 0 0 1-.336.446.7.7 0 0 1-.555.082l-1.535-.39a.319.319 0 0 0-.352.473.3.3 0 0 0 .196.147l1.535.39q.26.07.535.028a1.36 1.36 0 0 0 1.133-1.02l.004-.015a1.36 1.36 0 0 0-.02-.719l3.227-2.355.015-.012.035-.023a.8.8 0 0 1 .578-.125.72.72 0 0 1 .473.277q.006.005.012.016.007.004.02.027a.83.83 0 0 1 .132.598.9.9 0 0 1-.324.554l-5.04 4.192-5.562-.797a.33.33 0 0 0-.21.043l-.766.453-2.094-3.531q1.306-1.186 2.496-1.344m0 0"/></g></svg>