<svg xmlns="http://www.w3.org/2000/svg" width="253" height="51" version="1.0" viewBox="0 0 189.75 38.25"><defs><clipPath id="a"><path d="M1.703.734h183.895v36.043H1.703Zm0 0"/></clipPath><clipPath id="b"><path d="M3.172 0h183.894v36.043H3.172Zm0 0"/></clipPath></defs><g clip-path="url(#a)"><path fill="#38b6ff" d="M167.672 37.086H19.879c-9.914 0-17.953-8.04-17.953-17.953v-.453C1.926 8.766 9.965.73 19.879.73h147.793c9.914 0 17.953 8.036 17.953 17.95v.453c0 9.914-8.04 17.953-17.953 17.953"/></g><path fill="#fff" d="M166.719 8.148c-5.93 0-10.758 4.829-10.758 10.758 0 5.934 4.828 10.758 10.758 10.758s10.758-4.824 10.758-10.758c0-5.93-4.829-10.758-10.758-10.758"/><path fill="#38b6ff" d="m163.102 14.703 4.207 4.203-4.207 4.207 1.566 1.563 5.77-5.77-5.77-5.77z"/><g clip-path="url(#b)"><path fill="#38b6ff" d="M169.145 36.348H21.348c-9.914 0-17.95-8.035-17.95-17.95v-.453c0-9.914 8.036-17.953 17.95-17.953h147.797c9.914 0 17.949 8.04 17.949 17.953v.453c0 9.915-8.035 17.95-17.95 17.95"/></g><path fill="#fff" d="M168.191 7.414c-5.933 0-10.757 4.828-10.757 10.758s4.824 10.758 10.757 10.758c5.93 0 10.758-4.828 10.758-10.758s-4.828-10.758-10.758-10.758"/><path fill="#38b6ff" d="m164.574 13.965 4.207 4.207-4.207 4.207 1.563 1.562 5.77-5.77-5.77-5.769z"/></svg>