<svg xmlns="http://www.w3.org/2000/svg" width="282" height="109" version="1.0" viewBox="0 0 211.5 81.75"><defs><clipPath id="a"><path d="M12.895 0h197.289v77.227H12.894Zm0 0"/></clipPath><clipPath id="b"><path d="M.074 5h76.254v76.254H.074Zm0 0"/></clipPath><clipPath id="c"><path d="M38.2 5C17.144 5 .073 22.07.073 43.125c0 21.059 17.07 38.129 38.125 38.129 21.059 0 38.13-17.07 38.13-38.129C76.328 22.07 59.257 5 38.198 5m0 0"/></clipPath><clipPath id="d"><path d="M11.36 16H65v57.477H11.36Zm0 0"/></clipPath></defs><g clip-path="url(#a)"><path fill="#fff" d="M12.895 0h197.293v77.227H12.894Zm0 0"/></g><g clip-path="url(#b)"><g clip-path="url(#c)"><path fill="none" stroke="#1d2896" stroke-width="2.991" d="M38.2 5C17.144 5 .073 22.07.073 43.125c0 21.059 17.07 38.129 38.125 38.129 21.059 0 38.13-17.07 38.13-38.129C76.328 22.07 59.257 5 38.198 5Zm0 0"/></g></g><g clip-path="url(#d)"><path fill="#1d2896" d="M55.168 65.453h-34.04v-41.61h34.04Zm-23.54 5.262-1.593-3.383h8.766ZM13.884 33.098l5.355-2.532v13.88Zm30.781-14.516 1.602 3.375h-8.77Zm17.754 37.617-5.36 2.531V44.84Zm-5.36 4.614 7.88-3.711-7.88-16.696V21.957h-8.71l-2.778-5.898-12.511 5.898H19.24v6.527l-7.88 3.715 7.88 16.696V67.34h8.71l2.781 5.898 12.508-5.898h13.82z"/></g><path fill="#1d2896" d="M33.422 38.027h-7.567v-9.449h7.567Zm1.887-11.343H23.965v13.238h11.344zm2.839 0h14.184v1.894H38.148zm0 5.676h14.184v1.886H38.148zm0 5.667h14.184v1.895H38.148zm-14.183 5.676h28.367v1.89H23.965zm0 5.676h13.238v1.89H23.965zm25.121 10.555-.582.879-.777-1.352a6.1 6.1 0 0 0 1.699-.832l.71 1.238Zm-5.625.879-.582-.88-1.063-.066.575-.988a6.4 6.4 0 0 0 1.777.703Zm2.25-12.383a4.729 4.729 0 1 1 .003 9.457 4.729 4.729 0 0 1-.003-9.457m6.621 4.726c0-3.644-2.973-6.613-6.621-6.613-3.645 0-6.613 2.969-6.613 6.613a6.6 6.6 0 0 0 1.804 4.54l-2.238 3.882 3.164.195 1.746 2.645 2.41-4.18 2.407 4.18 1.746-2.645 3.164-.195-2.457-4.254a6.54 6.54 0 0 0 1.488-4.168"/></svg>