<svg xmlns="http://www.w3.org/2000/svg" width="282" height="109" version="1.0" viewBox="0 0 211.5 81.75"><defs><clipPath id="a"><path d="M12.895 0h197.289v77.227H12.894Zm0 0"/></clipPath><clipPath id="b"><path d="M.074 5h76.254v76.254H.074Zm0 0"/></clipPath><clipPath id="c"><path d="M38.2 5C17.144 5 .073 22.07.073 43.125c0 21.059 17.07 38.129 38.125 38.129 21.059 0 38.13-17.07 38.13-38.129C76.328 22.07 59.257 5 38.198 5m0 0"/></clipPath><clipPath id="d"><path d="M13.848 18.879H63.94v50.098H13.848Zm0 0"/></clipPath></defs><g clip-path="url(#a)"><path fill="#fff" d="M12.895 0h197.293v77.227H12.894Zm0 0"/></g><g clip-path="url(#b)"><g clip-path="url(#c)"><path fill="none" stroke="#1d2896" stroke-width="2.991" d="M38.2 5C17.144 5 .073 22.07.073 43.125c0 21.059 17.07 38.129 38.125 38.129 21.059 0 38.13-17.07 38.13-38.129C76.328 22.07 59.257 5 38.198 5Zm0 0"/></g></g><g clip-path="url(#d)"><path fill="#1d2896" d="M60.875 59.188H17.207c-.926 0-1.68-.754-1.68-1.68v-1.68h47.028v1.68c0 .926-.754 1.68-1.68 1.68m-15.516 4.199H32.723l1.007-2.52h10.622Zm5.438 2.52.004 1.679H27.28v-1.68c0-.46.38-.84.84-.84h21.836c.465 0 .84.38.84.84m-33.59-43.669h11.356a7.5 7.5 0 0 0-1.282 4.2v2.519c0 1.11.723 2.055 1.723 2.387a5.88 5.88 0 0 0 2.476 4.11v1.226l-2.777.617a6.076 6.076 0 0 0-4.781 5.96v10.891h-8.395v-30.23c0-.926.754-1.68 1.68-1.68m17.633-1.68a5.885 5.885 0 0 1 5.879 5.88v.148c-.028-.012-.063-.023-.09-.035a2.58 2.58 0 0 0-1.277-1.578 2.56 2.56 0 0 0-2.61.113c-.515.336-1.156.512-1.902.512-.742 0-1.383-.176-1.899-.508a2.55 2.55 0 0 0-2.609-.117 2.56 2.56 0 0 0-1.277 1.578l-.094.035v-.148a5.887 5.887 0 0 1 5.879-5.88m18.652 20.368c.598-.38 1.438-.23 1.836.324.18.254.246.55.192.848a1.2 1.2 0 0 1-.762.875c-.985.28-1.844.812-2.516 1.304l-.762-.816c.653-.617 1.333-1.395 1.801-2.348a.6.6 0 0 1 .211-.187M31.934 38.3c.265.34.683.758 1.3 1.086-.277.398-.507.86-.668 1.402a.33.33 0 0 1-.21.207.34.34 0 0 1-.31-.047c-.855-.625-1.405-1.523-1.753-2.281Zm2.906-1.785a6 6 0 0 0 1.68-.246v.867c-.168.265-.657.855-1.68 1.043-1.024-.188-1.512-.782-1.68-1.04v-.87a6 6 0 0 0 1.68.246m0-1.68a4.203 4.203 0 0 1-4.2-4.2.84.84 0 0 0-.84-.84.844.844 0 0 1-.84-.839c0-.465.38-.84.84-.84.462 0 .837-.445.84-.902a.87.87 0 0 1 .477-.758.89.89 0 0 1 .903.031c.792.524 1.746.79 2.82.79 1.078 0 2.027-.266 2.824-.79a.87.87 0 0 1 .902-.031c.29.152.47.434.473.82 0 .461.379.84.84.84a.841.841 0 0 1 0 1.68.84.84 0 0 0-.84.84 4.203 4.203 0 0 1-4.2 4.199m2.793 6.117a.34.34 0 0 1-.305.043.33.33 0 0 1-.215-.219 4.8 4.8 0 0 0-.664-1.394 4.1 4.1 0 0 0 1.281-1.059l1.614.434c-.34.726-.88 1.59-1.711 2.195m-3.867 1.442-.094-.293c.234-.239.41-.524.504-.844q.235-.793.664-1.203.429.411.664 1.191c.094.328.273.617.508.856l-.094.293Zm2.742 6.421-1.668 1.106-1.664-1.106.707-4.742H35.8Zm-7.547-4.742a.84.84 0 0 0-.84.84v9.234H25.6v-10.89c0-1.938 1.235-3.586 3.036-4.184.422 1 1.164 2.313 2.414 3.23.304.227.668.344 1.043.372l.207.633-.801 5.359a1.53 1.53 0 0 0 .664 1.492l1.828 1.215a1.53 1.53 0 0 0 1.7 0l1.828-1.215c.488-.324.75-.91.664-1.496l-.805-5.355.21-.625a2 2 0 0 0 1.04-.375c1.21-.891 1.945-2.145 2.355-3.11l.13.035A4.42 4.42 0 0 1 44.296 42l1.129 3.012c.183.492.594.867 1.101 1.008.504.14 1.051.023 1.461-.305l1.887-1.508 1.383 1.477-5.317 3.949a1.23 1.23 0 0 1-1.105.289c-.398-.094-.719-.36-.914-.797l-2.461-4.61a.841.841 0 0 0-1.582.398v9.235H29.8v-9.234a.84.84 0 0 0-.84-.84m33.594-20.156v30.23H41.559v-5.886l.851 1.586a2.89 2.89 0 0 0 2.059 1.71c.933.208 1.879-.035 2.535-.624l5.512-4.098c.304-.266.476-.633.504-1.031.804-.621 1.52-1.024 2.21-1.22.23-.07.458-.179.657-.308a2.85 2.85 0 0 0 1.281-1.863 2.76 2.76 0 0 0-.473-2.14 2.96 2.96 0 0 0-1.699-1.13v-5.988a.841.841 0 0 0-1.68 0v6.028a3 3 0 0 0-.714.32c-.395.238-.68.543-.836.887-.336.683-.883 1.343-1.711 2.086a1.53 1.53 0 0 0-1.106.316l-1.953 1.629-1.129-3.012a6.06 6.06 0 0 0-4.351-3.808l-3.317-.891v-1.258a5.87 5.87 0 0 0 2.477-4.11 2.51 2.51 0 0 0 1.722-2.386v-2.52c0-1.55-.472-3-1.277-4.199h19.754c.926 0 1.68.754 1.68 1.68m-1.68-3.36H39.582a7.524 7.524 0 0 0-9.48 0H17.207a3.36 3.36 0 0 0-3.36 3.36v33.59a3.36 3.36 0 0 0 3.36 3.36h14.715l-1.008 2.519h-2.793a2.52 2.52 0 0 0-2.52 2.52v1.679c0 .926.758 1.68 1.68 1.68h23.516c.926 0 1.68-.754 1.68-1.68v-1.68a2.52 2.52 0 0 0-2.52-2.52h-2.789l-1.008-2.519h14.715a3.36 3.36 0 0 0 3.36-3.36V23.919a3.36 3.36 0 0 0-3.36-3.36"/></g></svg>