<svg xmlns="http://www.w3.org/2000/svg" width="130" height="130" version="1.0" viewBox="0 0 97.5 97.5"><defs><clipPath id="a"><path d="M0 0h96.746v96.746H0Zm0 0"/></clipPath><clipPath id="b"><path d="M48.371 0C21.656 0 0 21.656 0 48.371 0 75.09 21.656 96.746 48.371 96.746c26.719 0 48.375-21.656 48.375-48.375C96.746 21.656 75.09 0 48.371 0m0 0"/></clipPath><clipPath id="c"><path d="M18.332 17.61h64.172v63.425H18.332Zm0 0"/></clipPath></defs><g clip-path="url(#a)"><g clip-path="url(#b)"><path fill="none" stroke="#1d2896" stroke-width="2.985" d="M48.371 0C21.656 0 0 21.656 0 48.371 0 75.09 21.656 96.746 48.371 96.746c26.719 0 48.375-21.656 48.375-48.375C96.746 21.656 75.09 0 48.371 0Zm0 0"/></g></g><g clip-path="url(#c)"><path fill="#1d2896" d="M27.695 36.773c-.363-1.992.387-4.828 2.004-6.199a6.7 6.7 0 0 1 2.758-1.39 7.2 7.2 0 0 1 3.09-.07c.914.12 1.77.066 2.558-.165q1.19-.344 2.239-1.234a.962.962 0 0 1 1.531.422c.531 1.316.637 2.93.344 4.449-.282 1.469-.942 2.875-1.942 3.883-.035.476-.086.93-.156 1.351a11 11 0 0 1-.434 1.746l-.269.696a7.8 7.8 0 0 1-.98 1.66c1.046.312 2.082.812 2.867 1.539l2.933-1.426V29.188a2.657 2.657 0 0 1 2.649-2.653h13.82a2.654 2.654 0 0 1 2.648 2.653v6.367c.32.105.633.25.926.425V24.977a.394.394 0 0 0-.39-.387H25.559a.39.39 0 0 0-.387.387v28.492c0 .215.176.39.387.39h.554v-5.23c0-2.899 1.758-5.469 4.356-6.582a7 7 0 0 1-.375-.504c-.477-.566-.871-1.395-1.145-2.352-.14-.5-.25-1.039-.324-1.609a.95.95 0 0 1-.93-.809m10.645-.117c-1.117-.047-1.805.332-2.399.664-1.246.684-2.242 1.239-4.363-.164-.363-.238-.7-.398-1.105-.351.086 1.113.441 2.773 1.09 3.515q.052.049.085.11c1.727 2.574 4.668 2.136 6.016-.934.383-.992.57-1.68.676-2.84m-8.528-2.722c-.113.367-.199.75-.246 1.117 1.164-.38 2.137-.114 3.075.508 1.144.757 1.695.453 2.375.078.957-.532 2.086-1.153 4.172-.82 1.015-1.243 1.44-3.188 1.218-4.79-1.558.922-3.293 1.235-5.136.989l-.063-.012c-1.496-.305-3.11.055-4.27 1.039-.5.422-.882 1.121-1.125 1.89m6.786 9.546c-2.328 1.22-4.235.036-4.352.02a5.2 5.2 0 0 0-2.922 1.703 5.18 5.18 0 0 0-1.285 3.426v5.23h3.305v-4.27a.96.96 0 1 1 1.918 0v4.27h7.43v-4.566h.003c0-.332.168-.648.473-.832l7.379-4.313c.254-.191.117-1.312-.672-1.578a1.5 1.5 0 0 0-.23-.054l-6.118 2.968a.955.955 0 0 1-1.199-.27c-.785-1.026-2.45-1.558-3.73-1.734m9.566-2.382c.785-.375.297-.164.809-.489l1.867-1.18a2.85 2.85 0 0 1 2.844-.105l5.129-6.988a.96.96 0 0 1 1.546 1.137l-5.367 7.308c.399 1 .192 2.149-.523 2.95h6.715q-.017-.184-.028-.372c-.855-1.476-1.332-2.765-1.422-3.867-.105-1.332.317-2.441 1.286-3.219l-.004-.003a4.6 4.6 0 0 1 2.414-.938v-6.145a.73.73 0 0 0-.723-.726H46.891a.733.733 0 0 0-.727.727Zm3.3.207c.481.406.813.957.977 1.566.38-.242.707-.383.809-.836.027-.125.031-.441-.02-.476a.94.94 0 0 1-.347-.48c-.078-.106-.602-.294-1.024-.024Zm.306 4.351-7.157 4.184v4.02h20.153v-1.325c-.907-1.082-1.59-2.437-1.977-3.844a6.8 6.8 0 0 1-.816-1.43 9.7 9.7 0 0 1-.512-1.609H49.77Zm16.437-8.582c.961.317 1.988.348 2.98.32V21.786a2.24 2.24 0 0 0-2.234-2.234H22.496a2.24 2.24 0 0 0-2.23 2.234v34.883a2.24 2.24 0 0 0 2.23 2.23h34.715c.89-1.39 2.168-2.503 3.691-3.113H25.56a2.32 2.32 0 0 1-2.313-2.316V24.977a2.317 2.317 0 0 1 2.313-2.313h38.33a2.32 2.32 0 0 1 2.316 2.313Zm4.906.25c2.332-.039 4.258.332 5.047 3.617.434 1.801-.781 4.278-1.433 6.375q-.055.176-.125.34c-.325 1.867-1.215 3.711-2.461 5.078q-.114.124-.227.243v2.312c3.629.133 6.473 3.008 7.234 6.52l.157.02c1.836.284 3.062 1.898 2.773 3.745l-2.094 13.621c-.18 1.145-1.257 2.032-2.421 2.032H56.527c-1.164 0-2.238-.883-2.418-2.032l-.664-4.316H22.84c-1.227 0-2.23-1-2.23-2.227v-3.175a2.234 2.234 0 0 1 2.23-2.227h9.758v-3.18a.96.96 0 0 1 .957-.965h6.898v-2.28H22.496a4.167 4.167 0 0 1-4.156-4.157V21.785a4.17 4.17 0 0 1 4.156-4.16h44.457a4.17 4.17 0 0 1 4.16 4.16Zm.61 12.727c-.45.117-.922.183-1.41.187-1.711.008-1.891-1.37-4.524-.258-.66.278-1.437.47-2.2.422.856 1.399 2.278 2.723 3.985 2.68 1.805-.047 3.297-1.531 4.149-3.031m-9.914-12.82a2.7 2.7 0 0 0-1.614.558c-1.21 1.063-.172 3.29.73 4.793a.96.96 0 0 1 .138.461c.062 1.805.511 4.312 2.128 5.289.512.309 1.329.098 1.852-.125 3.383-1.426 4.328.113 5.262.11 1.093-.008 2.254-.5 2.586-1.57.207-.661.418-1.255.617-1.821.523-1.48.976-2.758.785-3.547-.547-2.274-2.277-2.188-4.234-2.102-2.118.09-4.477.192-6.63-1.562-.421-.324-1.07-.492-1.62-.485m8.18 17.16c-1.743.867-3.626.804-5.302-.188v1.598q.031.058.055.12c.434.173 1.899.34 2.59.34s2.16-.171 2.602-.34a1 1 0 0 1 .054-.124Zm1.241 2.816c-1.253 1.016-3.882 1.105-5.515.86-.926-.137-1.738-.422-2.274-.86-1.402.02-2.695.613-3.687 1.582-.836.813-1.438 1.867-1.758 2.992h19.168c-.71-2.527-2.836-4.574-5.504-4.574Zm-15.863 4.574h.653q.105-.486.27-.96h-7.294v2.284h3.613c.649-.859 1.66-1.324 2.758-1.324M53.148 72.95l-.582-3.777H22.84a.31.31 0 0 0-.305.3v3.176c0 .165.14.301.305.301Zm-.878-5.703c-.079-.508-.305-1.758-.297-2.219H34.516v2.22Zm26.457-3.539h-23.36c-.933 0-1.594.652-1.457 1.57l2.102 13.618c.035.21.293.402.52.402h21.03c.227 0 .485-.192.516-.402l2.102-13.618c.125-.797-.36-1.425-1.168-1.55a2 2 0 0 0-.285-.02M47.078 60.82h-4.703v2.282h4.703Zm0 0"/></g></svg>