<svg xmlns="http://www.w3.org/2000/svg" width="282" height="109" version="1.0" viewBox="0 0 211.5 81.75"><defs><clipPath id="a"><path d="M12.895 0h197.289v77.227H12.894Zm0 0"/></clipPath><clipPath id="b"><path d="M.074 5h76.254v76.254H.074Zm0 0"/></clipPath><clipPath id="c"><path d="M38.2 5C17.144 5 .073 22.07.073 43.125c0 21.059 17.07 38.129 38.125 38.129 21.059 0 38.13-17.07 38.13-38.129C76.328 22.07 59.257 5 38.198 5m0 0"/></clipPath><clipPath id="d"><path d="M40 31h23.195v34.957H40Zm0 0"/></clipPath><clipPath id="e"><path d="M13.848 31H37v34.957H13.848Zm0 0"/></clipPath><clipPath id="f"><path d="M25 16.605h27V30H25Zm0 0"/></clipPath></defs><g clip-path="url(#a)"><path fill="#fff" d="M12.895 0h197.293v77.227H12.894Zm0 0"/></g><g clip-path="url(#b)"><g clip-path="url(#c)"><path fill="none" stroke="#1d2896" stroke-width="2.991" d="M38.2 5C17.144 5 .073 22.07.073 43.125c0 21.059 17.07 38.129 38.125 38.129 21.059 0 38.13-17.07 38.13-38.129C76.328 22.07 59.257 5 38.198 5Zm0 0"/></g></g><g clip-path="url(#d)"><path fill="#1d2896" d="M61.695 31.09a3.53 3.53 0 0 0-2.55 1.008 3.5 3.5 0 0 0-1.063 2.53v7.313l-4.105 3.633a3.92 3.92 0 0 0-.985-2.445 1.4 1.4 0 0 0-.457-.344 1.4 1.4 0 0 0-.555-.137 1.4 1.4 0 0 0-1.046.407c-4.547 4.425-8.059 6.047-8.41 9.863v5.98h-.188a1.9 1.9 0 0 0-.715.141 1.9 1.9 0 0 0-.605.406 1.86 1.86 0 0 0-.551 1.317v4.523a.72.72 0 0 0 .219.528.72.72 0 0 0 .53.218c.208 0 .384-.07.528-.219a.72.72 0 0 0 .219-.527v-4.539a.374.374 0 0 1 .375-.367h12.27a.34.34 0 0 1 .257.11.34.34 0 0 1 .11.257v4.54a.72.72 0 0 0 .218.526q.217.222.528.22a.72.72 0 0 0 .531-.22.72.72 0 0 0 .219-.527v-4.539a1.9 1.9 0 0 0-.547-1.316 1.9 1.9 0 0 0-1.317-.547h-.132a5.17 5.17 0 0 1 1.172-2.57l5.984-6.036c1.098-1.273 1.644-2.754 1.644-4.433V32.75a1.67 1.67 0 0 0-.457-1.148 1.6 1.6 0 0 0-.511-.364 1.6 1.6 0 0 0-.61-.148m.082 14.754a5.14 5.14 0 0 1-1.277 3.468l-5.984 6.036a6.8 6.8 0 0 0-1.602 3.566H44.02v-5.906c.28-3.035 3.738-4.684 7.894-8.824a2.58 2.58 0 0 1 0 3.23l-4.293 4.23a.73.73 0 0 0-.215.528q-.001.31.215.527a.72.72 0 0 0 .531.223.72.72 0 0 0 .532-.223c5.691-5.636 2.46-2.633 10.64-9.847a.72.72 0 0 0 .254-.559v-7.664q.001-.415.16-.79.16-.38.453-.667a2.02 2.02 0 0 1 1.465-.578c.067 0 .121.09.121.164Zm0 0"/></g><g clip-path="url(#e)"><path fill="#1d2896" d="M34.895 58.883h-.223v-6.04c-.352-3.741-3.899-5.398-8.406-9.796a1.43 1.43 0 0 0-1.055-.41 1.38 1.38 0 0 0-1.016.484 3.98 3.98 0 0 0-.98 2.445l-4.106-3.632v-7.305a3.5 3.5 0 0 0-.273-1.375 3.5 3.5 0 0 0-.79-1.16 3.5 3.5 0 0 0-2.554-1.004 1.64 1.64 0 0 0-1.457 1.043 1.6 1.6 0 0 0-.113.617v13.094a6.8 6.8 0 0 0 1.71 4.484c6.071 6.164 6.731 6.418 7.09 8.555h-.136q-.37.004-.711.144-.342.142-.602.403a1.85 1.85 0 0 0-.547 1.316v4.54c0 .206.07.382.22.526q.216.222.527.22.31.002.527-.22a.7.7 0 0 0 .223-.527v-4.539a.35.35 0 0 1 .105-.258.34.34 0 0 1 .258-.11h12.309a.374.374 0 0 1 .375.367v4.54a.72.72 0 0 0 .218.528q.217.22.528.218a.72.72 0 0 0 .53-.219.72.72 0 0 0 .22-.527v-4.539a1.86 1.86 0 0 0-1.156-1.719 1.8 1.8 0 0 0-.715-.144m-18.168-9.57a5.1 5.1 0 0 1-1.309-3.47V32.75c0-.074.05-.164.11-.164q.415-.012.796.14a2 2 0 0 1 1.133 1.11c.105.25.16.516.156.793v7.64c0 .227.086.41.254.56l6.352 5.616 4.281 4.227a.74.74 0 0 0 .531.219q.316-.001.532-.22a.73.73 0 0 0 .218-.526.72.72 0 0 0-.218-.528l-4.29-4.234a2.55 2.55 0 0 1-.566-1.605q-.001-.442.145-.852.146-.417.421-.758c4.352 4.227 7.633 5.855 7.903 8.742v5.98h-8.93c-.387-2.847-1.555-3.527-7.52-9.577m0 0"/></g><g clip-path="url(#f)"><path fill="#1d2896" d="M30.535 29.73q.738 0 1.442-.21a4.8 4.8 0 0 0 1.312-.63 4.84 4.84 0 0 0 1.8-2.242 5.7 5.7 0 0 0 3.536 1.516q.991.06 1.941-.215a5.8 5.8 0 0 0 1.754-.86 4.88 4.88 0 0 0 4.188 2.622 4.7 4.7 0 0 0 1.699-.25 4.8 4.8 0 0 0 1.508-.82 4.8 4.8 0 0 0 1.133-1.29 4.83 4.83 0 0 0 .644-3.32 4.89 4.89 0 0 0-4.836-4.113 4.86 4.86 0 0 0-2.281.586 5.73 5.73 0 0 0-3.812-3.598 5.7 5.7 0 0 0-1.793-.219q-.914.032-1.774.344a5.7 5.7 0 0 0-1.574.883q-.718.564-1.227 1.328a5.8 5.8 0 0 0-.75 1.64 5 5 0 0 0-1.004-.573 4.95 4.95 0 0 0-2.266-.379 4.9 4.9 0 0 0-2.191.695 5 5 0 0 0-.91.715c-.277.27-.52.574-.722.902a4.94 4.94 0 0 0-.72 2.184 5 5 0 0 0 .044 1.156q.092.575.312 1.113a4.86 4.86 0 0 0 1.352 1.86q.44.38.96.64a5 5 0 0 0 1.087.403q.568.133 1.148.132m16.121-8.316q.628 0 1.215.219.585.224 1.055.637a3.42 3.42 0 0 1 1.125 2.148q.074.626-.078 1.234-.152.606-.508 1.121a3.3 3.3 0 0 1-.88.868 3.4 3.4 0 0 1-2.355.566 3.4 3.4 0 0 1-1.175-.379 3.3 3.3 0 0 1-.965-.77 3.4 3.4 0 0 1-.625-1.062 5.56 5.56 0 0 0 1.25-3.566v-.371a3.25 3.25 0 0 1 1.941-.645m-7.68-3.238a4.23 4.23 0 0 1 2.364.719c.234.152.45.332.648.527q.293.3.528.644a4.3 4.3 0 0 1 .636 1.536 4.2 4.2 0 0 1-.242 2.457 4.6 4.6 0 0 1-.394.738 4.6 4.6 0 0 1-.528.644 4.5 4.5 0 0 1-1.383.922 4.23 4.23 0 0 1-3.254 0 4.3 4.3 0 0 1-1.382-.922 4.4 4.4 0 0 1-.528-.644 4.2 4.2 0 0 1-.394-.738 4.23 4.23 0 0 1-.242-2.457q.08-.413.242-.801a4 4 0 0 1 .39-.735 4 4 0 0 1 .532-.644q.293-.298.644-.531a4 4 0 0 1 .735-.391c.257-.11.527-.187.8-.242q.412-.082.829-.082m-8.44 3.238q.8-.001 1.515.356c.476.238.87.57 1.191 1 .047.843.274 1.636.672 2.382a3.3 3.3 0 0 1-.36 1.239 3.3 3.3 0 0 1-.796 1.011 3.36 3.36 0 0 1-2.39.832 3.5 3.5 0 0 1-1.255-.304 3.4 3.4 0 0 1-1.047-.75 3.4 3.4 0 0 1-.699-1.082 3.4 3.4 0 0 1-.242-1.266q-.001-.679.262-1.305a3.42 3.42 0 0 1 3.148-2.113m0 0"/></g><path fill="#1d2896" d="M52.75 40.035a2.22 2.22 0 0 0 1.586-.66 2.23 2.23 0 0 0 .66-1.586v-2.707c0-3.289-2.992-4.008-6.094-4.312q-.498-.069-.75.367l-.261.441c-1.008-1.308-2.477-1.937-6.266-2.305q-.493-.068-.746.36l-.25.418-.262-.426a.7.7 0 0 0-.633-.36h-1.586a.7.7 0 0 0-.636.36l-.262.426-.246-.418a.69.69 0 0 0-.711-.36c-3.879.36-5.66 1.024-6.66 2.903l-.621-1.047q-.245-.405-.711-.36c-3.149.29-6.102 1.016-6.102 4.305v2.707q-.002.447.172.86c.113.273.274.52.484.726a2.23 2.23 0 0 0 1.586.66Zm-3.527-7.726c2.144.246 4.277.613 4.277 2.773v2.707a.74.74 0 0 1-.219.531.74.74 0 0 1-.531.22h-3.91v-4.235a4.4 4.4 0 0 0-.156-1.121Zm-10.625-1.547h.746l.441.746-.816 1.398-.844-1.414Zm-14.903 7.02v-2.708c0-2.16 2.13-2.52 4.278-2.765l1.129 1.879v4.343h-4.66a.72.72 0 0 1-.528-.218.72.72 0 0 1-.219-.532m6.895-3.485c0-2.719 2.66-3.184 5.375-3.492l2.363 3.933a.7.7 0 0 0 .274.27.7.7 0 0 0 .367.097.7.7 0 0 0 .37-.097.7.7 0 0 0 .274-.27l2.364-3.925c2.683.308 5.375.75 5.375 3.492v4.226H30.59Zm0 0"/></svg>