<svg xmlns="http://www.w3.org/2000/svg" width="207" height="200" version="1.0" viewBox="0 0 155.25 150"><defs><clipPath id="a"><path d="M0 .36h154.504v149.277H0Zm0 0"/></clipPath><clipPath id="b"><path d="M0 .36h154.504v149.277H0Zm0 0"/></clipPath></defs><g clip-path="url(#a)"><path fill="#326ce5" d="M76.773.355a10.2 10.2 0 0 0-3.949 1.047L19.348 26.88a10.13 10.13 0 0 0-5.52 6.863L.738 90.926a9.85 9.85 0 0 0 1.442 7.797q.269.418.574.808l36.945 45.887a10.22 10.22 0 0 0 7.977 3.754h59.258c3.101.008 6.035-1.438 7.984-3.8l36.926-45.895a9.84 9.84 0 0 0 1.922-8.559l-13.176-57.23a10.13 10.13 0 0 0-5.52-6.864L81.68 1.406a10.1 10.1 0 0 0-4.957-1.05Zm0 0"/></g><path fill="#fff" stroke="#fff" stroke-width=".055" d="M16.002 4.542a.705.705 0 0 0-.655.74v.188q.028.32.092.633.093.602.066 1.21a.73.73 0 0 1-.218.345l-.015.282a9 9 0 0 0-1.203.186 8.56 8.56 0 0 0-4.354 2.485l-.24-.17a.52.52 0 0 1-.395-.04 6.3 6.3 0 0 1-.897-.81 6 6 0 0 0-.437-.465l-.148-.118a.8.8 0 0 0-.463-.175.6.6 0 0 0-.294.055.6.6 0 0 0-.237.181.705.705 0 0 0 .164.983l.138.11q.267.177.552.323.532.294.998.7.121.173.133.384l.218.2a8.62 8.62 0 0 0-1.358 6.006l-.28.08a.9.9 0 0 1-.286.288q-.587.156-1.194.197a6 6 0 0 0-.64.05l-.177.04h-.02a.66.66 0 0 0-.542.446.66.66 0 0 0 .155.686q.134.135.319.18t.365-.015h.013l.18-.02q.305-.091.598-.218.564-.226 1.162-.34a.73.73 0 0 1 .382.135l.3-.05a8.67 8.67 0 0 0 3.84 4.803l-.122.255a.66.66 0 0 1 .06.376 6.5 6.5 0 0 1-.603 1.092 6 6 0 0 0-.358.533l-.085.18a.669.669 0 1 0 1.203.569l.083-.17q.114-.3.192-.61c.177-.437.273-.906.515-1.196a.53.53 0 0 1 .286-.14l.15-.273a8.7 8.7 0 0 0 3.072.574 8.7 8.7 0 0 0 3.074-.559l.133.255a.52.52 0 0 1 .34.205q.282.538.456 1.12.08.311.194.61l.083.171a.66.66 0 0 0 .216.293q.15.116.337.137a.66.66 0 0 0 .359-.06.66.66 0 0 0 .29-.94l-.086-.18a6 6 0 0 0-.358-.531 7 7 0 0 1-.6-1.057.5.5 0 0 1 .068-.4 2 2 0 0 1-.111-.27 8.67 8.67 0 0 0 3.823-4.82l.284.051a.54.54 0 0 1 .373-.138c.397.076.786.2 1.162.34q.293.134.598.23c.048.013.118.024.172.037h.013q.18.058.365.013a.65.65 0 0 0 .317-.18.65.65 0 0 0 .177-.32.65.65 0 0 0-.018-.364.65.65 0 0 0-.209-.3.66.66 0 0 0-.335-.146l-.194-.046a6 6 0 0 0-.64-.05 6 6 0 0 1-1.194-.197.75.75 0 0 1-.288-.288l-.27-.08q.107-.78.071-1.569a8.7 8.7 0 0 0-.705-3.046 8.6 8.6 0 0 0-.752-1.378l.236-.218a.53.53 0 0 1 .124-.378 6.3 6.3 0 0 1 .99-.696q.285-.146.552-.323l.146-.118a.66.66 0 0 0 .25-.277.66.66 0 0 0-.08-.71.668.668 0 0 0-1-.054l-.147.118q-.231.22-.437.465a6 6 0 0 1-.873.823.73.73 0 0 1-.404.044l-.253.18a8.74 8.74 0 0 0-5.535-2.67c0-.1-.013-.25-.015-.297a.53.53 0 0 1-.218-.332 6 6 0 0 1 .076-1.207q.064-.314.092-.633v-.2a.705.705 0 0 0-.655-.74Zm-.834 5.166-.2 3.493h-.015a.6.6 0 0 1-.332.504.57.57 0 0 1-.6-.054l-2.865-2.03a6.8 6.8 0 0 1 1.526-1.13 6.8 6.8 0 0 1 1.777-.67q.351-.075.707-.113Zm1.668 0a6.92 6.92 0 0 1 3.99 1.924l-2.838 2.017a.586.586 0 0 1-.954-.452Zm-6.72 3.227 2.62 2.338v.015a.588.588 0 0 1-.231 1.009v.01l-3.362.967a6.8 6.8 0 0 1 .126-2.25 6.8 6.8 0 0 1 .848-2.09Zm11.753 0a7 7 0 0 1 1.002 4.327l-3.367-.97v-.013a.58.58 0 0 1-.417-.435.6.6 0 0 1 .186-.574l2.6-2.327Zm-6.404 2.52h1.072l.655.832-.238 1.04-.963.463-.965-.463-.227-1.04Zm3.434 2.838a.6.6 0 0 1 .135 0l3.467.585a6.8 6.8 0 0 1-2.775 3.493l-1.34-3.244a.6.6 0 0 1-.045-.276.6.6 0 0 1 .175-.375.6.6 0 0 1 .24-.143.6.6 0 0 1 .14-.025Zm-5.823.015a.59.59 0 0 1 .531.818v.013l-1.332 3.218A6.88 6.88 0 0 1 9.517 18.9l3.437-.583a.6.6 0 0 1 .116 0Zm2.904 1.4a.6.6 0 0 1 .312.078.6.6 0 0 1 .225.23h.013l1.694 3.057-.677.2a6.9 6.9 0 0 1-3.758-.194l1.7-3.057a.59.59 0 0 1 .5-.295Zm0 0" transform="matrix(4.79825 0 0 4.79282 .48 -1.925)"/><g clip-path="url(#b)"><path fill="#326ce5" d="M76.773.355a10.2 10.2 0 0 0-3.949 1.047L19.348 26.88a10.13 10.13 0 0 0-5.52 6.863L.738 90.926a9.85 9.85 0 0 0 1.442 7.797q.269.418.574.808l36.945 45.887a10.22 10.22 0 0 0 7.977 3.754h59.258c3.101.008 6.035-1.438 7.984-3.8l36.926-45.895a9.84 9.84 0 0 0 1.922-8.559l-13.176-57.23a10.13 10.13 0 0 0-5.52-6.864L81.68 1.406a10.1 10.1 0 0 0-4.957-1.05Zm0 0"/></g><path fill="#fff" stroke="#fff" stroke-width=".055" d="M16.002 4.542a.705.705 0 0 0-.655.74v.188q.028.32.092.633.093.602.066 1.21a.73.73 0 0 1-.218.345l-.015.282a9 9 0 0 0-1.203.186 8.56 8.56 0 0 0-4.354 2.485l-.24-.17a.52.52 0 0 1-.395-.04 6.3 6.3 0 0 1-.897-.81 6 6 0 0 0-.437-.465l-.148-.118a.8.8 0 0 0-.463-.175.6.6 0 0 0-.294.055.6.6 0 0 0-.237.181.705.705 0 0 0 .164.983l.138.11q.267.177.552.323.532.294.998.7.121.173.133.384l.218.2a8.62 8.62 0 0 0-1.358 6.006l-.28.08a.9.9 0 0 1-.286.288q-.587.156-1.194.197a6 6 0 0 0-.64.05l-.177.04h-.02a.66.66 0 0 0-.542.446.66.66 0 0 0 .155.686q.134.135.319.18t.365-.015h.013l.18-.02q.305-.091.598-.218.564-.226 1.162-.34a.73.73 0 0 1 .382.135l.3-.05a8.67 8.67 0 0 0 3.84 4.803l-.122.255a.66.66 0 0 1 .06.376 6.5 6.5 0 0 1-.603 1.092 6 6 0 0 0-.358.533l-.085.18a.669.669 0 1 0 1.203.569l.083-.17q.114-.3.192-.61c.177-.437.273-.906.515-1.196a.53.53 0 0 1 .286-.14l.15-.273a8.7 8.7 0 0 0 3.072.574 8.7 8.7 0 0 0 3.074-.559l.133.255a.52.52 0 0 1 .34.205q.282.538.456 1.12.08.311.194.61l.083.171a.66.66 0 0 0 .216.293q.15.116.337.137a.66.66 0 0 0 .359-.06.66.66 0 0 0 .29-.94l-.086-.18a6 6 0 0 0-.358-.531 7 7 0 0 1-.6-1.057.5.5 0 0 1 .068-.4 2 2 0 0 1-.111-.27 8.67 8.67 0 0 0 3.823-4.82l.284.051a.54.54 0 0 1 .373-.138c.397.076.786.2 1.162.34q.293.134.598.23c.048.013.118.024.172.037h.013q.18.058.365.013a.65.65 0 0 0 .317-.18.65.65 0 0 0 .177-.32.65.65 0 0 0-.018-.364.65.65 0 0 0-.209-.3.66.66 0 0 0-.335-.146l-.194-.046a6 6 0 0 0-.64-.05 6 6 0 0 1-1.194-.197.75.75 0 0 1-.288-.288l-.27-.08q.107-.78.071-1.569a8.7 8.7 0 0 0-.705-3.046 8.6 8.6 0 0 0-.752-1.378l.236-.218a.53.53 0 0 1 .124-.378 6.3 6.3 0 0 1 .99-.696q.285-.146.552-.323l.146-.118a.66.66 0 0 0 .25-.277.66.66 0 0 0-.08-.71.668.668 0 0 0-1-.054l-.147.118q-.231.22-.437.465a6 6 0 0 1-.873.823.73.73 0 0 1-.404.044l-.253.18a8.74 8.74 0 0 0-5.535-2.67c0-.1-.013-.25-.015-.297a.53.53 0 0 1-.218-.332 6 6 0 0 1 .076-1.207q.064-.314.092-.633v-.2a.705.705 0 0 0-.655-.74Zm-.834 5.166-.2 3.493h-.015a.6.6 0 0 1-.332.504.57.57 0 0 1-.6-.054l-2.865-2.03a6.8 6.8 0 0 1 1.526-1.13 6.8 6.8 0 0 1 1.777-.67q.351-.075.707-.113Zm1.668 0a6.92 6.92 0 0 1 3.99 1.924l-2.838 2.017a.586.586 0 0 1-.954-.452Zm-6.72 3.227 2.62 2.338v.015a.588.588 0 0 1-.231 1.009v.01l-3.362.967a6.8 6.8 0 0 1 .126-2.25 6.8 6.8 0 0 1 .848-2.09Zm11.753 0a7 7 0 0 1 1.002 4.327l-3.367-.97v-.013a.58.58 0 0 1-.417-.435.6.6 0 0 1 .186-.574l2.6-2.327Zm-6.404 2.52h1.072l.655.832-.238 1.04-.963.463-.965-.463-.227-1.04Zm3.434 2.838a.6.6 0 0 1 .135 0l3.467.585a6.8 6.8 0 0 1-2.775 3.493l-1.34-3.244a.6.6 0 0 1-.045-.276.6.6 0 0 1 .175-.375.6.6 0 0 1 .24-.143.6.6 0 0 1 .14-.025Zm-5.823.015a.59.59 0 0 1 .531.818v.013l-1.332 3.218A6.88 6.88 0 0 1 9.517 18.9l3.437-.583a.6.6 0 0 1 .116 0Zm2.904 1.4a.6.6 0 0 1 .312.078.6.6 0 0 1 .225.23h.013l1.694 3.057-.677.2a6.9 6.9 0 0 1-3.758-.194l1.7-3.057a.59.59 0 0 1 .5-.295Zm0 0" transform="matrix(4.79825 0 0 4.79282 .48 -1.925)"/></svg>