<svg xmlns="http://www.w3.org/2000/svg" width="194" height="200" version="1.0" viewBox="0 0 145.5 150"><defs><linearGradient id="c" x1="5.382" x2="506.612" y1="506.612" y2="5.382" gradientTransform="matrix(.29273 0 0 .29311 -2.827 -.036)" gradientUnits="userSpaceOnUse"><stop offset="0" stop-color="#834DF4"/><stop offset=".063" stop-color="#834DF4"/><stop offset=".094" stop-color="#834DF4"/><stop offset=".109" stop-color="#834DF4"/><stop offset=".125" stop-color="#824EF4"/><stop offset=".141" stop-color="#824EF4"/><stop offset=".156" stop-color="#824FF4"/><stop offset=".172" stop-color="#814FF4"/><stop offset=".188" stop-color="#8150F4"/><stop offset=".203" stop-color="#8051F4"/><stop offset=".219" stop-color="#8051F4"/><stop offset=".227" stop-color="#7F52F4"/><stop offset=".234" stop-color="#7F53F4"/><stop offset=".242" stop-color="#7E54F4"/><stop offset=".25" stop-color="#7D54F4"/><stop offset=".258" stop-color="#7D55F4"/><stop offset=".266" stop-color="#7C56F4"/><stop offset=".273" stop-color="#7C57F4"/><stop offset=".281" stop-color="#7B57F4"/><stop offset=".289" stop-color="#7A58F4"/><stop offset=".297" stop-color="#7A59F4"/><stop offset=".305" stop-color="#795AF4"/><stop offset=".313" stop-color="#795AF4"/><stop offset=".32" stop-color="#785BF4"/><stop offset=".328" stop-color="#775CF4"/><stop offset=".332" stop-color="#765DF4"/><stop offset=".336" stop-color="#765DF4"/><stop offset=".34" stop-color="#755EF4"/><stop offset=".344" stop-color="#755FF4"/><stop offset=".348" stop-color="#745FF4"/><stop offset=".352" stop-color="#7460F4"/><stop offset=".355" stop-color="#7361F4"/><stop offset=".359" stop-color="#7361F4"/><stop offset=".363" stop-color="#7262F4"/><stop offset=".367" stop-color="#7163F4"/><stop offset=".371" stop-color="#7163F4"/><stop offset=".375" stop-color="#7064F4"/><stop offset=".379" stop-color="#7065F4"/><stop offset=".383" stop-color="#6F65F4"/><stop offset=".387" stop-color="#6F66F4"/><stop offset=".391" stop-color="#6E67F4"/><stop offset=".395" stop-color="#6D67F4"/><stop offset=".398" stop-color="#6D68F4"/><stop offset=".402" stop-color="#6C69F4"/><stop offset=".406" stop-color="#6C69F4"/><stop offset=".41" stop-color="#6B6AF4"/><stop offset=".414" stop-color="#6B6BF4"/><stop offset=".418" stop-color="#6A6BF4"/><stop offset=".422" stop-color="#6A6CF4"/><stop offset=".426" stop-color="#696DF4"/><stop offset=".43" stop-color="#686DF4"/><stop offset=".434" stop-color="#686EF4"/><stop offset=".438" stop-color="#676FF4"/><stop offset=".441" stop-color="#6770F4"/><stop offset=".445" stop-color="#6670F4"/><stop offset=".449" stop-color="#6571F4"/><stop offset=".453" stop-color="#6472F4"/><stop offset=".457" stop-color="#6373F4"/><stop offset=".461" stop-color="#6374F4"/><stop offset=".465" stop-color="#6275F4"/><stop offset=".469" stop-color="#6176F4"/><stop offset=".473" stop-color="#6077F4"/><stop offset=".477" stop-color="#6078F4"/><stop offset=".48" stop-color="#5F79F4"/><stop offset=".484" stop-color="#5E7AF4"/><stop offset=".488" stop-color="#5D7BF4"/><stop offset=".492" stop-color="#5C7CF4"/><stop offset=".496" stop-color="#5C7DF4"/><stop offset=".5" stop-color="#5B7EF4"/><stop offset=".504" stop-color="#5A7FF4"/><stop offset=".508" stop-color="#5980F4"/><stop offset=".512" stop-color="#5981F4"/><stop offset=".516" stop-color="#5882F4"/><stop offset=".52" stop-color="#5783F4"/><stop offset=".523" stop-color="#5684F4"/><stop offset=".527" stop-color="#5585F4"/><stop offset=".531" stop-color="#5586F4"/><stop offset=".535" stop-color="#5486F4"/><stop offset=".539" stop-color="#5387F4"/><stop offset=".543" stop-color="#5288F4"/><stop offset=".547" stop-color="#5289F4"/><stop offset=".551" stop-color="#518BF4"/><stop offset=".555" stop-color="#508CF4"/><stop offset=".559" stop-color="#4F8DF4"/><stop offset=".563" stop-color="#4E8EF4"/><stop offset=".566" stop-color="#4D8FF4"/><stop offset=".57" stop-color="#4C91F4"/><stop offset=".574" stop-color="#4B92F4"/><stop offset=".578" stop-color="#4A93F4"/><stop offset=".582" stop-color="#4994F4"/><stop offset=".586" stop-color="#4895F4"/><stop offset=".59" stop-color="#4797F4"/><stop offset=".594" stop-color="#4698F4"/><stop offset=".598" stop-color="#4599F4"/><stop offset=".602" stop-color="#449AF4"/><stop offset=".605" stop-color="#439CF4"/><stop offset=".609" stop-color="#429DF4"/><stop offset=".613" stop-color="#419EF4"/><stop offset=".617" stop-color="#409FF4"/><stop offset=".621" stop-color="#3FA1F4"/><stop offset=".625" stop-color="#3EA2F4"/><stop offset=".629" stop-color="#3CA3F4"/><stop offset=".633" stop-color="#3BA4F4"/><stop offset=".637" stop-color="#3AA5F4"/><stop offset=".641" stop-color="#39A7F4"/><stop offset=".645" stop-color="#38A8F4"/><stop offset=".648" stop-color="#37A9F4"/><stop offset=".652" stop-color="#36AAF4"/><stop offset=".656" stop-color="#35ACF4"/><stop offset=".66" stop-color="#35ACF4"/><stop offset=".664" stop-color="#34ADF4"/><stop offset=".672" stop-color="#34ADF4"/><stop offset=".688" stop-color="#34ADF4"/><stop offset=".75" stop-color="#34ADF4"/><stop offset="1" stop-color="#34ADF4"/></linearGradient><linearGradient id="d" x1="5.382" x2="506.612" y1="506.612" y2="5.382" gradientTransform="matrix(.29273 0 0 .29311 -2.827 -.036)" gradientUnits="userSpaceOnUse"><stop offset="0" stop-color="#834DF4"/><stop offset=".063" stop-color="#834DF4"/><stop offset=".094" stop-color="#834DF4"/><stop offset=".109" stop-color="#834DF4"/><stop offset=".125" stop-color="#824EF4"/><stop offset=".141" stop-color="#824EF4"/><stop offset=".156" stop-color="#824FF4"/><stop offset=".172" stop-color="#814FF4"/><stop offset=".188" stop-color="#8150F4"/><stop offset=".203" stop-color="#8051F4"/><stop offset=".219" stop-color="#8051F4"/><stop offset=".227" stop-color="#7F52F4"/><stop offset=".234" stop-color="#7F53F4"/><stop offset=".242" stop-color="#7E54F4"/><stop offset=".25" stop-color="#7D54F4"/><stop offset=".258" stop-color="#7D55F4"/><stop offset=".266" stop-color="#7C56F4"/><stop offset=".273" stop-color="#7C57F4"/><stop offset=".281" stop-color="#7B57F4"/><stop offset=".289" stop-color="#7A58F4"/><stop offset=".297" stop-color="#7A59F4"/><stop offset=".305" stop-color="#795AF4"/><stop offset=".313" stop-color="#795AF4"/><stop offset=".32" stop-color="#785BF4"/><stop offset=".328" stop-color="#775CF4"/><stop offset=".332" stop-color="#765DF4"/><stop offset=".336" stop-color="#765DF4"/><stop offset=".34" stop-color="#755EF4"/><stop offset=".344" stop-color="#755FF4"/><stop offset=".348" stop-color="#745FF4"/><stop offset=".352" stop-color="#7460F4"/><stop offset=".355" stop-color="#7361F4"/><stop offset=".359" stop-color="#7361F4"/><stop offset=".363" stop-color="#7262F4"/><stop offset=".367" stop-color="#7163F4"/><stop offset=".371" stop-color="#7163F4"/><stop offset=".375" stop-color="#7064F4"/><stop offset=".379" stop-color="#7065F4"/><stop offset=".383" stop-color="#6F65F4"/><stop offset=".387" stop-color="#6F66F4"/><stop offset=".391" stop-color="#6E67F4"/><stop offset=".395" stop-color="#6D67F4"/><stop offset=".398" stop-color="#6D68F4"/><stop offset=".402" stop-color="#6C69F4"/><stop offset=".406" stop-color="#6C69F4"/><stop offset=".41" stop-color="#6B6AF4"/><stop offset=".414" stop-color="#6B6BF4"/><stop offset=".418" stop-color="#6A6BF4"/><stop offset=".422" stop-color="#6A6CF4"/><stop offset=".426" stop-color="#696DF4"/><stop offset=".43" stop-color="#686DF4"/><stop offset=".434" stop-color="#686EF4"/><stop offset=".438" stop-color="#676FF4"/><stop offset=".441" stop-color="#6770F4"/><stop offset=".445" stop-color="#6670F4"/><stop offset=".449" stop-color="#6571F4"/><stop offset=".453" stop-color="#6472F4"/><stop offset=".457" stop-color="#6373F4"/><stop offset=".461" stop-color="#6374F4"/><stop offset=".465" stop-color="#6275F4"/><stop offset=".469" stop-color="#6176F4"/><stop offset=".473" stop-color="#6077F4"/><stop offset=".477" stop-color="#6078F4"/><stop offset=".48" stop-color="#5F79F4"/><stop offset=".484" stop-color="#5E7AF4"/><stop offset=".488" stop-color="#5D7BF4"/><stop offset=".492" stop-color="#5C7CF4"/><stop offset=".496" stop-color="#5C7DF4"/><stop offset=".5" stop-color="#5B7EF4"/><stop offset=".504" stop-color="#5A7FF4"/><stop offset=".508" stop-color="#5980F4"/><stop offset=".512" stop-color="#5981F4"/><stop offset=".516" stop-color="#5882F4"/><stop offset=".52" stop-color="#5783F4"/><stop offset=".523" stop-color="#5684F4"/><stop offset=".527" stop-color="#5585F4"/><stop offset=".531" stop-color="#5586F4"/><stop offset=".535" stop-color="#5486F4"/><stop offset=".539" stop-color="#5387F4"/><stop offset=".543" stop-color="#5288F4"/><stop offset=".547" stop-color="#5289F4"/><stop offset=".551" stop-color="#518BF4"/><stop offset=".555" stop-color="#508CF4"/><stop offset=".559" stop-color="#4F8DF4"/><stop offset=".563" stop-color="#4E8EF4"/><stop offset=".566" stop-color="#4D8FF4"/><stop offset=".57" stop-color="#4C91F4"/><stop offset=".574" stop-color="#4B92F4"/><stop offset=".578" stop-color="#4A93F4"/><stop offset=".582" stop-color="#4994F4"/><stop offset=".586" stop-color="#4895F4"/><stop offset=".59" stop-color="#4797F4"/><stop offset=".594" stop-color="#4698F4"/><stop offset=".598" stop-color="#4599F4"/><stop offset=".602" stop-color="#449AF4"/><stop offset=".605" stop-color="#439CF4"/><stop offset=".609" stop-color="#429DF4"/><stop offset=".613" stop-color="#419EF4"/><stop offset=".617" stop-color="#409FF4"/><stop offset=".621" stop-color="#3FA1F4"/><stop offset=".625" stop-color="#3EA2F4"/><stop offset=".629" stop-color="#3CA3F4"/><stop offset=".633" stop-color="#3BA4F4"/><stop offset=".637" stop-color="#3AA5F4"/><stop offset=".641" stop-color="#39A7F4"/><stop offset=".645" stop-color="#38A8F4"/><stop offset=".648" stop-color="#37A9F4"/><stop offset=".652" stop-color="#36AAF4"/><stop offset=".656" stop-color="#35ACF4"/><stop offset=".66" stop-color="#35ACF4"/><stop offset=".664" stop-color="#34ADF4"/><stop offset=".672" stop-color="#34ADF4"/><stop offset=".688" stop-color="#34ADF4"/><stop offset=".75" stop-color="#34ADF4"/><stop offset="1" stop-color="#34ADF4"/></linearGradient><clipPath id="a"><path d="M0 .258h144.254v149.484H0Zm0 0"/></clipPath><clipPath id="b"><path d="M135.883 25.41h-3.754v-2.039c0-1.25-1.02-2.27-2.27-2.27h-3.601a21.3 21.3 0 0 0-1.945-4.699l2.562-2.562a2.29 2.29 0 0 0-.012-3.2l-5.105-5.113a2.27 2.27 0 0 0-3.203 0l-2.551 2.555a21.3 21.3 0 0 0-4.692-1.945v-3.61c0-1.25-1.019-2.27-2.269-2.27h-7.207a2.27 2.27 0 0 0-2.27 2.27v3.61a21.5 21.5 0 0 0-4.691 1.945l-2.55-2.559a2.267 2.267 0 0 0-3.2.004l-5.105 5.114c-.875.875-.88 2.312 0 3.21l2.55 2.551a21.4 21.4 0 0 0-1.945 4.696h-3.602c-1.25 0-2.27 1.02-2.27 2.27v2.042H15.548l9.637-13.097h33.41c.699 2.714 3.144 4.734 6.07 4.734 3.469 0 6.29-2.828 6.29-6.3 0-3.474-2.821-6.298-6.29-6.298-2.926 0-5.371 2.02-6.07 4.735h-34.2a1.56 1.56 0 0 0-1.257.632L11.66 25.41H8.344c-4.582 0-8.309 3.73-8.309 8.32v82.532c0 4.586 3.727 8.32 8.309 8.32h2.543v2.05a2.267 2.267 0 0 0 2.265 2.266h3.602a21.7 21.7 0 0 0 1.945 4.7l-2.547 2.558c-.875.875-.879 2.309 0 3.211l5.106 5.106c.879.886 2.32.886 3.199 0l2.55-2.551a21.6 21.6 0 0 0 4.692 1.95v3.6a2.275 2.275 0 0 0 2.27 2.274h7.21c1.25 0 2.27-1.02 2.27-2.273v-3.602a21.6 21.6 0 0 0 4.692-1.95l2.55 2.552a2.264 2.264 0 0 0 3.204 0l5.117-5.121c.867-.887.863-2.325-.012-3.196l-2.55-2.554a21.4 21.4 0 0 0 1.945-4.7h3.601a2.27 2.27 0 0 0 2.27-2.265v-2.051h61.957l-9.637 13.098h-33.41c-.7-2.715-3.145-4.735-6.07-4.735-3.47 0-6.29 2.824-6.29 6.297s2.82 6.297 6.29 6.297c2.925 0 5.37-2.02 6.07-4.73h34.199c.496 0 .96-.239 1.258-.637l11.476-15.59h5.774c4.582 0 8.308-3.73 8.308-8.32V33.734c0-4.59-3.73-8.324-8.308-8.324M64.664 7.586a3.17 3.17 0 0 1 3.164 3.168 3.17 3.17 0 0 1-3.164 3.168 3.17 3.17 0 0 1 0-6.336m12.441 134.828a3.17 3.17 0 0 1-3.164-3.168 3.17 3.17 0 0 1 3.164-3.168 3.17 3.17 0 0 1 0 6.336m4.77-118.184h5.215l.27-1.226a18.6 18.6 0 0 1 2.488-6l.68-1.063-3.696-3.695 3.89-3.894 3.692 3.695 1.059-.68a18.2 18.2 0 0 1 5.984-2.48l1.234-.266V3.387h5.496V8.62l1.231.27a18.2 18.2 0 0 1 5.988 2.48l1.059.68 3.691-3.7 3.89 3.895-3.698 3.7.68 1.058A18.4 18.4 0 0 1 123.511 23l.27 1.227h5.214v1.183h-.008v4.317h-5.199v.003h-.012l-.27 1.227a18 18 0 0 1-.679 2.29c-.25.687-.531 1.358-.855 2.01-.29.579-.598 1.145-.95 1.696l-.683 1.059 3.7 3.703-3.892 3.879-2.03-2.024-1.661-1.664h-.008l-.004-.004-1.058.684c-.825.531-1.688.98-2.567 1.367-1.093.477-2.23.863-3.414 1.121h-.004l-1.218.262v.004h-.008v5.226h-5.489v-5.23l-1.23-.27c-.266-.058-.527-.136-.793-.207a18.5 18.5 0 0 1-3.785-1.453q-.717-.38-1.414-.824l-1.059-.684-3.695 3.7-3.879-3.887 3.691-3.695-.675-1.063a18.4 18.4 0 0 1-2.489-6l-.265-1.234H81.87V24.23ZM3.16 33.734a5.19 5.19 0 0 1 5.184-5.191h70.402v2.059c0 .46.14.89.383 1.246a2.27 2.27 0 0 0 1.887 1.015h3.601a21.6 21.6 0 0 0 1.95 4.7l-2.551 2.554c-.016.016-.02.035-.036.051q-.135.14-.242.297H3.16Zm57.977 92.036h-5.219l-.27 1.23a18.3 18.3 0 0 1-2.48 5.996l-.684 1.059 3.7 3.703-3.891 3.89-3.695-3.699-1.059.684a18.4 18.4 0 0 1-5.988 2.488l-1.227.27v5.226h-5.492v-5.226l-1.227-.27a18.3 18.3 0 0 1-5.988-2.488l-1.058-.684-3.696 3.7-3.89-3.887 3.699-3.703-.68-1.063a18.6 18.6 0 0 1-2.488-6l-.266-1.226h-5.222v-5.5h5.226l.266-1.235c.078-.375.187-.742.293-1.11.195-.671.406-1.335.676-1.98.418-1 .921-1.972 1.523-2.91l.676-1.062-3.692-3.692 3.883-3.886 1.844 1.843 1.848 1.852 1.058-.68c.028-.02.055-.031.078-.043a18.5 18.5 0 0 1 4.575-2.086c.44-.133.882-.254 1.335-.355l1.23-.266v-.02h.009v-5.214h5.488v5.234l1.23.266c.973.21 1.922.515 2.844.879.086.035.172.058.254.093.297.125.582.27.875.41.2.098.406.18.602.282q.056.036.113.066c.438.235.867.48 1.29.75l1.054.684.008-.008.007.008 3.696-3.695 3.883 3.886-3.688 3.696-.008.007.68 1.063a18.2 18.2 0 0 1 1.758 3.562c.293.793.547 1.602.726 2.434l.27 1.23h5.21v4.317h.012v1.18Zm79.93-9.504a5.19 5.19 0 0 1-5.184 5.187H64.266v-2.043a2.27 2.27 0 0 0-1.563-2.148 2.3 2.3 0 0 0-.703-.121h-3.598a23 23 0 0 0-.734-2.118c-.04-.097-.066-.199-.105-.296a21 21 0 0 0-1.11-2.29l2.563-2.558c.02-.02.027-.047.047-.07q.282-.3.437-.68-.001-.005.004-.004c.101-.254.164-.523.172-.797a2.28 2.28 0 0 0-.672-1.648l-5.098-5.106a2.2 2.2 0 0 0-.722-.469.1.1 0 0 0-.04-.02 2.17 2.17 0 0 0-2.41.46c-.011.014-.027.017-.039.025l-1.914 1.918-.64.637c-.434-.242-.891-.437-1.336-.648-.317-.153-.625-.329-.95-.461-.148-.063-.3-.102-.449-.157-.64-.25-1.285-.488-1.953-.68v-3.605a2.276 2.276 0 0 0-2.273-2.277h-7.215c-.742 0-1.399.371-1.809.93a2.26 2.26 0 0 0-.453 1.351v3.61c-.144.039-.281.105-.426.148a21.4 21.4 0 0 0-4.261 1.797l-2.551-2.555c-.02-.02-.05-.023-.074-.047-.84-.777-2.059-.793-2.934-.082-.059.051-.14.07-.195.13l-5.106 5.112c-.008.008-.011.02-.02.028a2.3 2.3 0 0 0-.456.691c-.004.012-.016.024-.02.035-.11.266-.16.551-.164.836v.004c0 .02-.008.031-.004.047.012.582.242 1.125.617 1.5.02.023.024.047.043.07l2.551 2.547a22 22 0 0 0-1.113 2.301 21 21 0 0 0-.832 2.398h-3.602a2.274 2.274 0 0 0-2.27 2.278v2.039H8.345a5.19 5.19 0 0 1-5.184-5.192v-72.68h81.117l4.84 4.84c.852.856 2.344.86 3.207 0l2.547-2.55c.492.277 1.012.504 1.524.742 1.027.477 2.078.902 3.171 1.207v3.605c0 .626.254 1.196.664 1.606.41.414.973.668 1.598.668h7.215a2.276 2.276 0 0 0 2.273-2.277v-3.606a21 21 0 0 0 2.692-.976c.68-.293 1.351-.61 2-.973l2.55 2.555c.024.027.067.035.094.062.407.379.942.602 1.5.602h.008c.586 0 1.149-.239 1.531-.618.02-.023.047-.027.067-.046l4.84-4.84h14.468Zm0-75.805h-13.93a3 3 0 0 0-.27-.348l-2.55-2.55c.203-.364.363-.743.538-1.118q.48-.976.86-2c.191-.523.398-1.043.55-1.586h3.598q.237 0 .461-.047a2.21 2.21 0 0 0 1.625-1.332 2.25 2.25 0 0 0 .184-.886v-2.051h3.75a5.19 5.19 0 0 1 5.183 5.191Zm-35.63.23c7.551 0 13.696-6.148 13.696-13.71 0-7.56-6.145-13.708-13.695-13.708S91.742 19.422 91.742 26.98c.004 7.563 6.145 13.711 13.695 13.711m0-24.285c5.829 0 10.567 4.742 10.567 10.578s-4.738 10.578-10.567 10.578-10.566-4.742-10.566-10.578 4.742-10.578 10.567-10.578m-67.863 92.907c-7.547 0-13.691 6.148-13.691 13.707 0 7.562 6.14 13.71 13.691 13.71 7.555 0 13.696-6.148 13.696-13.71 0-7.56-6.145-13.707-13.696-13.707m0 24.289c-5.828 0-10.566-4.747-10.566-10.582 0-5.829 4.738-10.575 10.566-10.575 5.832 0 10.57 4.743 10.57 10.575s-4.738 10.582-10.57 10.582m-4.828-101.54a2.72 2.72 0 0 0-2.715 2.715 2.72 2.72 0 0 0 2.715 2.715 2.72 2.72 0 0 0 2.715-2.715c0-1.5-1.219-2.715-2.715-2.715m-.414 2.715a.414.414 0 0 1 .828 0c0 .457-.828.457-.828 0m-9.61-2.715a2.72 2.72 0 0 0-2.714 2.715 2.72 2.72 0 0 0 2.715 2.715 2.716 2.716 0 0 0 0-5.43m-.413 2.715c0-.23.187-.414.418-.414.226 0 .41.184.41.414 0 .457-.828.453-.828 0m-9.61-2.715a2.716 2.716 0 0 0 0 5.43 2.72 2.72 0 0 0 2.715-2.715c0-1.5-1.219-2.715-2.715-2.715m-.414 2.715a.415.415 0 0 1 .832 0c0 .453-.832.457-.832 0m69.469 66.672c0-.863.7-1.562 1.562-1.562h7.618l1.12-1.953a1.56 1.56 0 0 1 1.356-.786h.004c.559 0 1.078.301 1.356.79l2.632 4.597 3.16-8.7a1.57 1.57 0 0 1 1.403-1.03c.625-.012 1.219.332 1.484.906l3.102 6.71a1252 1252 0 0 1 2.738-5.026c.29-.524.813-.82 1.445-.813a1.58 1.58 0 0 1 1.364.95l2.875 6.726.613-1.43a1.56 1.56 0 0 1 1.437-.95h8.422c.864 0 1.563.7 1.563 1.567 0 .864-.7 1.563-1.563 1.563h-7.39l-1.645 3.84a1.56 1.56 0 0 1-1.437.949 1.56 1.56 0 0 1-1.438-.95l-3.047-7.124q-.67 1.231-1.34 2.468l-1.34 2.454c-.28.52-.847.851-1.421.812a1.57 1.57 0 0 1-1.367-.902l-2.813-6.086-3.016 8.297c-.21.57-.73.968-1.336 1.023q-.068.005-.136.004a1.56 1.56 0 0 1-1.352-.785l-2.957-5.156-.21.37a1.56 1.56 0 0 1-1.356.786H83.32a1.55 1.55 0 0 1-1.566-1.559m51.008-16.351h-56.77a2.7 2.7 0 0 0-2.695 2.699v25.016a2.7 2.7 0 0 0 2.695 2.699h56.77a2.703 2.703 0 0 0 2.699-2.7V87.794a2.7 2.7 0 0 0-2.7-2.695m-.43 27.28h-55.91V88.228h55.91Zm-20.527-46.952h22.09a1.564 1.564 0 1 1 0 3.129h-22.09c-.864 0-1.563-.7-1.563-1.567a1.56 1.56 0 0 1 1.563-1.562m23.656 11.398c0 .867-.7 1.567-1.566 1.567h-39.88c-.863 0-1.562-.7-1.562-1.567 0-.863.7-1.562 1.563-1.562h39.879c.867 0 1.566.699 1.566 1.562M11.246 54.691c0-.867.7-1.566 1.563-1.566h17.875c.863 0 1.562.7 1.562 1.566 0 .864-.7 1.563-1.562 1.563H12.809c-.864 0-1.563-.7-1.563-1.563m0 9.832c0-.863.7-1.562 1.563-1.562H45.07c.864 0 1.563.7 1.563 1.562 0 .868-.7 1.567-1.563 1.567H12.81c-.864 0-1.563-.7-1.563-1.567m40.984 8.274H13.266a2.02 2.02 0 0 0-2.02 2.02v7.527c0 1.117.902 2.02 2.02 2.02H52.23a2.016 2.016 0 0 0 2.016-2.02v-7.528a2.02 2.02 0 0 0-2.016-2.02m-1.109 8.437h-36.75v-5.308h36.75Zm0 0"/></clipPath></defs><g clip-path="url(#a)"><g clip-path="url(#b)"><path fill="url(#c)" d="M.035.258v149.484h144.156V.258Zm0 0"/><path fill="url(#d)" d="M.035.258v149.484h144.156V.258Zm0 0"/></g></g></svg>