<svg xmlns="http://www.w3.org/2000/svg" width="282" height="109" version="1.0" viewBox="0 0 211.5 81.75"><defs><clipPath id="a"><path d="M12.895 0h197.289v77.227H12.894Zm0 0"/></clipPath><clipPath id="b"><path d="M.074 5h76.254v76.254H.074Zm0 0"/></clipPath><clipPath id="c"><path d="M38.2 5C17.144 5 .073 22.07.073 43.125c0 21.059 17.07 38.129 38.125 38.129 21.059 0 38.13-17.07 38.13-38.129C76.328 22.07 59.257 5 38.198 5m0 0"/></clipPath><clipPath id="d"><path d="M13 20h53.582v49.965H13Zm0 0"/></clipPath><clipPath id="e"><path d="M9.008 21H53v35H9.008Zm0 0"/></clipPath></defs><g clip-path="url(#a)"><path fill="#fff" d="M12.895 0h197.293v77.227H12.894Zm0 0"/></g><g clip-path="url(#b)"><g clip-path="url(#c)"><path fill="none" stroke="#1d2896" stroke-width="2.991" d="M38.2 5C17.144 5 .073 22.07.073 43.125c0 21.059 17.07 38.129 38.125 38.129 21.059 0 38.13-17.07 38.13-38.129C76.328 22.07 59.257 5 38.198 5Zm0 0"/></g></g><g clip-path="url(#d)"><path fill="#1d2896" d="M42.133 67.363c-10.98 0-20.309-8.547-22.344-18.937l-1.836 6.32a1.03 1.03 0 1 1-1.941-.687l3.425-9.704a1.025 1.025 0 0 1 1.438-.57c.371.125 6.758 7.766 7.008 8.063a1.03 1.03 0 0 1-.11 1.453 1.033 1.033 0 0 1-1.457-.114l-4.449-5.199c1.559 9.793 10.04 17.313 20.266 17.313 11.332 0 20.547-9.219 20.547-20.547s-9.215-20.547-20.547-20.547a1.03 1.03 0 1 1 0-2.062c12.465 0 22.61 10.144 22.61 22.609s-10.145 22.61-22.61 22.61m0-47.36a3.177 3.177 0 0 0-3.176 3.173 3.17 3.17 0 0 0 3.176 3.176c10.144 0 18.402 8.257 18.402 18.402 0 10.148-8.258 18.402-18.402 18.402-6.051 0-11.453-2.886-14.813-7.468a3.23 3.23 0 0 0 1.844-.758 3.14 3.14 0 0 0 1.098-2.168 3.13 3.13 0 0 0-.75-2.305l-.293-.348c-6.36-7.57-6.895-8.078-7.543-8.312a3.2 3.2 0 0 0-1.848-.219 3.18 3.18 0 0 0-2.41 2.063l-3.43 9.703a3.18 3.18 0 0 0 .133 2.43 3.15 3.15 0 0 0 1.793 1.617c.344.125.707.187 1.07.187 1.34 0 2.543-.851 2.993-2.113 4.23 8.332 12.836 14.043 22.156 14.043 13.644 0 24.75-11.106 24.75-24.754 0-13.645-11.106-24.75-24.75-24.75"/></g><path fill="#1d2896" d="M31.352 27.828a3.21 3.21 0 0 1 2.953 2.004q.246.594.246 1.211c0 1.77-1.438 3.21-3.184 3.21 0 0-.16-.026-.476-.265-.805-.601-1.68-1.797-2.36-2.949 1.102-1.902 2.32-3.125 2.82-3.21m-1.747 7.875c.567.422 1.157.695 1.735.695a5.36 5.36 0 0 0 5.351-5.355c0-.719-.144-1.395-.402-2.023a5.355 5.355 0 0 0-4.95-3.332c-2.144 0-4.374 3.601-5.245 5.355.633 1.277 1.996 3.527 3.511 4.66"/><g clip-path="url(#e)"><path fill="#1d2896" d="M11.148 31.043c0-4.09 3.329-7.418 7.418-7.418 2.868 0 5.164 3.102 6.387 5.195 1.223-2.093 3.52-5.195 6.387-5.195a7.424 7.424 0 0 1 7.414 7.418c0 4.09-3.328 7.418-7.414 7.418-1.176 0-2.254-.531-3.203-1.29-1.364-1.093-2.465-2.671-3.184-3.905-1.223 2.093-3.52 5.195-6.387 5.195-4.09 0-7.418-3.328-7.418-7.418m29.954 3.254a1.03 1.03 0 1 1 2.062 0v10.031l7.125 7.129c.402.402.402 1.05 0 1.453a1.026 1.026 0 0 1-1.457 0l-7.426-7.43a1.02 1.02 0 0 1-.304-.726ZM24.96 37.012a12.8 12.8 0 0 0 1.84 1.832c1.46 1.168 2.988 1.758 4.539 1.758 3.11 0 5.87-1.5 7.617-3.809v7.96c0 .852.332 1.645.934 2.243l7.43 7.43c.593.601 1.39.933 2.242.933a3.14 3.14 0 0 0 2.242-.933 3.17 3.17 0 0 0 0-4.485l-6.5-6.504v-9.14a3.177 3.177 0 0 0-4.426-2.918c.004-.113.02-.223.02-.336a9.57 9.57 0 0 0-9.559-9.562c-2.258 0-4.426 1.23-6.387 3.581-1.957-2.351-4.133-3.582-6.387-3.582-5.27 0-9.558 4.293-9.558 9.563 0 5.273 4.289 9.559 9.558 9.559 2.625 0 4.77-1.637 6.395-3.59"/></g><path fill="#1d2896" d="M15.355 31.043a3.22 3.22 0 0 1 3.196-3.215c.504.094 1.719 1.317 2.828 3.215-1.11 1.914-2.336 3.137-2.813 3.21a3.216 3.216 0 0 1-3.21-3.21m8.454 0c-.872-1.75-3.11-5.355-5.243-5.355a5.36 5.36 0 0 0-5.355 5.355 5.36 5.36 0 0 0 5.355 5.355c2.141 0 4.375-3.605 5.243-5.355"/></svg>