<svg xmlns="http://www.w3.org/2000/svg" width="130" height="130" version="1.0" viewBox="0 0 97.5 97.5"><defs><clipPath id="a"><path d="M0 0h96.746v96.746H0Zm0 0"/></clipPath><clipPath id="b"><path d="M48.371 0C21.656 0 0 21.656 0 48.371 0 75.09 21.656 96.746 48.371 96.746c26.719 0 48.375-21.656 48.375-48.375C96.746 21.656 75.09 0 48.371 0m0 0"/></clipPath><clipPath id="c"><path d="M17 19h67.457v63H17Zm0 0"/></clipPath><clipPath id="d"><path d="M11.332 20H67v44H11.332Zm0 0"/></clipPath></defs><g clip-path="url(#a)"><g clip-path="url(#b)"><path fill="none" stroke="#1d2896" stroke-width="2.985" d="M48.371 0C21.656 0 0 21.656 0 48.371 0 75.09 21.656 96.746 48.371 96.746c26.719 0 48.375-21.656 48.375-48.375C96.746 21.656 75.09 0 48.371 0Zm0 0"/></g></g><g clip-path="url(#c)"><path fill="#1d2896" d="M53.36 79.129c-13.926 0-25.762-10.844-28.344-24.027l-2.328 8.02a1.316 1.316 0 0 1-1.672.8 1.317 1.317 0 0 1-.797-1.672l4.347-12.309a1.31 1.31 0 0 1 .997-.851c.289-.055.578 0 .828.129.472.152 8.574 9.847 8.894 10.226.469.551.406 1.38-.144 1.84a1.31 1.31 0 0 1-1.848-.14l-5.645-6.598c1.98 12.426 12.735 21.965 25.711 21.965 14.375 0 26.067-11.696 26.067-26.067 0-14.37-11.692-26.066-26.067-26.066a1.28 1.28 0 0 1-.922-.387 1.3 1.3 0 0 1-.386-.922c0-.722.586-1.308 1.308-1.308 15.817 0 28.684 12.867 28.684 28.683 0 15.817-12.867 28.684-28.684 28.684m0-60.086a4.034 4.034 0 0 0-4.028 4.027c0 1.075.418 2.086 1.184 2.852a4 4 0 0 0 2.843 1.176c12.875 0 23.348 10.472 23.348 23.347 0 12.871-10.473 23.348-23.348 23.348-7.675 0-14.53-3.664-18.793-9.477a4.07 4.07 0 0 0 2.34-.964 3.96 3.96 0 0 0 1.395-2.747 3.96 3.96 0 0 0-.953-2.925l-.371-.442c-8.067-9.605-8.75-10.246-9.57-10.547a4.1 4.1 0 0 0-1.618-.343 4.025 4.025 0 0 0-3.785 2.688l-4.348 12.308a4.03 4.03 0 0 0 3.797 5.371 4.03 4.03 0 0 0 3.797-2.68c5.371 10.567 16.285 17.813 28.11 17.813 17.312 0 31.402-14.09 31.402-31.403s-14.09-31.402-31.403-31.402"/></g><path fill="#1d2896" d="M39.684 28.973a4.07 4.07 0 0 1 3.746 2.543c.207.496.308 1.015.308 1.535 0 2.242-1.824 4.074-4.035 4.074 0 0-.203-.035-.605-.34-1.02-.762-2.133-2.277-2.993-3.738 1.399-2.418 2.942-3.965 3.579-4.074m-2.215 9.988c.718.539 1.465.883 2.199.883a6.8 6.8 0 0 0 6.793-6.793 6.7 6.7 0 0 0-.512-2.57c-1.015-2.477-3.449-4.227-6.281-4.227-2.719 0-5.547 4.57-6.656 6.797.804 1.617 2.531 4.476 4.457 5.91"/><g clip-path="url(#d)"><path fill="#1d2896" d="M14.055 33.05c0-5.19 4.218-9.413 9.406-9.413 3.637 0 6.55 3.937 8.105 6.593 1.551-2.656 4.465-6.593 8.102-6.593 3.543 0 6.64 1.98 8.242 4.883a9.4 9.4 0 0 1 1.164 4.53c0 5.188-4.222 9.41-9.406 9.41-1.492 0-2.86-.67-4.063-1.636-1.734-1.386-3.125-3.39-4.039-4.957-1.554 2.656-4.468 6.594-8.105 6.594-5.188 0-9.406-4.223-9.406-9.41m37.996 4.126a1.309 1.309 0 0 1 2.617 0v12.73l9.039 9.04a1.304 1.304 0 0 1 0 1.847 1.29 1.29 0 0 1-1.844 0l-9.425-9.426a1.3 1.3 0 0 1-.387-.922Zm-20.477 3.449a16.6 16.6 0 0 0 2.332 2.32c1.856 1.48 3.793 2.235 5.762 2.235 3.945 0 7.45-1.907 9.664-4.836v10.101c0 1.078.418 2.086 1.184 2.844l9.425 9.426a3.98 3.98 0 0 0 2.844 1.183c1.078 0 2.09-.421 2.844-1.183a4.02 4.02 0 0 0 0-5.692l-8.242-8.246V37.176a4.03 4.03 0 0 0-4.028-4.028 4 4 0 0 0-1.59.329c.008-.145.024-.282.024-.426 0-2.035-.516-4.055-1.5-5.844a12.14 12.14 0 0 0-10.625-6.289c-2.863 0-5.617 1.562-8.102 4.543-2.484-2.98-5.242-4.543-8.105-4.543-6.684 0-12.129 5.445-12.129 12.133 0 6.691 5.445 12.129 12.129 12.129 3.332 0 6.05-2.078 8.113-4.555"/></g><path fill="#1d2896" d="M19.387 33.05a4.085 4.085 0 0 1 4.058-4.077c.637.113 2.18 1.668 3.582 4.078-1.402 2.426-2.957 3.976-3.566 4.074a4.084 4.084 0 0 1-4.074-4.074m10.73 0c-1.11-2.218-3.949-6.796-6.656-6.796-3.746 0-6.793 3.047-6.793 6.797a6.8 6.8 0 0 0 6.793 6.793c2.719 0 5.555-4.57 6.656-6.793"/></svg>