<svg xmlns="http://www.w3.org/2000/svg" width="143" height="143" version="1.0" viewBox="0 0 107.25 107.25"><defs><clipPath id="a"><path d="M0 0h105.965v105.965H0Zm0 0"/></clipPath><clipPath id="b"><path d="M52.984 0C23.723 0 0 23.723 0 52.984s23.723 52.98 52.984 52.98 52.98-23.718 52.98-52.98S82.247 0 52.985 0m0 0"/></clipPath><clipPath id="c"><path d="M14.164 14.164h77.457v77.457H14.164Zm0 0"/></clipPath></defs><g clip-path="url(#a)"><g clip-path="url(#b)"><path fill="#38b6ff" d="M0 0h105.965v105.965H0Zm0 0"/></g></g><path fill="#fff" d="M41.91 51.766a4.84 4.84 0 0 0-4.39 2.82c-.668-.55-1.383-1.059-2.176-1.469a1.21 1.21 0 0 0-1.637.52 1.215 1.215 0 0 0 .52 1.633 9.68 9.68 0 0 1 5.257 8.628 1.212 1.212 0 0 0 2.426 0c0-2.68-.89-5.199-2.43-7.257q.002-.013.004-.02a2.426 2.426 0 0 1 2.426-2.426 1.215 1.215 0 0 0 0-2.43m0 0"/><g clip-path="url(#c)"><path fill="#fff" d="M86.945 48.129c-2.254 0-4.136 1.55-4.68 3.637h-28.07v-9.703h13.34c.461 0 .88-.258 1.086-.668l2.09-4.184h4.277c.543 2.086 2.422 3.64 4.68 3.64A4.86 4.86 0 0 0 84.52 36a4.86 4.86 0 0 0-4.852-4.855c-2.258 0-4.137 1.554-4.68 3.64h-5.027c-.457 0-.879.258-1.082.672l-2.094 4.18h-12.59v-8.492H65.11c.438 0 .84-.23 1.055-.61l4.102-7.176a4.8 4.8 0 0 0 2.12.508 4.857 4.857 0 0 0 4.856-4.851 4.857 4.857 0 0 0-4.855-4.852 4.856 4.856 0 0 0-4.852 4.852 4.83 4.83 0 0 0 .852 2.738l-3.98 6.965H54.194v-13.34c0-.672-.543-1.215-1.215-1.215a9.66 9.66 0 0 0-8.535 5.094q-1.185-.241-2.383-.242c-5.374 0-10.003 3.453-11.57 8.507-6.387.344-11.476 5.645-11.476 12.114 0 1.117.156 2.226.468 3.312a12.15 12.15 0 0 0-5.32 10.031c0 4.028 2.016 7.786 5.32 10.032a12 12 0 0 0-.468 3.312c0 6.469 5.09 11.77 11.476 12.114 1.567 5.054 6.195 8.507 11.57 8.507.797 0 1.594-.082 2.383-.242a9.66 9.66 0 0 0 8.535 5.094c.672 0 1.215-.543 1.215-1.215v-13.34h10.211l3.98 6.965a4.83 4.83 0 0 0-.85 2.738 4.856 4.856 0 0 0 4.85 4.852 4.857 4.857 0 0 0 4.856-4.852 4.857 4.857 0 0 0-4.855-4.851c-.762 0-1.477.191-2.121.508l-4.102-7.176a1.21 1.21 0 0 0-1.055-.61H54.195v-8.492h12.59l2.094 4.18c.203.414.625.672 1.082.672h5.027c.543 2.086 2.422 3.64 4.68 3.64a4.86 4.86 0 0 0 4.852-4.855 4.86 4.86 0 0 0-4.852-4.852c-2.258 0-4.137 1.555-4.68 3.641h-4.277l-2.09-4.184a1.21 1.21 0 0 0-1.086-.668h-13.34v-9.703h28.07c.544 2.086 2.426 3.637 4.68 3.637a4.856 4.856 0 0 0 4.852-4.852 4.856 4.856 0 0 0-4.852-4.851M79.668 33.57A2.43 2.43 0 0 1 82.094 36a2.43 2.43 0 0 1-2.426 2.426 2.428 2.428 0 0 1 0-4.856m-7.281-16.98c1.34 0 2.43 1.09 2.43 2.426a2.429 2.429 0 0 1-4.856 0 2.43 2.43 0 0 1 2.426-2.426m2.43 70.355a2.43 2.43 0 0 1-2.43 2.426 2.43 2.43 0 0 1-2.426-2.426 2.428 2.428 0 0 1 4.855 0m4.851-19.41a2.43 2.43 0 0 1 2.426 2.426 2.426 2.426 0 1 1-2.426-2.426m-33.43 17.297a1.21 1.21 0 0 0-1.46-.707 9.7 9.7 0 0 1-2.715.395 9.644 9.644 0 0 1-9.458-7.56c-.003-.015-.011-.022-.015-.034a9.8 9.8 0 0 1-.23-2.11c0-1.93.566-3.796 1.632-5.39a1.213 1.213 0 1 0-2.015-1.352 12.1 12.1 0 0 0-2.043 6.742c0 .38.027.758.062 1.137-4.808-.57-8.555-4.668-8.555-9.629 0-1.152.211-2.297.63-3.406a9.8 9.8 0 0 1 3.687-4.664 1.22 1.22 0 0 0 .332-1.684 1.21 1.21 0 0 0-1.684-.332 12.3 12.3 0 0 0-3.996 4.45 9.72 9.72 0 0 1-3.82-7.708 9.73 9.73 0 0 1 4.945-8.449c.063-.035.262-.152.309-.176a9.6 9.6 0 0 1 4.449-1.078 9.67 9.67 0 0 1 7.55 3.606 1.21 1.21 0 0 0 1.703.18 1.21 1.21 0 0 0 .18-1.708 12.08 12.08 0 0 0-9.433-4.503c-1.578 0-3.145.324-4.598.921a9.7 9.7 0 0 1-.254-2.136c0-4.942 3.72-9.028 8.555-9.617-.035.375-.062.75-.062 1.125 0 1.39.23 2.75.691 4.046a1.216 1.216 0 0 0 1.547.739c.633-.223.965-.918.738-1.547a9.8 9.8 0 0 1-.32-5.348c.004-.012.012-.023.015-.035a9.644 9.644 0 0 1 12.047-7.191 9.7 9.7 0 0 1 3.512 1.789 1.21 1.21 0 0 0 1.703-.18 1.21 1.21 0 0 0-.18-1.707 12.2 12.2 0 0 0-2.863-1.7 7.24 7.24 0 0 1 4.942-3.32V38.34c-4.778-.602-8.489-4.68-8.489-9.621a1.213 1.213 0 0 0-2.425 0c0 1.37.238 2.683.66 3.914a6.06 6.06 0 0 0-4.11 4.277 1.212 1.212 0 0 0 1.176 1.516 1.22 1.22 0 0 0 1.176-.91 3.63 3.63 0 0 1 2.613-2.618c.055-.011.098-.05.149-.07 1.914 3.266 5.3 5.567 9.25 5.961v26.824a9.73 9.73 0 0 0-6.75 4.082 1.214 1.214 0 0 0 .996 1.907c.383 0 .758-.184.996-.52a7.27 7.27 0 0 1 4.758-3.004V89.27a7.25 7.25 0 0 1-5.528-4.438m40.707-29.426a2.426 2.426 0 1 1 0-4.851 2.426 2.426 0 0 1 0 4.851m0 0"/></g><path fill="#fff" d="M74.816 25.082h2.426v2.426h-2.426Zm4.852 0h7.277v2.426h-7.277Zm-6.066 20.621h2.425v2.426h-2.425Zm-9.704 0h7.278v2.426h-7.278Zm20.622 32.75h2.425v2.426H84.52Zm-9.704 0h7.278v2.426h-7.278ZM63.898 57.832h2.426v2.426h-2.426Zm4.852 0h7.277v2.426H68.75Zm0 0"/></svg>