<svg xmlns="http://www.w3.org/2000/svg" width="130" height="130" version="1.0" viewBox="0 0 97.5 97.5"><defs><clipPath id="a"><path d="M0 0h96.746v96.746H0Zm0 0"/></clipPath><clipPath id="b"><path d="M48.371 0C21.656 0 0 21.656 0 48.371 0 75.09 21.656 96.746 48.371 96.746c26.719 0 48.375-21.656 48.375-48.375C96.746 21.656 75.09 0 48.371 0m0 0"/></clipPath><clipPath id="c"><path d="M14.316 14H82.22v72.957H14.316Zm0 0"/></clipPath></defs><g clip-path="url(#a)"><g clip-path="url(#b)"><path fill="none" stroke="#1d2896" stroke-width="2.985" d="M48.371 0C21.656 0 0 21.656 0 48.371 0 75.09 21.656 96.746 48.371 96.746c26.719 0 48.375-21.656 48.375-48.375C96.746 21.656 75.09 0 48.371 0Zm0 0"/></g></g><g clip-path="url(#c)"><path fill="#1d2896" d="M69.906 76.703H26.72V23.914h43.187Zm-29.867 6.68-2.023-4.293H49.14ZM17.52 35.656l6.794-3.215v17.61Zm39.06-18.422 2.026 4.282h-11.12Zm22.523 47.727L72.3 68.176V50.555ZM72.3 70.816l9.996-4.707L72.3 44.926v-23.41H61.25l-3.523-7.485-15.872 7.485H24.313V29.8l-9.997 4.715 9.997 21.18v23.406h11.054l3.531 7.484 15.872-7.484H72.3z"/></g><path fill="#1d2896" d="M42.313 41.91h-9.598V29.914h9.597Zm2.394-14.398H30.313v16.8h14.394zm3.602 0h17.996v2.402H48.309zm0 7.203h17.996v2.394H48.309zm0 7.195h17.996v2.403H48.309zm-17.996 7.2h35.992v2.398H30.312zm0 7.203h16.796v2.394H30.313zm31.875 13.39-.739 1.113-.988-1.71a7.8 7.8 0 0 0 2.16-1.06l.902 1.575Zm-7.137 1.113-.739-1.113-1.347-.082.726-1.258c.704.399 1.446.715 2.254.895Zm2.855-15.707a6 6 0 1 1 0 12 6 6 0 0 1-5.996-6.004 5.995 5.995 0 0 1 5.996-5.996m8.399 5.996c0-4.625-3.77-8.394-8.399-8.394-4.625 0-8.394 3.77-8.394 8.394 0 2.227.87 4.243 2.293 5.758l-2.84 4.926 4.012.246 2.218 3.356 3.059-5.301 3.05 5.3 2.22-3.355 4.011-.246-3.117-5.398a8.3 8.3 0 0 0 1.887-5.286"/></svg>