<svg xmlns="http://www.w3.org/2000/svg" width="282" height="109" version="1.0" viewBox="0 0 211.5 81.75"><defs><clipPath id="a"><path d="M12.895 0h197.289v77.227H12.894Zm0 0"/></clipPath><clipPath id="b"><path d="M.074 5h76.254v76.254H.074Zm0 0"/></clipPath><clipPath id="c"><path d="M38.2 5C17.144 5 .073 22.07.073 43.125c0 21.059 17.07 38.129 38.125 38.129 21.059 0 38.13-17.07 38.13-38.129C76.328 22.07 59.257 5 38.198 5m0 0"/></clipPath><clipPath id="d"><path d="M31 15.902h34V53H31Zm0 0"/></clipPath><clipPath id="e"><path d="M11.422 31H45v37H11.422Zm0 0"/></clipPath></defs><g clip-path="url(#a)"><path fill="#fff" d="M12.895 0h197.293v77.227H12.894Zm0 0"/></g><g clip-path="url(#b)"><g clip-path="url(#c)"><path fill="none" stroke="#1d2896" stroke-width="2.991" d="M38.2 5C17.144 5 .073 22.07.073 43.125c0 21.059 17.07 38.129 38.125 38.129 21.059 0 38.13-17.07 38.13-38.129C76.328 22.07 59.257 5 38.198 5Zm0 0"/></g></g><g clip-path="url(#d)"><path fill="#1d2896" d="M48.152 52.816a1.4 1.4 0 0 1-.761-.226l-5.563-3.594a1.38 1.38 0 0 1-.64-1.101 1.37 1.37 0 0 1 .515-1.165l5.133-4.183c.41-.336.969-.41 1.453-.195.488.214.805.675.836 1.207l.082 1.52a12.257 12.257 0 0 0 11.172-12.571 12.23 12.23 0 0 0-3.828-8.61 12.23 12.23 0 0 0-8.793-3.39c-5.496.137-10.281 3.953-11.63 9.277a2.25 2.25 0 0 1-1.038 1.395 2.276 2.276 0 0 1-3.371-2.512c1.847-7.293 8.398-12.52 15.926-12.707a16.7 16.7 0 0 1 6.59 1.16c2.027.8 3.863 1.973 5.449 3.484a16.8 16.8 0 0 1 3.75 5.266 16.7 16.7 0 0 1 1.492 6.524 16.7 16.7 0 0 1-1.114 6.468 16.9 16.9 0 0 1-3.355 5.383 16.9 16.9 0 0 1-5.094 3.77 16.7 16.7 0 0 1-5.906 1.601l.098 1.715a1.4 1.4 0 0 1-.7 1.293 1.4 1.4 0 0 1-.703.191m-.433-9.734a.55.55 0 0 0-.344.125l-5.133 4.184a.54.54 0 0 0-.203.457c.008.18.102.336.25.433l5.563 3.594a.55.55 0 0 0 .578.012.55.55 0 0 0 .273-.508l-.117-2.133a.42.42 0 0 1 .398-.45 15.94 15.94 0 0 0 15.09-16.382 15.9 15.9 0 0 0-4.976-11.191c-3.106-2.95-7.164-4.516-11.43-4.41-7.148.18-13.367 5.14-15.121 12.066a1.427 1.427 0 0 0 1.027 1.727 1.42 1.42 0 0 0 1.727-1.031c1.445-5.692 6.558-9.774 12.437-9.923a13.16 13.16 0 0 1 9.402 3.629 13.1 13.1 0 0 1 2.926 4.114 13.1 13.1 0 0 1 1.168 5.093 13.14 13.14 0 0 1-3.488 9.25 13.14 13.14 0 0 1-8.914 4.223.4.4 0 0 1-.309-.11.42.42 0 0 1-.144-.292l-.106-1.954a.54.54 0 0 0-.328-.472.5.5 0 0 0-.226-.051m0 0"/></g><g clip-path="url(#e)"><path fill="#1d2896" d="M28.336 67.871c-9.102 0-16.621-7.289-16.852-16.441a16.7 16.7 0 0 1 1.118-6.47 16.9 16.9 0 0 1 3.355-5.382 16.9 16.9 0 0 1 5.09-3.77 16.7 16.7 0 0 1 5.906-1.601l-.094-1.715a1.39 1.39 0 0 1 .696-1.293 1.39 1.39 0 0 1 1.465.035l5.566 3.594c.379.246.613.649.637 1.102.027.453-.16.879-.512 1.164l-5.137 4.183a1.404 1.404 0 0 1-2.29-1.012l-.08-1.519a12.257 12.257 0 0 0-11.173 12.57 12.23 12.23 0 0 0 3.828 8.61 12.22 12.22 0 0 0 8.793 3.39c5.5-.136 10.282-3.953 11.63-9.277a2.25 2.25 0 0 1 1.042-1.394 2.25 2.25 0 0 1 1.719-.25 2.29 2.29 0 0 1 1.719 2.144q.005.312-.07.617c-1.848 7.293-8.399 12.52-15.926 12.707q-.216.007-.43.008m-.074-36.008a.54.54 0 0 0-.278.075.54.54 0 0 0-.273.507l.117 2.133a.43.43 0 0 1-.402.45 15.94 15.94 0 0 0-15.09 16.382c.219 8.688 7.36 15.606 16 15.606q.205.001.41-.004c7.145-.18 13.363-5.14 15.117-12.067q.048-.188.043-.383a1.43 1.43 0 0 0-1.07-1.343 1.42 1.42 0 0 0-1.727 1.031c-1.441 5.691-6.554 9.773-12.437 9.922l-.336.004a13 13 0 0 1-4.809-.914 13.1 13.1 0 0 1-4.254-2.719 13.1 13.1 0 0 1-2.93-4.113 13 13 0 0 1-1.163-5.094 13 13 0 0 1 .867-5.047 13.2 13.2 0 0 1 2.621-4.203 13.13 13.13 0 0 1 8.91-4.223.44.44 0 0 1 .313.11c.082.074.132.18.14.293l.106 1.953a.54.54 0 0 0 .328.472.54.54 0 0 0 .57-.074l5.137-4.183a.54.54 0 0 0 .2-.457.53.53 0 0 0-.25-.434l-5.563-3.594a.56.56 0 0 0-.297-.086m0 0"/></g><path fill="#1d2896" d="M28.113 58.297c-1.668 0-3.242-.113-4.43-.32-.597-.106-1.07-.23-1.41-.372-.183-.074-.75-.308-.75-.812v-.004c0-.105.004-1.777.508-3.473.707-2.386 2.063-3.668 3.922-3.703.102 0 .203-.004.309-.004h.008a.425.425 0 0 1 .007.852q-.157.002-.308.004c-1.469.031-2.52 1.07-3.121 3.094-.41 1.386-.461 2.789-.47 3.144.11.078.513.293 1.767.484 1.097.165 2.507.258 3.968.258s2.871-.093 3.969-.258c1.246-.19 1.652-.402 1.766-.48-.043-.66-.52-6.133-3.774-6.234q-.176-.001-.347-.008a.427.427 0 0 1 .023-.852q.17.001.348.008c1.785.055 3.148 1.332 3.945 3.688.574 1.695.656 3.351.66 3.421v.063c0 .504-.562.738-.746.812q-.511.212-1.41.372c-1.188.207-2.762.32-4.434.32m0 0"/><path fill="#1d2896" d="M28.008 50.977c-2.043 0-3.703-1.711-3.703-3.817 0-2.101 1.66-3.812 3.703-3.812 2.039 0 3.699 1.71 3.699 3.812 0 2.106-1.66 3.817-3.7 3.817m0-6.778c-1.57 0-2.848 1.328-2.848 2.961 0 1.637 1.277 2.965 2.848 2.965s2.847-1.328 2.847-2.965c0-1.633-1.277-2.96-2.847-2.96m19.591-5.223c-1.672 0-3.243-.114-4.43-.32-.598-.106-1.074-.231-1.41-.372-.188-.074-.75-.308-.75-.812v-.004c0-.121.004-1.785.508-3.473.707-2.387 2.062-3.668 3.922-3.703l.304-.004h.008a.427.427 0 0 1 .008.852l-.305.004c-1.473.03-2.52 1.07-3.121 3.093-.41 1.387-.465 2.79-.469 3.145.11.078.512.293 1.766.484 1.098.164 2.508.258 3.969.258s2.87-.094 3.968-.258c1.246-.191 1.653-.402 1.766-.48-.047-.664-.52-6.133-3.777-6.235q-.174-.001-.344-.007a.427.427 0 0 1 .012-.852h.011q.171.001.348.008c1.781.054 3.148 1.332 3.945 3.687.575 1.696.657 3.352.66 3.422v.063c0 .504-.562.738-.746.812-.34.14-.816.266-1.41.371-1.191.207-2.761.32-4.433.32m0 0"/><path fill="#1d2896" d="M47.488 31.656c-2.039 0-3.699-1.71-3.699-3.816 0-2.102 1.66-3.813 3.7-3.813 2.042 0 3.699 1.711 3.699 3.813 0 2.105-1.657 3.816-3.7 3.816m0-6.777c-1.57 0-2.847 1.328-2.847 2.96 0 1.638 1.277 2.966 2.847 2.966s2.848-1.328 2.848-2.965c0-1.633-1.277-2.961-2.848-2.961m0 0"/></svg>