<svg xmlns="http://www.w3.org/2000/svg" width="282" height="109" version="1.0" viewBox="0 0 211.5 81.75"><defs><clipPath id="a"><path d="M12.895 0h197.289v77.227H12.894Zm0 0"/></clipPath><clipPath id="b"><path d="M.074 5h76.254v76.254H.074Zm0 0"/></clipPath><clipPath id="c"><path d="M38.2 5C17.144 5 .073 22.07.073 43.125c0 21.059 17.07 38.129 38.125 38.129 21.059 0 38.13-17.07 38.13-38.129C76.328 22.07 59.257 5 38.198 5m0 0"/></clipPath><clipPath id="d"><path d="M39 34h27.688v29H39Zm0 0"/></clipPath><clipPath id="e"><path d="M11.36 27H40v29H11.36Zm0 0"/></clipPath><clipPath id="f"><path d="M30 13.742h18V26H30Zm0 0"/></clipPath><clipPath id="g"><path d="M18 46h42v23.074H18Zm0 0"/></clipPath></defs><g clip-path="url(#a)"><path fill="#fff" d="M12.895 0h197.293v77.227H12.894Zm0 0"/></g><g clip-path="url(#b)"><g clip-path="url(#c)"><path fill="none" stroke="#1d2896" stroke-width="2.991" d="M38.2 5C17.144 5 .073 22.07.073 43.125c0 21.059 17.07 38.129 38.125 38.129 21.059 0 38.13-17.07 38.13-38.129C76.328 22.07 59.257 5 38.198 5Zm0 0"/></g></g><g clip-path="url(#d)"><path fill="#1d2896" d="M65.55 35.902c-1.698-1.718-4.718-1.703-6.421 0L43.063 51.97c-.07.054-.106.105-.176.176 0 .015-.032.015-.032.035-.035.015-.035.05-.054.066a13.3 13.3 0 0 0-3.68 9.215c0 .488.383.871.871.871 3.453 0 6.696-1.305 9.211-3.68.02-.02.055-.02.07-.054.02 0 .02-.032.036-.032.07-.07.12-.105.175-.175l16.067-16.07a4.45 4.45 0 0 0 1.336-3.208 4.52 4.52 0 0 0-1.336-3.21m-1.214 5.207L48.668 56.762l-3.977-3.977 15.653-15.668a2.86 2.86 0 0 1 1.996-.816c.746 0 1.476.293 1.996.816.52.52.816 1.25.816 1.996s-.297 1.457-.816 1.996m0 0"/></g><g clip-path="url(#e)"><path fill="#1d2896" d="m38.188 39.234-2.086-1.023a11 11 0 0 0-.848-2.05L36 33.956a1.69 1.69 0 0 0-.418-1.734l-1.039-1.059a1.72 1.72 0 0 0-1.215-.504c-.176 0-.367.035-.539.086l-2.203.746c-.66-.344-1.336-.64-2.047-.847l-1.023-2.082a1.73 1.73 0 0 0-1.528-.938h-1.492c-.644 0-1.234.363-1.527.938l-1.024 2.082c-.715.207-1.39.503-2.05.847l-2.204-.746c-.625-.207-1.285-.031-1.753.418l-1.04 1.059a1.69 1.69 0 0 0-.418 1.734l.747 2.203a11 11 0 0 0-.848 2.05l-2.082 1.024a1.72 1.72 0 0 0-.938 1.528v1.492c0 .64.364 1.23.938 1.527l2.082 1.024c.207.71.5 1.386.848 2.047l-.747 2.203a1.69 1.69 0 0 0 .418 1.734l1.04 1.059a1.76 1.76 0 0 0 1.753.418l2.204-.746c.66.347 1.335.64 2.05.851l1.024 2.082c.293.57.883.938 1.527.938h1.492c.64 0 1.23-.368 1.528-.938l1.023-2.082c.711-.21 1.387-.504 2.047-.851l2.203.746a1.76 1.76 0 0 0 1.754-.418l1.039-1.059A1.69 1.69 0 0 0 36 49.055l-.746-2.203c.348-.66.64-1.336.848-2.047l2.086-1.024c.57-.297.933-.886.933-1.527v-1.492a1.72 1.72 0 0 0-.934-1.528m-6.004 2.274a6.941 6.941 0 1 1-13.883 0 6.94 6.94 0 0 1 6.941-6.942 6.94 6.94 0 0 1 6.942 6.942m0 0"/></g><path fill="#1d2896" d="M26.977 41.508q.001.343-.133.664-.135.316-.375.562a1.75 1.75 0 0 1-1.227.508 1.7 1.7 0 0 1-.664-.133 1.7 1.7 0 0 1-.566-.375 1.8 1.8 0 0 1-.375-.562 1.8 1.8 0 0 1-.133-.664 1.75 1.75 0 0 1 .508-1.227 1.74 1.74 0 0 1 1.894-.379 1.76 1.76 0 0 1 .938.942q.134.316.133.664m0 0"/><g clip-path="url(#f)"><path fill="#1d2896" d="M45.195 17.21h-1.164a5.23 5.23 0 0 0-4.91-3.468 5.22 5.22 0 0 0-4.906 3.469H33.05a2.607 2.607 0 0 0-2.606 2.605v5.204c0 .48.39.87.867.87h15.622a.87.87 0 0 0 .867-.87v-5.204a2.607 2.607 0 0 0-2.606-2.605m-6.074 3.474a1.74 1.74 0 0 1-1.734-1.735c0-.957.777-1.738 1.734-1.738a1.74 1.74 0 0 1 1.738 1.738 1.74 1.74 0 0 1-1.738 1.735m0 0"/></g><path fill="#1d2896" d="M55.61 41.145a.9.9 0 0 1-.34-.07.86.86 0 0 1-.528-.798V25.891H23.504v4.87a.87.87 0 0 1-.543.81l-3.469 1.394a.87.87 0 0 1-.812-.086.87.87 0 0 1-.38-.719v-7.14a4.34 4.34 0 0 1 4.337-4.336h8.676a.867.867 0 1 1 0 1.734h-8.676a2.606 2.606 0 0 0-2.602 2.602v5.855l1.735-.7V25.02a.87.87 0 0 1 .867-.868h32.972a.87.87 0 0 1 .868.868v13.222l1.734-1.668V25.02a2.606 2.606 0 0 0-2.602-2.602h-8.675a.87.87 0 0 1-.871-.867c0-.48.39-.867.87-.867h8.676a4.34 4.34 0 0 1 4.336 4.336v11.925a.88.88 0 0 1-.265.625l-3.47 3.332a.9.9 0 0 1-.6.243m0 0"/><path fill="#1d2896" d="M50.402 31.094h-6.941a.868.868 0 0 1 0-1.734h6.941a.868.868 0 0 1 0 1.734m0 5.206H34.59a.868.868 0 0 1 0-1.734h15.812a.868.868 0 0 1 0 1.734m0 5.208H38.246a.869.869 0 0 1 0-1.738h12.156a.869.869 0 0 1 0 1.738M36.52 60.594h-8.676a.868.868 0 0 1 0-1.734h8.676a.868.868 0 0 1 0 1.734m0 0"/><g clip-path="url(#g)"><path fill="#1d2896" d="M55.61 69.27H22.636a4.34 4.34 0 0 1-4.336-4.336V50.855c0-.273.125-.527.344-.69a.86.86 0 0 1 .757-.145l3.473.98a.86.86 0 0 1 .629.836v12.23h31.238V51.051c0-.23.09-.453.25-.614l3.473-3.472a.867.867 0 0 1 1.48.617v17.352a4.34 4.34 0 0 1-4.336 4.336M20.034 52v12.934a2.606 2.606 0 0 0 2.602 2.601h32.972a2.606 2.606 0 0 0 2.602-2.601V49.676l-1.734 1.734v13.524a.87.87 0 0 1-.868.867H22.637a.87.87 0 0 1-.867-.867V52.492Zm0 0"/></g></svg>