<svg xmlns="http://www.w3.org/2000/svg" width="156" height="51" version="1.0" viewBox="0 0 116.88 38.25"><defs><clipPath id="a"><path d="M1.066.035h114.012v37.453H1.066Zm0 0"/></clipPath></defs><g fill="#ff1d25" clip-path="url(#a)"><path d="M101.031 4.594H34.082a20.35 20.35 0 0 1 5.715 14.168 20.35 20.35 0 0 1-5.715 14.168h66.95c7.726 0 14.046-6.375 14.046-14.168s-6.32-14.168-14.047-14.168m-50.3 18.136-1.442-5.46-1.437 5.46h-1.59l-1.727-7.304h1.496l1.094 5.02 1.324-5.02h1.739l1.269 5.101 1.11-5.101h1.476l-1.762 7.304Zm8.44 0-.632-1.66h-2.898l-.598 1.66h-1.55l2.823-7.304h1.547l2.899 7.304Zm6.852-6.07H63.88v6.07h-1.461v-6.07H60.27v-1.234h5.753Zm5.915 5.617c-.504.387-1.149.578-1.926.578q-1.44 0-2.371-.996-.93-.991-.93-2.714c0-1.22.312-2.16.934-2.836.625-.672 1.44-1.008 2.457-1.008.886 0 1.605.261 2.16.793.328.308.578.761.742 1.343l-1.45.352a1.55 1.55 0 0 0-.534-.898c-.274-.223-.602-.328-.993-.328q-.803 0-1.308.582c-.332.386-.5 1.02-.5 1.886q-.001 1.39.496 1.977a1.6 1.6 0 0 0 1.281.586q.587.002 1.004-.371c.281-.25.48-.641.605-1.176l1.418.453q-.326 1.194-1.085 1.777m8.136.453H78.61v-3.195h-2.863v3.195h-1.465v-7.304h1.465V18.3h2.863v-2.875h1.465Zm10.086 0h-1.469l-2.918-4.761v4.761h-1.359v-7.304h1.422l2.965 4.879v-4.88h1.36Zm7.324-.875q-.953 1.001-2.55 1-1.617 0-2.57-.996-.953-.991-.954-2.738 0-1.114.332-1.871.247-.56.676-1.004a2.8 2.8 0 0 1 .934-.656q.678-.291 1.562-.29 1.6 0 2.563 1 .96 1.003.96 2.79.001 1.77-.953 2.765m9.141.875h-1.55l-1.442-5.46-1.442 5.46h-1.586l-1.726-7.304h1.496l1.094 5.02 1.32-5.02h1.742l1.27 5.101 1.113-5.101h1.473Zm-10.246-5.55q.546.615.547 1.875-.001 1.269-.559 1.906-.563.633-1.437.633c-.586 0-1.063-.211-1.442-.637-.379-.43-.57-1.055-.57-1.883q0-1.26.555-1.887.55-.625 1.457-.625.903-.002 1.449.618m-39.309-.051 1 2.71h-1.98ZM31.758 4.594A18.38 18.38 0 0 0 19.633.035C9.395.035 1.066 8.434 1.066 18.762c0 10.324 8.329 18.726 18.567 18.726 4.633 0 8.87-1.718 12.129-4.558a18.75 18.75 0 0 0 6.437-14.168 18.75 18.75 0 0 0-6.441-14.168m-.668 15.312-6.477 4.446c-.914.628-2.41 1.66-3.328 2.289l-6.472 4.445c-.918.629-1.665.113-1.665-1.145V7.582c0-1.258.747-1.773 1.665-1.144l6.472 4.445c.918.629 2.414 1.66 3.328 2.289l6.477 4.445c.914.63.914 1.656 0 2.29"/><path d="M101.031 4.594H34.082a20.35 20.35 0 0 1 5.715 14.168 20.35 20.35 0 0 1-5.715 14.168h66.95c7.726 0 14.046-6.375 14.046-14.168s-6.32-14.168-14.047-14.168m-50.3 18.136-1.442-5.46-1.437 5.46h-1.59l-1.727-7.304h1.496l1.094 5.02 1.324-5.02h1.739l1.269 5.101 1.11-5.101h1.476l-1.762 7.304Zm8.44 0-.632-1.66h-2.898l-.598 1.66h-1.55l2.823-7.304h1.547l2.899 7.304Zm6.852-6.07H63.88v6.07h-1.461v-6.07H60.27v-1.234h5.753Zm5.915 5.617c-.504.387-1.149.578-1.926.578q-1.44 0-2.371-.996-.93-.991-.93-2.714c0-1.22.312-2.16.934-2.836.625-.672 1.44-1.008 2.457-1.008.886 0 1.605.261 2.16.793.328.308.578.761.742 1.343l-1.45.352a1.55 1.55 0 0 0-.534-.898c-.274-.223-.602-.328-.993-.328q-.803 0-1.308.582c-.332.386-.5 1.02-.5 1.886q-.001 1.39.496 1.977a1.6 1.6 0 0 0 1.281.586q.587.002 1.004-.371c.281-.25.48-.641.605-1.176l1.418.453q-.326 1.194-1.085 1.777m8.136.453H78.61v-3.195h-2.863v3.195h-1.465v-7.304h1.465V18.3h2.863v-2.875h1.465Zm10.086 0h-1.469l-2.918-4.761v4.761h-1.359v-7.304h1.422l2.965 4.879v-4.88h1.36Zm7.324-.875q-.953 1.001-2.55 1-1.617 0-2.57-.996-.953-.991-.954-2.738 0-1.114.332-1.871.247-.56.676-1.004a2.8 2.8 0 0 1 .934-.656q.678-.291 1.562-.29 1.6 0 2.563 1 .96 1.003.96 2.79.001 1.77-.953 2.765m9.141.875h-1.55l-1.442-5.46-1.442 5.46h-1.586l-1.726-7.304h1.496l1.094 5.02 1.32-5.02h1.742l1.27 5.101 1.113-5.101h1.473Zm-10.246-5.55q.546.615.547 1.875-.001 1.269-.559 1.906-.563.633-1.437.633c-.586 0-1.063-.211-1.442-.637-.379-.43-.57-1.055-.57-1.883q0-1.26.555-1.887.55-.625 1.457-.625.903-.002 1.449.618m-39.309-.051 1 2.71h-1.98ZM31.758 4.594A18.38 18.38 0 0 0 19.633.035C9.395.035 1.066 8.434 1.066 18.762c0 10.324 8.329 18.726 18.567 18.726 4.633 0 8.87-1.718 12.129-4.558a18.75 18.75 0 0 0 6.437-14.168 18.75 18.75 0 0 0-6.441-14.168m-.668 15.312-6.477 4.446c-.914.628-2.41 1.66-3.328 2.289l-6.472 4.445c-.918.629-1.665.113-1.665-1.145V7.582c0-1.258.747-1.773 1.665-1.144l6.472 4.445c.918.629 2.414 1.66 3.328 2.289l6.477 4.445c.914.63.914 1.656 0 2.29"/></g></svg>