<svg xmlns="http://www.w3.org/2000/svg" width="252" height="51" version="1.0" viewBox="0 0 189 38.25"><defs><clipPath id="a"><path d="M2 .734h183.71v36.043H2Zm0 0"/></clipPath><clipPath id="b"><path d="M158.848 10.113h17.617V27.73h-17.617Zm0 0"/></clipPath><clipPath id="c"><path d="M167.656 10.113a8.81 8.81 0 0 0-8.808 8.809 8.81 8.81 0 0 0 8.808 8.808 8.81 8.81 0 0 0 8.809-8.808 8.81 8.81 0 0 0-8.809-8.809m0 0"/></clipPath><clipPath id="d"><path d="M162.059 11.66H173V27h-10.941Zm0 0"/></clipPath><clipPath id="e"><path d="M165 11.66h2V16h-2Zm0 0"/></clipPath><clipPath id="f"><path d="M169 22h4.094v4H169Zm0 0"/></clipPath><clipPath id="g"><path d="M2.555 0h183.89v36.043H2.555Zm0 0"/></clipPath><clipPath id="h"><path d="M159.582 9.375h17.617v17.617h-17.617Zm0 0"/></clipPath><clipPath id="i"><path d="M168.39 9.375a8.81 8.81 0 0 0-8.808 8.809 8.81 8.81 0 0 0 8.809 8.808 8.806 8.806 0 0 0 8.808-8.808 8.81 8.81 0 0 0-8.808-8.809m0 0"/></clipPath><clipPath id="j"><path d="M162.797 11h11.031v15h-11.031Zm0 0"/></clipPath><clipPath id="k"><path d="M166 10.922h2V16h-2Zm0 0"/></clipPath><clipPath id="l"><path d="M170 21h3.828v4H170Zm0 0"/></clipPath></defs><g clip-path="url(#a)"><path fill="#38b6ff" d="M167.79 37.086H19.991c-9.914 0-17.949-8.04-17.949-17.953v-.453c0-9.914 8.035-17.95 17.95-17.95h147.796c9.914 0 17.95 8.036 17.95 17.95v.453c0 9.914-8.036 17.953-17.95 17.953"/></g><path fill="#fff" d="M166.836 8.148c-5.934 0-10.758 4.829-10.758 10.758 0 5.934 4.824 10.758 10.758 10.758 5.93 0 10.754-4.824 10.754-10.758 0-5.93-4.824-10.758-10.754-10.758"/><path fill="#38b6ff" d="m163.219 14.703 4.207 4.203-4.207 4.207 1.562 1.563 5.77-5.77-5.77-5.77z"/><g clip-path="url(#b)"><g clip-path="url(#c)"><path fill="#fff" d="M158.848 10.113h17.617V27.73h-17.617Zm0 0"/></g></g><g clip-path="url(#d)"><path fill="#38b6ff" d="M165.332 11.746s-3.254.043-3.21 2.992c.042 2.95.632 5.555 1.605 7.008.972 1.453 3.464 5.254 6.296 4.871 0 0 1.395-.3 2.454-.984l-3.426-2.692s-1.012.641-1.649-.214c-.632-.852-2.62-4.829-2.62-4.829s-.548-1.28.679-1.835Zm0 0"/></g><g clip-path="url(#e)"><path fill="#38b6ff" d="M165.715 11.746s.25-.086.715.172c.465.254.465.469.465.469l.042 2.949s-.125.172-.292.34c-.172.172-.72.43-.805.258s-.125-4.188-.125-4.188m0 0"/></g><g clip-path="url(#f)"><path fill="#38b6ff" d="m169.336 22.625.941-.496s.211-.043.551.172c.336.215 2.113 1.625 2.113 1.625s.297.254.211.554-.297.942-.297.942Zm0 0"/></g><g clip-path="url(#g)"><path fill="#38b6ff" d="M168.523 36.348H20.73c-9.914 0-17.953-8.035-17.953-17.95v-.453c0-9.914 8.04-17.953 17.953-17.953h147.793c9.915 0 17.954 8.04 17.954 17.953v.453c0 9.915-8.04 17.95-17.954 17.95"/></g><path fill="#fff" d="M167.57 7.414c-5.933 0-10.757 4.828-10.757 10.758s4.824 10.758 10.757 10.758c5.93 0 10.758-4.828 10.758-10.758S173.5 7.414 167.57 7.414"/><path fill="#38b6ff" d="m163.953 13.965 4.207 4.207-4.207 4.207 1.563 1.562 5.773-5.77-5.773-5.769z"/><g clip-path="url(#h)"><g clip-path="url(#i)"><path fill="#fff" d="M159.582 9.375h17.617v17.617h-17.617Zm0 0"/></g></g><g clip-path="url(#j)"><path fill="#38b6ff" d="M166.066 11.012s-3.254.043-3.21 2.992c.042 2.945.632 5.555 1.605 7.008.973 1.449 3.465 5.254 6.3 4.87 0 0 1.395-.3 2.45-.984l-3.422-2.691s-1.016.64-1.648-.215c-.637-.855-2.621-4.828-2.621-4.828s-.551-1.281.675-1.836Zm0 0"/></g><g clip-path="url(#k)"><path fill="#38b6ff" d="M166.45 11.012s.253-.086.718.172c.465.254.465.468.465.468l.043 2.95s-.13.168-.297.34c-.168.171-.719.43-.805.257-.082-.172-.125-4.187-.125-4.187m0 0"/></g><g clip-path="url(#l)"><path fill="#38b6ff" d="m170.07 21.89.942-.495s.215-.043.55.171c.34.215 2.114 1.625 2.114 1.625s.297.254.21.555c-.081.297-.296.938-.296.938Zm0 0"/></g></svg>