<svg xmlns="http://www.w3.org/2000/svg" width="130" height="130" version="1.0" viewBox="0 0 97.5 97.5"><defs><clipPath id="a"><path d="M0 0h96.746v96.746H0Zm0 0"/></clipPath><clipPath id="b"><path d="M48.371 0C21.656 0 0 21.656 0 48.371 0 75.09 21.656 96.746 48.371 96.746c26.719 0 48.375-21.656 48.375-48.375C96.746 21.656 75.09 0 48.371 0m0 0"/></clipPath><clipPath id="c"><path d="M17 17.492h63V77.93H17Zm0 0"/></clipPath></defs><g clip-path="url(#a)"><g clip-path="url(#b)"><path fill="none" stroke="#1d2896" stroke-width="2.985" d="M48.371 0C21.656 0 0 21.656 0 48.371 0 75.09 21.656 96.746 48.371 96.746c26.719 0 48.375-21.656 48.375-48.375C96.746 21.656 75.09 0 48.371 0Zm0 0"/></g></g><g clip-path="url(#c)"><path fill="#1d2896" d="M66.828 49.059c-3.23 0-5.851 2.636-5.851 5.867.156 7.207 10.437 7.96 11.644.875.586-3.496-2.242-6.766-5.793-6.742m4.465 6.355c-.746 5.559-8.816 5.145-8.95-.488.29-6.27 9.352-5.758 8.95.488m7.363 2.61a1.367 1.367 0 0 0 1.246-1.344v-3.535c0-.696-.527-1.27-1.222-1.356l-2.29-.23a8 8 0 0 0-.44-1.036l1.452-1.77a1.354 1.354 0 0 0-.086-1.827l-2.5-2.489c-.574-.585-1.464-.488-2.011.075V24.71c0-3.977-3.246-7.219-7.22-7.219H21.91c-5.597.195-5.625 8.266 0 8.473h2.828V70.91c0 3.977 3.242 7.219 7.219 7.219h43.7c5.609-.195 5.609-8.281 0-8.473h-2.852v-4.332c.547.563 1.449.66 2.011.074l2.5-2.5c.489-.5.524-1.293.086-1.816l-1.465-1.781c.172-.34.317-.719.438-1.047ZM21.922 24.585c-3.781-.121-3.781-5.594 0-5.719h36.457c-1.477 1.551-1.477 4.195 0 5.719Zm14.156 52.176h-4.11a5.85 5.85 0 0 1-5.84-5.84V25.965h35.384c.902 0 .902-1.38 0-1.38a2.875 2.875 0 0 1-2.864-2.862c0-1.38.989-2.535 2.278-2.805.234-.098 4.304-.05 4.672-.063a5.85 5.85 0 0 1 5.84 5.84v20.903l-.22.183a10 10 0 0 0-1.034-.43l-.235-2.304a1.357 1.357 0 0 0-1.351-1.195h-3.524c-.683 0-1.281.515-1.355 1.207l-.242 2.293c-.344.125-.696.27-1.036.43l-1.78-1.454a1.337 1.337 0 0 0-1.817.098l-2.512 2.488a1.385 1.385 0 0 0-.098 1.816l1.45 1.782a10 10 0 0 0-.426 1.035l-2.305.23a1.36 1.36 0 0 0-1.195 1.356v3.535c0 .672.535 1.281 1.219 1.34l2.293.246c.109.316.27.707.437 1.047l-1.46 1.804a1.37 1.37 0 0 0 .097 1.805l2.488 2.477a1.337 1.337 0 0 0 1.828.11l1.781-1.45c.329.156.68.305 1.036.437l.242 2.293a1.354 1.354 0 0 0 1.355 1.22h3.524c.683 0 1.27-.513 1.351-1.22l.235-2.293q.544-.2 1.035-.437l.219.18v5.453h-35.36a.677.677 0 0 0-.683.695c0 .375.304.684.683.684.754 0 1.438.304 1.95.777 1.89 1.66.597 4.977-1.95 4.926m39.578-5.719c3.781.125 3.781 5.598 0 5.719H39.2c1.477-1.535 1.461-4.219 0-5.719zM74.61 59.84l1.743 2.097-2.461 2.485-2.16-1.73c-.22-.172-.524-.208-.754-.075q-.734.404-1.649.696a.71.71 0 0 0-.476.585l-.254 2.707-3.5.024-.282-2.73a.7.7 0 0 0-.476-.587 8.5 8.5 0 0 1-1.645-.695.7.7 0 0 0-.754.074l-2.097 1.73c-.344-.339-2.196-2.179-2.5-2.46l1.742-2.121c.367-.414-.012-.903-.184-1.293-.363-.598-.242-1.477-1-1.61l-2.718-.257-.024-3.524 2.742-.281a.66.66 0 0 0 .586-.488 8.6 8.6 0 0 1 .672-1.633.68.68 0 0 0-.074-.766l-1.742-2.113 2.472-2.484 2.137 1.73a.68.68 0 0 0 .754.074 9 9 0 0 1 1.633-.672.69.69 0 0 0 .5-.586l.27-2.718 3.5-.024.28 2.742a.69.69 0 0 0 .5.598 7.8 7.8 0 0 1 1.622.672c.562.352 1.172-.465 1.586-.73.011-.028 1.28-1.051 1.293-1.063l2.484 2.461-1.766 2.137a.7.7 0 0 0-.074.765c.281.516.512 1.063.684 1.637a.72.72 0 0 0 .586.488l2.718.278.012 3.488-2.73.281c-.746.121-.672 1.024-1 1.574-.184.403-.563.903-.196 1.317M29.871 45.23h17.852a.68.68 0 0 0 .683-.683v-5.094a.68.68 0 0 0-.683-.683H29.87a.68.68 0 0 0-.683.683v5.094a.69.69 0 0 0 .683.683m.695-5.097H47.04v3.719H30.566Zm-.695 9.523h9.914c.903 0 .903 1.38 0 1.38H29.87c-.902-.013-.89-1.38 0-1.38m18.766 6.242H29.883c-.903 0-.89-1.375 0-1.375h18.754c.902.012.89 1.375 0 1.375m0 3.5c.902 0 .89 1.38 0 1.38H29.883c-.903 0-.89-1.38 0-1.38Zm0 6.258H29.883c-.903 0-.89-1.379 0-1.379h18.754c.902 0 .89 1.368 0 1.38m-7.086-30.68h3.344a.68.68 0 0 0 .68-.683v-5.402a.68.68 0 0 0-.68-.684H41.55a.68.68 0 0 0-.68.684v5.402c-.016.379.305.684.68.684m.683-5.402H44.2V33.6h-1.965Zm16.082 4.719v-5.402c0-.38.305-.684.684-.684h3.344c.902 0 .902 1.379 0 1.379h-2.66v4.023h2.66c.902 0 .902 1.368 0 1.38H59a.7.7 0 0 1-.684-.696m-11.632 0v-1.23c0-.903 1.379-.903 1.379 0v.546h1.964v-4.718c0-.903 1.38-.903 1.38 0v5.402a.684.684 0 0 1-.684.684h-3.344a.687.687 0 0 1-.695-.684m5.816 0v-5.402c0-.38.305-.684.684-.684h3.343c.903 0 .903 1.379 0 1.379h-2.66v1.328h2.66c.375 0 .68.305.68.684a.68.68 0 0 1-.68.683h-2.66v1.328h2.66c.903 0 .903 1.368 0 1.38h-3.332c-.375-.012-.695-.317-.695-.696m12.133-6.098h3.344c.902 0 .902 1.38 0 1.38h-.989v4.718a.68.68 0 0 1-.683.684.68.68 0 0 1-.684-.684v-4.719h-.988c-.903 0-.903-1.367 0-1.379m-34.36 6.098v-2.012h2.657a.68.68 0 0 0 .683-.683v-2.71a.68.68 0 0 0-.683-.684h-3.34a.68.68 0 0 0-.684.684v5.402c0 .89 1.367.902 1.367 0m0-4.719h1.961v1.328h-1.96Zm5.45 5.403a.68.68 0 0 0 .683-.684v-1.367l2.207 1.89a.72.72 0 0 0 .453.172c.61.024.938-.816.45-1.207l-1.743-1.488h1.293c.375 0 .68-.305.68-.684v-2.707a.68.68 0 0 0-.68-.68h-3.343a.68.68 0 0 0-.684.68v5.403a.68.68 0 0 0 .684.672m.695-5.403h1.965v1.328h-1.965Zm0 0"/></g></svg>