<svg xmlns="http://www.w3.org/2000/svg" width="42" height="42" version="1.0" viewBox="0 0 31.5 31.5"><defs><clipPath id="a"><path d="M0 0h30.387v30.387H0Zm0 0"/></clipPath><clipPath id="b"><path d="M15.191 0C6.801 0 0 6.8 0 15.191s6.8 15.196 15.191 15.196 15.196-6.805 15.196-15.196S23.582 0 15.19 0m0 0"/></clipPath><clipPath id="c"><path d="M9 5.852h13.82v20.671H9Zm0 0"/></clipPath></defs><g clip-path="url(#a)"><g clip-path="url(#b)"><path fill="#1d2896" d="M0 0h30.387v30.387H0Zm0 0"/></g></g><g clip-path="url(#c)"><path fill="#fff" d="M15.852 5.852c-4.305 0-6.747 2.41-6.813 5.898v.176h3.797v-.176c.086-1.54 1.152-2.535 2.762-2.535 1.597 0 2.664.926 2.664 2.226 0 1.305-.547 1.98-2.356 3.059-1.933 1.137-2.707 2.398-2.523 4.64l.023.598h3.719v-.57c0-1.344.52-2.031 2.387-3.113 1.976-1.164 2.996-2.633 2.996-4.739 0-3.238-2.649-5.464-6.656-5.464m-.504 16.492c-1.426 0-2.317.828-2.317 2.176 0 1.335.89 2.164 2.317 2.164 1.425 0 2.3-.829 2.3-2.164 0-1.348-.875-2.176-2.3-2.176m0 0"/></g></svg>