<svg xmlns="http://www.w3.org/2000/svg" width="130" height="130" version="1.0" viewBox="0 0 97.5 97.5"><defs><clipPath id="a"><path d="M0 0h96.746v96.746H0Zm0 0"/></clipPath><clipPath id="b"><path d="M48.371 0C21.656 0 0 21.656 0 48.371 0 75.09 21.656 96.746 48.371 96.746c26.719 0 48.375-21.656 48.375-48.375C96.746 21.656 75.09 0 48.371 0m0 0"/></clipPath><clipPath id="c"><path d="M11.656 19.598h73.125V81.53H11.656Zm0 0"/></clipPath></defs><g clip-path="url(#a)"><g clip-path="url(#b)"><path fill="none" stroke="#1d2896" stroke-width="2.985" d="M48.371 0C21.656 0 0 21.656 0 48.371 0 75.09 21.656 96.746 48.371 96.746c26.719 0 48.375-21.656 48.375-48.375C96.746 21.656 75.09 0 48.371 0Zm0 0"/></g></g><g clip-path="url(#c)"><path fill="#1d2896" d="M75.023 44.418v-.313c0-13.515-11.957-24.507-26.648-24.507-14.695 0-26.648 10.992-26.648 24.507v.31c-5.676.96-9.977 5.538-9.977 11.038 0 3.102 1.367 5.902 3.574 7.938 1.715 1.574 3.93 2.68 6.403 3.101q.462.078.937.125c.012.024.02.043.035.063 2.477 4.828 6.754 7.89 12.266 9.703 2.765.906 5.62 1.41 8.535 1.637.664 1.894 2.594 3.265 4.875 3.265 2.828 0 5.121-2.105 5.121-4.707 0-2.598-2.293-4.707-5.121-4.707-2.492 0-4.566 1.637-5.023 3.805h-.004a33.6 33.6 0 0 1-7.797-1.594c-4.29-1.434-7.754-3.77-9.996-7.402h1.422V44.105c0-10.851 9.601-19.68 21.398-19.68s21.395 8.829 21.395 19.68V66.68h3.02c.753 0 1.487-.067 2.202-.188h.031v-.004c5.676-.965 9.973-5.539 9.973-11.035 0-5.5-4.297-10.074-9.973-11.035"/></g><path fill="#1d2896" d="m50.55 62.91 5.118-15.144h-2.719L47.832 62.91zm-15.902-7.312-3.125 3.535v1.324h6.774v-1.55h-4.125l-.016-.036 1.664-1.996c.79-.883 1.34-1.574 1.66-2.074q.486-.75.485-1.656-.002-1.343-.863-2.133c-.575-.528-1.375-.793-2.41-.793q-1.553.001-2.477.93-.92.935-.887 2.277l.016.043h1.965q0-.735.363-1.211c.242-.32.578-.48 1.02-.48q.621 0 .933.374.314.375.313.996 0 .48-.293 1.055c-.2.379-.528.844-.997 1.395m5.868 1.102 2.12-3.223.208-.45.043.004V56.7Zm4.394 3.757v-2.191h1.137v-1.567H44.91v-6.336h-2.047l-4.183 6.692.093 1.21h4.114v2.192zm13.414-8.605h5.153Q62 53.558 61.223 55.293c-.512 1.156-.77 2.441-.77 3.844v1.25h2.024v-1.25c0-1.383.207-2.606.617-3.68q.616-1.6 2.328-3.605v-1.559h-7.098z"/></svg>