<svg xmlns="http://www.w3.org/2000/svg" width="42" height="42" version="1.0" viewBox="0 0 31.5 31.5"><defs><clipPath id="a"><path d="M0 0h30.387v30.387H0Zm0 0"/></clipPath><clipPath id="b"><path d="M15.191 0C6.801 0 0 6.8 0 15.191s6.8 15.196 15.191 15.196 15.196-6.805 15.196-15.196S23.582 0 15.19 0m0 0"/></clipPath><clipPath id="c"><path d="M5.262 3.594h19.933v21.41H5.262Zm0 0"/></clipPath></defs><g clip-path="url(#a)"><g clip-path="url(#b)"><path fill="#1d2896" d="M0 0h30.387v30.387H0Zm0 0"/></g></g><g clip-path="url(#c)"><path fill="#fff" d="M25.082 10.297a.4.4 0 0 0-.012-.094 97 97 0 0 0-.03-1.754c-.06-1.469-.876-2.265-1.552-2.676a4 4 0 0 0-1.125-.472V4.008q-.001-.163-.113-.278a.38.38 0 0 0-.281-.117q-.16 0-.278.117a.4.4 0 0 0-.113.278v1.219h-2.465V4.176q0-.16-.117-.278a.37.37 0 0 0-.277-.113q-.163-.002-.278.113a.38.38 0 0 0-.117.278v1.05h-2.316v-1.05q0-.16-.117-.278a.37.37 0 0 0-.278-.113.37.37 0 0 0-.277.113.38.38 0 0 0-.117.278v1.05h-2.414v-1.05q0-.16-.117-.278a.37.37 0 0 0-.278-.113.37.37 0 0 0-.277.113.38.38 0 0 0-.117.278v1.05H9.55V4.009q-.002-.163-.114-.278a.38.38 0 0 0-.28-.117q-.16 0-.278.117a.37.37 0 0 0-.113.278v1.246c-1.563.148-2.414.851-2.864 1.453q-.51.68-.629 1.523v14.083l.004.027q.141.767.563 1.418c.426.656 1.254 1.457 2.765 1.523.426.02 1.075.028 1.864.028 3.96 0 11.426-.2 11.804-.207h.02l.023-.004c.856-.125 2.524-.813 2.72-2.524l.003-.043c0-.093.066-8.043.035-12.152q.007-.041.008-.082M8.766 6.05v1.261q-.002.16.113.278a.4.4 0 0 0 .277.113q.164-.001.281-.113a.4.4 0 0 0 .114-.277V6.016h2.465v1.293q0 .162.117.277a.37.37 0 0 0 .277.117q.163 0 .277-.117a.38.38 0 0 0 .118-.277V6.016h2.414v1.172q0 .165.117.277a.37.37 0 0 0 .277.117q.165 0 .278-.117a.37.37 0 0 0 .117-.277V6.016h2.316v1.293q0 .162.117.277a.38.38 0 0 0 .278.117q.164 0 .281-.117a.4.4 0 0 0 .113-.277V6.016h2.465v1.437q.002.163.113.277a.38.38 0 0 0 .282.118q.159 0 .277-.118a.37.37 0 0 0 .113-.277v-1.34c.653.207 1.828.793 1.887 2.364.012.328.023.82.031 1.421H6.06V8.293c.027-.203.32-1.984 2.707-2.246Zm15.488 16.453c-.184 1.45-1.817 1.777-2.027 1.812-.602.016-11.09.286-13.586.18-2.133-.094-2.536-1.992-2.578-2.238v-11.57h18.222c.027 4.058-.031 11.355-.031 11.816m0 0"/></g><path fill="#fff" d="M9.582 15.094h2.617v-2.688H9.582Zm.79-1.903h1.042v1.118h-1.043Zm3.448 1.864h2.649v-2.649H13.82Zm.79-1.864h1.074v1.075h-1.075Zm6.03-.785h-2.554v2.64h2.555Zm-.785 1.852h-.984V13.19h.984Zm-1.769 4.504h2.61v-2.614h-2.61Zm.785-1.825h1.04v1.036h-1.04Zm-.785 5.547h2.574v-2.578h-2.574Zm.785-1.789h1v1h-1Zm-5.051 1.848h2.602v-2.602H13.82Zm.79-1.813h1.023v1.024h-1.024Zm-.79-1.968h2.614v-2.614H13.82Zm.79-1.825h1.035v1.036h-1.036Zm-4.965 1.825h2.507v-2.614H9.645Zm.785-1.825h.933v1.036h-.933Zm-.785 5.481h2.507v-2.512H9.645Zm.785-1.723h.933v.934h-.933Zm0 0"/></svg>