<svg xmlns="http://www.w3.org/2000/svg" width="42" height="42" version="1.0" viewBox="0 0 31.5 31.5"><defs><clipPath id="a"><path d="M0 0h30.387v30.387H0Zm0 0"/></clipPath><clipPath id="b"><path d="M15.191 0C6.801 0 0 6.8 0 15.191s6.8 15.196 15.191 15.196 15.196-6.805 15.196-15.196S23.582 0 15.19 0m0 0"/></clipPath><clipPath id="c"><path d="M8.793 3.945h12.55V6H8.794Zm0 0"/></clipPath><clipPath id="d"><path d="M8.793 24h12.55v2.094H8.794Zm0 0"/></clipPath></defs><g clip-path="url(#a)"><g clip-path="url(#b)"><path fill="#1d2896" d="M0 0h30.387v30.387H0Zm0 0"/></g></g><path fill="#fff" d="M9.73 6.195a.39.39 0 0 0-.39.375c-.04 1.453-.09 3.02.394 4.27.211.547.516 1.02.836 1.437.22.293.457.567.672.82.207.239.395.458.559.676.195.258.36.512.523.766.145.223.29.453.457.672.16.207.336.402.551.566a2.4 2.4 0 0 1 .527-.578c-.203-.14-.367-.328-.539-.566a9 9 0 0 1-.34-.512c-.164-.254-.343-.535-.562-.82-.18-.239-.383-.477-.586-.711a18 18 0 0 1-.645-.781c-.296-.391-.554-.797-.726-1.246-.383-.985-.387-2.235-.356-3.59h.004l9.832.058c-.003 1.301-.043 2.5-.425 3.473-.418 1.055-1.262 1.867-2.188 2.75a.4.4 0 0 0-.086.125c-.203.457-.394.867-.605 1.203a2.4 2.4 0 0 1-.508.59c.195.144.363.344.52.578.203-.168.378-.371.535-.59.304-.437.53-.937.738-1.394.883-.844 1.832-1.758 2.316-2.977.489-1.23.48-2.738.48-4.144a.39.39 0 0 0-.386-.387Zm0 0"/><g clip-path="url(#c)"><path fill="#fff" d="M9.18 3.957a.38.38 0 0 0-.274.113.38.38 0 0 0-.117.274v1.172a.387.387 0 0 0 .39.387l11.735.007a.394.394 0 0 0 .39-.39V4.352a.39.39 0 0 0-.39-.391Zm0 0"/></g><g clip-path="url(#d)"><path fill="#fff" d="M9.207 24.46a.384.384 0 0 0-.387.388v1.172c0 .101.04.203.114.273a.38.38 0 0 0 .273.117l11.734.004a.39.39 0 0 0 .391-.387v-1.172a.39.39 0 0 0-.39-.386Zm0 0"/></g><path fill="#fff" d="M16.637 14.582a2.4 2.4 0 0 1-.508.59c.195.144.363.344.52.578.222.344.417.77.632 1.246a.4.4 0 0 0 .086.121c.922.883 1.766 1.7 2.18 2.754.387.973.422 2.172.422 3.473l-9.832.047c-.032-1.356-.024-2.602.355-3.586.176-.45.434-.86.73-1.246q.313-.403.65-.782c.198-.234.405-.472.585-.71.219-.286.398-.567.559-.817.113-.176.214-.332.316-.473a2.4 2.4 0 0 1 .527-.578c-.203-.14-.367-.328-.539-.566a3.2 3.2 0 0 0-.539.578c-.152.2-.285.41-.418.617-.164.254-.328.508-.523.766-.164.215-.356.437-.559.676-.219.253-.453.527-.676.816-.32.422-.625.894-.835 1.437-.485 1.25-.438 2.817-.399 4.27.004.21.176.379.387.379h.004l10.597-.05a.39.39 0 0 0 .387-.392c.004-1.402.012-2.91-.473-4.144-.484-1.215-1.433-2.133-2.316-2.977-.21-.476-.45-1.004-.773-1.449a3 3 0 0 0-.547-.578m0 0"/><path fill="#fff" d="m11.938 12.18-.106-.004q-.265.001.016-.016l1.304-.05c.864-.024 1.54-.036 2.036-.04.894 0 1.851.024 2.863.078l-2.774 3.68.012 4.516 2.957 3.156-6.574.008 3.148-3.195-.058-4.555z"/></svg>