<svg xmlns="http://www.w3.org/2000/svg" width="143" height="143" version="1.0" viewBox="0 0 107.25 107.25"><defs><clipPath id="a"><path d="M0 0h105.965v105.965H0Zm0 0"/></clipPath><clipPath id="b"><path d="M52.984 0C23.723 0 0 23.723 0 52.984s23.723 52.98 52.984 52.98 52.98-23.718 52.98-52.98S82.247 0 52.985 0m0 0"/></clipPath><clipPath id="c"><path d="M43 84h24v6.773H43Zm0 0"/></clipPath><clipPath id="d"><path d="M32 14.063h48V73H32Zm0 0"/></clipPath><clipPath id="e"><path d="M59 60h24.781v30H59Zm0 0"/></clipPath></defs><g clip-path="url(#a)"><g clip-path="url(#b)"><path fill="#1d2896" d="M0 0h105.965v105.965H0Zm0 0"/></g></g><g clip-path="url(#c)"><path fill="#fff" d="M60.145 85.207a9.8 9.8 0 0 1-4.118.953 10.1 10.1 0 0 1-5.879-1.906 10.3 10.3 0 0 1-2.628 3.855 10.3 10.3 0 0 1-4.043 2.32H66.52a10.5 10.5 0 0 1-3.72-1.96 10.4 10.4 0 0 1-2.655-3.262m0 0"/></g><g clip-path="url(#d)"><path fill="#fff" d="M35.766 69.922a.8.8 0 0 0 .246-.113c.144-1.258.308-2.47.488-3.625a4.4 4.4 0 0 1 .305-1.907c1.304-7.328 3.125-12.472 5.64-15.601a.46.46 0 0 1 .325-.172.45.45 0 0 1 .347.101q.152.126.176.32a.46.46 0 0 1-.102.352c-.257.325-.515.676-.765 1.047-1.906 2.86-3.41 7.207-4.496 13.051h.113a2 2 0 0 1 .621 0c.742.16 1.906.781 3.695 2.582.23-10.477 6.235-18.918 13.668-18.918 6.559 0 12.04 6.606 13.344 15.39a6.26 6.26 0 0 1 2.86-2.859q.46-.171.953-.18a29 29 0 0 0-3.555-9.015c-.25-.371-.496-.727-.754-1.05a.45.45 0 0 1 .066-.665.46.46 0 0 1 .348-.11q.198.019.32.177c1.907 2.398 3.489 5.992 4.672 10.863 2.543.953 2.61 5.242 2.668 8.73 0 1.657 0 3.375.39 3.813.391.437 1.22.344 2.384-.153.132-1.515.199-2.859.238-3.992v-4.167c0-9.532-12.258-26.008-12.258-26.008l-1.422-12.391c0-11.371-10.254-11.266-10.254-11.266s-10.293-.105-10.293 11.219l-1.37 12.438S32.104 54.28 32.104 63.82v1.192s-.046 1.156 0 2.957v.875c1.555.59 3.145 1.21 3.66 1.078M55.98 29.836c2.86.266 7.415.953 7.625 2.363.153 1.086-1.609 3.164-1.964 3.563-.735.832-3.29 3.547-5.594 3.547s-4.86-2.715-5.586-3.547c-.352-.399-2.113-2.477-1.973-3.563.172-1.441 4.778-2.097 7.492-2.363m0 0"/></g><path fill="#fff" d="M56.027 38.355c1.25 0 3.164-1.265 4.871-3.222 1.305-1.477 1.782-2.563 1.743-2.809-.239-.488-3.352-1.222-6.668-1.547-3.215.325-6.332 1.059-6.57 1.563a6.6 6.6 0 0 0 1.753 2.785c1.719 1.965 3.625 3.23 4.871 3.23m2.575 41.059c-1.098-10.035-.086-12.113.773-12.8q.317-.252.723-.31c.27-.038.527-.007.78.09a6.2 6.2 0 0 1 2.204 1.813c1.074 1.172 1.828 1.906 2.523 1.504.497-.293 1.204-1.906 1.907-3.383.363-.789.734-1.64 1.144-2.45-.953-8.968-6.195-15.886-12.59-15.886-7.023 0-12.734 8.34-12.734 18.582v.375c1.164 1.219 2.555 2.86 4.25 5.004q1 1.26 1.832 2.637a10.6 10.6 0 0 1 1.48 4.23 10.5 10.5 0 0 1-.394 4.465q2.461 1.843 5.54 1.906a9 9 0 0 0 3.714-.812 10.4 10.4 0 0 1-.602-1.774 28 28 0 0 1-.55-3.19m0 0"/><path fill="#fff" d="M46.8 72.531a86 86 0 0 0-3.437-4.125l-.488-.535-.496-.531c-2.2-2.29-3.363-2.918-3.973-3.024a1 1 0 0 0-.258 0 .52.52 0 0 0-.43.317v.066a3.55 3.55 0 0 0-.218 1.563v1.258a4.22 4.22 0 0 1-.562 2.78q-.142.166-.325.278l-.199.125a2 2 0 0 1-.402.16h-.102c-.793.145-2.078-.324-3.71-.953l-.477-.187c-2.04-.813-4.422-1.746-6.164-1.746q-.603-.06-1.157.18-.551.24-.922.714c-1.277 1.906 1.582 4.902 3.887 7.32 1.422 1.496 2.535 2.668 2.66 3.547.22 1.621-1.476 2.239-2.972 2.793a5.7 5.7 0 0 0-2.117 1.067c-.227.265-.22.449-.172.582.21.734 1.906 2.343 10.875 4.945.996.29 2 .52 3.023.688a9.94 9.94 0 0 0 9.672-4.176q.627-.947 1.02-2.012l.19-.465c0-.164.087-.344.134-.504a9.65 9.65 0 0 0 .234-3.926 9.7 9.7 0 0 0-1.328-3.699q-.819-1.3-1.785-2.5m0 0"/><g clip-path="url(#e)"><path fill="#fff" d="M82.906 71.875a5.7 5.7 0 0 0-2.27.715l-1.038.45c-1.145.437-2.29.647-3.032-.364a2.3 2.3 0 0 1-.351-.875 14 14 0 0 1-.211-2.281v-1.24c0-2.773-.094-6.11-1.402-7.414a2 2 0 0 0-.579-.41 2.5 2.5 0 0 0-.375-.125h-.14a1.9 1.9 0 0 0-.953.137c-1.125.457-2.106 1.902-2.965 3.601l-.41.828c-.153.325-.293.641-.438.954-.144.316-.265.582-.39.867-.84 1.906-1.497 3.363-2.258 3.812-1.41.828-2.64-.504-3.719-1.687a5.7 5.7 0 0 0-1.8-1.543.9.9 0 0 0-.286-.059.43.43 0 0 0-.316.117c-.59.477-1.438 2.657-.418 11.95q.164 1.54.515 3.05.195.799.512 1.555c.066.14.137.285.211.426.078.144.125.289.2.43a9.5 9.5 0 0 0 1.425 1.996q.416.45.887.847a10 10 0 0 0 2.059 1.332 10.2 10.2 0 0 0 2.323.774q.605.117 1.22.164.613.042 1.226.008.615-.037 1.219-.149c.406-.07.8-.172 1.191-.297q.586-.181 1.144-.445a10 10 0 0 0 1.083-.582q.521-.327.996-.719a9.5 9.5 0 0 0 1.687-1.777q.92-1.249 1.688-2.602c4.574-8.148 4.66-10.484 4.308-11.148a.54.54 0 0 0-.543-.297m0 0"/></g></svg>