<svg xmlns="http://www.w3.org/2000/svg" width="251" height="50" version="1.0" viewBox="0 0 188.25 37.5"><defs><clipPath id="a"><path d="M1 0h184.902v36.266H1Zm0 0"/></clipPath><clipPath id="b"><path d="M1 0h184.902v36.266H1Zm0 0"/></clipPath></defs><g clip-path="url(#a)"><path fill="#fe7219" d="M167.867 36.574H19.157c-9.977 0-18.063-8.086-18.063-18.062v-.457C1.094 8.082 9.18-.008 19.156-.008h148.711c9.977 0 18.063 8.09 18.063 18.063v.457c0 9.976-8.086 18.062-18.063 18.062"/></g><path fill="#fff" d="M166.906 7.46c-5.969 0-10.824 4.856-10.824 10.825s4.856 10.824 10.824 10.824c5.969 0 10.824-4.855 10.824-10.824s-4.855-10.824-10.824-10.824"/><path fill="#fe7219" d="m163.27 14.055 4.23 4.23-4.23 4.23 1.574 1.575 5.804-5.805-5.804-5.805z"/><g clip-path="url(#b)"><path fill="#fe7219" d="M167.867 36.574H19.157c-9.977 0-18.063-8.086-18.063-18.062v-.457C1.094 8.082 9.18-.008 19.156-.008h148.711c9.977 0 18.063 8.09 18.063 18.063v.457c0 9.976-8.086 18.062-18.063 18.062"/></g><path fill="#fff" d="M166.906 7.46c-5.969 0-10.824 4.856-10.824 10.825s4.856 10.824 10.824 10.824c5.969 0 10.824-4.855 10.824-10.824s-4.855-10.824-10.824-10.824"/><path fill="#fe7219" d="m163.27 14.055 4.23 4.23-4.23 4.23 1.574 1.575 5.804-5.805-5.804-5.805z"/></svg>