<svg xmlns="http://www.w3.org/2000/svg" width="143" height="143" version="1.0" viewBox="0 0 107.25 107.25"><defs><clipPath id="a"><path d="M0 0h105.965v105.965H0Zm0 0"/></clipPath><clipPath id="b"><path d="M52.984 0C23.723 0 0 23.723 0 52.984s23.723 52.98 52.984 52.98 52.98-23.718 52.98-52.98S82.247 0 52.985 0m0 0"/></clipPath><clipPath id="c"><path d="M15 37h84.07v48H15Zm0 0"/></clipPath><clipPath id="d"><path d="M52 25.45h10V34H52Zm0 0"/></clipPath></defs><g clip-path="url(#a)"><g clip-path="url(#b)"><path fill="#1d2896" d="M0 0h105.965v105.965H0Zm0 0"/></g></g><path fill="#fff" d="M22.082 52.613h8.621v-7.836h-8.621Zm0 0"/><g clip-path="url(#c)"><path fill="#fff" d="M97.996 51.887c.195-.332.86-1.742 1.106-2.258l-1.73-1.176v.004c-1.88-1.281-6.212-1.742-9.536-1.11-.434-3.171-2.18-5.929-5.363-8.41l-1.828-1.226-1.211 1.848c-2.403 3.668-3.055 9.71-.48 13.699-1.138.62-3.368 1.465-6.317 1.414H15.926c-1.133 6.703.758 15.414 5.742 21.394 4.836 5.797 12.09 8.743 21.574 8.743 20.535 0 35.73-9.57 42.844-26.954 2.789.051 8.816.012 11.91-5.968m0 0"/></g><path fill="#fff" d="M32.258 44.777h8.62v7.836h-8.62Zm10.192 0h8.62v7.836h-8.62Zm20.386 0h8.621v7.836h-8.621Zm-30.578-9.519h8.62v7.93h-8.62Zm20.379 9.532h8.62v7.839h-8.62Zm0-9.532h8.62v7.93h-8.62Zm0 0"/><g clip-path="url(#d)"><path fill="#fff" d="M52.637 25.66h8.62v8.012h-8.62Zm0 0"/></g><path fill="#fff" d="M42.45 35.258h8.62v7.93h-8.62Zm0 0"/></svg>