<svg xmlns="http://www.w3.org/2000/svg" width="143" height="143" version="1.0" viewBox="0 0 107.25 107.25"><defs><clipPath id="a"><path d="M0 0h105.965v105.965H0Zm0 0"/></clipPath><clipPath id="b"><path d="M52.984 0C23.723 0 0 23.723 0 52.984s23.723 52.98 52.984 52.98 52.98-23.718 52.98-52.98S82.247 0 52.985 0m0 0"/></clipPath><clipPath id="c"><path d="M17 13.512h72V92.46H17Zm0 0"/></clipPath></defs><g clip-path="url(#a)"><g clip-path="url(#b)"><path fill="#1d2896" d="M0 0h105.965v105.965H0Zm0 0"/></g></g><path fill="#fff" fill-rule="evenodd" d="M52.957 61.836c-4.855 0-8.785-3.977-8.785-8.832a8.78 8.78 0 0 1 8.785-8.785c4.855 0 8.836 3.93 8.836 8.785s-3.98 8.832-8.836 8.832m0-14.844c-3.281 0-6.012 2.73-6.012 6.012 0 3.332 2.73 6.059 6.012 6.059 3.332 0 6.059-2.727 6.059-6.06 0-3.28-2.727-6.01-6.059-6.01m0 0"/><path fill="#fff" fill-rule="evenodd" d="M52.957 46.992a1.39 1.39 0 0 1-1.387-1.387V29.098c0-.785.649-1.387 1.387-1.387.79 0 1.39.602 1.39 1.387v16.507c0 .786-.6 1.387-1.39 1.387m5.273 2.176a1.43 1.43 0 0 1-1.015-.418c-.512-.508-.512-1.387 0-1.941l11.7-11.7a1.396 1.396 0 0 1 1.987 0 1.49 1.49 0 0 1 0 1.989L59.203 48.75a1.42 1.42 0 0 1-.973.418m18.684 5.222H60.402a1.36 1.36 0 0 1-1.386-1.386c0-.738.601-1.387 1.386-1.387h16.512c.785 0 1.387.649 1.387 1.387a1.36 1.36 0 0 1-1.387 1.387m-7.031 16.925c-.324 0-.692-.136-.969-.37l-11.7-11.7a1.48 1.48 0 0 1 0-1.988 1.49 1.49 0 0 1 1.99 0l11.698 11.699a1.49 1.49 0 0 1 0 1.988 1.6 1.6 0 0 1-1.02.371m-16.925 7.032a1.393 1.393 0 0 1-1.387-1.391V60.449c0-.785.649-1.386 1.387-1.386.79 0 1.39.601 1.39 1.386v16.508c0 .79-.6 1.39-1.39 1.39m-16.922-7.031c-.324 0-.695-.136-.972-.37a1.396 1.396 0 0 1 0-1.989l11.699-11.7c.554-.507 1.433-.507 1.941 0a1.396 1.396 0 0 1 0 1.99L37.051 70.944a1.6 1.6 0 0 1-1.016.371m9.524-16.925H29.05a1.36 1.36 0 0 1-1.387-1.386c0-.738.602-1.387 1.387-1.387h16.508a1.39 1.39 0 0 1 1.386 1.387c0 .789-.597 1.387-1.386 1.387m2.176-5.223q-.556 0-.972-.418l-11.7-11.652a1.396 1.396 0 0 1 0-1.989 1.396 1.396 0 0 1 1.989 0l11.652 11.7c.555.554.555 1.433 0 1.941a1.33 1.33 0 0 1-.969.418m0 0"/><path fill="#fff" fill-rule="evenodd" d="M52.957 73.723c-11.422 0-20.715-9.297-20.715-20.72 0-11.421 9.293-20.714 20.715-20.714s20.719 9.293 20.719 20.715-9.297 20.719-20.719 20.719m0-38.66c-9.894 0-17.941 8.046-17.941 17.94 0 9.9 8.047 17.942 17.941 17.942 9.898 0 17.945-8.043 17.945-17.941 0-9.895-8.047-17.941-17.945-17.941m0 0"/><path fill="#fff" fill-rule="evenodd" d="M34.277 38.207c-2.129 0-3.886-1.758-3.886-3.883 0-2.129 1.757-3.886 3.886-3.886 2.125 0 3.883 1.757 3.883 3.886 0 2.125-1.758 3.883-3.883 3.883m0-4.992c-.601 0-1.109.508-1.109 1.11 0 .6.508 1.109 1.11 1.109.6 0 1.109-.508 1.109-1.11 0-.601-.508-1.11-1.11-1.11m18.68-2.73c-2.125 0-3.883-1.757-3.883-3.882 0-2.13 1.758-3.887 3.883-3.887a3.88 3.88 0 0 1 3.887 3.887 3.88 3.88 0 0 1-3.887 3.882m0-4.992c-.598 0-1.11.508-1.11 1.11 0 .601.512 1.109 1.11 1.109.602 0 1.113-.508 1.113-1.11 0-.601-.511-1.109-1.113-1.109M71.64 38.207c-2.128 0-3.84-1.758-3.84-3.883 0-2.129 1.712-3.886 3.84-3.886a3.88 3.88 0 0 1 3.883 3.886 3.88 3.88 0 0 1-3.882 3.883m0-4.992c-.6 0-1.062.508-1.062 1.11 0 .6.461 1.109 1.063 1.109.648 0 1.109-.508 1.109-1.11 0-.601-.46-1.11-1.11-1.11M79.41 56.89a3.88 3.88 0 0 1-3.887-3.886c0-2.125 1.758-3.883 3.887-3.883 2.125 0 3.883 1.758 3.883 3.883a3.88 3.88 0 0 1-3.883 3.887m0-4.995c-.601 0-1.11.507-1.11 1.109 0 .648.509 1.11 1.11 1.11s1.11-.462 1.11-1.11c0-.602-.508-1.11-1.11-1.11M26.555 56.89a3.88 3.88 0 0 1-3.887-3.886c0-2.125 1.758-3.883 3.887-3.883 2.125 0 3.883 1.758 3.883 3.883a3.88 3.88 0 0 1-3.883 3.887m0-4.995c-.602 0-1.11.507-1.11 1.109 0 .648.508 1.11 1.11 1.11.601 0 1.11-.462 1.11-1.11 0-.602-.509-1.11-1.11-1.11m7.722 23.675a3.88 3.88 0 0 1-3.886-3.882c0-2.13 1.757-3.84 3.886-3.84 2.125 0 3.883 1.71 3.883 3.84a3.88 3.88 0 0 1-3.883 3.882m0-4.945c-.601 0-1.109.46-1.109 1.063 0 .648.508 1.109 1.11 1.109.6 0 1.109-.461 1.109-1.11 0-.601-.508-1.062-1.11-1.062m18.68 12.715c-2.125 0-3.883-1.758-3.883-3.883 0-2.129 1.758-3.887 3.883-3.887a3.88 3.88 0 0 1 3.887 3.887 3.88 3.88 0 0 1-3.887 3.883m0-4.992c-.598 0-1.11.507-1.11 1.109s.512 1.11 1.11 1.11c.602 0 1.113-.508 1.113-1.11s-.511-1.11-1.113-1.11M71.64 75.57c-2.128 0-3.84-1.71-3.84-3.882a3.83 3.83 0 0 1 3.84-3.84c2.172 0 3.883 1.71 3.883 3.84a3.85 3.85 0 0 1-3.882 3.882m0-4.945c-.6 0-1.062.46-1.062 1.063 0 .648.461 1.109 1.063 1.109.648 0 1.109-.461 1.109-1.11 0-.601-.46-1.062-1.11-1.062m-18.684-2.406c-8.367 0-15.164-6.844-15.164-15.215 0-8.367 6.797-15.168 15.164-15.168 8.371 0 15.215 6.8 15.215 15.168 0 8.371-6.844 15.215-15.215 15.215m0-27.606c-6.844 0-12.39 5.547-12.39 12.39 0 6.845 5.546 12.442 12.39 12.442s12.441-5.597 12.441-12.441-5.597-12.39-12.441-12.39m0 0"/><g clip-path="url(#c)"><path fill="#fff" fill-rule="evenodd" d="M52.957 92.45c-.184 0-.414-.048-.598-.138L17.906 74.509c-.46-.278-.738-.738-.738-1.25V32.797c0-.508.277-1.016.738-1.25l34.453-17.8c.368-.235.832-.235 1.246 0l34.454 17.8c.46.234.738.742.738 1.25v40.46c0 .513-.277.973-.738 1.25L53.605 92.313a1.5 1.5 0 0 1-.648.137M19.941 72.425l33.016 17.11 33.066-17.11V33.629l-33.066-17.11-33.016 17.11Zm0 0"/></g></svg>