<svg xmlns="http://www.w3.org/2000/svg" width="179" height="200" version="1.0" viewBox="0 0 134.25 150"><defs><clipPath id="a"><path d="M0 .418h106V123H0Zm0 0"/></clipPath><clipPath id="b"><path d="M52 52h81.504v97.582H52Zm0 0"/></clipPath><clipPath id="c"><path d="M0 .418h106V123H0Zm0 0"/></clipPath><clipPath id="d"><path d="M52 52h81.504v97.582H52Zm0 0"/></clipPath></defs><g clip-path="url(#a)"><path fill="#1a3d6d" d="M105.156.43H-.004v37.933h105.16ZM11.234 56.28a2.057 2.057 0 0 1-2.07-2.05c0-1.141.926-2.063 2.07-2.063H42.23c1.141 0 2.06.922 2.06 2.062a2.05 2.05 0 0 1-2.06 2.051Zm0 13.086a2.06 2.06 0 0 1-2.07-2.05c0-1.141.926-2.063 2.07-2.063H42.23a2.057 2.057 0 1 1 0 4.113Zm0 13.086a2.065 2.065 0 0 1-2.07-2.062c0-1.13.926-2.051 2.07-2.051H42.23a2.057 2.057 0 1 1 0 4.113Zm0 13.086a2.067 2.067 0 0 1-2.07-2.062c0-1.141.926-2.055 2.07-2.055h15.493c1.14 0 2.066.914 2.066 2.055a2.066 2.066 0 0 1-2.066 2.062Zm56.164-65.453a2.065 2.065 0 0 1-2.886-.39 2.055 2.055 0 0 1 .39-2.88l9.715-7.414-9.715-7.422a2.05 2.05 0 0 1-.39-2.878 2.07 2.07 0 0 1 2.886-.391l11.829 9.031c1.082.817 1.128 2.45.027 3.29ZM56.773 8.036a2.057 2.057 0 0 1 2.809-.747 2.05 2.05 0 0 1 .75 2.809L48.375 30.754a2.057 2.057 0 0 1-2.809.746 2.047 2.047 0 0 1-.75-2.809ZM40.246 26.812a2.058 2.058 0 0 1-2.496 3.27l-11.855-9.06c-1.102-.835-1.051-2.472.027-3.289L37.75 8.707a2.07 2.07 0 0 1 2.887.387 2.06 2.06 0 0 1-.39 2.879l-9.716 7.425Zm36.899 95.226v-19.855L50.035 83.87a2.02 2.02 0 0 1-.898-1.691h-.008V49.395c0-1.579 1.812-2.766 3.375-1.586l52.652 35.566V42.477H-.004v79.562Zm0 0"/></g><g clip-path="url(#b)"><path fill="#01a6d0" fill-rule="evenodd" d="M105.504 120.934v28.66l-24.57-16.598v-28.66Zm3.437-32.778 24.575-16.61v28.661l-24.575 16.598Zm-28.007-16.61 24.57 16.61v28.649l-24.57-16.598Zm-28.02-18.921 24.574 16.598v28.664l-24.574-16.61Zm0 0"/></g><g clip-path="url(#c)"><path fill="#1a3d6d" d="M105.156.43H-.004v37.933h105.16ZM11.234 56.28a2.057 2.057 0 0 1-2.07-2.05c0-1.141.926-2.063 2.07-2.063H42.23c1.141 0 2.06.922 2.06 2.062a2.05 2.05 0 0 1-2.06 2.051Zm0 13.086a2.06 2.06 0 0 1-2.07-2.05c0-1.141.926-2.063 2.07-2.063H42.23a2.057 2.057 0 1 1 0 4.113Zm0 13.086a2.065 2.065 0 0 1-2.07-2.062c0-1.13.926-2.051 2.07-2.051H42.23a2.057 2.057 0 1 1 0 4.113Zm0 13.086a2.067 2.067 0 0 1-2.07-2.062c0-1.141.926-2.055 2.07-2.055h15.493c1.14 0 2.066.914 2.066 2.055a2.066 2.066 0 0 1-2.066 2.062Zm56.164-65.453a2.065 2.065 0 0 1-2.886-.39 2.055 2.055 0 0 1 .39-2.88l9.715-7.414-9.715-7.422a2.05 2.05 0 0 1-.39-2.878 2.07 2.07 0 0 1 2.886-.391l11.829 9.031c1.082.817 1.128 2.45.027 3.29ZM56.773 8.036a2.057 2.057 0 0 1 2.809-.747 2.05 2.05 0 0 1 .75 2.809L48.375 30.754a2.057 2.057 0 0 1-2.809.746 2.047 2.047 0 0 1-.75-2.809ZM40.246 26.812a2.058 2.058 0 0 1-2.496 3.27l-11.855-9.06c-1.102-.835-1.051-2.472.027-3.289L37.75 8.707a2.07 2.07 0 0 1 2.887.387 2.06 2.06 0 0 1-.39 2.879l-9.716 7.425Zm36.899 95.226v-19.855L50.035 83.87a2.02 2.02 0 0 1-.898-1.691h-.008V49.395c0-1.579 1.812-2.766 3.375-1.586l52.652 35.566V42.477H-.004v79.562Zm0 0"/></g><g clip-path="url(#d)"><path fill="#01a6d0" fill-rule="evenodd" d="M105.504 120.934v28.66l-24.57-16.598v-28.66Zm3.437-32.778 24.575-16.61v28.661l-24.575 16.598Zm-28.007-16.61 24.57 16.61v28.649l-24.57-16.598Zm-28.02-18.921 24.574 16.598v28.664l-24.574-16.61Zm0 0"/></g></svg>