<svg xmlns="http://www.w3.org/2000/svg" width="820" height="820" version="1.0" viewBox="0 0 615 615"><defs><clipPath id="a"><path d="M.5 0h613.402v613.402H.5Zm0 0"/></clipPath><clipPath id="b"><path d="M238.465 408.219h90.953v90.828h-90.953Zm0 0"/></clipPath><clipPath id="c"><path d="M48.773 114.172h516.66V435H48.774Zm0 0"/></clipPath><clipPath id="d"><path d="M200.7 97.895h206.519V499h-206.52Zm0 0"/></clipPath><clipPath id="e"><path d="M371.965 499.23H235.953c-19.426 0-35.254-15.828-35.254-35.257v-330.82c0-19.426 15.828-35.258 35.254-35.258h136.012c19.426 0 35.254 15.832 35.254 35.257v330.82c0 19.43-15.828 35.258-35.254 35.258m0 0"/></clipPath><clipPath id="f"><path d="M207.598 120.691h192.437V336.34H207.598Zm0 0"/></clipPath><clipPath id="g"><path d="M261.96 403h81.618v40.23h-81.617Zm0 0"/></clipPath><clipPath id="h"><path d="M190.785 412.43h65.172v22.129h-65.172Zm0 0"/></clipPath><clipPath id="i"><path d="M346.469 412.43h65.168v22.129h-65.168Zm0 0"/></clipPath></defs><g clip-path="url(#a)"><path fill="#38b6ff" d="M.5 0h613.402v613.402H.5Zm0 0"/></g><g clip-path="url(#b)"><path fill="#fff" d="M283.84 474.363c-11.332 0-20.52-9.187-20.52-20.52 0-11.335 9.188-20.527 20.52-20.527s20.523 9.192 20.523 20.528c0 11.332-9.191 20.52-20.523 20.52m42.762-33.843c.968-.336 1.558-1.27 1.21-2.243a46.7 46.7 0 0 0-4.09-8.613c-.538-.883-1.628-1.02-2.511-.48-3.969 2.406-9.063 2.238-12.867-.52-.832-.601-2.02-1.793-2.621-2.621a11.66 11.66 0 0 1-1.067-11.844c.442-.933.2-2.008-.73-2.453a46.5 46.5 0 0 0-8.977-3.21c-1.004-.247-1.875.429-2.12 1.429-1.24 5.105-5.833 8.894-11.321 8.894-5.078 0-9.39-3.246-10.985-7.777-.343-.973-1.277-1.559-2.25-1.21a46.3 46.3 0 0 0-8.613 4.089c-.883.535-1.02 1.629-.48 2.512 2.722 4.484 2.152 10.406-1.727 14.285-3.586 3.586-8.926 4.34-13.258 2.273-.93-.445-2.004-.203-2.449.73a46.4 46.4 0 0 0-3.219 8.977c-.246 1.004.434 1.875 1.438 2.121 5.105 1.239 8.89 5.829 8.89 11.317 0 5.078-3.25 9.39-7.78 10.988-.97.344-1.563 1.274-1.216 2.246a46.5 46.5 0 0 0 4.106 8.602c.539.886 1.633 1.023 2.515.492 4.48-2.723 10.399-2.149 14.274 1.726 3.586 3.59 4.34 8.922 2.277 13.25-.441.934-.199 2.008.735 2.454a46.5 46.5 0 0 0 8.972 3.218c1 .246 1.867-.437 2.114-1.433 1.242-5.102 5.836-8.89 11.316-8.89 5.082 0 9.394 3.241 10.992 7.773.344.972 1.274 1.558 2.25 1.21a45.8 45.8 0 0 0 8.61-4.09c.882-.53 1.02-1.628.484-2.507-2.406-3.969-2.242-9.063.512-12.863.601-.836 1.796-2.028 2.629-2.633 3.484-2.524 8.05-2.875 11.84-1.059.93.442 2.007.2 2.452-.734a46.5 46.5 0 0 0 3.215-8.98c.246-.997-.433-1.872-1.433-2.114-5.106-1.246-8.899-5.836-8.899-11.32 0-5.078 3.25-9.39 7.782-10.992"/></g><path fill="#fff" d="M343.555 416.547c-8.465 1.8-16.79-3.606-18.59-12.078-1.8-8.465 3.601-16.79 12.074-18.594 8.469-1.797 16.79 3.61 18.594 12.078 1.797 8.465-3.61 16.793-12.078 18.594m26.578-32.078c.672-.41.957-1.203.55-1.875a36 36 0 0 0-4.425-5.781c-.543-.575-1.375-.504-1.953.039a8.91 8.91 0 0 1-9.692 1.656c-.722-.317-1.8-1.02-2.383-1.547a8.9 8.9 0 0 1-2.675-8.68c.183-.765-.168-1.527-.938-1.715a35.5 35.5 0 0 0-7.219-.972c-.785-.024-1.328.62-1.351 1.406a8.906 8.906 0 0 1-7.047 8.445 8.92 8.92 0 0 1-9.445-4.066c-.41-.672-1.2-.961-1.875-.55a35.2 35.2 0 0 0-5.778 4.425c-.582.539-.507 1.379.032 1.953a8.89 8.89 0 0 1 .98 10.941c-2.11 3.254-5.98 4.664-9.543 3.813-.766-.191-1.531.164-1.715.934a35.7 35.7 0 0 0-.98 7.214c-.02.79.629 1.332 1.41 1.356a8.9 8.9 0 0 1 8.441 7.047c.809 3.797-.937 7.531-4.07 9.441-.668.418-.957 1.203-.547 1.879a35.4 35.4 0 0 0 4.434 5.773c.543.575 1.379.504 1.953-.035 2.922-2.746 7.433-3.254 10.937-.976a8.9 8.9 0 0 1 3.813 9.539c-.188.765.164 1.531.937 1.719 2.34.562 4.754.902 7.215.976.785.024 1.328-.625 1.348-1.406.121-4.008 2.953-7.57 7.047-8.438a8.89 8.89 0 0 1 9.445 4.063c.414.668 1.203.96 1.875.55a35 35 0 0 0 5.785-4.429c.574-.535.504-1.379-.039-1.953a8.91 8.91 0 0 1-1.656-9.692c.316-.718 1.02-1.793 1.543-2.382a8.9 8.9 0 0 1 8.68-2.672c.761.183 1.53-.168 1.718-.942.559-2.34.895-4.754.973-7.214.023-.786-.625-1.329-1.41-1.352-4.012-.117-7.57-2.95-8.438-7.047a8.89 8.89 0 0 1 4.063-9.445"/><g clip-path="url(#c)"><path fill="#fff" d="M462.512 222.828q-2.926.001-5.887.172c-9.187-42.793-46.844-73.844-91.715-73.844-11.617 0-22.86 2.078-33.531 6.184-19.418-25.942-49.57-41.164-82.422-41.164-54.727 0-99.625 42.86-102.89 96.777-55.313 7.328-97.258 54.328-97.258 111.266 0 61.914 50.367 112.285 112.261 112.285l.864.004c6.761.015 22.011.058 42.183.101 6.07 0 10.992-4.921 10.992-10.992 0-6.074-4.922-11-10.992-11h-.015c-20.133-.043-35.356-.086-42.11-.097l-.902-.008c-49.785 0-90.293-40.504-90.293-90.293 0-48.63 38.047-88.246 86.617-90.196l10.988-.441-.445-10.984c-.043-1.118-.086-2.23-.086-3.348 0-44.71 36.371-81.086 81.086-81.086 28.402 0 54.242 14.469 69.125 38.7l5.309 8.64 9.043-4.594c10.144-5.148 21.07-7.762 32.476-7.762 37.254 0 68.004 27.934 71.527 64.977l1.122 11.738 11.628-1.933a82 82 0 0 1 13.325-1.114c44.71 0 81.082 36.375 81.082 81.082 0 45.774-37.551 86.25-80.367 86.614l-1.207.07c-2.196.098-12.45.238-51.743.277v.016c-6.027.043-10.91 4.941-10.91 10.98 0 6.047 4.883 10.942 10.91 10.989v.011c40.485-.046 50.383-.195 53.371-.355 55.282-.613 101.938-50.29 101.938-108.602 0-56.836-46.238-103.07-103.074-103.07"/></g><g clip-path="url(#d)"><g clip-path="url(#e)"><path fill="#38b6ff" d="M200.7 97.895h206.519v400.94h-206.52Zm0 0"/></g></g><g clip-path="url(#f)"><path fill="#fff" d="M400.172 158.059v68.43l-59.879 34.214v-67.36Zm-66.293 35.285v67.36L274 226.487v-68.43Zm0 74.844v68.43L274 302.401v-68.43Zm-66.293-113.336v68.43l-59.875-34.216v-68.433Zm0 0"/></g><g clip-path="url(#g)"><path fill="#fff" fill-rule="evenodd" d="M310.332 439.402c3.55 2.16 7.914 3.68 13.188 3.68 10.828 0 19.617-8.785 19.617-19.613s-8.79-19.617-19.617-19.617c-18.04 0-25.325 17.933-25.325 17.933s-4.785 12.246-16.922 12.246c-5.828 0-10.562-4.734-10.562-10.562 0-5.832 4.734-10.563 10.562-10.563 3.391 0 6.2.973 8.473 2.356a4.53 4.53 0 0 0 6.223-1.512 4.53 4.53 0 0 0-1.508-6.215c-3.55-2.16-7.914-3.683-13.188-3.683-10.828 0-19.613 8.789-19.613 19.617s8.785 19.613 19.613 19.613c18.04 0 25.325-17.93 25.325-17.93s4.785-12.246 16.922-12.246c5.832 0 10.562 4.73 10.562 10.563 0 5.828-4.73 10.562-10.562 10.562-3.391 0-6.196-.972-8.473-2.355a4.523 4.523 0 0 0-6.223 1.508 4.53 4.53 0 0 0 1.508 6.218m0 0"/></g><g clip-path="url(#h)"><path fill="#fff" d="M190.785 412.43h65.176v22.129h-65.176Zm0 0"/></g><g clip-path="url(#i)"><path fill="#fff" d="M346.469 412.43h65.172v22.129h-65.172Zm0 0"/></g><path fill="#fff" d="M144.037 360.132h-7.61v-1.985h17.516v1.985h-7.61v19.687h-2.296Zm46.235 17.703v1.984h-15.313v-21.672h14.86v1.985H177.24v7.703h11.218v1.953H177.24v8.047Zm37.55 1.985-4.953-6.97a16 16 0 0 1-1.735.094h-5.828v6.875h-2.281v-21.672h8.11c2.757 0 4.921.665 6.484 1.985q2.357 1.985 2.359 5.453c0 1.687-.43 3.117-1.281 4.281q-1.282 1.752-3.672 2.531l5.297 7.422Zm-6.75-8.829q3.216.001 4.922-1.422c1.132-.945 1.703-2.273 1.703-3.984 0-1.758-.57-3.11-1.703-4.047q-1.706-1.406-4.922-1.406h-5.766v10.86Zm46.486 8.829-4.953-6.97a16 16 0 0 1-1.734.094h-5.829v6.875h-2.28v-21.672h8.109c2.757 0 4.921.665 6.484 1.985 1.57 1.324 2.36 3.14 2.36 5.453 0 1.687-.43 3.117-1.282 4.281q-1.282 1.752-3.672 2.531l5.297 7.422Zm-6.75-8.829q3.217.001 4.922-1.422 1.701-1.418 1.703-3.984c0-1.758-.57-3.11-1.703-4.047q-1.705-1.406-4.922-1.406h-5.766v10.86Zm45.268 3.047h-12.063l-2.61 5.781h-2.374l9.906-21.672h2.25l9.906 21.672h-2.406Zm-.828-1.86-5.204-11.64-5.203 11.64Zm29.082-12.046v8.515h11.218v1.985H334.33v9.187h-2.282v-21.672h14.86v1.985Zm44.138 19.875c-2.148 0-4.093-.477-5.843-1.438q-2.614-1.436-4.078-3.937-1.47-2.513-1.47-5.64 0-3.124 1.47-5.626 1.464-2.513 4.078-3.953c1.75-.969 3.695-1.453 5.843-1.453q3.219 0 5.797 1.437a10.5 10.5 0 0 1 4.078 3.954q1.484 2.518 1.485 5.64 0 3.127-1.485 5.656a10.5 10.5 0 0 1-4.078 3.938q-2.578 1.423-5.797 1.422m0-2.047q2.56.002 4.641-1.156a8.33 8.33 0 0 0 3.25-3.219q1.172-2.062 1.172-4.594 0-2.542-1.172-4.594a8.36 8.36 0 0 0-3.25-3.218q-2.08-1.173-4.64-1.172-2.566 0-4.657 1.172a8.4 8.4 0 0 0-3.281 3.218q-1.189 2.052-1.188 4.594 0 2.532 1.188 4.594a8.36 8.36 0 0 0 3.281 3.219q2.091 1.158 4.656 1.156m48.655 1.86-4.953-6.97a16 16 0 0 1-1.735.094h-5.828v6.875h-2.281v-21.672h8.11c2.757 0 4.921.665 6.484 1.985q2.357 1.985 2.359 5.453c0 1.687-.43 3.117-1.281 4.281q-1.282 1.752-3.672 2.531l5.297 7.422Zm-6.75-8.829q3.216.001 4.922-1.422c1.132-.945 1.703-2.273 1.703-3.984 0-1.758-.57-3.11-1.703-4.047q-1.706-1.406-4.922-1.406h-5.766v10.86Zm54.189-12.844v21.672h-2.203v-17.328l-8.5 14.578h-1.094l-8.515-14.484v17.234h-2.188v-21.672h1.89l9.407 16.063 9.313-16.063Zm0 0"/></svg>