<svg xmlns="http://www.w3.org/2000/svg" width="42" height="42" version="1.0" viewBox="0 0 31.5 31.5"><defs><clipPath id="a"><path d="M0 0h30.387v30.387H0Zm0 0"/></clipPath><clipPath id="b"><path d="M15.191 0C6.801 0 0 6.8 0 15.191s6.8 15.196 15.191 15.196 15.196-6.805 15.196-15.196S23.582 0 15.19 0m0 0"/></clipPath><clipPath id="c"><path d="M3.09 3.04h24.363v24.362H3.09Zm0 0"/></clipPath></defs><g clip-path="url(#a)"><g clip-path="url(#b)"><path fill="#1d2896" d="M0 0h30.387v30.387H0Zm0 0"/></g></g><g clip-path="url(#c)"><path fill="#fff" d="M15.191 3.04C8.516 3.04 3.09 8.468 3.09 15.14s5.426 12.102 12.101 12.102c6.672 0 12.102-5.43 12.102-12.101S21.863 3.039 15.191 3.039m0 23.35c-6.214 0-11.253-5.035-11.253-11.25S8.977 3.888 15.19 3.888c6.211 0 11.25 5.039 11.25 11.254s-5.039 11.25-11.25 11.25m0 0"/></g><path fill="#fff" d="M20.32 19.504c.754-.902.2-1.43-.3-1.809s-1.676-.863-2.04-.43c-.359.434-.937.977-1.382.86-.754-.2-1.715-1.215-2.446-1.945-.73-.73-1.746-1.692-1.945-2.446-.117-.445.387-.988.86-1.382.472-.395-.024-1.497-.43-2.04-.407-.542-.907-1.054-1.813-.3-.902.754-2.043 2.754.063 5.804.539.786 1 1.235 1.695 1.93s1.148 1.16 1.93 1.7c3.054 2.105 5.054.964 5.808.058m0 0"/><path fill="#fff" d="M17.793 15.613a.417.417 0 0 1-.422-.386 2.2 2.2 0 0 0-.207-.758 2.25 2.25 0 0 0-1.094-1.094 2.3 2.3 0 0 0-.758-.207.4.4 0 0 1-.289-.148.4.4 0 0 1-.097-.313.4.4 0 0 1 .152-.285.4.4 0 0 1 .309-.098q.544.047 1.043.281c.328.157.625.36.883.622a3.1 3.1 0 0 1 .902 1.921.4.4 0 0 1-.098.313.4.4 0 0 1-.285.152Zm0 0"/><path fill="#fff" d="M19.766 15.637a.426.426 0 0 1-.426-.406 4.2 4.2 0 0 0-.356-1.512 4.3 4.3 0 0 0-.879-1.285 4.27 4.27 0 0 0-2.796-1.239.4.4 0 0 1-.293-.136.42.42 0 0 1 .027-.602.4.4 0 0 1 .305-.11 5.1 5.1 0 0 1 1.816.43c.578.258 1.094.61 1.54 1.059q.672.669 1.058 1.539.382.867.43 1.816a.4.4 0 0 1-.114.305.4.4 0 0 1-.293.137Zm0 0"/></svg>